<svg id="コンポーネント_45_10" data-name="コンポーネント 45 – 10" xmlns="http://www.w3.org/2000/svg" xmlns:xlink="http://www.w3.org/1999/xlink" width="330" height="100" viewBox="0 0 330 100">
  <defs>
    <linearGradient id="linear-gradient" x1="0.246" x2="0.695" y2="0.944" gradientUnits="objectBoundingBox">
      <stop offset="0" stop-color="#1f96d5"/>
      <stop offset="1" stop-color="#13549d"/>
    </linearGradient>
  </defs>
  <rect id="長方形_26413" data-name="長方形 26413" width="330" height="100" rx="6" fill="#fff"/>
  <rect id="長方形_26447" data-name="長方形 26447" width="20" height="100" rx="6" fill="#333" opacity="0"/>
  <g id="グループ_33029" data-name="グループ 33029" transform="translate(-570 -404.694)">
    <g id="グループ_22838" data-name="グループ 22838" transform="translate(610 425.063)">
      <path id="合体_4" data-name="合体 4" d="M22.582,10.036,32.32,39.919,10.933,47.162ZM0,1.733l21.084,2.98L10.933,36.649ZM22.582,0H44.151L41.393,3.116l3.192.9L34.68,36.35Z" transform="translate(0 6.409)" stroke="rgba(0,0,0,0)" stroke-miterlimit="10" stroke-width="1" fill="url(#linear-gradient)"/>
      <path id="パス_15424" data-name="パス 15424" d="M106.4,0l.625,4.508,1.091,7.865L104.8,11.44,91.257,53.57l23.2-10.48L125.68,9.367Z" transform="translate(-56.578 0.001)" fill="#2f3942"/>
    </g>
    <g id="グループ_32992" data-name="グループ 32992" transform="translate(680.96 432.975)">
      <path id="合体_3" data-name="合体 3" d="M14.909,13.075,9.431,31.3,4.548,15.746H0l2.352-1.957H5.987v0l3.4,10.835L14.674,7.052l7.247,18.687,6.8-22.389-.869-.274L30.865,0l.709,4.248-.986-.31-8.441,27.8Zm87.921,1.8H105l4.375,10.809,4.36-10.809h2.2L109.377,30.06ZM153.1,27.688a7.543,7.543,0,0,1-2.091-5.492,7.477,7.477,0,0,1,7.851-7.85,11.369,11.369,0,0,1,2.421.249,8.012,8.012,0,0,1,2.019.717l-.032,2.172a7.7,7.7,0,0,0-2.124-1.039,7.86,7.86,0,0,0-2.316-.346,5.5,5.5,0,0,0-4.231,1.7,6.388,6.388,0,0,0-1.576,4.527,5.582,5.582,0,0,0,1.632,4.134,5.664,5.664,0,0,0,4.174,1.625,7.216,7.216,0,0,0,2.34-.4,9.122,9.122,0,0,0,2.325-1.206v2.173a8.712,8.712,0,0,1-2.317.893,11.954,11.954,0,0,1-2.718.3A7.152,7.152,0,0,1,153.1,27.688Zm14.3-.016a7.8,7.8,0,0,1-1.937-5.508,8.186,8.186,0,0,1,1.922-5.662,6.416,6.416,0,0,1,5.027-2.155,6.069,6.069,0,0,1,4.746,1.987,7.627,7.627,0,0,1,1.784,5.3v.435H167.6a6.956,6.956,0,0,0,1.383,4.343,4.3,4.3,0,0,0,3.491,1.575,4.632,4.632,0,0,0,2.766-.852,6.3,6.3,0,0,0,1.978-2.573l1.817,1a7.889,7.889,0,0,1-2.677,3.193,7.032,7.032,0,0,1-3.885,1.022A6.585,6.585,0,0,1,167.4,27.672Zm1.737-10.286a4.568,4.568,0,0,0-1.407,2.992H176.6a4.418,4.418,0,0,0-1.3-3.04,4.428,4.428,0,0,0-3.137-1.077A4.272,4.272,0,0,0,169.14,17.386ZM118.885,27.664a8.067,8.067,0,0,1-1.874-5.564,8.3,8.3,0,0,1,1.85-5.59,6.447,6.447,0,0,1,7.923-1.368,5.226,5.226,0,0,1,2.051,2.341V14.877h1.978V29.144h-1.978V26.538a5.183,5.183,0,0,1-5,3.233A6.3,6.3,0,0,1,118.885,27.664Zm1.633-9.9a6.775,6.775,0,0,0-1.3,4.4,6.488,6.488,0,0,0,1.247,4.262,4.378,4.378,0,0,0,3.564,1.5,4.281,4.281,0,0,0,3.547-1.633,7.054,7.054,0,0,0,1.294-4.495,6.141,6.141,0,0,0-1.286-4.126,4.391,4.391,0,0,0-3.523-1.5A4.321,4.321,0,0,0,120.518,17.765Zm-32.265,9.9A8.063,8.063,0,0,1,86.379,22.1a8.293,8.293,0,0,1,1.85-5.59,6,6,0,0,1,4.777-2.164,5.909,5.909,0,0,1,3.128.8,5.258,5.258,0,0,1,2.035,2.341V4.214h2.012v24.93H98.169V26.538A5.13,5.13,0,0,1,93.2,29.772,6.3,6.3,0,0,1,88.253,27.664Zm1.633-9.9a6.775,6.775,0,0,0-1.3,4.4,6.483,6.483,0,0,0,1.247,4.262,4.373,4.373,0,0,0,3.562,1.5,4.243,4.243,0,0,0,3.524-1.633A7.091,7.091,0,0,0,98.2,21.794a6.193,6.193,0,0,0-1.271-4.126,4.774,4.774,0,0,0-7.045.1ZM51.461,28.951a5.366,5.366,0,0,1-1.979-2.412v2.606H47.5V4.214h1.979V17.483a5.264,5.264,0,0,1,2.035-2.341,5.915,5.915,0,0,1,3.129-.8,6,6,0,0,1,4.777,2.164,8.3,8.3,0,0,1,1.85,5.59A8.063,8.063,0,0,1,59.4,27.664a6.3,6.3,0,0,1-4.945,2.107A5.388,5.388,0,0,1,51.461,28.951Zm-.74-11.282a6.193,6.193,0,0,0-1.271,4.126,7.044,7.044,0,0,0,1.3,4.495,4.278,4.278,0,0,0,3.547,1.633,4.345,4.345,0,0,0,3.539-1.488,6.508,6.508,0,0,0,1.239-4.27,6.779,6.779,0,0,0-1.3-4.4,4.776,4.776,0,0,0-7.047-.1Zm-18.481,10A7.8,7.8,0,0,1,30.3,22.164,8.186,8.186,0,0,1,32.224,16.5a6.416,6.416,0,0,1,5.026-2.155A6.07,6.07,0,0,1,42,16.333a7.632,7.632,0,0,1,1.785,5.3v.435H32.44a6.956,6.956,0,0,0,1.384,4.343,4.3,4.3,0,0,0,3.491,1.575,4.625,4.625,0,0,0,2.766-.852A6.285,6.285,0,0,0,42.06,24.56l1.818,1A7.9,7.9,0,0,1,41.2,28.75a7.032,7.032,0,0,1-3.885,1.022A6.583,6.583,0,0,1,32.24,27.672Zm1.737-10.286a4.564,4.564,0,0,0-1.407,2.992h8.863a4.419,4.419,0,0,0-1.3-3.04,4.423,4.423,0,0,0-3.137-1.077A4.272,4.272,0,0,0,33.976,17.386ZM145.46,29.144v-8.8a4.785,4.785,0,0,0-.893-3.177,3.449,3.449,0,0,0-2.759-1.037,4.007,4.007,0,0,0-3.337,1.343A6.752,6.752,0,0,0,137.4,21.7v7.447h-1.979V14.877h1.883v2.2a5.792,5.792,0,0,1,2.131-2.05,5.991,5.991,0,0,1,2.9-.684,5.112,5.112,0,0,1,3.78,1.351,5.088,5.088,0,0,1,1.351,3.763v9.683Zm-62.776,0L77.519,15.727,66.937,29.144H64.764l.281-.665-.1-.037.244-.294L75.107,4.664l3.13,7.732,3.695-4.459-1.067-.8,3.866-1.9L83.989,9.48l-.969-.727L78.884,14l6.131,15.148ZM69.343,23.13l7.529-9.086L74.963,9.087Z" transform="translate(0 0)" fill="#232b33" stroke="rgba(0,0,0,0)" stroke-miterlimit="10" stroke-width="1"/>
      <path id="パス_50498" data-name="パス 50498" d="M-199.576-26.676h-.96l1.8-14.52h.02l5.78,9.94-.46-.06,8.24-9.88h.02l-1.8,14.52h-.96l1.5-12.26.02.48-6.94,8.34h-.04l-4.94-8.34.22-.44Zm20.96-14.2h8.76l-.12.92h-7.76l-.7,5.68h6.98l-.12.92h-6.98l-.68,5.74h8.04l-.12.94h-9.04Zm13.04,14.2,1.74-14.2h3.26a9.265,9.265,0,0,1,3.43.55,5.5,5.5,0,0,1,2.17,1.48,5.334,5.334,0,0,1,1.12,2.12,8.01,8.01,0,0,1,.26,2.47,8.257,8.257,0,0,1-.68,3.24,6.839,6.839,0,0,1-1.74,2.38,7.643,7.643,0,0,1-2.53,1.46,9.3,9.3,0,0,1-3.09.5Zm1.08-.94h2.94a8.329,8.329,0,0,0,2.67-.42,6.427,6.427,0,0,0,2.21-1.26,5.876,5.876,0,0,0,1.51-2.09,7.585,7.585,0,0,0,.59-2.89,6.945,6.945,0,0,0-.28-2.29,4.427,4.427,0,0,0-1.04-1.78,4.8,4.8,0,0,0-1.82-1.16,7.508,7.508,0,0,0-2.62-.41H-163Zm17.42-13.26h1l-1.74,14.2h-1Zm5.54,14.2h-.98l7.82-14.82h.08l4.18,14.82h-1.1l-3.64-13.14.74-.38Zm2.62-5.62h6.3l.16.92h-6.82Z" transform="translate(300.814 78.027)" fill="#e60013"/>
      <path id="線_1289" data-name="線 1289" d="M17.857-.143H0V-.5H17.857Z" transform="translate(72.969 48.458)" fill="#e60013"/>
    </g>
  </g>
</svg>
