<svg xmlns="http://www.w3.org/2000/svg" xmlns:xlink="http://www.w3.org/1999/xlink" width="390" height="92" viewBox="0 0 390 92">
  <defs>
    <clipPath id="clip-path">
      <rect width="390" height="92" fill="none"/>
    </clipPath>
  </defs>
  <g id="リピートグリッド_6" data-name="リピートグリッド 6" clip-path="url(#clip-path)">
    <g transform="translate(0.973 -8053.998)">
      <path id="合体_9" data-name="合体 9" d="M20154.5,22294.916c-.279-.129-1.137-.514-2.2-3.2a22.993,22.993,0,0,1-1.119-3.775c-.264-.018-.543-.023-.834-.023-1.1,0-2.26.084-3.379.168-.414.033-.816.057-1.215.084a20.774,20.774,0,0,0-.721,1.992,19.736,19.736,0,0,1-1.137,2.971c-.027.057-.061.135-.1.219-.178.42-.541,1.3-1.516,1.3a1.194,1.194,0,0,1-.189-.01c-.437-.057-1.2-.354-1.443-1.7a13.226,13.226,0,0,1,.055-3.24c.029-.336.063-.766.09-1.176-.012.029-.018.057-.027.084-.191.621-.348,1.383-.492,2.121a18.044,18.044,0,0,1-.51,2.133c-.521,1.5-1.389,1.773-1.9,1.789a1.05,1.05,0,0,1-.141.012h-25.324a.979.979,0,0,1-.979-.979V22260l-16.625-10-16.629,10v33.7a.984.984,0,0,1-.979.984h-7.459a.98.98,0,0,1-.979-.984v-62.332h-28.918v62.332a1,1,0,0,1-.285.7.97.97,0,0,1-.687.285l-8.146-.012a.979.979,0,0,1-.975-.979v-54.879l-23.947,11.834a.98.98,0,0,1-1.41-.885v-10.949l-23.107,11.414a.974.974,0,0,1-1.41-.879v-10.535l-23.955,11.834a.984.984,0,0,1-1.41-.885v-18.156h-2.791a.968.968,0,0,1-.816-.447,1.046,1.046,0,0,1-.123-.275.981.981,0,0,1-.947.723h-2.287v62.086a.977.977,0,0,1-.98.979h-36.609a.979.979,0,0,0-1.936.006h-15.264a.969.969,0,0,1-.969-.918l-.543-9.047a.985.985,0,0,1,.975-1.041h5.416a4.742,4.742,0,0,0,4.066-2.109c1.059-1.65.975-4.018-.24-6.664a.237.237,0,0,1-.01-.027c-.045-.1-4.17-9.844-7.3-18.393a19.014,19.014,0,0,0-2.205-4.521c-.564-.777-1.119-1.225-1.566-1.252-.447.027-1.008.475-1.572,1.252a19.165,19.165,0,0,0-2.205,4.521c-3.133,8.549-7.262,18.291-7.3,18.393a.047.047,0,0,1-.012.021c-1.236,2.748-1.326,5.064-.268,6.709a4.776,4.776,0,0,0,4.1,2.07h5.41a.992.992,0,0,1,.717.313.975.975,0,0,1,.262.729l-.537,9.047a.979.979,0,0,1-.979.918h-20.361a.976.976,0,0,1-.975-.979v-71.682l-40.811,15.482v56.2a.977.977,0,0,1-.98.979h-20.787a.974.974,0,0,1-.973-.918l-.543-9.047a.985.985,0,0,1,.975-1.041h5.416a3.789,3.789,0,0,0,3.115-1.275c1.164-1.437,1.389-4.1.645-7.7-.117-.5-4.174-18.141-7.246-26.521a19.036,19.036,0,0,0-2.205-4.527c-.564-.777-1.119-1.225-1.566-1.254-.447.029-1,.477-1.572,1.254a19.022,19.022,0,0,0-2.2,4.527c-3.076,8.375-7.133,26-7.252,26.521-.744,3.6-.514,6.262.65,7.7a3.778,3.778,0,0,0,3.111,1.275h5.416a.989.989,0,0,1,.711.313.975.975,0,0,1,.262.729l-.537,9.047a.979.979,0,0,1-.979.918h-35.486a.974.974,0,0,1-.973-.918l-.891-14.9a.977.977,0,0,1,.588-.957c.2-.088.4-.178.609-.285a.976.976,0,0,1,1.008.078c1.605,1.152,3.99,1.74,7.09,1.74,6.188,0,9.73-2.842,9.73-7.789a6.408,6.408,0,0,0-.689-2.869.978.978,0,0,1,.381-1.287,8.462,8.462,0,0,0,4.146-8.314c-.252-3.979-3.5-7.414-8.27-8.752a.979.979,0,0,1-.7-1.135,7.353,7.353,0,0,0,.146-1.488c0-3.537-3.5-6.418-7.816-6.418a8.874,8.874,0,0,0-3.621.789.968.968,0,0,1-1.012-.123,9.962,9.962,0,0,0-6.211-2.064c-4.717,0-8.852,3.328-8.852,7.117,0,.3.016.609.049.973a.98.98,0,0,1-.732,1.041c-3.441.861-6.02,3.2-6.574,5.947-.639,3.156.117,5.344,2.316,6.688a.981.981,0,0,1,.225,1.477,8.57,8.57,0,0,0-2.223,6.893c1.064,7.018,5.932,10.033,14.885,9.223a24.251,24.251,0,0,0,3.229-.5.975.975,0,0,1,1.191,1.012l-.828,13.91a.979.979,0,0,1-.975.918h-36.766l-.1.066a.972.972,0,0,1-1.426-.486,3.155,3.155,0,0,1,.357-2.562,2.92,2.92,0,0,0,.348-1.018,2.79,2.79,0,0,0-.576-1.236,61.222,61.222,0,0,1-5.686-10.6c-.732,2.1-1.26,4.234-1.807,6.451a63.757,63.757,0,0,1-2.3,7.85,2.161,2.161,0,0,1-.682,1,.98.98,0,0,1-.873.537h-29.594a.975.975,0,0,1-.979-.979v-33.645a.977.977,0,0,1,.979-.98h2.848l-3.027-6.277h-57.877l-3.027,6.277h2.848a.974.974,0,0,1,.975.98v33.645a.972.972,0,0,1-.975.979h-19.746a.975.975,0,0,1-.979-.979v-29.98a.98.98,0,0,1,.979-.984h.9l-26.146-12.926-26.146,12.926h.906a.981.981,0,0,1,.975.984v29.98a.976.976,0,0,1-.975.979h-17.295a.97.97,0,0,1-.973-.918l-.543-9.047a.973.973,0,0,1,.979-1.035h5.41a3.8,3.8,0,0,0,3.117-1.281c1.164-1.437,1.387-4.1.648-7.7-.117-.492-4.174-18.135-7.25-26.521a19.327,19.327,0,0,0-2.2-4.527c-.572-.777-1.125-1.219-1.572-1.254-.449.035-1.008.477-1.572,1.254a19.174,19.174,0,0,0-2.2,4.527c-3.072,8.375-7.129,25.979-7.252,26.521-.738,3.6-.52,6.262.648,7.7a3.784,3.784,0,0,0,3.111,1.281h5.416a.976.976,0,0,1,.711.307,1.014,1.014,0,0,1,.27.729l-.543,9.047a.979.979,0,0,1-.975.918h-27.82a.977.977,0,0,1-.979-.979v-62.332H19464v62.332a.981.981,0,0,1-.98.979h-10.031a.976.976,0,0,1-.975-.979v-34.232c-.061-.4-1.252-2.127-4.441-3.922a24.713,24.713,0,0,0-12.187-3.061,25.619,25.619,0,0,0-12.348,2.977c-3.027,1.672-4.281,3.43-4.281,3.994v34.244a.975.975,0,0,1-.979.979h-6.324a.974.974,0,0,1-.973-.979v-26.689l-18.609-8.029-18.611,8.029v26.689a.979.979,0,0,1-.979.979h-22.443a.975.975,0,0,1-.979-.979v-.068a.978.978,0,0,1,.9-.979,1.029,1.029,0,0,0,.711-.5,2.9,2.9,0,0,0,.48-2.092,1.677,1.677,0,0,0-2.227-1.277.971.971,0,0,1-1.1-.369.982.982,0,0,1,.021-1.158,4.091,4.091,0,0,0,.783-1.672,1.893,1.893,0,0,0-.453-1.662c-.789-.912-1.561-.975-3.312-.258a.985.985,0,0,1-1.006-.168,1,1,0,0,1-.309-.979c.52-2.121.141-3.375-1.27-4.186-.846-.486-2.244-.891-4.639,1.254a.977.977,0,0,1-1.623-.627c-.246-2.256-1.1-3.385-2.854-3.777-1.965-.432-3.211.615-4.482,2.328a.975.975,0,0,1-1.605-.062c-1.23-1.941-2.664-2.68-4.51-2.322-1.51.291-2.535,2-2.764,3.525a.977.977,0,0,1-1.893.174,2.926,2.926,0,0,0-1.482-1.018,2.388,2.388,0,0,0-1.957.117c-1.359.766-1.455,1.779-1.461,4.531v.186a.977.977,0,1,1-1.953,0v-42.861h-13.395a.981.981,0,0,1-.98-.979v-8.789h-27.1v8.789a.983.983,0,0,1-.979.979h-50.621v53.918a.975.975,0,0,1-.979.979,1.037,1.037,0,0,1-.135-.006h-17.973a1.037,1.037,0,0,1-.135.006,1.184,1.184,0,0,1-.2-.018c-1.348-.156-2.109-1.711-2.361-2.227a20.22,20.22,0,0,1-.877-2.2,22.628,22.628,0,0,1,.2,2.508,3.934,3.934,0,0,1-.141,1.17,1.413,1.413,0,0,1-1.1,1.074,1.065,1.065,0,0,1-.174.016.966.966,0,0,1-.4-.084c-.285-.129-1.141-.514-2.2-3.2a22.975,22.975,0,0,1-1.113-3.775c-.264-.018-.543-.023-.84-.023-1.1,0-2.256.084-3.375.168-.414.033-.816.057-1.213.084-.285.648-.5,1.3-.723,1.992a19.781,19.781,0,0,1-1.141,2.971c-.023.057-.057.135-.09.219-.18.42-.543,1.3-1.521,1.3a1.182,1.182,0,0,1-.186-.01c-.436-.057-1.2-.354-1.443-1.7a13.5,13.5,0,0,1,.051-3.24c.033-.336.066-.766.1-1.176-.012.029-.018.057-.029.084a21.329,21.329,0,0,0-.492,2.121,17.3,17.3,0,0,1-.51,2.133c-.52,1.5-1.387,1.773-1.9,1.789a1.048,1.048,0,0,1-.139.012h-25.324a.977.977,0,0,1-.98-.979V22260l-16.629-10-16.629,10v33.7a.981.981,0,0,1-.975.984h-7.463a.981.981,0,0,1-.975-.984v-62.332h-28.916v62.332a1,1,0,0,1-.285.7.98.98,0,0,1-.693.285l-8.143-.012a.978.978,0,0,1-.973-.979v-54.879l-23.953,11.834a.984.984,0,0,1-1.41-.885v-10.949l-23.1,11.414a.975.975,0,0,1-1.41-.879v-10.535l-23.953,11.834a.993.993,0,0,1-.951-.051.982.982,0,0,1-.459-.834v-18.156h-2.793a.97.97,0,0,1-.816-.447.6.6,0,1,0-1.068.447h-2.289v62.086a.975.975,0,0,1-.979.979h-36.609a.981.981,0,0,1,0-1.963h35.631v-62.08a.981.981,0,0,1,.979-.98h2.557c.039-.1.084-.2.123-.291a12.07,12.07,0,0,0,1.215-3.811c.117-1.605.262-3.613,1.516-5.113a4.088,4.088,0,0,1,3.369-1.4,3.187,3.187,0,0,1,1.365.414,12.219,12.219,0,0,1,3.676-3.111,22.965,22.965,0,0,1,5.176-1.93,13.113,13.113,0,0,1,6.949.123c.15.049.324.117.51.189a10.579,10.579,0,0,0,1.1.369c.146-.123.3-.246.453-.375a13.76,13.76,0,0,1,3.979-2.518,21.3,21.3,0,0,1,7.84-1.2,18.221,18.221,0,0,1,8,1.818c1.369.643,3.262,1.74,3.893,3.771a6.106,6.106,0,0,1-.273,3.939,7.785,7.785,0,0,1-2.254,3.189,15.275,15.275,0,0,1-5.59,3.037,18.554,18.554,0,0,1-7.275.594,7.965,7.965,0,0,1-3.568-1.5,15.27,15.27,0,0,1-6.916,3.162,11.618,11.618,0,0,1-8.17-1.494c-.135-.078-.268-.162-.4-.246a17.286,17.286,0,0,0-2.311-1.3,18.3,18.3,0,0,1-2.289.348,16.012,16.012,0,0,0-2.736.475,6.4,6.4,0,0,0-3.234,2.854h2.232a.979.979,0,0,1,.98.98v17.563l23.947-11.834a.978.978,0,0,1,1.41.885v10.535l23.109-11.42a1,1,0,0,1,.945.045.986.986,0,0,1,.459.84v10.949l23.953-11.834a.975.975,0,0,1,1.41.885v55.467l6.188.01v-62.332a.977.977,0,0,1,.975-.979h30.869a.977.977,0,0,1,.979.979v62.332h5.506v-33.27a.982.982,0,0,1,.477-.844l17.607-10.582a.954.954,0,0,1,1,0l17.607,10.582a.976.976,0,0,1,.471.844v33.26h22.6a.822.822,0,0,1-.012-.123,12.532,12.532,0,0,1,.309-3.285,10.747,10.747,0,0,0,.291-2.854,20.44,20.44,0,0,0-.773-2.832c-.066-.189-.123-.369-.172-.525a50.191,50.191,0,0,1-1.854-7.24,29.528,29.528,0,0,1-.307-7.475c.123-1.578.459-4.377,1.336-5.445a1.418,1.418,0,0,1,1.115-.57,1.227,1.227,0,0,1,.508.105c1.047.414,1.215,1.725,1.281,2.223a25.753,25.753,0,0,1,.129,3.094,26.667,26.667,0,0,0,.777,7.391c.7,2.277,1.271,2.523,1.422,2.541.129.018.33.057.771.145a50.971,50.971,0,0,0,9.316,1.154c2.76,0,4.18-.482,4.908-.951l.721-2.1c.029-.117.068-.24.1-.363a9.94,9.94,0,0,1,1.393-3.2.972.972,0,0,1,.846-.385.96.96,0,0,1,.783.5,11.366,11.366,0,0,1,.85,1.938c.063.178.113.33.162.441.1.027.2.057.291.084a1.8,1.8,0,0,0,.521.117,1.01,1.01,0,0,0,.414-.105,4.533,4.533,0,0,0,.559-1.3c.117-.357.236-.732.393-1.1a.975.975,0,0,1,1.773-.068,19.415,19.415,0,0,1,1.416,3.8c.123.453.246.883.4,1.33a5.72,5.72,0,0,1-.156,3.648,4.4,4.4,0,0,1-4.488,3.168,9.007,9.007,0,0,1-1.287-.1c.057,1.512.336,3.48.576,5.131.213,1.488.354,2.5.393,3.213h16.125V22238.8a.976.976,0,0,1,.975-.979h50.621v-8.791a.979.979,0,0,1,.979-.979h29.057a.978.978,0,0,1,.973.979v8.791h13.4a.977.977,0,0,1,.979.979v37.734c.156-.111.324-.217.5-.324a4.363,4.363,0,0,1,3.771-.184,5.906,5.906,0,0,1,1.09.576,5.486,5.486,0,0,1,3.822-3.408,5.581,5.581,0,0,1,4.246.777,6.874,6.874,0,0,1,1.5,1.344,5.587,5.587,0,0,1,5.641-2.049,5.144,5.144,0,0,1,3.385,2.3,5.9,5.9,0,0,1,.672,1.533,6.979,6.979,0,0,1,1.953-.924,4.581,4.581,0,0,1,3.658.453,4.637,4.637,0,0,1,2.379,3.2,5.741,5.741,0,0,1,.084,1.494,4.017,4.017,0,0,1,4.84,4.594,5,5,0,0,1-.246.895,3.626,3.626,0,0,1,.951.363,3.693,3.693,0,0,1,1.779,2.385,4.843,4.843,0,0,1-.437,3.154h18.9v-26.354a.986.986,0,0,1,.592-.9l19.59-8.449a.98.98,0,0,1,.771,0l19.584,8.449a.978.978,0,0,1,.594.9v26.354h4.369v-33.264a4.746,4.746,0,0,1,1.512-2.91,15.907,15.907,0,0,1,3.781-2.8,28.775,28.775,0,0,1,20.838-2.2,25,25,0,0,1,5.773,2.395c2.619,1.5,5.266,3.795,5.266,5.518v33.264h8.068v-62.332a.978.978,0,0,1,.979-.979h38.568a.978.978,0,0,1,.98.979v62.332h25.918l.424-7.078h-4.381a5.722,5.722,0,0,1-4.627-2.008c-1.572-1.936-1.926-5.08-1.041-9.344v-.023c.045-.178,4.174-18.189,7.324-26.773a20.842,20.842,0,0,1,2.457-5,4.162,4.162,0,0,1,3.121-2.053h.057a4.177,4.177,0,0,1,3.123,2.053,21.069,21.069,0,0,1,2.455,5c3.15,8.584,7.279,26.6,7.324,26.773v.023c.885,4.264.531,7.408-1.041,9.344a5.731,5.731,0,0,1-4.633,2.008h-4.375l.42,7.078h15.4V22264.7h-4.125a.981.981,0,0,1-.43-1.857l30.344-15a.968.968,0,0,1,.861,0l30.344,15a.975.975,0,0,1,.52,1.1.985.985,0,0,1-.951.76h-4.123v28.021h17.793v-31.68h-3.43a.98.98,0,0,1-.879-1.41l3.979-8.242a.98.98,0,0,1,.879-.555h59.1a.979.979,0,0,1,.877.555l3.979,8.242a.98.98,0,0,1-.879,1.41h-3.43v31.68h22.795a1.776,1.776,0,0,1-.867-1.018,1.273,1.273,0,0,1,.186-1.068,1.362,1.362,0,0,1,1.158-.555,3.493,3.493,0,0,1,.375.027l1.852.3a.162.162,0,0,0,.057.012c1.678-3.295,1.785-7.039,1.9-11a48.562,48.562,0,0,1,.555-7.135c.1-.525.207-1.041.33-1.561a18.353,18.353,0,0,1-4.2,2.232,9.085,9.085,0,0,1-2.836.564,2.523,2.523,0,0,1-1.992-.727,1.826,1.826,0,0,1-.42-1.467,2,2,0,0,1,1.141-1.51,13.787,13.787,0,0,1,1.686-.768,12.332,12.332,0,0,0,2.914-1.5,41.537,41.537,0,0,0,7.291-7.561c.072-.1.15-.2.225-.291a10.505,10.505,0,0,1-2.7-4.633,5.933,5.933,0,0,1,.375-3.529,4.045,4.045,0,0,1,3.01-2.357,2.771,2.771,0,0,1,.475-.033,4.276,4.276,0,0,1,3.918,3.246,6.725,6.725,0,0,1-.957,5.08,16.969,16.969,0,0,1-1.506,2.109c.107.1.168.162.168.162a.781.781,0,0,1,.09.09,44.223,44.223,0,0,0,7.252,6.736c.453.336,1.213.828,2.02,1.344a20.31,20.31,0,0,1,3.625,2.613,2.038,2.038,0,0,1,.555,1.729,1.757,1.757,0,0,1-.939,1.215,2.544,2.544,0,0,1-1.215.268,5.783,5.783,0,0,1-2.238-.514,22.11,22.11,0,0,1-5.371-3.146,55.667,55.667,0,0,0,4.879,14.984,14.456,14.456,0,0,0,1.959,3.391l.027.023a2.306,2.306,0,0,1,.711,1.689,2.214,2.214,0,0,1-.816,1.4c-.437.4-.891.783-1.35,1.152h33.086l.7-11.711c-.711.123-1.455.219-2.217.285a24.923,24.923,0,0,1-7.268-.285,13.039,13.039,0,0,1-5.125-2.209,12.243,12.243,0,0,1-4.6-8.389,10.271,10.271,0,0,1,2.008-7.625,6.693,6.693,0,0,1-2.215-3.252,9.714,9.714,0,0,1-.1-4.855c.654-3.264,3.453-6.039,7.225-7.236-.006-.117-.006-.229-.006-.34a7.531,7.531,0,0,1,.934-3.615,9.605,9.605,0,0,1,2.43-2.877,12.195,12.195,0,0,1,14.4-.447,10.844,10.844,0,0,1,10.73,1.656,7.785,7.785,0,0,1,2.928,5.982,9.889,9.889,0,0,1-.051.99,14.475,14.475,0,0,1,5.869,3.664,10.542,10.542,0,0,1,2.994,6.6,10.426,10.426,0,0,1-4.377,9.662,8.224,8.224,0,0,1,.543,2.932,9.088,9.088,0,0,1-2.836,6.922c-2.049,1.875-5.025,2.826-8.852,2.826a15.34,15.34,0,0,1-7.275-1.512l.768,12.836h33.645l.42-7.078h-4.375a5.726,5.726,0,0,1-4.629-2.008c-1.572-1.936-1.924-5.08-1.045-9.344,0-.006.006-.012.006-.023.039-.178,4.174-18.189,7.318-26.773a21.2,21.2,0,0,1,2.461-5,4.164,4.164,0,0,1,3.123-2.053h.055a4.174,4.174,0,0,1,3.123,2.053,21.058,21.058,0,0,1,2.457,5c3.145,8.584,7.279,26.6,7.318,26.773,0,.012.006.018.006.023.877,4.264.531,7.408-1.047,9.344a5.722,5.722,0,0,1-4.627,2.008h-4.377l.426,7.078h18.891v-55.9a.979.979,0,0,1,.627-.912l42.764-16.227a.981.981,0,0,1,1.326.918v72.123h18.465l.42-7.078h-4.375a6.74,6.74,0,0,1-5.742-2.971,6.863,6.863,0,0,1-1.035-3.727,11.95,11.95,0,0,1,1.164-4.852c.152-.363,4.191-9.908,7.264-18.291a21.016,21.016,0,0,1,2.461-5,4.165,4.165,0,0,1,3.117-2.053h.057a4.162,4.162,0,0,1,3.121,2.053,21.085,21.085,0,0,1,2.463,5c3.061,8.365,7.088,17.895,7.262,18.291a11.531,11.531,0,0,1,1.152,4.8,6.919,6.919,0,0,1-1.051,3.736,6.7,6.7,0,0,1-5.713,3.016h-4.377l.42,7.078h14.342a.979.979,0,0,0,1.936-.01h35.637v-62.08a.976.976,0,0,1,.973-.98h2.559c.039-.1.084-.2.123-.291a12.063,12.063,0,0,0,1.213-3.811c.117-1.605.264-3.613,1.518-5.113a4.087,4.087,0,0,1,3.367-1.4,3.178,3.178,0,0,1,1.365.414,12.193,12.193,0,0,1,3.682-3.111,22.787,22.787,0,0,1,5.176-1.93,13.115,13.115,0,0,1,6.949.123c.146.049.32.117.51.189a10.5,10.5,0,0,0,1.092.369c.15-.123.3-.246.453-.375a13.733,13.733,0,0,1,3.979-2.518,21.307,21.307,0,0,1,7.844-1.2,18.215,18.215,0,0,1,7.99,1.818c1.371.643,3.262,1.74,3.895,3.771a6.119,6.119,0,0,1-.273,3.939,7.753,7.753,0,0,1-2.256,3.189,15.214,15.214,0,0,1-5.59,3.037,18.539,18.539,0,0,1-7.273.594,7.971,7.971,0,0,1-3.57-1.5,15.27,15.27,0,0,1-6.916,3.162,11.613,11.613,0,0,1-8.168-1.494c-.135-.078-.264-.162-.4-.246a17.047,17.047,0,0,0-2.311-1.3,18.244,18.244,0,0,1-2.289.348,16.024,16.024,0,0,0-2.734.475,6.4,6.4,0,0,0-3.234,2.854h2.232a.977.977,0,0,1,.979.98v17.563l23.947-11.834a.977.977,0,0,1,1.41.885v10.535l23.109-11.42a.978.978,0,0,1,1.41.885v10.949l23.953-11.834a.972.972,0,0,1,1.4.885v55.467l6.189.01v-62.332a.977.977,0,0,1,.979-.979h30.869a.973.973,0,0,1,.975.979v62.332h5.51v-33.27a.976.976,0,0,1,.471-.844l17.609-10.582a.951.951,0,0,1,1,0l17.609,10.582a.98.98,0,0,1,.475.844v33.26h22.6a.506.506,0,0,1-.016-.123,12.462,12.462,0,0,1,.313-3.285,10.8,10.8,0,0,0,.285-2.854,19.627,19.627,0,0,0-.771-2.832c-.062-.189-.123-.369-.168-.525a50.154,50.154,0,0,1-1.857-7.24,29.522,29.522,0,0,1-.309-7.475c.129-1.578.465-4.377,1.338-5.445a1.417,1.417,0,0,1,1.119-.57,1.222,1.222,0,0,1,.5.105c1.045.414,1.219,1.725,1.281,2.223a26.167,26.167,0,0,1,.129,3.094,26.593,26.593,0,0,0,.777,7.391c.7,2.277,1.27,2.523,1.426,2.541.129.018.326.057.768.145a50.947,50.947,0,0,0,9.316,1.154c2.764,0,4.18-.482,4.906-.951l.723-2.1c.033-.117.066-.24.105-.363a9.759,9.759,0,0,1,1.389-3.2.976.976,0,0,1,1.633.117,11.6,11.6,0,0,1,.846,1.938c.061.178.111.33.162.441.1.027.2.057.291.084a1.8,1.8,0,0,0,.52.117,1.01,1.01,0,0,0,.414-.105,4.422,4.422,0,0,0,.561-1.3c.117-.357.234-.732.391-1.1a.975.975,0,0,1,1.773-.068,19.04,19.04,0,0,1,1.416,3.8c.129.453.252.883.4,1.33a5.72,5.72,0,0,1-.156,3.648,4.393,4.393,0,0,1-4.486,3.168,8.984,8.984,0,0,1-1.287-.1c.061,1.512.336,3.48.576,5.131.213,1.488.352,2.5.391,3.213h16.127V22238.8a.975.975,0,0,1,.979-.979h50.615v-8.791a.983.983,0,0,1,.979-.979h29.057a.976.976,0,0,1,.975.979v8.791h13.4a.974.974,0,0,1,.973.979v37.734c.158-.111.326-.217.51-.324a4.349,4.349,0,0,1,3.766-.184,5.862,5.862,0,0,1,1.092.576,5.483,5.483,0,0,1,3.82-3.408,5.586,5.586,0,0,1,4.248.777,6.874,6.874,0,0,1,1.5,1.344,5.589,5.589,0,0,1,5.645-2.049,5.167,5.167,0,0,1,3.385,2.3,6.03,6.03,0,0,1,.672,1.533,6.9,6.9,0,0,1,1.947-.924,4.877,4.877,0,0,1,6.037,3.654,5.927,5.927,0,0,1,.09,1.494,4.014,4.014,0,0,1,4.834,4.594,4.427,4.427,0,0,1-.246.895,3.549,3.549,0,0,1,.951.363,3.681,3.681,0,0,1,1.779,2.385,4.842,4.842,0,0,1-.436,3.154h18.9v-26.354a.979.979,0,0,1,.588-.9l19.588-8.449a.985.985,0,0,1,.773,0l19.584,8.449a.976.976,0,0,1,.592.9v26.354h4.371v-33.264a4.731,4.731,0,0,1,1.516-2.91,15.879,15.879,0,0,1,3.777-2.8,28.785,28.785,0,0,1,20.842-2.2,25.007,25.007,0,0,1,5.77,2.395c2.617,1.5,5.266,3.795,5.266,5.518v33.264h8.068v-62.332a.977.977,0,0,1,.979-.979h38.568a.977.977,0,0,1,.979.979v62.332h25.918l.426-7.078h-4.381a5.726,5.726,0,0,1-4.629-2.008c-1.572-1.936-1.924-5.08-1.039-9.344v-.023c.045-.178,4.174-18.189,7.324-26.773a21.22,21.22,0,0,1,2.455-5,4.164,4.164,0,0,1,3.123-2.053h.055a4.164,4.164,0,0,1,3.123,2.053,21.064,21.064,0,0,1,2.457,5c3.15,8.584,7.279,26.6,7.324,26.773v.023c.883,4.264.531,7.408-1.041,9.344a5.722,5.722,0,0,1-4.627,2.008h-4.377l.42,7.078h15.393V22264.7h-4.123a.98.98,0,0,1-.426-1.857l30.338-15a.981.981,0,0,1,.867,0l30.338,15a.979.979,0,0,1-.43,1.857h-4.119v28.021h17.793v-31.68h-3.43a.98.98,0,0,1-.879-1.41l3.973-8.242a.98.98,0,0,1,.879-.555h59.1a.98.98,0,0,1,.879.555l3.979,8.242a.98.98,0,0,1-.879,1.41h-3.43v31.68h22.795a1.79,1.79,0,0,1-.867-1.018,1.274,1.274,0,0,1,.189-1.068,1.352,1.352,0,0,1,1.152-.555,3.423,3.423,0,0,1,.375.027l1.854.3a.151.151,0,0,0,.055.012c1.68-3.295,1.785-7.039,1.9-11a48.042,48.042,0,0,1,.561-7.135c.1-.525.207-1.041.33-1.561a18.482,18.482,0,0,1-4.2,2.232,9.034,9.034,0,0,1-2.836.564,2.526,2.526,0,0,1-1.992-.727,1.826,1.826,0,0,1-.42-1.467,2,2,0,0,1,1.143-1.51,13.75,13.75,0,0,1,1.684-.768,12.234,12.234,0,0,0,2.916-1.5,41.463,41.463,0,0,0,7.289-7.561c.074-.1.152-.2.225-.291a10.543,10.543,0,0,1-2.7-4.633,5.994,5.994,0,0,1,.375-3.529,4.051,4.051,0,0,1,3.01-2.357,2.808,2.808,0,0,1,.477-.033,4.284,4.284,0,0,1,3.922,3.246,6.769,6.769,0,0,1-.957,5.08,17.627,17.627,0,0,1-1.51,2.109l.168.162a.558.558,0,0,1,.09.09,44.369,44.369,0,0,0,7.25,6.736c.453.336,1.215.828,2.025,1.344a20.464,20.464,0,0,1,3.621,2.613,2.044,2.044,0,0,1,.555,1.729,1.755,1.755,0,0,1-.941,1.215,2.52,2.52,0,0,1-1.209.268,5.816,5.816,0,0,1-2.242-.514,22.2,22.2,0,0,1-5.373-3.146,55.675,55.675,0,0,0,4.881,14.984,14.4,14.4,0,0,0,1.963,3.391l.023.023a2.3,2.3,0,0,1,.709,1.689,2.181,2.181,0,0,1-.816,1.4c-.436.4-.889.783-1.348,1.152h33.09l.7-11.711c-.715.123-1.461.219-2.221.285a24.883,24.883,0,0,1-7.264-.285,12.977,12.977,0,0,1-5.125-2.209,12.256,12.256,0,0,1-4.605-8.389,10.272,10.272,0,0,1,2.01-7.625,6.71,6.71,0,0,1-2.217-3.252,9.716,9.716,0,0,1-.094-4.855c.654-3.264,3.451-6.039,7.223-7.236,0-.117-.006-.229-.006-.34a7.533,7.533,0,0,1,.936-3.615,9.535,9.535,0,0,1,2.434-2.877,12.186,12.186,0,0,1,14.4-.447,10.722,10.722,0,0,1,3.889-.738,10.61,10.61,0,0,1,6.844,2.395,7.789,7.789,0,0,1,2.926,5.982,9.889,9.889,0,0,1-.051.99,14.449,14.449,0,0,1,5.869,3.664,10.521,10.521,0,0,1,2.994,6.6,10.413,10.413,0,0,1-4.375,9.662,8.267,8.267,0,0,1,.543,2.932,9.089,9.089,0,0,1-2.838,6.922c-2.047,1.875-5.023,2.826-8.846,2.826a15.335,15.335,0,0,1-7.279-1.512l.766,12.836h33.645l.426-7.078h-4.381a5.727,5.727,0,0,1-4.627-2.008c-1.572-1.936-1.926-5.08-1.041-9.344v-.023c.045-.178,4.174-18.189,7.324-26.773a21.064,21.064,0,0,1,2.457-5,4.171,4.171,0,0,1,3.121-2.053h.057a4.162,4.162,0,0,1,3.121,2.053,20.984,20.984,0,0,1,2.457,5c3.15,8.584,7.279,26.6,7.318,26.773a.044.044,0,0,1,.006.023c.879,4.264.531,7.408-1.041,9.344a5.731,5.731,0,0,1-4.633,2.008h-4.375l.426,7.078h18.889v-55.9a.976.976,0,0,1,.633-.912l42.76-16.227a.981.981,0,0,1,1.326.918v72.123h18.465l.418-7.078h-4.375a6.739,6.739,0,0,1-5.74-2.971,6.846,6.846,0,0,1-1.035-3.727,12.014,12.014,0,0,1,1.164-4.852c.156-.363,4.189-9.908,7.268-18.291a20.88,20.88,0,0,1,2.457-5,4.162,4.162,0,0,1,3.121-2.053h.051a4.168,4.168,0,0,1,3.123,2.053,21.166,21.166,0,0,1,2.461,5c3.066,8.365,7.09,17.895,7.264,18.291a11.562,11.562,0,0,1,1.152,4.8,6.92,6.92,0,0,1-1.053,3.736,6.7,6.7,0,0,1-5.713,3.016h-4.375l.42,7.078H20869a.979.979,0,1,1,0,1.959h-15.264a.973.973,0,0,1-.973-.918l-.543-9.047a.975.975,0,0,1,.262-.729.989.989,0,0,1,.711-.312h5.416a4.748,4.748,0,0,0,4.068-2.109c1.057-1.65.973-4.018-.24-6.664-.006-.012-.006-.018-.012-.027-.039-.1-4.168-9.844-7.3-18.393a19.1,19.1,0,0,0-2.2-4.521c-.566-.777-1.119-1.225-1.566-1.252-.449.027-1.008.475-1.572,1.252a19.014,19.014,0,0,0-2.205,4.521c-3.133,8.549-7.258,18.291-7.3,18.393a.067.067,0,0,1-.01.021c-1.232,2.748-1.326,5.064-.27,6.709a4.781,4.781,0,0,0,4.1,2.07h5.416a.985.985,0,0,1,.975,1.041l-.537,9.047a.977.977,0,0,1-.98.918h-20.355a.975.975,0,0,1-.979-.979v-71.682l-40.812,15.482v56.2a.975.975,0,0,1-.979.979h-20.787a.976.976,0,0,1-.975-.918l-.541-9.047a.991.991,0,0,1,.979-1.041h5.41a3.79,3.79,0,0,0,3.117-1.275c1.164-1.437,1.387-4.1.643-7.7-.111-.5-4.168-18.141-7.246-26.521a19.119,19.119,0,0,0-2.2-4.527c-.561-.777-1.119-1.225-1.566-1.254-.449.029-1.008.477-1.572,1.254a19.174,19.174,0,0,0-2.2,4.527c-3.078,8.375-7.135,26-7.252,26.521-.738,3.6-.516,6.262.648,7.7a3.781,3.781,0,0,0,3.111,1.275h5.416a.985.985,0,0,1,.711.313.954.954,0,0,1,.264.729l-.537,9.047a.976.976,0,0,1-.975.918h-35.49a.976.976,0,0,1-.975-.918l-.889-14.9a.982.982,0,0,1,.588-.957c.2-.088.4-.178.609-.285a.973.973,0,0,1,1.006.078c1.607,1.152,3.99,1.74,7.1,1.74,6.184,0,9.73-2.842,9.73-7.789a6.412,6.412,0,0,0-.693-2.869.98.98,0,0,1,.381-1.287,8.469,8.469,0,0,0,4.15-8.314c-.258-3.979-3.5-7.414-8.27-8.752a.985.985,0,0,1-.7-1.135,7.5,7.5,0,0,0,.15-1.488c0-3.537-3.508-6.418-7.816-6.418a8.871,8.871,0,0,0-3.625.789.96.96,0,0,1-1.008-.123,9.983,9.983,0,0,0-6.217-2.064c-4.711,0-8.852,3.328-8.852,7.117,0,.3.018.609.051.973a.982.982,0,0,1-.732,1.041c-3.441.861-6.021,3.2-6.574,5.947-.639,3.156.117,5.344,2.316,6.688a.979.979,0,0,1,.229,1.477,8.587,8.587,0,0,0-2.227,6.893c1.068,7.018,5.936,10.033,14.883,9.223a24.2,24.2,0,0,0,3.229-.5.974.974,0,0,1,.852.207.987.987,0,0,1,.346.8l-.828,13.91a.979.979,0,0,1-.979.918h-36.768l-.1.066a.994.994,0,0,1-.828.1.969.969,0,0,1-.594-.582,3.132,3.132,0,0,1,.354-2.562,2.832,2.832,0,0,0,.346-1.018,2.727,2.727,0,0,0-.576-1.236,61.053,61.053,0,0,1-5.68-10.6c-.738,2.1-1.264,4.234-1.812,6.451a63.068,63.068,0,0,1-2.3,7.85,2.168,2.168,0,0,1-.684,1,.967.967,0,0,1-.873.537h-29.594a.974.974,0,0,1-.973-.979v-33.645a.976.976,0,0,1,.973-.98h2.85l-3.027-6.277h-57.873l-3.027,6.277h2.844a.978.978,0,0,1,.979.98v33.645a.977.977,0,0,1-.979.979h-19.746a.977.977,0,0,1-.98-.979v-29.98a.982.982,0,0,1,.98-.984h.9l-26.146-12.926-26.146,12.926h.906a.984.984,0,0,1,.979.984v29.98a.979.979,0,0,1-.979.979h-17.295a.979.979,0,0,1-.975-.918l-.543-9.047a.976.976,0,0,1,.98-1.035h5.416a3.78,3.78,0,0,0,3.109-1.281c1.164-1.437,1.389-4.1.65-7.7-.117-.492-4.174-18.135-7.252-26.521a19.174,19.174,0,0,0-2.2-4.527c-.57-.777-1.125-1.219-1.572-1.254-.447.035-1,.477-1.572,1.254a19.327,19.327,0,0,0-2.2,4.527c-3.07,8.375-7.123,25.979-7.246,26.521-.744,3.6-.52,6.262.645,7.7a3.781,3.781,0,0,0,3.111,1.281h5.416a.983.983,0,0,1,.711.307,1.012,1.012,0,0,1,.268.729l-.543,9.047a.978.978,0,0,1-.973.918h-27.82a.979.979,0,0,1-.979-.979v-62.332h-36.611v62.332a.979.979,0,0,1-.979.979h-10.027a.975.975,0,0,1-.979-.979v-34.232c-.057-.4-1.254-2.127-4.443-3.922a24.685,24.685,0,0,0-12.186-3.061,25.593,25.593,0,0,0-12.344,2.977c-3.027,1.672-4.281,3.43-4.281,3.994v34.244a.979.979,0,0,1-.979.979h-6.328a.976.976,0,0,1-.975-.979v-26.689l-18.609-8.029-18.609,8.029v26.689a.977.977,0,0,1-.98.979h-22.441a.977.977,0,0,1-.98-.979v-.068a.979.979,0,0,1,.9-.979,1.043,1.043,0,0,0,.715-.5,2.919,2.919,0,0,0,.477-2.092,1.677,1.677,0,0,0-2.227-1.277.979.979,0,0,1-1.074-1.527,4.091,4.091,0,0,0,.783-1.672,1.9,1.9,0,0,0-.453-1.662c-.789-.912-1.562-.975-3.312-.258a.989.989,0,0,1-1.008-.168,1,1,0,0,1-.309-.979c.521-2.121.146-3.375-1.27-4.186-.844-.486-2.244-.891-4.639,1.254a.977.977,0,0,1-1.623-.627c-.246-2.256-1.1-3.385-2.854-3.777-1.963-.432-3.211.615-4.48,2.328a.976.976,0,0,1-.822.391,1,1,0,0,1-.789-.453c-1.227-1.941-2.658-2.68-4.5-2.322-1.516.291-2.539,2-2.764,3.525a.98.98,0,0,1-1.9.174,2.936,2.936,0,0,0-1.482-1.018,2.393,2.393,0,0,0-1.959.117c-1.359.766-1.455,1.779-1.461,4.531v.186a.976.976,0,1,1-1.951,0v-42.861h-13.4a.983.983,0,0,1-.979-.979v-8.789h-27.1v8.789a.981.981,0,0,1-.98.979h-50.619v53.918a.976.976,0,0,1-.975.979,1.083,1.083,0,0,1-.141-.006h-17.971a1.037,1.037,0,0,1-.135.006,1.167,1.167,0,0,1-.2-.018c-1.344-.156-2.109-1.711-2.361-2.227a18.726,18.726,0,0,1-.873-2.2,23.509,23.509,0,0,1,.2,2.508,4.007,4.007,0,0,1-.139,1.17,1.415,1.415,0,0,1-1.1,1.074,1.046,1.046,0,0,1-.174.016A.964.964,0,0,1,20154.5,22294.916Zm517.975-27.781a.983.983,0,0,1,.453,1.125v.006a44.2,44.2,0,0,0-1.1,4.359,46.446,46.446,0,0,0-.531,6.842c-.111,4.008-.229,8.148-2.1,11.836a2.123,2.123,0,0,1-.6.766c.543.156,1.09.285,1.639.393.006-.012.006-.018.012-.029a61.631,61.631,0,0,0,2.227-7.609,54.145,54.145,0,0,1,2.809-9.047.963.963,0,0,1,.891-.588h.027a.98.98,0,0,1,.885.633,60.169,60.169,0,0,0,6.406,12.539,4.133,4.133,0,0,1,.9,2.332,2.936,2.936,0,0,1-.162.936q.949-.715,1.824-1.512c.061-.055.1-.1.135-.129-.057-.072-.135-.162-.191-.223l-.021-.029a16.366,16.366,0,0,1-2.262-3.85,58.075,58.075,0,0,1-5.461-18.156.978.978,0,0,1,1.629-.867,21.406,21.406,0,0,0,6.883,4.561,3.9,3.9,0,0,0,1.459.348.453.453,0,0,0,.09-.006,27.192,27.192,0,0,0-3.172-2.2c-.834-.543-1.623-1.047-2.127-1.422a46.009,46.009,0,0,1-7.531-6.988.4.4,0,0,1-.055-.051c-.018.029-.035.051-.051.072a43.406,43.406,0,0,1-7.627,7.9,13.558,13.558,0,0,1-3.4,1.785,14.64,14.64,0,0,0-1.488.676,2.384,2.384,0,0,0,.336.023,6.9,6.9,0,0,0,2.172-.453,17.306,17.306,0,0,0,5.908-3.789.993.993,0,0,1,.711-.307A1.02,1.02,0,0,1,20672.479,22267.135Zm-960.979,0a.98.98,0,0,1,.453,1.125l0,.006c-.41,1.428-.834,2.9-1.1,4.359a46.18,46.18,0,0,0-.525,6.842c-.113,4.008-.23,8.148-2.109,11.836a2.1,2.1,0,0,1-.6.766c.543.156,1.086.285,1.641.393a.172.172,0,0,1,.01-.029,62.678,62.678,0,0,0,2.229-7.609,54.665,54.665,0,0,1,2.8-9.047.975.975,0,0,1,.895-.588h.027a.982.982,0,0,1,.885.633,60.169,60.169,0,0,0,6.406,12.539,4.176,4.176,0,0,1,.9,2.332,3.108,3.108,0,0,1-.164.936q.949-.715,1.824-1.512c.057-.055.1-.1.135-.129-.055-.072-.135-.162-.189-.223l-.023-.029a16.028,16.028,0,0,1-2.26-3.85,58.024,58.024,0,0,1-5.461-18.156.978.978,0,0,1,1.629-.867,21.419,21.419,0,0,0,6.881,4.561,3.906,3.906,0,0,0,1.455.348.434.434,0,0,0,.09-.006,27.077,27.077,0,0,0-3.168-2.2c-.838-.543-1.621-1.047-2.125-1.422a45.93,45.93,0,0,1-7.531-6.988.4.4,0,0,1-.057-.051.427.427,0,0,1-.051.072,43.659,43.659,0,0,1-7.625,7.9,13.626,13.626,0,0,1-3.4,1.785,14.259,14.259,0,0,0-1.488.676,2.25,2.25,0,0,0,.336.023,6.9,6.9,0,0,0,2.17-.453,17.348,17.348,0,0,0,5.908-3.789.986.986,0,0,1,.711-.307A1.02,1.02,0,0,1,19711.5,22267.135Zm423.918,1.338a27.977,27.977,0,0,0,.273,7.006,48.531,48.531,0,0,0,1.8,7.016c.045.158.105.33.162.516a20.634,20.634,0,0,1,.855,3.178,12.245,12.245,0,0,1-.3,3.459,12.335,12.335,0,0,0-.3,2.623.1.1,0,0,0,.012-.039,15.507,15.507,0,0,0,.441-1.879,18.447,18.447,0,0,1,.693-2.748c.471-1.236,1.176-1.863,2.088-1.863a2.833,2.833,0,0,1,.291.021,1.266,1.266,0,0,1,.873.42c.592.645.52,1.773.352,3.7-.045.5-.1,1.029-.117,1.51.252-.625.447-1.236.639-1.828a17.573,17.573,0,0,1,1.084-2.787.974.974,0,0,1,.818-.525c.559-.029,1.135-.068,1.75-.119,1.152-.078,2.346-.166,3.52-.166a16.8,16.8,0,0,1,1.758.078.987.987,0,0,1,.873.822,20.839,20.839,0,0,0,1.1,4.023c.063.166.129.324.191.469-.039-.4-.084-.771-.113-1.057-.252-2.166-.352-3.33.213-3.979a1.206,1.206,0,0,1,.684-.4,1.551,1.551,0,0,1,.42-.062c1.291,0,1.795,1.584,2.164,2.742.225.7.549,1.723.924,2.574-.062-.477-.135-.969-.2-1.4a37.107,37.107,0,0,1-.582-6.631.974.974,0,0,1,.363-.7,1.008,1.008,0,0,1,.762-.207c.127.027.268.049.414.078a9.3,9.3,0,0,0,1.689.2,2.46,2.46,0,0,0,2.635-1.846,3.752,3.752,0,0,0,.156-2.373c-.168-.5-.3-.979-.43-1.437-.113-.393-.225-.789-.359-1.209a2.291,2.291,0,0,1-1.1,1.141,2.97,2.97,0,0,1-1.221.275,3.682,3.682,0,0,1-1.107-.2,3.5,3.5,0,0,0-.432-.119.97.97,0,0,1-.547-.273,2.756,2.756,0,0,1-.639-1.1c-.09.268-.168.531-.24.783-.039.133-.078.268-.117.4-.006.006-.006.018-.012.033l-.822,2.412a.98.98,0,0,1-.324.453c-1.3,1.029-3.381,1.527-6.334,1.527a51.8,51.8,0,0,1-9.7-1.191c-.273-.057-.553-.117-.627-.123-1.7-.219-2.523-2.2-3.049-3.906a28.12,28.12,0,0,1-.861-7.961c-.006-.84-.012-1.584-.057-2.211A22.342,22.342,0,0,0,20135.418,22268.473Zm-960.977,0a27.885,27.885,0,0,0,.273,7.006,49.1,49.1,0,0,0,1.8,7.016c.049.158.105.33.168.516a20.586,20.586,0,0,1,.85,3.178,11.955,11.955,0,0,1-.3,3.459,12.366,12.366,0,0,0-.307,2.623.067.067,0,0,0,.016-.039,16.284,16.284,0,0,0,.441-1.879,17.751,17.751,0,0,1,.7-2.748c.469-1.236,1.174-1.863,2.086-1.863.1,0,.191.012.291.021a1.262,1.262,0,0,1,.873.42c.594.645.521,1.773.348,3.7-.045.5-.09,1.029-.111,1.51.25-.625.447-1.236.637-1.828a17.042,17.042,0,0,1,1.086-2.787.966.966,0,0,1,.816-.525c.561-.029,1.137-.068,1.752-.119,1.152-.078,2.344-.166,3.514-.166a16.826,16.826,0,0,1,1.762.078.989.989,0,0,1,.873.822,20.545,20.545,0,0,0,1.092,4.023c.066.166.135.324.2.469-.039-.4-.084-.771-.117-1.057-.246-2.166-.348-3.33.219-3.979a1.2,1.2,0,0,1,.682-.4,1.528,1.528,0,0,1,.42-.062c1.293,0,1.8,1.584,2.166,2.742a27.011,27.011,0,0,0,.922,2.574c-.061-.477-.133-.969-.2-1.4a37.107,37.107,0,0,1-.582-6.631.967.967,0,0,1,.363-.7,1,1,0,0,1,.762-.207c.123.027.264.049.414.078a9.26,9.26,0,0,0,1.689.2,2.469,2.469,0,0,0,2.637-1.846,3.752,3.752,0,0,0,.156-2.373c-.174-.5-.3-.979-.432-1.437-.111-.393-.223-.789-.357-1.209a2.311,2.311,0,0,1-1.1,1.141,2.968,2.968,0,0,1-1.219.275,3.646,3.646,0,0,1-1.107-.2,3.915,3.915,0,0,0-.432-.119.963.963,0,0,1-.549-.273,2.812,2.812,0,0,1-.643-1.1c-.084.268-.162.531-.236.783-.039.133-.078.268-.117.4-.006.006-.006.018-.01.033l-.824,2.412a1.039,1.039,0,0,1-.324.453c-1.309,1.029-3.379,1.527-6.334,1.527a51.773,51.773,0,0,1-9.7-1.191c-.275-.057-.555-.117-.627-.123-1.7-.219-2.523-2.2-3.055-3.906a28.325,28.325,0,0,1-.857-7.961c-.01-.84-.01-1.584-.055-2.211A21.674,21.674,0,0,0,19174.441,22268.473Zm1500.566-17.361a2.123,2.123,0,0,0-1.512,1.248,4.041,4.041,0,0,0-.217,2.371,8.035,8.035,0,0,0,2.02,3.42,15.567,15.567,0,0,0,1.191-1.68,5.013,5.013,0,0,0,.75-3.586,2.35,2.35,0,0,0-2.031-1.785C20675.143,22251.1,20675.074,22251.105,20675.008,22251.111Zm-960.979,0a2.109,2.109,0,0,0-1.51,1.248,4.059,4.059,0,0,0-.219,2.371,8.056,8.056,0,0,0,2.02,3.42,14.511,14.511,0,0,0,1.188-1.68,5.032,5.032,0,0,0,.754-3.586,2.353,2.353,0,0,0-2.031-1.785C19714.164,22251.1,19714.1,22251.105,19714.029,22251.111Zm239.445-29.42c-.844,1.018-.967,2.6-1.068,4a9.521,9.521,0,0,1-.592,2.563,8,8,0,0,1,4.135-3.346,17.047,17.047,0,0,1,3.066-.537,15.362,15.362,0,0,0,2.32-.375,1.006,1.006,0,0,1,.588.033,16.111,16.111,0,0,1,2.938,1.578c.135.078.27.162.393.24,3.877,2.4,9.389,1.572,13.406-2a.967.967,0,0,1,1.314.016,6.492,6.492,0,0,0,3.094,1.533,16.685,16.685,0,0,0,6.553-.525,13.4,13.4,0,0,0,4.906-2.68c1.3-1.047,2.4-3.369,1.881-5.02-.3-.984-1.215-1.809-2.859-2.586a16.435,16.435,0,0,0-7.156-1.623c-6.652,0-8.65,1.656-10.574,3.264-.264.213-.533.441-.807.654a.993.993,0,0,1-.576.207,6.225,6.225,0,0,1-2.109-.537c-.162-.057-.312-.117-.42-.152a11.06,11.06,0,0,0-5.824-.094c-3.525.967-6.193,1.9-8.443,5.164a.952.952,0,0,1-.834.426.992.992,0,0,1-.811-.477.983.983,0,0,0-.8-.43,1.129,1.129,0,0,0-.141-.006A2.143,2.143,0,0,0,19953.475,22221.691Zm-960.977,0c-.846,1.018-.969,2.6-1.068,4a9.524,9.524,0,0,1-.594,2.563,8,8,0,0,1,4.135-3.346,17.047,17.047,0,0,1,3.066-.537,15.467,15.467,0,0,0,2.322-.375.986.986,0,0,1,.582.033,16.227,16.227,0,0,1,2.943,1.578c.135.078.268.162.391.24,3.879,2.4,9.391,1.572,13.406-2a.969.969,0,0,1,1.316.016,6.475,6.475,0,0,0,3.094,1.533,16.689,16.689,0,0,0,6.553-.525,13.42,13.42,0,0,0,4.906-2.68c1.3-1.047,2.395-3.369,1.881-5.02-.3-.984-1.215-1.809-2.859-2.586a16.447,16.447,0,0,0-7.162-1.623c-6.648,0-8.645,1.656-10.57,3.264-.264.213-.531.441-.8.654a1,1,0,0,1-.582.207,6.215,6.215,0,0,1-2.105-.537c-.162-.057-.312-.117-.424-.152a11.044,11.044,0,0,0-5.82-.094c-3.523.967-6.193,1.9-8.443,5.164a.953.953,0,0,1-.832.426.99.99,0,0,1-.812-.477.99.99,0,0,0-.8-.43,1.037,1.037,0,0,0-.135-.006A2.137,2.137,0,0,0,18992.5,22221.691Zm1629.482,72.09a.982.982,0,0,1-.984-.98v-13.086a.982.982,0,0,1,.984-.98h6.637a.977.977,0,0,1,.979.98v13.086a.977.977,0,0,1-.979.98Zm.975-1.959h4.688v-11.129h-4.687Zm-961.957,1.959a.982.982,0,0,1-.98-.98v-13.086a.982.982,0,0,1,.98-.98h6.641a.979.979,0,0,1,.98.98v13.086a.979.979,0,0,1-.98.98Zm.979-1.959h4.689v-11.129h-4.689Zm688.514,1.723a.979.979,0,0,1-.979-.979v-10.994a.977.977,0,0,1,.979-.98h5.7a.977.977,0,0,1,.975.98v10.994a.979.979,0,0,1-.975.979Zm.975-1.957h3.748v-9.037h-3.748Zm-961.957,1.957a.979.979,0,0,1-.975-.979v-10.994a.977.977,0,0,1,.975-.98h5.707a.976.976,0,0,1,.973.98v10.994a.978.978,0,0,1-.973.979Zm.979-1.957h3.744v-9.037h-3.744Zm1408.133,1.813a.982.982,0,0,1-.984-.98v-11.145a.982.982,0,0,1,.984-.98h9.17a.974.974,0,0,1,.975.98v11.145a.974.974,0,0,1-.975.98Zm.973-1.959h7.219v-9.187h-7.219Zm-961.951,1.959a.983.983,0,0,1-.984-.98v-11.145a.983.983,0,0,1,.984-.98h9.172a.976.976,0,0,1,.973.98v11.145a.976.976,0,0,1-.973.98Zm.975-1.959h7.217v-9.187h-7.217Zm253.367,1.689a.977.977,0,0,1-.98-.979v-10.994a.979.979,0,0,1,.98-.98h5.7a.977.977,0,0,1,.979.98v10.994a.975.975,0,0,1-.979.979Zm.979-1.957h3.748v-9.037h-3.748Zm-961.957,1.957a.975.975,0,0,1-.979-.979v-10.994a.977.977,0,0,1,.979-.98h5.7a.979.979,0,0,1,.98.98v10.994a.977.977,0,0,1-.98.979Zm.98-1.957h3.742v-9.037h-3.742Zm1477.691-4.174a.981.981,0,0,1-.979-.98v-5.662a.975.975,0,0,1,.979-.979h4.254a.975.975,0,0,1,.979.979v5.662a.981.981,0,0,1-.979.98Zm.98-1.959h2.3v-3.705h-2.3Zm-14.477,1.959a.979.979,0,0,1-.973-.98v-5.662a.974.974,0,0,1,.973-.979h4.26a.979.979,0,0,1,.979.979v5.662a.984.984,0,0,1-.979.98Zm.98-1.959h2.3v-3.705h-2.3ZM19648.7,22287a.981.981,0,0,1-.979-.98v-5.662a.975.975,0,0,1,.979-.979h4.252a.975.975,0,0,1,.979.979v5.662a.981.981,0,0,1-.979.98Zm.979-1.959h2.295v-3.705h-2.295ZM19635.2,22287a.984.984,0,0,1-.979-.98v-5.662a.979.979,0,0,1,.979-.979h4.258a.976.976,0,0,1,.975.979v5.662a.981.981,0,0,1-.975.98Zm.979-1.959h2.3v-3.705h-2.3Zm1177.482-5.859a.983.983,0,0,1-.979-.979v-6.4a.984.984,0,0,1,.979-.98h4.516a.981.981,0,0,1,.975.98v6.4a.979.979,0,0,1-.975.979Zm.98-1.957h2.557v-4.437h-2.557Zm-961.957,1.957a.979.979,0,0,1-.979-.979v-6.4a.981.981,0,0,1,.979-.98h4.51a.981.981,0,0,1,.979.98v6.4a.979.979,0,0,1-.979.979Zm.979-1.957h2.557v-4.437h-2.557Zm693.143-.582a.979.979,0,0,1-.98-.98v-5.768a.974.974,0,0,1,.98-.975h4.168a.972.972,0,0,1,.979.975v5.768a.977.977,0,0,1-.979.98Zm.979-1.965H20550v-3.8h-2.209Zm-11.242,1.965a.973.973,0,0,1-.973-.98v-5.768a.968.968,0,0,1,.973-.975h4.17a.972.972,0,0,1,.979.975v5.768a.977.977,0,0,1-.979.98Zm.98-1.965h2.209v-3.8h-2.209Zm-12.293,1.965a.977.977,0,0,1-.979-.98v-5.768a.972.972,0,0,1,.979-.975h4.168a.969.969,0,0,1,.975.975v5.768a.974.974,0,0,1-.975.98Zm.979-1.965h2.211v-3.8h-2.211Zm-940.381,1.965a.977.977,0,0,1-.979-.98v-5.768a.972.972,0,0,1,.979-.975H19590a.969.969,0,0,1,.975.975v5.768a.974.974,0,0,1-.975.98Zm.979-1.965h2.211v-3.8h-2.211Zm-11.24,1.965a.977.977,0,0,1-.979-.98v-5.768a.972.972,0,0,1,.979-.975h4.168a.969.969,0,0,1,.975.975v5.768a.974.974,0,0,1-.975.98Zm.979-1.965h2.211v-3.8h-2.211Zm-12.293,1.965a.977.977,0,0,1-.979-.98v-5.768a.972.972,0,0,1,.979-.975h4.17a.971.971,0,0,1,.973.975v5.768a.976.976,0,0,1-.973.98Zm.975-1.965h2.215v-3.8h-2.215Zm828.262,1.332a.98.98,0,0,1-.979-.984v-4.168a.977.977,0,0,1,.979-.98h5.758a.981.981,0,0,1,.979.98v4.168a.984.984,0,0,1-.979.984Zm.975-1.965h3.8v-2.209h-3.8Zm-961.957,1.965a.981.981,0,0,1-.975-.984v-4.168a.977.977,0,0,1,.975-.98h5.764a.981.981,0,0,1,.979.98v4.168a.984.984,0,0,1-.979.984Zm.979-1.965h3.8v-2.209h-3.8Zm921.459,1.842a.976.976,0,0,1-.975-.979v-4.17a.982.982,0,0,1,.975-.984h5.762a.983.983,0,0,1,.98.984v4.17a.977.977,0,0,1-.98.979Zm.979-1.959h3.8v-2.215h-3.8Zm-10.033,1.959a.975.975,0,0,1-.979-.979v-4.17a.982.982,0,0,1,.979-.984h5.758a.983.983,0,0,1,.98.984v4.17a.977.977,0,0,1-.98.979Zm.975-1.959h3.811v-2.215h-3.811Zm-952.9,1.959a.974.974,0,0,1-.973-.979v-4.17a.98.98,0,0,1,.973-.984h5.764a.985.985,0,0,1,.979.984v4.17a.979.979,0,0,1-.979.979Zm.979-1.959h3.807v-2.215h-3.807Zm-10.031,1.959a.975.975,0,0,1-.979-.979v-4.17a.982.982,0,0,1,.979-.984h5.758a.985.985,0,0,1,.979.984v4.17a.979.979,0,0,1-.979.979Zm.973-1.959h3.811v-2.215h-3.811Zm706.039-.6a.977.977,0,0,1-.979-.98v-4.168a.975.975,0,0,1,.979-.979h5.758a.975.975,0,0,1,.979.979v4.168a.977.977,0,0,1-.979.98Zm.979-1.959h3.8v-2.209h-3.8Zm-961.961,1.959a.977.977,0,0,1-.975-.98v-4.168a.976.976,0,0,1,.975-.979h5.762a.977.977,0,0,1,.98.979v4.168a.979.979,0,0,1-.98.98Zm.984-1.959h3.8v-2.209h-3.8Zm1491.244,1.438a.975.975,0,0,1-.979-.979v-5.662a.976.976,0,0,1,.979-.975h4.254a.977.977,0,0,1,.979.975v5.662a.977.977,0,0,1-.979.979Zm.975-1.957h2.3v-3.7h-2.3Zm-14.471,1.957a.975.975,0,0,1-.979-.979v-5.662a.976.976,0,0,1,.979-.975h4.254a.976.976,0,0,1,.979.975v5.662a.975.975,0,0,1-.979.979Zm.98-1.957h2.3v-3.7h-2.3Zm-14.477,1.957a.974.974,0,0,1-.973-.979v-5.662a.974.974,0,0,1,.973-.975h4.26a.979.979,0,0,1,.979.975v5.662a.979.979,0,0,1-.979.979Zm.98-1.957h2.3v-3.7h-2.3Zm-934.971,1.957a.979.979,0,0,1-.979-.979v-5.662a.979.979,0,0,1,.979-.975h4.258a.979.979,0,0,1,.979.975v5.662a.979.979,0,0,1-.979.979Zm.979-1.957h2.3v-3.7h-2.3Zm-14.469,1.957a.975.975,0,0,1-.979-.979v-5.662a.976.976,0,0,1,.979-.975h4.252a.976.976,0,0,1,.979.975v5.662a.975.975,0,0,1-.979.979Zm.979-1.957h2.295v-3.7h-2.295Zm-14.475,1.957a.979.979,0,0,1-.979-.979v-5.662a.979.979,0,0,1,.979-.975h4.258a.976.976,0,0,1,.975.975v5.662a.976.976,0,0,1-.975.979Zm.979-1.957h2.3v-3.7h-2.3Zm375.568,1.3a.975.975,0,0,1-.979-.979v-6.3a.975.975,0,0,1,.979-.979h6.3a.976.976,0,0,1,.975.979v6.3a.976.976,0,0,1-.975.979Zm.975-1.957h4.342v-4.342h-4.342Zm-14.705,1.957a.974.974,0,0,1-.973-.979v-6.3a.974.974,0,0,1,.973-.979h6.3a.975.975,0,0,1,.979.979v6.3a.975.975,0,0,1-.979.979Zm.979-1.957h4.348v-4.342H19999Zm-14.7,1.957a.977.977,0,0,1-.98-.979v-6.3a.977.977,0,0,1,.98-.979h6.295a.975.975,0,0,1,.979.979v6.3a.975.975,0,0,1-.979.979Zm.979-1.957h4.342v-4.342h-4.342Zm-14.709,1.957a.976.976,0,0,1-.975-.979v-6.3a.976.976,0,0,1,.975-.979h6.3a.977.977,0,0,1,.98.979v6.3a.977.977,0,0,1-.98.979Zm.979-1.957h4.342v-4.342h-4.342Zm-14.705,1.957a.975.975,0,0,1-.979-.979v-6.3a.975.975,0,0,1,.979-.979h6.3a.974.974,0,0,1,.973.979v6.3a.974.974,0,0,1-.973.979Zm.98-1.957h4.342v-4.342h-4.342Zm-907.051,1.957a.974.974,0,0,1-.973-.979v-6.3a.974.974,0,0,1,.973-.979h6.3a.975.975,0,0,1,.979.979v6.3a.975.975,0,0,1-.979.979Zm.979-1.957h4.342v-4.342h-4.342Zm-14.7,1.957a.972.972,0,0,1-.975-.979v-6.3a.972.972,0,0,1,.975-.979h6.3a.972.972,0,0,1,.975.979v6.3a.972.972,0,0,1-.975.979Zm.979-1.957h4.342v-4.342h-4.342Zm-14.705,1.957a.975.975,0,0,1-.979-.979v-6.3a.975.975,0,0,1,.979-.979h6.295a.977.977,0,0,1,.98.979v6.3a.977.977,0,0,1-.98.979Zm.975-1.957h4.348v-4.342h-4.348Zm-14.705,1.957a.979.979,0,0,1-.979-.979v-6.3a.979.979,0,0,1,.979-.979h6.3a.979.979,0,0,1,.979.979v6.3a.979.979,0,0,1-.979.979Zm.979-1.957h4.342v-4.342h-4.342Zm-14.7,1.957a.977.977,0,0,1-.98-.979v-6.3a.977.977,0,0,1,.98-.979h6.295a.975.975,0,0,1,.979.979v6.3a.975.975,0,0,1-.979.979Zm.979-1.957h4.342v-4.342h-4.342Zm1240.688-1.119a.982.982,0,0,1-.98-.98v-4.174a.981.981,0,0,1,.98-.979h5.758a.975.975,0,0,1,.979.979v4.174a.977.977,0,0,1-.979.98Zm.979-1.965h3.8v-2.205h-3.8Zm-11.795,1.965a.977.977,0,0,1-.979-.98v-4.174a.975.975,0,0,1,.979-.979h5.758a.975.975,0,0,1,.979.979v4.174a.977.977,0,0,1-.979.98Zm.975-1.965h3.8v-2.205h-3.8Zm-12.244,1.965a.981.981,0,0,1-.979-.98v-4.174a.979.979,0,0,1,.979-.979h5.758a.977.977,0,0,1,.98.979v4.174a.979.979,0,0,1-.98.98Zm.975-1.965h3.8v-2.205h-3.8Zm-12.242,1.965a.979.979,0,0,1-.98-.98v-4.174a.977.977,0,0,1,.98-.979h5.758a.977.977,0,0,1,.979.979v4.174a.978.978,0,0,1-.979.98Zm.973-1.965h3.8v-2.205h-3.8Zm-12.242,1.965a.977.977,0,0,1-.979-.98v-4.174a.975.975,0,0,1,.979-.979h5.758a.979.979,0,0,1,.979.979v4.174a.981.981,0,0,1-.979.98Zm.979-1.965h3.8v-2.205h-3.8Zm-917.334,1.965a.981.981,0,0,1-.979-.98v-4.174a.979.979,0,0,1,.979-.979h5.758a.977.977,0,0,1,.98.979v4.174a.979.979,0,0,1-.98.98Zm.975-1.965h3.8v-2.205h-3.8Zm-11.789,1.965a.979.979,0,0,1-.98-.98v-4.174a.977.977,0,0,1,.98-.979h5.758a.977.977,0,0,1,.979.979v4.174a.978.978,0,0,1-.979.98Zm.973-1.965h3.8v-2.205h-3.8Zm-12.242,1.965a.977.977,0,0,1-.979-.98v-4.174a.975.975,0,0,1,.979-.979h5.758a.975.975,0,0,1,.979.979v4.174a.977.977,0,0,1-.979.98Zm.973-1.965h3.8v-2.205h-3.8Zm-12.242,1.965a.977.977,0,0,1-.979-.98v-4.174a.975.975,0,0,1,.979-.979h5.758a.975.975,0,0,1,.979.979v4.174a.977.977,0,0,1-.979.98Zm.975-1.965h3.8v-2.205h-3.8Zm-12.248,1.965a.977.977,0,0,1-.975-.98v-4.174a.976.976,0,0,1,.975-.979h5.762a.981.981,0,0,1,.98.979v4.174a.982.982,0,0,1-.98.98Zm.979-1.965h3.8v-2.205h-3.8Zm1160.59,1.713a.972.972,0,0,1-.979-.975v-4.174a.975.975,0,0,1,.979-.979h5.758a.979.979,0,0,1,.979.979v4.174a.976.976,0,0,1-.979.975Zm.975-1.959h3.8v-2.209h-3.8Zm-961.957,1.959a.972.972,0,0,1-.975-.975v-4.174a.976.976,0,0,1,.975-.979h5.764a.979.979,0,0,1,.979.979v4.174a.976.976,0,0,1-.979.975Zm.979-1.959h3.8v-2.209h-3.8Zm1380.178,1.1a.981.981,0,0,1-.979-.98v-6.395a.981.981,0,0,1,.979-.98h4.516a.977.977,0,0,1,.975.98v6.395a.977.977,0,0,1-.975.98Zm.98-1.959h2.557v-4.437h-2.557Zm-12.154,1.959a.981.981,0,0,1-.979-.98v-6.395a.981.981,0,0,1,.979-.98h4.516a.977.977,0,0,1,.975.98v6.395a.977.977,0,0,1-.975.98Zm.975-1.959h2.563v-4.437h-2.562Zm-950.777,1.959a.977.977,0,0,1-.979-.98v-6.395a.977.977,0,0,1,.979-.98h4.51a.977.977,0,0,1,.979.98v6.395a.977.977,0,0,1-.979.98Zm.979-1.959h2.557v-4.437h-2.557Zm-12.152,1.959a.977.977,0,0,1-.979-.98v-6.395a.977.977,0,0,1,.979-.98h4.516a.976.976,0,0,1,.973.98v6.395a.976.976,0,0,1-.973.98Zm.973-1.959h2.563v-4.437h-2.562Zm204.039,1.662a.982.982,0,0,1,0-1.965h15.119a.982.982,0,0,1,0,1.965Zm-960.982,0a.982.982,0,0,1,0-1.965h15.123a.982.982,0,0,1,0,1.965Zm1006.383-1.512a.98.98,0,0,1-.979-.984V22261a.977.977,0,0,1,.979-.98h5.758a.977.977,0,0,1,.979.98v4.168a.98.98,0,0,1-.979.984Zm.979-1.963h3.8v-2.211h-3.8Zm-961.961,1.963a.981.981,0,0,1-.975-.984V22261a.977.977,0,0,1,.975-.98h5.762a.979.979,0,0,1,.98.98v4.168a.982.982,0,0,1-.98.984Zm.984-1.963h3.8v-2.211h-3.8Zm914.6-2.35a.982.982,0,0,1,0-1.965h15.119a.982.982,0,0,1,0,1.965Zm-960.982,0a.982.982,0,0,1,0-1.965h15.123a.982.982,0,0,1,0,1.965Zm1151.984-.32a.986.986,0,0,1-.98-.984v-4.168a.982.982,0,0,1,.98-.98h5.758a.977.977,0,0,1,.979.98v4.168a.98.98,0,0,1-.979.984Zm.979-1.957h3.8v-2.211h-3.8Zm-11.795,1.957a.98.98,0,0,1-.979-.984v-4.168a.977.977,0,0,1,.979-.98h5.758a.977.977,0,0,1,.979.98v4.168a.98.98,0,0,1-.979.984Zm.975-1.957h3.8v-2.211h-3.8Zm-12.244,1.957a.984.984,0,0,1-.979-.984v-4.168a.981.981,0,0,1,.979-.98h5.758a.979.979,0,0,1,.98.98v4.168a.982.982,0,0,1-.98.984Zm.975-1.957h3.8v-2.211h-3.8Zm-12.242,1.957a.982.982,0,0,1-.98-.984v-4.168a.979.979,0,0,1,.98-.98h5.758a.978.978,0,0,1,.979.98v4.168a.982.982,0,0,1-.979.984Zm.973-1.957h3.8v-2.211h-3.8Zm-12.242,1.957a.98.98,0,0,1-.979-.984v-4.168a.977.977,0,0,1,.979-.98h5.758a.981.981,0,0,1,.979.98v4.168a.984.984,0,0,1-.979.984Zm.979-1.957h3.8v-2.211h-3.8Zm-917.334,1.957a.984.984,0,0,1-.979-.984v-4.168a.981.981,0,0,1,.979-.98h5.758a.979.979,0,0,1,.98.98v4.168a.982.982,0,0,1-.98.984Zm.975-1.957h3.8v-2.211h-3.8Zm-11.789,1.957a.982.982,0,0,1-.98-.984v-4.168a.979.979,0,0,1,.98-.98h5.758a.978.978,0,0,1,.979.98v4.168a.982.982,0,0,1-.979.984Zm.973-1.957h3.8v-2.211h-3.8Zm-12.242,1.957a.98.98,0,0,1-.979-.984v-4.168a.977.977,0,0,1,.979-.98h5.758a.977.977,0,0,1,.979.98v4.168a.98.98,0,0,1-.979.984Zm.973-1.957h3.8v-2.211h-3.8Zm-12.242,1.957a.98.98,0,0,1-.979-.984v-4.168a.977.977,0,0,1,.979-.98h5.758a.977.977,0,0,1,.979.98v4.168a.98.98,0,0,1-.979.984Zm.975-1.957h3.8v-2.211h-3.8Zm-12.248,1.957a.981.981,0,0,1-.975-.984v-4.168a.977.977,0,0,1,.975-.98h5.762a.982.982,0,0,1,.98.98v4.168a.986.986,0,0,1-.98.984Zm.979-1.957h3.8v-2.211h-3.8Zm1580.764-2.82a.981.981,0,0,1-.979-.98v-6.395a.979.979,0,0,1,.979-.979h4.516a.976.976,0,0,1,.975.979v6.395a.977.977,0,0,1-.975.98Zm.98-1.959h2.557v-4.437h-2.557Zm-12.154,1.959a.981.981,0,0,1-.979-.98v-6.395a.979.979,0,0,1,.979-.979h4.516a.976.976,0,0,1,.975.979v6.395a.977.977,0,0,1-.975.98Zm.975-1.959h2.563v-4.437h-2.562Zm-950.777,1.959a.977.977,0,0,1-.979-.98v-6.395a.975.975,0,0,1,.979-.979h4.51a.975.975,0,0,1,.979.979v6.395a.977.977,0,0,1-.979.98Zm.979-1.959h2.557v-4.437h-2.557Zm-12.152,1.959a.977.977,0,0,1-.979-.98v-6.395a.975.975,0,0,1,.979-.979h4.516a.974.974,0,0,1,.973.979v6.395a.976.976,0,0,1-.973.98Zm.973-1.959h2.563v-4.437h-2.562Zm608.715,1.9a.977.977,0,0,1-.98-.979v-3.934a.977.977,0,0,1,.98-.979h5.432a.981.981,0,0,1,.98.979v3.934a.981.981,0,0,1-.98.979Zm.973-1.959h3.48v-1.975h-3.48Zm-11.6,1.959a.977.977,0,0,1-.98-.979v-3.934a.977.977,0,0,1,.98-.979H20446a.977.977,0,0,1,.98.979v3.934a.977.977,0,0,1-.98.979Zm.979-1.959h3.475v-1.975h-3.475Zm-11.611,1.959a.974.974,0,0,1-.973-.979v-3.934a.974.974,0,0,1,.973-.979h5.434a.977.977,0,0,1,.98.979v3.934a.977.977,0,0,1-.98.979Zm.98-1.959h3.48v-1.975h-3.48Zm-940.7,1.959a.975.975,0,0,1-.979-.979v-3.934a.975.975,0,0,1,.979-.979h5.434a.979.979,0,0,1,.979.979v3.934a.979.979,0,0,1-.979.979Zm.975-1.959h3.48v-1.975h-3.48Zm-11.605,1.959a.975.975,0,0,1-.979-.979v-3.934a.975.975,0,0,1,.979-.979h5.434a.979.979,0,0,1,.979.979v3.934a.979.979,0,0,1-.979.979Zm.979-1.959h3.475v-1.975h-3.475Zm-11.609,1.959a.979.979,0,0,1-.979-.979v-3.934a.979.979,0,0,1,.979-.979h5.434a.979.979,0,0,1,.979.979v3.934a.979.979,0,0,1-.979.979Zm.979-1.959h3.48v-1.975h-3.48Zm576.586,1.3a.979.979,0,0,1,0-1.959h15.119a.979.979,0,0,1,0,1.959Zm-960.982,0a.98.98,0,0,1,0-1.959h15.123a.979.979,0,1,1,0,1.959Zm1151.984-2.053a.986.986,0,0,1-.98-.98v-4.174a.984.984,0,0,1,.98-.979h5.758a.979.979,0,0,1,.979.979v4.174a.981.981,0,0,1-.979.98Zm.979-1.959h3.8v-2.215h-3.8Zm-11.795,1.959a.981.981,0,0,1-.979-.98v-4.174a.979.979,0,0,1,.979-.979h5.758a.979.979,0,0,1,.979.979v4.174a.981.981,0,0,1-.979.98Zm.975-1.959h3.8v-2.215h-3.8Zm-12.244,1.959a.984.984,0,0,1-.979-.98v-4.174a.983.983,0,0,1,.979-.979h5.758a.981.981,0,0,1,.98.979v4.174a.982.982,0,0,1-.98.98Zm.975-1.959h3.8v-2.215h-3.8Zm-12.242,1.959a.982.982,0,0,1-.98-.98v-4.174a.981.981,0,0,1,.98-.979h5.758a.98.98,0,0,1,.979.979v4.174a.982.982,0,0,1-.979.98Zm.973-1.959h3.8v-2.215h-3.8Zm-12.242,1.959a.981.981,0,0,1-.979-.98v-4.174a.979.979,0,0,1,.979-.979h5.758a.983.983,0,0,1,.979.979v4.174a.984.984,0,0,1-.979.98Zm.979-1.959h3.8v-2.215h-3.8Zm-917.334,1.959a.984.984,0,0,1-.979-.98v-4.174a.983.983,0,0,1,.979-.979h5.758a.981.981,0,0,1,.98.979v4.174a.982.982,0,0,1-.98.98Zm.975-1.959h3.8v-2.215h-3.8Zm-11.789,1.959a.982.982,0,0,1-.98-.98v-4.174a.981.981,0,0,1,.98-.979h5.758a.98.98,0,0,1,.979.979v4.174a.982.982,0,0,1-.979.98Zm.973-1.959h3.8v-2.215h-3.8Zm-12.242,1.959a.981.981,0,0,1-.979-.98v-4.174a.979.979,0,0,1,.979-.979h5.758a.979.979,0,0,1,.979.979v4.174a.981.981,0,0,1-.979.98Zm.973-1.959h3.8v-2.215h-3.8Zm-12.242,1.959a.981.981,0,0,1-.979-.98v-4.174a.979.979,0,0,1,.979-.979h5.758a.979.979,0,0,1,.979.979v4.174a.981.981,0,0,1-.979.98Zm.975-1.959h3.8v-2.215h-3.8Zm-12.248,1.959a.981.981,0,0,1-.975-.98v-4.174a.979.979,0,0,1,.975-.979h5.762a.984.984,0,0,1,.98.979v4.174a.986.986,0,0,1-.98.98Zm.979-1.959h3.8v-2.215h-3.8Zm813.625-1.812a.979.979,0,0,1,0-1.959h15.119a.979.979,0,0,1,0,1.959Zm-960.982,0a.98.98,0,0,1,0-1.959h15.123a.979.979,0,1,1,0,1.959Zm1365.658-.264a.982.982,0,0,1-.98-.984v-3.934a.977.977,0,0,1,.98-.979h5.432a.981.981,0,0,1,.98.979v3.934a.986.986,0,0,1-.98.984Zm.973-1.963h3.48V22246h-3.48Zm-11.6,1.963a.982.982,0,0,1-.98-.984v-3.934a.977.977,0,0,1,.98-.979H20446a.977.977,0,0,1,.98.979v3.934a.982.982,0,0,1-.98.984Zm.979-1.963h3.475V22246h-3.475Zm-11.611,1.963a.979.979,0,0,1-.973-.984v-3.934a.974.974,0,0,1,.973-.979h5.434a.977.977,0,0,1,.98.979v3.934a.982.982,0,0,1-.98.984Zm.98-1.963h3.48V22246h-3.48Zm-940.7,1.963a.98.98,0,0,1-.979-.984v-3.934a.975.975,0,0,1,.979-.979h5.434a.979.979,0,0,1,.979.979v3.934a.984.984,0,0,1-.979.984Zm.975-1.963h3.48V22246h-3.48Zm-11.605,1.963a.98.98,0,0,1-.979-.984v-3.934a.975.975,0,0,1,.979-.979h5.434a.979.979,0,0,1,.979.979v3.934a.984.984,0,0,1-.979.984Zm.979-1.963h3.475V22246h-3.475Zm-11.609,1.963a.984.984,0,0,1-.979-.984v-3.934a.979.979,0,0,1,.979-.979h5.434a.979.979,0,0,1,.979.979v3.934a.984.984,0,0,1-.979.984Zm.979-1.963h3.48V22246h-3.48Zm1343.725-2.445a.981.981,0,0,1-.979-.98v-6.395a.984.984,0,0,1,.979-.984h4.516a.981.981,0,0,1,.975.984v6.395a.977.977,0,0,1-.975.98Zm.98-1.959h2.557v-4.437h-2.557Zm-12.154,1.959a.981.981,0,0,1-.979-.98v-6.395a.984.984,0,0,1,.979-.984h4.516a.981.981,0,0,1,.975.984v6.395a.977.977,0,0,1-.975.98Zm.975-1.959h2.563v-4.437h-2.562Zm-950.777,1.959a.977.977,0,0,1-.979-.98v-6.395a.98.98,0,0,1,.979-.984h4.51a.98.98,0,0,1,.979.984v6.395a.977.977,0,0,1-.979.98Zm.979-1.959h2.557v-4.437h-2.557Zm-12.152,1.959a.977.977,0,0,1-.979-.98v-6.395a.98.98,0,0,1,.979-.984h4.516a.979.979,0,0,1,.973.984v6.395a.976.976,0,0,1-.973.98Zm.973-1.959h2.563v-4.437h-2.562Zm204.039.816a.981.981,0,0,1,0-1.963h15.119a.981.981,0,0,1,0,1.963Zm-960.982,0a.981.981,0,0,1,0-1.963h15.123a.981.981,0,0,1,0,1.963Zm1365.658-1.2a.977.977,0,0,1-.98-.979v-3.934a.982.982,0,0,1,.98-.984h5.432a.986.986,0,0,1,.98.984v3.934a.981.981,0,0,1-.98.979Zm.973-1.963h3.48v-1.971h-3.48Zm-11.6,1.963a.977.977,0,0,1-.98-.979v-3.934a.982.982,0,0,1,.98-.984H20446a.982.982,0,0,1,.98.984v3.934a.977.977,0,0,1-.98.979Zm.979-1.963h3.475v-1.971h-3.475Zm-11.611,1.963a.974.974,0,0,1-.973-.979v-3.934a.979.979,0,0,1,.973-.984h5.434a.982.982,0,0,1,.98.984v3.934a.977.977,0,0,1-.98.979Zm.98-1.963h3.48v-1.971h-3.48Zm-940.7,1.963a.975.975,0,0,1-.979-.979v-3.934a.98.98,0,0,1,.979-.984h5.434a.984.984,0,0,1,.979.984v3.934a.979.979,0,0,1-.979.979Zm.975-1.963h3.48v-1.971h-3.48Zm-11.605,1.963a.975.975,0,0,1-.979-.979v-3.934a.98.98,0,0,1,.979-.984h5.434a.984.984,0,0,1,.979.984v3.934a.979.979,0,0,1-.979.979Zm.979-1.963h3.475v-1.971h-3.475Zm-11.609,1.963a.979.979,0,0,1-.979-.979v-3.934a.984.984,0,0,1,.979-.984h5.434a.984.984,0,0,1,.979.984v3.934a.979.979,0,0,1-.979.979Zm.979-1.963h3.48v-1.971h-3.48Zm576.586-2.658a.979.979,0,0,1,0-1.959h15.119a.979.979,0,0,1,0,1.959Zm-960.982,0a.98.98,0,0,1,0-1.959h15.123a.979.979,0,1,1,0,1.959Z" transform="translate(-18948.977 -14157)" fill="#3b6da8"/>
    </g>
  </g>
</svg>
