<svg xmlns="http://www.w3.org/2000/svg" xmlns:xlink="http://www.w3.org/1999/xlink" width="231" height="70" viewBox="0 0 231 70">
  <defs>
    <linearGradient id="linear-gradient" x1="0.246" x2="0.695" y2="0.944" gradientUnits="objectBoundingBox">
      <stop offset="0" stop-color="#1f96d5"/>
      <stop offset="1" stop-color="#13549d"/>
    </linearGradient>
  </defs>
  <g id="グループ_34534" data-name="グループ 34534" transform="translate(9815 21548.365)">
    <rect id="長方形_26413" data-name="長方形 26413" width="231" height="70" rx="6" transform="translate(-9815 -21548.365)" fill="#fff"/>
    <rect id="長方形_26447" data-name="長方形 26447" width="14" height="70" rx="6" transform="translate(-9815 -21548.365)" fill="#333" opacity="0"/>
    <g id="グループ_33029" data-name="グループ 33029" transform="translate(-9787 -21534.107)">
      <g id="グループ_22838" data-name="グループ 22838" transform="translate(0 0)">
        <path id="合体_4" data-name="合体 4" d="M15.807,7.025l6.817,20.918L7.653,33.014ZM0,1.213,14.759,3.3,7.653,25.654ZM15.807,0h15.1L28.975,2.181l2.235.627L24.276,25.445Z" transform="translate(0 4.486)" stroke="rgba(0,0,0,0)" stroke-miterlimit="10" stroke-width="1" fill="url(#linear-gradient)"/>
        <path id="パス_15424" data-name="パス 15424" d="M101.859,0l.437,3.156.764,5.505-2.323-.652L91.257,37.5l16.24-7.336,7.856-23.606Z" transform="translate(-66.982 0.001)" fill="#2f3942"/>
      </g>
      <g id="グループ_32992" data-name="グループ 32992" transform="translate(49.672 5.539)">
        <path id="合体_3" data-name="合体 3" d="M10.436,9.153,6.6,21.908,3.183,11.022H0l1.647-1.37H4.191v0l2.382,7.585,3.7-12.3,5.073,13.081L20.1,2.345l-.608-.192L21.605,0l.5,2.974-.69-.217L15.5,22.217Zm61.545,1.261H73.5l3.062,7.566,3.052-7.566h1.543L76.564,21.042Zm35.191,8.968a5.28,5.28,0,0,1-1.464-3.844,5.234,5.234,0,0,1,5.5-5.5,7.958,7.958,0,0,1,1.694.174,5.608,5.608,0,0,1,1.413.5l-.022,1.52a5.388,5.388,0,0,0-1.487-.727,5.5,5.5,0,0,0-1.621-.242,3.847,3.847,0,0,0-2.961,1.188,4.472,4.472,0,0,0-1.1,3.169,3.907,3.907,0,0,0,1.143,2.894,3.965,3.965,0,0,0,2.922,1.138,5.051,5.051,0,0,0,1.638-.282,6.385,6.385,0,0,0,1.628-.844v1.521a6.1,6.1,0,0,1-1.622.625,8.368,8.368,0,0,1-1.9.207A5.007,5.007,0,0,1,107.172,19.382Zm10.01-.011a5.461,5.461,0,0,1-1.356-3.856,5.73,5.73,0,0,1,1.345-3.964,4.491,4.491,0,0,1,3.519-1.508,4.248,4.248,0,0,1,3.322,1.391,5.339,5.339,0,0,1,1.249,3.709v.3h-7.937a4.869,4.869,0,0,0,.968,3.04,3.007,3.007,0,0,0,2.444,1.1,3.242,3.242,0,0,0,1.937-.6,4.409,4.409,0,0,0,1.385-1.8l1.272.7a5.523,5.523,0,0,1-1.874,2.235,4.922,4.922,0,0,1-2.719.715A4.609,4.609,0,0,1,117.182,19.371Zm1.216-7.2a3.2,3.2,0,0,0-.985,2.094h6.2a3.093,3.093,0,0,0-.912-2.128,3.1,3.1,0,0,0-2.2-.754A2.99,2.99,0,0,0,118.4,12.17ZM83.219,19.365a5.647,5.647,0,0,1-1.312-3.895A5.808,5.808,0,0,1,83.2,11.557a4.513,4.513,0,0,1,5.546-.957,3.658,3.658,0,0,1,1.436,1.638V10.414h1.385V20.4H90.184V18.577a3.628,3.628,0,0,1-3.5,2.263A4.41,4.41,0,0,1,83.219,19.365Zm1.143-6.93a4.742,4.742,0,0,0-.912,3.079,4.541,4.541,0,0,0,.873,2.983,3.065,3.065,0,0,0,2.495,1.047A3,3,0,0,0,89.3,18.4a4.938,4.938,0,0,0,.906-3.146,4.3,4.3,0,0,0-.9-2.888,3.074,3.074,0,0,0-2.466-1.053A3.025,3.025,0,0,0,84.363,12.435Zm-22.586,6.93a5.644,5.644,0,0,1-1.312-3.895,5.805,5.805,0,0,1,1.295-3.913A4.2,4.2,0,0,1,65.1,10.043a4.136,4.136,0,0,1,2.19.557,3.681,3.681,0,0,1,1.424,1.638V2.95h1.408V20.4H68.719V18.577a3.591,3.591,0,0,1-3.48,2.263A4.411,4.411,0,0,1,61.777,19.365Zm1.143-6.93a4.742,4.742,0,0,0-.912,3.079,4.538,4.538,0,0,0,.873,2.983,3.061,3.061,0,0,0,2.493,1.047A2.97,2.97,0,0,0,67.841,18.4a4.963,4.963,0,0,0,.9-3.146,4.335,4.335,0,0,0-.89-2.888,3.342,3.342,0,0,0-4.931.067Zm-26.9,7.83a3.756,3.756,0,0,1-1.385-1.689V20.4H33.252V2.95h1.385v9.288A3.685,3.685,0,0,1,36.062,10.6a4.14,4.14,0,0,1,2.19-.557A4.2,4.2,0,0,1,41.6,11.557a5.808,5.808,0,0,1,1.295,3.913,5.644,5.644,0,0,1-1.312,3.895,4.411,4.411,0,0,1-3.462,1.475A3.772,3.772,0,0,1,36.023,20.265Zm-.518-7.9a4.335,4.335,0,0,0-.89,2.888,4.931,4.931,0,0,0,.907,3.146A2.994,2.994,0,0,0,38,19.545,3.041,3.041,0,0,0,40.482,18.5a4.555,4.555,0,0,0,.867-2.989,4.745,4.745,0,0,0-.912-3.079,3.344,3.344,0,0,0-4.933-.067Zm-12.937,7a5.458,5.458,0,0,1-1.357-3.856,5.73,5.73,0,0,1,1.346-3.964,4.491,4.491,0,0,1,3.518-1.508A4.249,4.249,0,0,1,29.4,11.433a5.342,5.342,0,0,1,1.25,3.709v.3H22.708a4.869,4.869,0,0,0,.969,3.04,3.007,3.007,0,0,0,2.444,1.1,3.238,3.238,0,0,0,1.936-.6,4.4,4.4,0,0,0,1.385-1.8l1.273.7a5.533,5.533,0,0,1-1.875,2.235,4.922,4.922,0,0,1-2.719.715A4.608,4.608,0,0,1,22.568,19.371Zm1.216-7.2a3.2,3.2,0,0,0-.985,2.094H29a3.093,3.093,0,0,0-.912-2.128,3.1,3.1,0,0,0-2.2-.754A2.991,2.991,0,0,0,23.783,12.17ZM101.822,20.4V14.242a3.35,3.35,0,0,0-.625-2.224,2.414,2.414,0,0,0-1.932-.726,2.8,2.8,0,0,0-2.336.94,4.727,4.727,0,0,0-.749,2.956V20.4H94.8V10.414h1.318v1.542a4.055,4.055,0,0,1,1.492-1.435,4.194,4.194,0,0,1,2.032-.479,3.578,3.578,0,0,1,2.646.946,3.561,3.561,0,0,1,.946,2.634V20.4Zm-43.943,0-3.616-9.392L46.856,20.4H45.335l.2-.465-.073-.026.171-.206,6.946-16.44,2.191,5.413,2.586-3.121L56.605,5l2.706-1.33-.52,2.97-.678-.509L55.219,9.8l4.292,10.6Zm-9.339-4.21,5.27-6.36-1.336-3.47Z" transform="translate(0 0)" fill="#232b33" stroke="rgba(0,0,0,0)" stroke-miterlimit="10" stroke-width="1"/>
        <path id="パス_50498" data-name="パス 50498" d="M-199.864-31.122h-.672l1.26-10.164h.014l4.046,6.958-.322-.042,5.768-6.916h.014l-1.26,10.164h-.672l1.05-8.582.014.336-4.858,5.838h-.028l-3.458-5.838.154-.308Zm14.672-9.94h6.132l-.084.644h-5.432l-.49,3.976h4.886l-.084.644h-4.886l-.476,4.018H-180l-.084.658h-6.328Zm9.128,9.94,1.218-9.94h2.282a6.485,6.485,0,0,1,2.4.385,3.849,3.849,0,0,1,1.519,1.036,3.734,3.734,0,0,1,.784,1.484,5.606,5.606,0,0,1,.182,1.729,5.78,5.78,0,0,1-.476,2.268,4.787,4.787,0,0,1-1.218,1.666,5.35,5.35,0,0,1-1.771,1.022,6.509,6.509,0,0,1-2.163.35Zm.756-.658h2.058a5.83,5.83,0,0,0,1.869-.294,4.5,4.5,0,0,0,1.547-.882,4.113,4.113,0,0,0,1.057-1.463,5.31,5.31,0,0,0,.413-2.023,4.862,4.862,0,0,0-.2-1.6,3.1,3.1,0,0,0-.728-1.246,3.361,3.361,0,0,0-1.274-.812,5.256,5.256,0,0,0-1.834-.287h-1.862Zm12.194-9.282h.7l-1.218,9.94h-.7Zm3.878,9.94h-.686l5.474-10.374h.056l2.926,10.374h-.77l-2.548-9.2.518-.266Zm1.834-3.934h4.41l.112.644h-4.774Z" transform="translate(270.73 67.068)" fill="#e60013"/>
        <path id="線_1289" data-name="線 1289" d="M12.5-.25H0V-.5H12.5Z" transform="translate(51.079 34.071)" fill="#e60013"/>
      </g>
    </g>
  </g>
</svg>
