<svg xmlns="http://www.w3.org/2000/svg" xmlns:xlink="http://www.w3.org/1999/xlink" width="341.377" height="186.055" viewBox="0 0 341.377 186.055">
  <defs>
    <linearGradient id="linear-gradient" x1="0.246" x2="0.695" y2="0.944" gradientUnits="objectBoundingBox">
      <stop offset="0" stop-color="#1f96d5"/>
      <stop offset="1" stop-color="#13549d"/>
    </linearGradient>
  </defs>
  <g id="グループ_34465" data-name="グループ 34465" transform="translate(-24.286 -309.996)">
    <g id="グループ_32990" data-name="グループ 32990" transform="translate(-585 -115.066)">
      <g id="グループ_22838" data-name="グループ 22838" transform="translate(610 425.063)">
        <path id="合体_4" data-name="合体 4" d="M30.711,13.649l13.244,40.64L14.868,64.141ZM0,2.357,28.674,6.41,14.868,49.843ZM30.711,0H60.045L56.294,4.238l4.341,1.218L47.165,49.436Z" transform="translate(0 8.716)" stroke="rgba(0,0,0,0)" stroke-miterlimit="10" stroke-width="1" fill="url(#linear-gradient)"/>
        <path id="パス_15424" data-name="パス 15424" d="M111.854,0l.85,6.131,1.484,10.7-4.514-1.267-18.416,57.3L122.809,58.6,138.073,12.74Z" transform="translate(-44.093 0.001)" fill="#2f3942"/>
      </g>
      <g id="グループ_32992" data-name="グループ 32992" transform="translate(706.505 435.823)">
        <path id="合体_3" data-name="合体 3" d="M20.276,17.783l-7.45,24.781L6.185,21.415H0l3.2-2.661H8.142v0l4.629,14.736,7.186-23.9L29.813,35,39.058,4.555l-1.182-.372L41.976,0l.964,5.777L41.6,5.355,30.12,43.164Zm119.573,2.451H142.8l5.95,14.7,5.929-14.7h3l-8.927,20.648Zm68.372,17.423a10.258,10.258,0,0,1-2.844-7.469,10.169,10.169,0,0,1,10.677-10.676,15.462,15.462,0,0,1,3.292.338,10.9,10.9,0,0,1,2.746.974l-.043,2.954a10.469,10.469,0,0,0-2.889-1.412,10.69,10.69,0,0,0-3.15-.47,7.473,7.473,0,0,0-5.754,2.309,8.688,8.688,0,0,0-2.143,6.157,7.591,7.591,0,0,0,2.22,5.622,7.7,7.7,0,0,0,5.677,2.21,9.814,9.814,0,0,0,3.182-.549A12.407,12.407,0,0,0,222.353,36v2.955a11.848,11.848,0,0,1-3.151,1.214,16.257,16.257,0,0,1-3.7.4A9.727,9.727,0,0,1,208.221,37.656Zm19.447-.022a10.609,10.609,0,0,1-2.635-7.492,11.133,11.133,0,0,1,2.613-7.7,8.725,8.725,0,0,1,6.837-2.931,8.253,8.253,0,0,1,6.454,2.7,10.373,10.373,0,0,1,2.427,7.206v.592H227.942a9.46,9.46,0,0,0,1.881,5.906,5.843,5.843,0,0,0,4.748,2.143,6.3,6.3,0,0,0,3.762-1.159,8.565,8.565,0,0,0,2.69-3.5l2.471,1.355a10.73,10.73,0,0,1-3.641,4.343,9.563,9.563,0,0,1-5.283,1.39A8.955,8.955,0,0,1,227.668,37.635Zm2.362-13.989a6.212,6.212,0,0,0-1.913,4.069H240.17a6.009,6.009,0,0,0-1.771-4.135,6.022,6.022,0,0,0-4.267-1.464A5.809,5.809,0,0,0,230.03,23.645ZM161.683,37.624a10.971,10.971,0,0,1-2.548-7.567,11.285,11.285,0,0,1,2.516-7.6,8.768,8.768,0,0,1,10.775-1.86,7.108,7.108,0,0,1,2.789,3.183V20.233h2.69v19.4h-2.69V36.092a7.048,7.048,0,0,1-6.8,4.4A8.569,8.569,0,0,1,161.683,37.624ZM163.9,24.16a9.213,9.213,0,0,0-1.772,5.983,8.823,8.823,0,0,0,1.7,5.8,5.954,5.954,0,0,0,4.846,2.034,5.822,5.822,0,0,0,4.824-2.221,9.594,9.594,0,0,0,1.76-6.113,8.351,8.351,0,0,0-1.749-5.611,5.972,5.972,0,0,0-4.791-2.045A5.877,5.877,0,0,0,163.9,24.16ZM120.024,37.624a10.965,10.965,0,0,1-2.548-7.567,11.279,11.279,0,0,1,2.516-7.6,8.154,8.154,0,0,1,6.5-2.943,8.037,8.037,0,0,1,4.255,1.083,7.152,7.152,0,0,1,2.767,3.183V5.731h2.736V39.636H133.51V36.092a6.977,6.977,0,0,1-6.761,4.4A8.57,8.57,0,0,1,120.024,37.624Zm2.221-13.464a9.213,9.213,0,0,0-1.772,5.983,8.817,8.817,0,0,0,1.7,5.8,5.948,5.948,0,0,0,4.844,2.034,5.77,5.77,0,0,0,4.792-2.221,9.643,9.643,0,0,0,1.749-6.113,8.422,8.422,0,0,0-1.729-5.611,6.493,6.493,0,0,0-9.581.131ZM69.988,39.373A7.3,7.3,0,0,1,67.3,36.092v3.544H64.6V5.731H67.3V23.778a7.159,7.159,0,0,1,2.767-3.183,8.044,8.044,0,0,1,4.256-1.083,8.159,8.159,0,0,1,6.5,2.943,11.285,11.285,0,0,1,2.516,7.6,10.966,10.966,0,0,1-2.55,7.567,8.57,8.57,0,0,1-6.726,2.866A7.328,7.328,0,0,1,69.988,39.373ZM68.981,24.029a8.422,8.422,0,0,0-1.729,5.611,9.58,9.58,0,0,0,1.763,6.113,5.818,5.818,0,0,0,4.824,2.221,5.909,5.909,0,0,0,4.813-2.024,8.851,8.851,0,0,0,1.684-5.807,9.22,9.22,0,0,0-1.771-5.983,6.5,6.5,0,0,0-9.583-.131ZM43.846,37.635a10.6,10.6,0,0,1-2.636-7.492,11.133,11.133,0,0,1,2.615-7.7,8.726,8.726,0,0,1,6.835-2.931,8.256,8.256,0,0,1,6.455,2.7,10.379,10.379,0,0,1,2.428,7.206v.592H44.119A9.46,9.46,0,0,0,46,35.918a5.841,5.841,0,0,0,4.748,2.143A6.29,6.29,0,0,0,54.51,36.9,8.547,8.547,0,0,0,57.2,33.4l2.473,1.355A10.75,10.75,0,0,1,56.032,39.1a9.563,9.563,0,0,1-5.283,1.39A8.953,8.953,0,0,1,43.846,37.635Zm2.362-13.989a6.207,6.207,0,0,0-1.913,4.069H56.348a6.01,6.01,0,0,0-1.772-4.135,6.016,6.016,0,0,0-4.267-1.464A5.811,5.811,0,0,0,46.208,23.645ZM197.826,39.636V27.671a6.508,6.508,0,0,0-1.214-4.32,4.691,4.691,0,0,0-3.753-1.41,5.45,5.45,0,0,0-4.538,1.826q-1.457,1.826-1.455,5.742V39.636h-2.692v-19.4h2.56v3a7.878,7.878,0,0,1,2.9-2.788,8.148,8.148,0,0,1,3.948-.93,6.952,6.952,0,0,1,5.141,1.837,6.919,6.919,0,0,1,1.837,5.118V39.636Zm-85.375,0-7.025-18.248L91.034,39.635H88.079l.382-.9-.141-.05.331-.4,13.495-31.94L106.4,16.859l5.025-6.064-1.451-1.087,5.258-2.584-1.009,5.77-1.318-.989-5.624,7.13,8.339,20.6ZM94.306,31.457,104.545,19.1l-2.6-6.742Z" transform="translate(0 0)" fill="#232b33" stroke="rgba(0,0,0,0)" stroke-miterlimit="10" stroke-width="1"/>
        <g id="グループ_32994" data-name="グループ 32994" transform="translate(106.524 48.623)">
          <path id="パス_51621" data-name="パス 51621" d="M-181.646-24.508A9.381,9.381,0,0,0-183-25.094a5.194,5.194,0,0,0-1.635-.306,3.425,3.425,0,0,0-1.338.227,2.368,2.368,0,0,0-.848.577,2.149,2.149,0,0,0-.446.726,2.514,2.514,0,0,0-.149.656,1.549,1.549,0,0,0,.358,1.067,3.389,3.389,0,0,0,1,.8q.621.341,1.3.673a12.519,12.519,0,0,1,1.443.752,3.592,3.592,0,0,1,1.128,1.067,2.734,2.734,0,0,1,.4,1.661,3.711,3.711,0,0,1-.262,1.215,3.767,3.767,0,0,1-.734,1.18,3.671,3.671,0,0,1-1.259.883,4.379,4.379,0,0,1-1.853.323,6.135,6.135,0,0,1-1.661-.245,6.04,6.04,0,0,1-1.329-.568,5.9,5.9,0,0,1-.979-.708l.472-.664a4.993,4.993,0,0,0,.918.673,5.533,5.533,0,0,0,1.224.525,5.286,5.286,0,0,0,1.39.219,3.312,3.312,0,0,0,1.731-.42,2.9,2.9,0,0,0,1.067-1.075,2.863,2.863,0,0,0,.385-1.338,1.98,1.98,0,0,0-.367-1.268,3.414,3.414,0,0,0-1-.883,11.246,11.246,0,0,0-1.294-.664q-.542-.245-1.084-.533a5.938,5.938,0,0,1-.979-.647,2.611,2.611,0,0,1-.682-.839,2.188,2.188,0,0,1-.21-1.128,2.8,2.8,0,0,1,.533-1.6,3.2,3.2,0,0,1,1.311-1.032,4.394,4.394,0,0,1,1.792-.358,6.349,6.349,0,0,1,1.241.157,8.3,8.3,0,0,1,1.172.358,6.316,6.316,0,0,1,1.014.5Zm3.794,10.789h-.857l6.837-12.957h.07l3.655,12.957h-.962l-3.182-11.488.647-.332Zm2.291-4.913h5.508l.14.8h-5.963Zm16.4-7.5a4.387,4.387,0,0,1,1.25.184,3.585,3.585,0,0,1,1.128.56,2.7,2.7,0,0,1,.8.962,3.079,3.079,0,0,1,.3,1.408,4.325,4.325,0,0,1-.254,1.451,3.923,3.923,0,0,1-.8,1.32,3.864,3.864,0,0,1-1.381.962,5.1,5.1,0,0,1-2.011.358h-1.888l-.629,5.211h-.874l1.521-12.415ZM-160-19.752a3.642,3.642,0,0,0,1.652-.332,3.087,3.087,0,0,0,1.049-.831,3.184,3.184,0,0,0,.56-1.04,3.334,3.334,0,0,0,.166-.962,2.31,2.31,0,0,0-.323-1.207,2.264,2.264,0,0,0-.936-.857,3.177,3.177,0,0,0-1.469-.315h-1.923l-.682,5.543Zm12.205-6.382a4.387,4.387,0,0,1,1.25.184,3.584,3.584,0,0,1,1.128.56,2.7,2.7,0,0,1,.8.962,3.079,3.079,0,0,1,.3,1.408,4.325,4.325,0,0,1-.254,1.451,3.922,3.922,0,0,1-.8,1.32,3.863,3.863,0,0,1-1.381.962,5.1,5.1,0,0,1-2.011.358h-1.888l-.63,5.211h-.874l1.521-12.415Zm-.839,6.382a3.642,3.642,0,0,0,1.652-.332,3.088,3.088,0,0,0,1.049-.831,3.184,3.184,0,0,0,.56-1.04,3.333,3.333,0,0,0,.166-.962,2.309,2.309,0,0,0-.324-1.207,2.264,2.264,0,0,0-.935-.857,3.177,3.177,0,0,0-1.469-.315h-1.923l-.682,5.543Zm13.8,6.155a6.408,6.408,0,0,1-2.291-.411,5.729,5.729,0,0,1-1.906-1.18,5.552,5.552,0,0,1-1.294-1.845,5.965,5.965,0,0,1-.472-2.422,6.831,6.831,0,0,1,.437-2.352,7.256,7.256,0,0,1,1.285-2.2,6.418,6.418,0,0,1,2.116-1.626,6.539,6.539,0,0,1,2.911-.621,6.408,6.408,0,0,1,2.291.411,5.729,5.729,0,0,1,1.906,1.18,5.529,5.529,0,0,1,1.294,1.853,6.027,6.027,0,0,1,.472,2.431,6.76,6.76,0,0,1-.437,2.343,7.284,7.284,0,0,1-1.285,2.194,6.442,6.442,0,0,1-2.107,1.626A6.525,6.525,0,0,1-134.837-13.6Zm.018-.822a5.616,5.616,0,0,0,2.527-.542,5.7,5.7,0,0,0,1.836-1.416,6.159,6.159,0,0,0,1.119-1.923,6.045,6.045,0,0,0,.376-2.046,4.994,4.994,0,0,0-.385-1.95,5.17,5.17,0,0,0-1.075-1.626,5.01,5.01,0,0,0-1.626-1.11,5.1,5.1,0,0,0-2.037-.4,5.561,5.561,0,0,0-2.518.542,5.669,5.669,0,0,0-1.827,1.425,6.292,6.292,0,0,0-1.119,1.923,6.018,6.018,0,0,0-.376,2.055,5.094,5.094,0,0,0,.376,1.95,4.947,4.947,0,0,0,1.067,1.617,5.079,5.079,0,0,0,1.626,1.1A5.1,5.1,0,0,0-134.819-14.419Zm15.265-11.715a4.625,4.625,0,0,1,1.346.2,3.341,3.341,0,0,1,1.18.629,2.662,2.662,0,0,1,.778,1.093,3.3,3.3,0,0,1,.157,1.591,4.839,4.839,0,0,1-.376,1.355,3.783,3.783,0,0,1-.822,1.18,3.926,3.926,0,0,1-1.329.839,5.152,5.152,0,0,1-1.9.315h-1.906l-.647,5.211h-.839l1.521-12.415Zm-.892,6.382a3.787,3.787,0,0,0,1.976-.446,2.883,2.883,0,0,0,1.084-1.1,3.571,3.571,0,0,0,.42-1.285,2.506,2.506,0,0,0-.079-1.049,2.3,2.3,0,0,0-.481-.866,2.317,2.317,0,0,0-.848-.595,3,3,0,0,0-1.18-.219h-2.1l-.664,5.56Zm1.714.385,2.763,5.648h-1l-2.763-5.63Zm13.464,5.77a6.408,6.408,0,0,1-2.291-.411,5.729,5.729,0,0,1-1.906-1.18,5.552,5.552,0,0,1-1.294-1.845,5.965,5.965,0,0,1-.472-2.422,6.832,6.832,0,0,1,.437-2.352,7.255,7.255,0,0,1,1.285-2.2,6.417,6.417,0,0,1,2.116-1.626,6.539,6.539,0,0,1,2.911-.621,6.408,6.408,0,0,1,2.291.411,5.729,5.729,0,0,1,1.906,1.18,5.529,5.529,0,0,1,1.294,1.853,6.027,6.027,0,0,1,.472,2.431,6.76,6.76,0,0,1-.437,2.343,7.284,7.284,0,0,1-1.285,2.194,6.443,6.443,0,0,1-2.107,1.626A6.525,6.525,0,0,1-105.268-13.6Zm.018-.822a5.616,5.616,0,0,0,2.527-.542,5.7,5.7,0,0,0,1.836-1.416A6.159,6.159,0,0,0-99.769-18.3a6.045,6.045,0,0,0,.376-2.046,4.994,4.994,0,0,0-.385-1.95,5.169,5.169,0,0,0-1.075-1.626,5.01,5.01,0,0,0-1.626-1.11,5.1,5.1,0,0,0-2.037-.4,5.561,5.561,0,0,0-2.518.542,5.669,5.669,0,0,0-1.827,1.425,6.293,6.293,0,0,0-1.119,1.923,6.017,6.017,0,0,0-.376,2.055,5.094,5.094,0,0,0,.376,1.95,4.947,4.947,0,0,0,1.067,1.617,5.079,5.079,0,0,0,1.626,1.1A5.1,5.1,0,0,0-105.251-14.419Z" transform="translate(224.35 26.676)" fill="#e60013"/>
          <path id="線_1289" data-name="線 1289" d="M24.286-.014H0V-.5H24.286Z" transform="translate(0 8.843)" fill="#e60013"/>
        </g>
      </g>
    </g>
    <path id="パス_51620" data-name="パス 51620" d="M-300.18-30.931a.561.561,0,0,1-.37.132.426.426,0,0,1-.344-.159q-.026-.132-.132-.727t-.251-1.428q-.145-.833-.291-1.692t-.238-1.533a8.163,8.163,0,0,1-.093-.939.871.871,0,0,1,.278-.753,2.066,2.066,0,0,1,1.1-.2,2.074,2.074,0,0,1,1.084.2.851.851,0,0,1,.291.753,8.163,8.163,0,0,1-.093.939q-.093.674-.238,1.547t-.3,1.705q-.159.833-.264,1.428T-300.18-30.931Zm-4.759,0q-.423.317-.714-.026-.026-.132-.132-.727t-.264-1.428q-.159-.833-.3-1.692t-.238-1.533a8.161,8.161,0,0,1-.092-.939.851.851,0,0,1,.291-.753,2.074,2.074,0,0,1,1.084-.2,2.066,2.066,0,0,1,1.1.2.871.871,0,0,1,.278.753,8.163,8.163,0,0,1-.093.939q-.093.674-.238,1.547t-.291,1.705q-.145.833-.251,1.428T-304.939-30.931Zm16.259,13.087a1,1,0,0,1-.595-.132.787.787,0,0,1-.251-.449q-.053-.317-.264-1.269t-.516-2.3q-.3-1.348-.674-2.921t-.74-3.159q-.37-1.586-.7-2.961t-.568-2.353q-.238-.978-.344-1.322a2.471,2.471,0,0,0-.9-1.467,2.241,2.241,0,0,0-1.163-.33q-.37,0-.37-.423t.37-.423q.291,0,.978.026t1.692.026q1.19,0,1.89-.026t.965-.026q.37,0,.37.423t-.37.423a1.127,1.127,0,0,0-.991.476,1.977,1.977,0,0,0-.092,1.533q.106.449.344,1.467t.542,2.353q.3,1.335.635,2.75t.621,2.67q.291,1.256.489,2.115t.251,1.1q.053.185.159.172t.159-.2q.106-.344.344-1.2t.542-2.022q.3-1.163.648-2.459t.661-2.512q.317-1.216.555-2.168t.317-1.4a2.2,2.2,0,0,0-.3-2.009,2.014,2.014,0,0,0-1.573-.661q-.37,0-.37-.423t.37-.423q.264,0,1.1.026t1.837.026q1.163,0,2.049-.026t1.071-.026q.37,0,.37.423t-.37.423a1.887,1.887,0,0,0-1.441.4q-.33.4-.066,1.613.106.423.344,1.454t.542,2.379q.3,1.348.648,2.763t.634,2.683q.291,1.269.489,2.128t.251,1.044q.026.185.145.172t.145-.2q.106-.344.344-1.216t.555-2.075q.317-1.2.674-2.525t.674-2.564q.317-1.243.555-2.221t.317-1.428a2.935,2.935,0,0,0,0-1.864,1.253,1.253,0,0,0-1.216-.542q-.37,0-.37-.423t.37-.423q.264,0,.886.026t1.362.026q.925,0,1.388-.013t.7-.026q.238-.013.4-.013.37,0,.37.423t-.37.423a2.056,2.056,0,0,0-1.533.621,4.213,4.213,0,0,0-.952,1.732q-.159.555-.516,1.837t-.806,2.948q-.449,1.666-.925,3.45t-.886,3.384q-.41,1.6-.7,2.71t-.37,1.454q-.132.529-.846.529a1.064,1.064,0,0,1-.621-.132.683.683,0,0,1-.225-.449q-.053-.344-.3-1.481t-.621-2.75q-.37-1.613-.793-3.4t-.82-3.477q-.4-1.692-.714-2.961a.142.142,0,0,0-.132-.093.109.109,0,0,0-.132.093q-.238,1.243-.661,2.921t-.925,3.49q-.5,1.811-.952,3.437t-.78,2.776q-.33,1.15-.41,1.494Q-287.94-17.844-288.68-17.844Zm23.027,0a5.877,5.877,0,0,1-3.027-.767,5.321,5.321,0,0,1-2.023-2.075,6.11,6.11,0,0,1-.714-2.974,6.41,6.41,0,0,1,.41-2.26,6.6,6.6,0,0,1,1.163-1.983,5.791,5.791,0,0,1,1.785-1.414,4.852,4.852,0,0,1,2.247-.529,4.238,4.238,0,0,1,2.221.555,5.016,5.016,0,0,1,1.533,1.414,6.366,6.366,0,0,1,.9,1.8,5.813,5.813,0,0,1,.291,1.705q0,.4-.476.4h-7.112a.512.512,0,0,0-.344.079.41.41,0,0,0-.079.291,6.53,6.53,0,0,0,.476,2.75,2.994,2.994,0,0,0,1.269,1.428,3.6,3.6,0,0,0,1.718.423,3.8,3.8,0,0,0,1.666-.344,4.664,4.664,0,0,0,1.19-.793,7.073,7.073,0,0,0,.74-.793.4.4,0,0,1,.635-.106.38.38,0,0,1,.132.582,6.2,6.2,0,0,1-.859,1.071,5.457,5.457,0,0,1-1.52,1.084A4.919,4.919,0,0,1-265.652-17.844Zm-2.723-7.165h4.415q.5,0,.5-.449a6.246,6.246,0,0,0-.211-1.56,3.156,3.156,0,0,0-.74-1.388,1.889,1.889,0,0,0-1.454-.568,1.929,1.929,0,0,0-1.362.529,3.982,3.982,0,0,0-.925,1.348,8.562,8.562,0,0,0-.542,1.745Q-268.772-25.009-268.376-25.009Zm17.079,7.165a3.645,3.645,0,0,1-2.062-.516A5.93,5.93,0,0,1-254.5-19.3q-.185-.212-.291-.2a.343.343,0,0,0-.211.145q-.106.159-.41.608t-.436.635q-.106.185-.41.106t-.278-.344q.026-.291.132-1.229a18.906,18.906,0,0,0,.106-2.1V-35.161a2.171,2.171,0,0,0-.119-.886.523.523,0,0,0-.463-.251,3.479,3.479,0,0,0-.5-.093q-.317-.04-.476-.066-.344-.026-.344-.423a.5.5,0,0,1,.093-.291.316.316,0,0,1,.278-.132q.079,0,.5-.013t.978-.013q.555,0,1.018-.013t.621-.013q.582,0,.582.635v8.143a.164.164,0,0,0,.119.172q.119.04.251-.145a5.937,5.937,0,0,1,1.031-.82,3.547,3.547,0,0,1,1.983-.476,4.678,4.678,0,0,1,1.52.278,4.056,4.056,0,0,1,1.494.939,4.884,4.884,0,0,1,1.124,1.785A7.929,7.929,0,0,1-246.168-24a7.286,7.286,0,0,1-.516,2.921,5.252,5.252,0,0,1-1.335,1.89,5.4,5.4,0,0,1-1.692,1.031A4.688,4.688,0,0,1-251.3-17.844Zm-.185-.9a2.628,2.628,0,0,0,1.6-.476,2.951,2.951,0,0,0,.978-1.626,11.92,11.92,0,0,0,.33-3.159,10.1,10.1,0,0,0-.357-3.067,2.762,2.762,0,0,0-.965-1.467,2.4,2.4,0,0,0-1.375-.41,2.673,2.673,0,0,0-1.282.37,2.971,2.971,0,0,0-1.137,1.19,4.4,4.4,0,0,0-.463,2.168v2.406a5,5,0,0,0,.767,3.12A2.353,2.353,0,0,0-251.482-18.743Zm17.005.561a.349.349,0,0,1-.157-.272.336.336,0,0,1,.094-.272,13.237,13.237,0,0,0,2.606-.753,9.617,9.617,0,0,0,2.4-1.381,6.622,6.622,0,0,0,1.748-2.083,5.845,5.845,0,0,0,.659-2.815,7.434,7.434,0,0,0-.774-3.516,5.545,5.545,0,0,0-2.145-2.26,6.4,6.4,0,0,0-3.192-.816v1.3a15.347,15.347,0,0,1-.345,3.265,18.5,18.5,0,0,1-.9,2.972,14.071,14.071,0,0,1-1.235,2.428,7.842,7.842,0,0,1-1.35,1.633,1.959,1.959,0,0,1-1.235.586,2.594,2.594,0,0,1-1-.209,2.6,2.6,0,0,1-.921-.67,4.564,4.564,0,0,1-.921-1.622,7.625,7.625,0,0,1-.356-2.5,7.176,7.176,0,0,1,.586-2.784,8.831,8.831,0,0,1,1.674-2.585,8.487,8.487,0,0,1,2.585-1.9,7.582,7.582,0,0,1,3.338-.722,8.6,8.6,0,0,1,3.1.544,7.472,7.472,0,0,1,2.48,1.538A6.941,6.941,0,0,1-226.1-28.71a7.748,7.748,0,0,1,.586,3.056,6.24,6.24,0,0,1-.785,3.192,7.19,7.19,0,0,1-2.083,2.271,10.116,10.116,0,0,1-2.888,1.413A13.846,13.846,0,0,1-234.477-18.182Zm-3.893-3.851a1.678,1.678,0,0,0,1.067-.534,6.612,6.612,0,0,0,1.151-1.465,14.206,14.206,0,0,0,1.036-2.114,15.846,15.846,0,0,0,.753-2.47,11.836,11.836,0,0,0,.283-2.543V-32.31a6.306,6.306,0,0,0-3.1,1.183,6.9,6.9,0,0,0-2.124,2.522,7.475,7.475,0,0,0-.764,3.391,4.884,4.884,0,0,0,.471,2.292A1.393,1.393,0,0,0-238.37-22.034Zm24.225,4.427a.5.5,0,0,1-.317-.225.429.429,0,0,1-.053-.357,15.979,15.979,0,0,0,2.472-2.419,12.087,12.087,0,0,0,1.917-3.358,15.95,15.95,0,0,0,.952-4.693q-1.666.132-3.106.3t-2.446.383a3.6,3.6,0,0,0-1.071.317,2.632,2.632,0,0,1-1.1.238,1.516,1.516,0,0,1-.952-.423,4.626,4.626,0,0,1-.872-.978,3.55,3.55,0,0,1-.476-.925q.079-.4.476-.264a1.852,1.852,0,0,0,1.176.635,11.435,11.435,0,0,0,1.705-.026,1.591,1.591,0,0,1,.238-.026q.529-.053,1.533-.119t2.3-.159q1.3-.093,2.644-.172.026-.582.013-1.19t-.066-1.269a4.146,4.146,0,0,0-.106-.74,1.054,1.054,0,0,0-.264-.5q-1.692.291-3.292.5t-2.763.291a.4.4,0,0,1-.185-.344.465.465,0,0,1,.132-.344q1.322-.211,3-.542a34.5,34.5,0,0,0,3.41-.859,21.41,21.41,0,0,0,3.186-1.243q.635-.317.727-.648a.942.942,0,0,0-.225-.78q.053-.423.423-.37a4.974,4.974,0,0,1,.767.608q.423.4.82.806a4.552,4.552,0,0,1,.608.753.5.5,0,0,1,.079.582.675.675,0,0,1-.555.264,5.75,5.75,0,0,0-1.639.291q-.661.185-1.414.37t-1.573.37a4.683,4.683,0,0,1,.476.119,2.269,2.269,0,0,1,.317.119q.555.264.132.872a1.218,1.218,0,0,0-.212.621,6.334,6.334,0,0,0,.026.965q.026.291.026.582v.582q1.56-.132,2.829-.212t1.851-.106a3.8,3.8,0,0,0,.846-.119,3.935,3.935,0,0,0,.846-.41,1.5,1.5,0,0,1,1.322.106q.344.185.793.476a4.131,4.131,0,0,1,.634.476.62.62,0,0,1,.212.635q-.106.291-.687.264-.37-.026-.952-.04t-1.176-.013h-1.018q-1.269,0-2.7.053t-2.855.132a14.015,14.015,0,0,1-1.2,5.1,12.776,12.776,0,0,1-2.5,3.648A14.522,14.522,0,0,1-214.145-17.606Zm24.006-.5a.446.446,0,0,1-.449-.555,30.2,30.2,0,0,0,2.763-3.027,30.824,30.824,0,0,0,2.736-4.045,25.63,25.63,0,0,0,2.141-4.878,15.836,15.836,0,0,0-2.089.4q-.211.053-.4.106a3.105,3.105,0,0,0-.37.132q-.37.132-.767.238a3.021,3.021,0,0,1-.925.079,1.418,1.418,0,0,1-.912-.516,6.5,6.5,0,0,1-.82-1.071q-.357-.582-.489-.846a.346.346,0,0,1,.449-.291,3.039,3.039,0,0,0,.991.661,3.274,3.274,0,0,0,.991.212q.4,0,1.745-.119t2.961-.251q.212-.872.383-1.785t.278-1.837a.723.723,0,0,1,.026-.159,4.786,4.786,0,0,0-.026-1.163q-.079-.423-.82-.687a.4.4,0,0,1-.026-.317.321.321,0,0,1,.185-.212,3.952,3.952,0,0,1,.82.185q.5.159,1.018.357a5.876,5.876,0,0,1,.833.383.916.916,0,0,1,.582.661.819.819,0,0,1-.264.714,1.565,1.565,0,0,0-.423.621,3.5,3.5,0,0,0-.185.806q-.079.582-.212,1.15t-.264,1.124q.687-.053,1.3-.106t1.084-.079a4.15,4.15,0,0,0,.886-.172,2.922,2.922,0,0,0,.648-.3,2.3,2.3,0,0,1,.674-.37.873.873,0,0,1,.595.159,7.363,7.363,0,0,1,.886.595q.542.41.806.621a.808.808,0,0,1,.357.516q.04.278-.357.568a1.047,1.047,0,0,0-.37.608q-.079.37-.132.82a19.927,19.927,0,0,1-.5,2.379q-.344,1.269-.793,2.485a19.267,19.267,0,0,1-.965,2.208,9.188,9.188,0,0,1-1.018,1.6,6.666,6.666,0,0,1-1.176,1.11,2.9,2.9,0,0,1-1.467.555.8.8,0,0,1-.529-.093,1.037,1.037,0,0,1-.291-.436,3.226,3.226,0,0,0-.846-1.4,5.228,5.228,0,0,0-1.348-.925.388.388,0,0,1,.026-.317.326.326,0,0,1,.238-.159q.423.132,1.031.383t1.11.436a1.519,1.519,0,0,0,.952.132,1.924,1.924,0,0,0,.767-.555,6.165,6.165,0,0,0,.859-1.3,19.6,19.6,0,0,0,.925-2.062,21.98,21.98,0,0,0,.806-2.538,18.025,18.025,0,0,0,.476-2.7.889.889,0,0,0-.053-.555q-.106-.185-.529-.185-.872,0-2.022.066t-2.393.2a24.312,24.312,0,0,1-2.406,5.235,28.409,28.409,0,0,1-3.265,4.375A23.674,23.674,0,0,1-190.139-18.109Zm30.694.317q-.5-.185-.317-.635a25.44,25.44,0,0,0,4.494-3,26.25,26.25,0,0,0,3.794-3.873,20.755,20.755,0,0,0,2.71-4.415q.159-.37.053-.542t-.582-.172q-.291,0-.991.053t-1.639.159q-.939.106-1.917.238t-1.811.291a12.167,12.167,0,0,0-1.335.317,11.821,11.821,0,0,0-1.124.383,2.5,2.5,0,0,1-.939.2,1.316,1.316,0,0,1-.925-.449,4.807,4.807,0,0,1-.78-1.031,6.421,6.421,0,0,1-.463-.952q.159-.4.476-.264a2.062,2.062,0,0,0,1.124.608,7.59,7.59,0,0,0,1.811,0q.555-.053,1.586-.145t2.221-.225l2.274-.251q1.084-.119,1.745-.2a3.273,3.273,0,0,0,.648-.132,1.347,1.347,0,0,0,.436-.264,1.088,1.088,0,0,1,.582-.3.707.707,0,0,1,.476.172,4.261,4.261,0,0,1,.714.529q.423.37.82.753a4.21,4.21,0,0,1,.555.621.688.688,0,0,1,.185.608q-.079.264-.5.4a1.369,1.369,0,0,0-.635.449,4.209,4.209,0,0,0-.5.74,20.659,20.659,0,0,1-3.093,4.164,25.351,25.351,0,0,1-4.177,3.516A27.412,27.412,0,0,1-159.445-17.791Zm2.512-16.6a1.346,1.346,0,0,1-.912-.4,4.2,4.2,0,0,1-.753-.912,6.145,6.145,0,0,1-.476-.912q.079-.37.476-.264a1.582,1.582,0,0,0,.978.635,8.67,8.67,0,0,0,1.454.053,1.7,1.7,0,0,0,.212-.013,1.934,1.934,0,0,1,.238-.013q.555-.026,1.56-.132t2.036-.291a13.574,13.574,0,0,0,1.692-.4.076.076,0,0,0,.053-.026,2.916,2.916,0,0,1,.357-.079.992.992,0,0,1,.463.079,2.9,2.9,0,0,1,1.375.806q.317.436.145.714a.654.654,0,0,1-.648.251,16.63,16.63,0,0,0-2.3,0q-1.3.079-2.472.225t-1.864.278a3.071,3.071,0,0,0-.9.251A1.486,1.486,0,0,1-156.934-34.394Zm26.279,3.463a.561.561,0,0,1-.37.132.426.426,0,0,1-.344-.159q-.026-.132-.132-.727t-.251-1.428q-.145-.833-.291-1.692t-.238-1.533a8.162,8.162,0,0,1-.093-.939.871.871,0,0,1,.278-.753,2.066,2.066,0,0,1,1.1-.2,2.074,2.074,0,0,1,1.084.2.851.851,0,0,1,.291.753,8.16,8.16,0,0,1-.093.939q-.093.674-.238,1.547t-.3,1.705q-.159.833-.264,1.428T-130.654-30.931Zm-4.759,0q-.423.317-.714-.026-.026-.132-.132-.727t-.264-1.428q-.159-.833-.3-1.692t-.238-1.533a8.163,8.163,0,0,1-.093-.939.851.851,0,0,1,.291-.753,2.074,2.074,0,0,1,1.084-.2,2.066,2.066,0,0,1,1.1.2.871.871,0,0,1,.278.753,8.157,8.157,0,0,1-.093.939q-.093.674-.238,1.547t-.291,1.705q-.145.833-.251,1.428T-135.413-30.931Zm23.642,12.581a9.775,9.775,0,0,1-3.726-.3,4.617,4.617,0,0,1-2.512-1.769,5.893,5.893,0,0,1-.9-3.453,8.67,8.67,0,0,1,.994-4.291,9.169,9.169,0,0,1,2.459-2.888,25.526,25.526,0,0,0-2.606.607,29.261,29.261,0,0,0-2.815.984,7.371,7.371,0,0,0-.858.387,1.9,1.9,0,0,1-.879.241,1.424,1.424,0,0,1-1.036-.4,2.477,2.477,0,0,1-.607-.952,5.072,5.072,0,0,1-.262-1.015.272.272,0,0,1,.419-.147,1.149,1.149,0,0,0,.513.586,2.059,2.059,0,0,0,.973.188,8.852,8.852,0,0,0,1.507-.178q.963-.178,2.208-.46t2.658-.6q1.413-.314,2.857-.6t2.784-.471a4.667,4.667,0,0,1,.638-.063.682.682,0,0,1,.429.167,1.853,1.853,0,0,1,.68.774.6.6,0,0,1-.031.628.763.763,0,0,1-.712.167q-.774-.1-1.706-.178a8.65,8.65,0,0,0-1.852.052,3.792,3.792,0,0,0-1.674.649,5.459,5.459,0,0,0-2.25,2.8,11.448,11.448,0,0,0-.555,3.977,3.694,3.694,0,0,0,1.455,3.181,5.761,5.761,0,0,0,3.966.712,1.105,1.105,0,0,1,.356-.021.643.643,0,0,1,.293.167q.8.649.628,1.046T-111.771-18.35Zm1.109-6.949a.666.666,0,0,1-.366-.115.737.737,0,0,1-.262-.471,8.506,8.506,0,0,0-.523-1.538,3.879,3.879,0,0,0-1-1.329q-.042-.335.272-.335a4.4,4.4,0,0,1,1.183.659,4.391,4.391,0,0,1,.921.952,2.334,2.334,0,0,1,.429,1.088,1.1,1.1,0,0,1-.188.785A.619.619,0,0,1-110.662-25.3Zm2.553-1.277a.719.719,0,0,1-.377-.063.846.846,0,0,1-.356-.419,7.721,7.721,0,0,0-.8-1.36,4.7,4.7,0,0,0-1.277-1.151q-.084-.314.209-.377a6.274,6.274,0,0,1,1.256.46,5.128,5.128,0,0,1,1.151.753,1.868,1.868,0,0,1,.628.963,1.124,1.124,0,0,1-.042.806Q-107.878-26.617-108.108-26.575Zm4.639,10.132a.407.407,0,0,1-.278-.145.341.341,0,0,1-.066-.278,8.662,8.662,0,0,0,2.141-3.45,19.671,19.671,0,0,0,.9-4.812q.212-2.789.212-6.438,0-1.956-.079-2.869a6.894,6.894,0,0,0-.212-1.335.209.209,0,0,1,.026-.264.245.245,0,0,1,.291-.026,3.88,3.88,0,0,1,.568.291q.357.212.74.423a5.272,5.272,0,0,1,.595.37h7.746q-.026-.529-.053-1.084t-.053-1.137q-.026-1.137-.093-1.758a2.5,2.5,0,0,0-.2-.859.282.282,0,0,1,0-.291q.053-.106.264-.053.264.026.74.119t.965.2q.489.106.78.185a.308.308,0,0,1,.212.317.32.32,0,0,1-.291.291,2.311,2.311,0,0,0-.5.106q-.238.079-.264.476-.079,1.851,0,3.49h5.869a.5.5,0,0,0,.37-.132q.079-.079.33-.357l.5-.555a4.483,4.483,0,0,0,.3-.357.337.337,0,0,1,.5-.026,6.726,6.726,0,0,1,.542.436q.383.33.753.661t.476.436a.431.431,0,0,1,.159.436q-.053.251-.264.251h-9.518a30.757,30.757,0,0,0,.7,5.314A21.847,21.847,0,0,0-87.316-24.8a21.482,21.482,0,0,0,2.485-6.345,3.53,3.53,0,0,0,.093-.608,2.4,2.4,0,0,0-.013-.449q0-.37.106-.423a.286.286,0,0,1,.291,0q.264.106.74.357t.978.529q.5.278.793.463.238.106.079.37a.251.251,0,0,1-.344.159,1.674,1.674,0,0,0-.7-.053.517.517,0,0,0-.383.423,23.777,23.777,0,0,1-1.335,3.82,17.99,17.99,0,0,1-1.943,3.318,11.241,11.241,0,0,0,1.758,2.181A10.007,10.007,0,0,0-82.8-19.616a1.3,1.3,0,0,0,.621.172.7.7,0,0,0,.489-.3,4.905,4.905,0,0,0,.41-.727q.251-.516.5-1.11t.449-1.1q.2-.5.278-.661a.344.344,0,0,1,.529.185q-.053.159-.185.714T-79.98-21.2q-.145.687-.264,1.243t-.145.74a1.531,1.531,0,0,0-.04.41.629.629,0,0,0,.172.33,1.784,1.784,0,0,1,.423.542.823.823,0,0,1,0,.648q-.159.423-1.084.489a3.66,3.66,0,0,1-2.141-.7,18.922,18.922,0,0,1-2.3-1.785,12.223,12.223,0,0,1-2.168-2.657,18.256,18.256,0,0,1-3.952,3.186,23.1,23.1,0,0,1-5.38,2.313.356.356,0,0,1-.185-.529,24.145,24.145,0,0,0,5.036-2.736,17.218,17.218,0,0,0,3.715-3.609,22.711,22.711,0,0,1-1.586-4.534,39.473,39.473,0,0,1-.952-6.332h-8.037v4.627h4.045a.4.4,0,0,0,.291-.132q.132-.159.37-.41t.423-.463a.361.361,0,0,1,.225-.132.574.574,0,0,1,.278.132,7.918,7.918,0,0,1,.727.608q.463.423.7.687.344.291-.053.5a5.3,5.3,0,0,1-.635.317.394.394,0,0,0-.238.4V-26.7a11.137,11.137,0,0,1-1,5.433,4.279,4.279,0,0,1-3.12,2.075,2.533,2.533,0,0,0-.74-1.348,4.755,4.755,0,0,0-1.666-.767.4.4,0,0,1-.026-.317.321.321,0,0,1,.185-.212q.476.106,1.137.225a8.919,8.919,0,0,0,1.56.119q1,0,1.547-1.362a12.8,12.8,0,0,0,.542-4.375v-1.533H-98.9a30.306,30.306,0,0,1-.516,5.208,14.661,14.661,0,0,1-1.441,4.19A8.134,8.134,0,0,1-103.47-16.443ZM-83.853-35.8a.511.511,0,0,1-.476.026,1.913,1.913,0,0,1-.555-.608,7.871,7.871,0,0,0-1.071-1.362,6.662,6.662,0,0,0-1.547-1.1.363.363,0,0,1,0-.33.409.409,0,0,1,.238-.2,9.694,9.694,0,0,1,2.274.7,2.929,2.929,0,0,1,1.348,1.044,1.5,1.5,0,0,1,.264,1.11A.942.942,0,0,1-83.853-35.8Zm13.007,19.538q-.4-.185-.212-.5a15.824,15.824,0,0,0,5.38-3.635,16.98,16.98,0,0,0,3.529-5.459A18.767,18.767,0,0,0-60.8-32.57h-3.516l-.436.013a5.864,5.864,0,0,0-.965.119l-.212-1.163a6.546,6.546,0,0,0,1.137.185l.476.026H-60.8v-2.882a21.729,21.729,0,0,0-.106-2.578,2.721,2.721,0,0,0-.238-.965q-.106-.185,0-.291a.3.3,0,0,1,.264-.053,5.815,5.815,0,0,1,.82.159q.529.132,1.071.278l.833.225q.264.026.212.317a.262.262,0,0,1-.291.264,2.732,2.732,0,0,0-.555.119q-.291.093-.291.489v4.917h3.49A.393.393,0,0,0-55.3-33.5q.211-.211.489-.529t.463-.5q.185-.264.5-.026a4.373,4.373,0,0,1,.5.436q.344.33.7.661t.489.463a.278.278,0,0,1,.119.251q-.013.145-.225.251t-.463.225q-.251.119-.436.225a.526.526,0,0,0-.172.132.7.7,0,0,0-.093.344q-.238,4.309-.661,7.1a17.334,17.334,0,0,1-1.15,4.4,5.251,5.251,0,0,1-1.851,2.34,6.053,6.053,0,0,1-2.736.886,2.5,2.5,0,0,0-.952-1.586,7.9,7.9,0,0,0-1.93-.925q-.132-.4.212-.529a2.044,2.044,0,0,0,.2.053q.119.026.225.053.634.185,1.507.383a6.9,6.9,0,0,0,1.745.172,2.072,2.072,0,0,0,1.705-1.018,8.292,8.292,0,0,0,1.084-2.8,33.368,33.368,0,0,0,.635-4.23q.225-2.419.357-5.3h-4.045a19.4,19.4,0,0,1-1.137,6.279,16.092,16.092,0,0,1-2.71,4.732,16.419,16.419,0,0,1-3.728,3.3A18,18,0,0,1-70.845-16.258ZM-73.912-21.2a.263.263,0,0,1-.37-.106q-.159-.264-.436-.78t-.555-1.018q-.278-.5-.41-.767a.282.282,0,0,1,0-.291q.079-.079.423-.053a2.184,2.184,0,0,0,.357.026,3.975,3.975,0,0,0,.436-.026q.767-.079,1.745-.251t2.036-.383V-35.187h-3.146l-.436.013a5.865,5.865,0,0,0-.965.119l-.238-1.137a7.073,7.073,0,0,0,1.163.185l.476.026h7.218q.211,0,.264-.132.132-.132.5-.555t.5-.582a.32.32,0,0,1,.476,0,6.768,6.768,0,0,1,.793.635,10.271,10.271,0,0,1,.74.714.518.518,0,0,1,.172.489.324.324,0,0,1-.357.225h-5.526v9.967q1.718-.4,3.278-.82t2.538-.74a.255.255,0,0,1,.211.185.4.4,0,0,1-.026.317q-.793.4-2.062.912T-67.845-24.3q-1.467.555-2.921,1.044t-2.591.833a.6.6,0,0,0-.4.291.956.956,0,0,0,.026.582A.279.279,0,0,1-73.912-21.2Zm32.228,2.089a1.077,1.077,0,0,1-.674.185,1.246,1.246,0,0,1-.78-.264,5.18,5.18,0,0,1-1.56-2.115,10.089,10.089,0,0,1-.635-3.992,20.672,20.672,0,0,1,.212-3.12q.211-1.375.5-2.512t.5-2.155a10.046,10.046,0,0,0,.212-2.049,2.441,2.441,0,0,0-.238-1.058,4.81,4.81,0,0,0-.476-.82.412.412,0,0,1,.119-.3.3.3,0,0,1,.278-.093,5.13,5.13,0,0,1,1.454,1.256,2.82,2.82,0,0,1,.687,1.837,4.7,4.7,0,0,1-.278,1.56q-.278.793-.661,1.785a14.831,14.831,0,0,0-.661,2.34,16.063,16.063,0,0,0-.278,3.2,7.007,7.007,0,0,0,.145,1.52,3.967,3.967,0,0,0,.383,1.071q.132.238.278.212t.2-.264q.264-.793.621-1.824t.687-1.956q.33-.925.516-1.4.4-.185.5.212-.132.529-.4,1.454t-.5,2.062a19.982,19.982,0,0,0-.344,2.327,2.166,2.166,0,0,0,.053.74,4.585,4.585,0,0,0,.4.767.949.949,0,0,1,.132.78A1.065,1.065,0,0,1-41.684-19.113Zm9.967-1.11a9.821,9.821,0,0,1-3.41-.476,3.748,3.748,0,0,1-1.851-1.388,6.161,6.161,0,0,1-.872-2.208.445.445,0,0,1,.264-.2.26.26,0,0,1,.264.066,3.687,3.687,0,0,0,1.137,1.481,4,4,0,0,0,1.745.674,16.71,16.71,0,0,0,2.617.172,17.818,17.818,0,0,0,2.234-.132,18.818,18.818,0,0,0,1.943-.344,1.036,1.036,0,0,1,.383-.026.854.854,0,0,1,.251.106.076.076,0,0,0,.053.026,1.407,1.407,0,0,1,.886,1.058q.066.635-.753.767A25.149,25.149,0,0,1-31.717-20.224Zm-1.11-12.955a6.84,6.84,0,0,1-2.8-.4A4,4,0,0,1-37.4-35a.385.385,0,0,1,.423-.37,2.833,2.833,0,0,0,1.507.542,10.549,10.549,0,0,0,2.181.013q1.176-.106,2.221-.3a9.97,9.97,0,0,0,1.6-.41,1.333,1.333,0,0,1,.767-.04,1.586,1.586,0,0,1,.793.542q.608.608.436.925t-1.044.5q-.582.106-1.785.238T-32.828-33.178Zm21.335,7.4q-.449,0-.449-.4,0-.159.04-1.084t.079-2.393q.04-1.467.04-3.239,0-1.19-.04-1.732a2.257,2.257,0,0,0-.172-.806.24.24,0,0,1,.053-.264.208.208,0,0,1,.291-.026,4.673,4.673,0,0,1,.516.278l.687.41q.357.211.568.344h2.459l.4-1.586h-5.42l-.436.013a5.864,5.864,0,0,0-.965.119l-.212-1.137a6.545,6.545,0,0,0,1.137.185l.476.026h4.019a1.31,1.31,0,0,1-.238-.344,4.937,4.937,0,0,0-1.018-1.335,5.067,5.067,0,0,0-1.282-.939q-.079-.423.264-.5a13.639,13.639,0,0,1,1.771.542,2.739,2.739,0,0,1,1.375.991,1.157,1.157,0,0,1,.251.925,1.035,1.035,0,0,1-.383.661h3.437q.132-.4.357-1.031a6.135,6.135,0,0,0,.3-1.216,2.769,2.769,0,0,0,.079-.753q-.026-.225.079-.3.079-.106.264-.026.4.159,1.058.449t1.031.449a.3.3,0,0,1,.185.37.337.337,0,0,1-.344.212.674.674,0,0,0-.74.238q-.344.423-.714.846t-.714.767H.378a.393.393,0,0,0,.291-.106q.079-.079.3-.317t.463-.476l.291-.291a.334.334,0,0,1,.476-.026q.132.106.41.383l.542.542.4.4a.513.513,0,0,1,.159.463q-.053.225-.344.225H-4.909l-1.533,1.586h4.706a.284.284,0,0,0,.264-.132l.793-.793a.335.335,0,0,1,.5-.026q.264.185.78.595a9.433,9.433,0,0,1,.727.621.314.314,0,0,1,.132.251q0,.145-.212.251a2.433,2.433,0,0,1-.33.185q-.172.079-.357.185a.4.4,0,0,0-.159.132.716.716,0,0,0-.053.344q0,.82.04,1.877T.484-29.12Q.537-28.1.576-27.375t.04.886q0,.238-.463.423a2.326,2.326,0,0,1-.859.185q-.476,0-.476-.4v-.767h-8.989v.661q0,.238-.41.423A2.191,2.191,0,0,1-11.492-25.776Zm7.4,9.544a3.251,3.251,0,0,0-.582-1.137,2,2,0,0,0-.9-.582,8.776,8.776,0,0,0-1.454-.317.32.32,0,0,1-.066-.291.37.37,0,0,1,.172-.238q.185,0,.74.04t1.19.079q.635.04,1.058.04.687,0,.687-.555v-1.8h-9.729a13.19,13.19,0,0,1,2.075.939,3.948,3.948,0,0,1,1.547,1.494,1.843,1.843,0,0,1,.172,1.229,1.022,1.022,0,0,1-.648.886.509.509,0,0,1-.423-.026A1.145,1.145,0,0,1-10.673-17a10.435,10.435,0,0,0-1.4-2.181,6.756,6.756,0,0,0-1.692-1.52.321.321,0,0,1,.026-.291h-4.891l-.436.013a5.864,5.864,0,0,0-.965.119l-.211-1.163a5.445,5.445,0,0,0,1.137.212l.476.026H-3.244v-2.062h-5.9a9.432,9.432,0,0,1-4.164-.78,4.163,4.163,0,0,1-2.1-2q-1.428,1.348-2.022,1.864l-.595.516q-.264.238-.053.714a.284.284,0,0,1-.119.357.235.235,0,0,1-.357-.04q-.159-.185-.489-.529t-.648-.7q-.317-.357-.529-.568-.132-.132,0-.238.079-.132.37-.145a3.324,3.324,0,0,0,.793-.172q.687-.238,1.441-.582a8.994,8.994,0,0,0,1.335-.74v-4.1h-2.353l-.436.013a5.864,5.864,0,0,0-.965.119l-.211-1.137a6.546,6.546,0,0,0,1.137.185l.476.026h1.824a.433.433,0,0,0,.317-.132q.053-.053.212-.225l.33-.357a1.267,1.267,0,0,1,.225-.212.276.276,0,0,1,.423-.026,5.056,5.056,0,0,1,.449.357l.582.5q.291.251.423.383a.314.314,0,0,1,.132.251.246.246,0,0,1-.159.225q-.185.079-.41.2t-.383.2a.248.248,0,0,0-.159.132.8.8,0,0,0-.026.238v2.432a2.277,2.277,0,0,0,1.52,1.956,9.775,9.775,0,0,0,4.243.74q.925,0,2.234-.013t2.789-.053q1.481-.04,2.948-.106t2.75-.145q1.282-.079,2.181-.185a3.079,3.079,0,0,0-.687.859,3.175,3.175,0,0,0-.344.912H-1.71v2.062H.034a.4.4,0,0,0,.291-.132l.3-.3.463-.463.291-.291A.334.334,0,0,1,1.859-23q.264.185.82.608t.872.714a.431.431,0,0,1,.159.436.276.276,0,0,1-.291.251H-1.71q.026.449.053,1.018t.026.939a2.5,2.5,0,0,1-.608,1.785A4.092,4.092,0,0,1-4.09-16.232Zm-6.081-11.606h8.989v-1.507h-8.989Zm0-2.3h8.989v-1.481h-8.989Zm0-2.274h8.989v-1.481h-8.989Zm-5-2.908a.7.7,0,0,1-.476.04.873.873,0,0,1-.423-.41,7.4,7.4,0,0,0-1.428-1.666,6.525,6.525,0,0,0-1.586-1.084.338.338,0,0,1-.013-.3.364.364,0,0,1,.2-.2,9.808,9.808,0,0,1,2.274.714,4.639,4.639,0,0,1,1.507,1,1.4,1.4,0,0,1,.37,1.058A.916.916,0,0,1-15.167-35.32ZM22.454-16.6a.721.721,0,0,1-.595.093,1.078,1.078,0,0,1-.489-.568q-.635-1.3-1.56-2.935a38.033,38.033,0,0,0-2.128-3.331,22.4,22.4,0,0,0-2.71-3.146,6.058,6.058,0,0,1-.608-.674,1.288,1.288,0,0,1-.159-.727,1.481,1.481,0,0,1,.145-.753,3.61,3.61,0,0,1,.7-.886q.423-.423,1.15-1.269t1.533-1.89q.806-1.044,1.547-2.036a19.982,19.982,0,0,0,1.163-1.705q.978-1.56-.132-2.432a.354.354,0,0,1,.344-.449,6.527,6.527,0,0,1,1,.5,6.893,6.893,0,0,1,1.11.793,1.514,1.514,0,0,1,.463.608,1.057,1.057,0,0,1,.066.582,1.313,1.313,0,0,1-.4.648q-.317.3-.74.674-.582.5-1.441,1.4t-1.771,1.917q-.912,1.018-1.679,1.877t-1.163,1.282a4.382,4.382,0,0,0-.449.582.951.951,0,0,0-.106.476,1.221,1.221,0,0,0,.159.516,4.871,4.871,0,0,0,.767.806q.714.635,1.626,1.573t1.851,2.009q.939,1.071,1.718,2.1a10.79,10.79,0,0,1,1.176,1.877,2.171,2.171,0,0,1,.212,1.467A1.532,1.532,0,0,1,22.454-16.6Z" transform="translate(336.684 443.283)" fill="#333"/>
    <text id="クライアント様の置かれた状況や課題を理解し_Webのチカラ_で結果を追求するパートナーに" data-name="クライアント様の置かれた状況や課題を理解し
&quot;Webのチカラ&quot;で結果を追求するパートナーに" transform="translate(195 464.051)" fill="#333" font-size="15" font-family="NotoSansJP-Regular, Noto Sans JP" letter-spacing="0.05em"><tspan x="-164.7" y="0">クライアント</tspan><tspan y="0">様</tspan><tspan y="0">の</tspan><tspan y="0">置</tspan><tspan y="0">かれた</tspan><tspan y="0">状況</tspan><tspan y="0">や</tspan><tspan y="0">課題</tspan><tspan y="0">を</tspan><tspan y="0">理解</tspan><tspan y="0">し</tspan><tspan x="-165.743" y="28">&quot;</tspan><tspan y="28">Web</tspan><tspan y="28">のチカラ&quot;で</tspan><tspan y="28">結果</tspan><tspan y="28">を</tspan><tspan y="28">追求</tspan><tspan y="28">するパートナーに</tspan></text>
  </g>
</svg>
