<?xml version="1.0" encoding="UTF-8"?>
<svg id="_コンポーネント_39_36" data-name="コンポーネント_39_36" xmlns="http://www.w3.org/2000/svg" version="1.1" viewBox="0 0 330 330">
  <!-- Generator: Adobe Illustrator 29.1.0, SVG Export Plug-In . SVG Version: 2.1.0 Build 142)  -->
  <defs>
    <style>
      .st0 {
        isolation: isolate;
      }

      .st1 {
        fill: #fff;
      }

      .st2 {
        fill: #ffe79a;
      }

      .st3 {
        fill: #e3eaf5;
      }

      .st4 {
        fill: #e60013;
      }

      .st5 {
        fill: #333;
      }
    </style>
  </defs>
  <path id="_楕円形_7" data-name="楕円形_7" class="st5" d="M165,49.1h.1c.3,0,.7,0,1,0h0v1.2c-.4,0-.8,0-1.2,0v-1.2ZM167.5,49.1h.4s0,0,0,0h.7s0,1.2,0,1.2c-.4,0-.8,0-1.2,0v-1.2s0,0,0,0ZM169.9,49.2h.3s.8,0,.8,0h.2s0,1.2,0,1.2c-.4,0-.8,0-1.2,0v-1.2ZM172.4,49.3h.6s0,0,0,0h.6s0,0,0,0v1.2c-.5,0-.9,0-1.3,0v-1.2c0,0,0,0,0,0ZM174.8,49.5c.4,0,.7,0,1.1.1h.1s-.1,1.2-.1,1.2c-.4,0-.8,0-1.2-.1v-1.2ZM177.2,49.7h.2s0,0,0,0h.1s0,0,0,0h.8c0,0-.1,1.3-.1,1.3-.4,0-.8,0-1.2-.1v-1.2ZM179.7,50c.3,0,.6,0,.9.1h.3s-.2,1.3-.2,1.3c-.4,0-.8-.1-1.2-.2v-1.2ZM182.1,50.3h.1s0,0,0,0h0c.3,0,.7.1,1,.2l-.2,1.2c-.4,0-.8-.1-1.2-.2l.2-1.2h0ZM184.5,50.7h.2s0,0,0,0h.7c0,.1,0,.1,0,.1h0s0,0,0,0h.3s-.2,1.3-.2,1.3c-.4,0-.8-.1-1.2-.2l.2-1.2ZM187,51.1h0s0,0,0,0h0s0,0,0,0h0s.7.1.7.1h.3c0,0-.2,1.3-.2,1.3-.4,0-.8-.2-1.2-.2l.2-1.2ZM189.4,51.6c.4,0,.8.2,1.2.3l-.3,1.2c-.4,0-.8-.2-1.2-.3l.3-1.2ZM191.7,52.2c.3,0,.6.1.9.2h0s0,0,0,0h0s0,0,0,0h.2c0,0-.3,1.2-.3,1.2-.4,0-.8-.2-1.2-.3l.3-1.2ZM194.1,52.8h0c.4.1.8.2,1.1.3l-.3,1.2c-.4-.1-.8-.2-1.2-.3l.3-1.2h0ZM196.5,53.4c.4.1.8.2,1.2.3l-.3,1.2c-.4-.1-.8-.2-1.2-.3l.3-1.2ZM198.8,54.1c.3.1.7.2,1,.3h0s0,0,0,0h0s0,0,0,0l-.4,1.2c-.4-.1-.8-.2-1.2-.4l.4-1.2ZM201.2,54.8l.6.2h0s.2,0,.2,0h.4c0,.1-.4,1.3-.4,1.3-.4-.1-.8-.3-1.2-.4l.4-1.2h0ZM203.5,55.6h.4c0,.1,0,.1,0,.1h0s0,0,0,0l.7.3-.4,1.2c-.4-.1-.8-.3-1.1-.4l.4-1.2ZM205.8,56.5c.4.1.8.3,1.1.4l-.4,1.1c-.4-.1-.8-.3-1.1-.4l.4-1.1h0ZM208.1,57.3c.4.2.8.3,1.1.5l-.5,1.1c-.4-.2-.8-.3-1.1-.5l.5-1.1h0ZM210.4,58.3h.2c0,0,0,0,0,0h0s0,0,0,0h0s.4.2.4.2h0s0,0,0,0h0s0,0,0,0h0s0,0,0,0h0s0,0,0,0h0s0,0,0,0h0s0,0,0,0h0s0,0,0,0h0s0,0,0,0h0s-.5,1.2-.5,1.2c-.4-.2-.7-.3-1.1-.5l.5-1.1h0ZM212.6,59.3l.6.3h0s0,0,0,0h0s0,0,0,0h0s.4.2.4.2l-.5,1.1c-.4-.2-.7-.3-1.1-.5l.5-1.1ZM214.8,60.3h0s0,0,0,0h0s0,0,0,0h0s0,0,0,0h0s0,0,0,0h0s0,0,0,0h0s0,0,0,0h0s0,0,0,0h0s0,0,0,0h0s.4.2.4.2h0s0,0,0,0h0s0,0,0,0h0s.2,0,.2,0l-.5,1.1c-.4-.2-.7-.4-1.1-.5l.5-1.1ZM217,61.4h0s0,0,0,0h0s0,0,0,0h0s0,0,0,0h0s0,0,0,0h0s0,0,0,0h0s0,0,0,0h0s0,0,0,0h0l.4.2h0s0,0,0,0h0s0,0,0,0h0s0,0,0,0h.2c0,.1-.6,1.2-.6,1.2-.4-.2-.7-.4-1.1-.6l.6-1.1ZM219.2,62.5l.7.4h0s0,0,0,0h0s0,0,0,0h0s0,0,0,0h0s.3.2.3.2l-.6,1.1c-.4-.2-.7-.4-1.1-.6l.6-1.1ZM221.4,63.7h.2c0,.1,0,.1,0,.1h0s0,0,0,0h0s.5.3.5.3h0s0,0,0,0h0s.2.1.2.1l-.6,1.1c-.4-.2-.7-.4-1.1-.6l.6-1.1h0ZM223.5,64.9c.4.2.7.4,1.1.6l-.6,1.1c-.3-.2-.7-.4-1-.6l.6-1.1ZM225.6,66.2l.5.3h0s0,0,0,0h0s0,0,0,0h0s0,0,0,0h0l.4.2h0s0,0,0,0l-.7,1c-.3-.2-.7-.4-1-.6l.6-1ZM227.7,67.5c.3.2.6.4.8.5h0s0,0,0,0h0s0,0,0,0h.1c0,0-.7,1.1-.7,1.1-.3-.2-.7-.4-1-.7l.7-1h0ZM229.7,68.8c.3.2.6.4.8.6h0s0,0,0,0h0s.1,0,.1,0l-.7,1c-.3-.2-.7-.5-1-.7l.7-1ZM231.8,70.2c.3.2.6.5,1,.7h0s0,0,0,0h0s-.7,1-.7,1c-.3-.2-.7-.5-1-.7l.7-1ZM233.7,71.6l.5.4h0s0,0,0,0h0s.1.1.1.1h0s0,0,0,0h.2c0,.1-.7,1.1-.7,1.1-.3-.2-.6-.5-1-.7l.7-1h0ZM235.7,73.1h.1c0,.1,0,.1,0,.1h0c.3.2.5.4.8.6l-.8,1c-.3-.2-.6-.5-1-.7l.7-1ZM237.6,74.6c.3.3.6.5,1,.8l-.8.9c-.3-.3-.6-.5-.9-.8l.8-1ZM239.5,76.2l.5.4h0s0,0,0,0h0s0,0,0,0h0s0,0,0,0h0s0,0,0,0l.3.2-.8.9c-.3-.3-.6-.5-.9-.8l.8-.9ZM241.4,77.8c.2.2.4.4.6.5h0s0,0,0,0h0s0,0,0,0h0s.2.2.2.2l-.8.9c-.3-.3-.6-.5-.9-.8l.8-.9ZM243.2,79.4c.3.3.6.6.9.8l-.8.9c-.3-.3-.6-.6-.9-.8l.8-.9ZM245,81.1c.2.2.4.4.7.6h0l.2.2-.9.9c-.3-.3-.6-.6-.9-.8l.8-.9ZM246.8,82.8c.2.2.4.4.6.6h0s0,0,0,0h0s0,0,0,0h0s0,0,0,0h0s0,0,0,0h0s0,0,0,0h.1c0,0-.9,1-.9,1-.3-.3-.6-.6-.9-.9l.9-.9ZM248.5,84.6c.2.2.4.4.5.6h0s0,0,0,0h0s0,0,0,0h0s0,0,0,0h0s0,0,0,0h0s0,0,0,0h0s0,0,0,0h0s0,0,0,0h0s0,0,0,0h0c0,0-.9.9-.9.9-.3-.3-.6-.6-.8-.9l.9-.8ZM250.2,86.4h0s0,0,0,0h0s0,0,0,0h0c0,0,0,.1,0,.1h0s0,0,0,0h0s0,0,0,0h0s0,0,0,0h0s0,0,0,0h0s.4.4.4.4h0s0,0,0,0h0s-.9.9-.9.9c-.3-.3-.5-.6-.8-.9l.9-.8ZM251.8,88.2c.2.2.3.4.5.6h0s0,0,0,0h0l.3.3-.9.8c-.3-.3-.5-.6-.8-.9l.9-.8ZM253.4,90c.2.2.4.4.5.6h0s0,0,0,0h0s0,0,0,0h0s0,0,0,0h0s0,0,0,0h0s0,.1,0,.1h0s0,0,0,0h0s-.9.8-.9.8c-.3-.3-.5-.6-.8-.9l.9-.8ZM255,91.9c.3.3.5.6.8,1l-1,.8c-.3-.3-.5-.6-.8-.9l1-.8ZM256.5,93.8l.4.5h0s0,0,0,0l.3.4-1,.7c-.2-.3-.5-.6-.7-1l1-.8h0ZM258,95.8h0c0,0,0,.1,0,.1.2.3.4.6.6.9h0s-1,.7-1,.7c-.2-.3-.5-.7-.7-1l1-.7h0ZM259.5,97.8l.2.2h0s0,0,0,0h0s0,0,0,0h0s0,0,0,0h0s0,0,0,0h0s0,0,0,0h0s0,0,0,0h0s0,0,0,0h0s0,0,0,0h0s0,0,0,0h0s0,0,0,0h0l.3.4-1,.7c-.2-.3-.5-.7-.7-1l1-.7ZM260.9,99.8l.3.4h0s0,0,0,0h0s0,0,0,0h0s0,0,0,0h0s0,.1,0,.1h0s0,0,0,0h0s0,0,0,0h0s0,0,0,0l.2.3-1,.7c-.2-.3-.5-.7-.7-1l1-.7h0ZM262.2,101.8l.2.4c.1.2.3.4.4.6l-1,.7c-.2-.3-.4-.7-.7-1l1-.7ZM263.5,103.9l.2.3h0s0,0,0,0h0s0,0,0,0h0s0,0,0,0h0s0,0,0,0h0s0,0,0,0h0s0,0,0,0h0s0,0,0,0h0s0,0,0,0h0s0,0,0,0h0s.2.4.2.4l-1,.6c-.2-.3-.4-.7-.6-1l1.1-.6ZM264.8,106c.2.4.4.7.6,1.1l-1.1.6c-.2-.3-.4-.7-.6-1l1.1-.6h0ZM266,108.1c.2.4.4.7.6,1.1l-1.1.6c-.2-.4-.4-.7-.6-1.1l1.1-.6ZM267.2,110.3c.2.3.3.6.5.9h0s0,0,0,0h0s0,0,0,0h0c0,0-1.1.6-1.1.6-.2-.4-.4-.7-.6-1.1l1.1-.6h0ZM268.3,112.4c.2.4.4.7.6,1.1l-1.1.5c-.2-.4-.4-.7-.5-1.1l1.1-.6h0ZM269.4,114.6c.2.3.3.7.5,1h0s0,0,0,0h0c0,0-1.1.6-1.1.6-.2-.4-.3-.7-.5-1.1l1.1-.5ZM270.5,116.9c.2.4.3.7.5,1.1l-1.1.5c-.2-.4-.3-.7-.5-1.1l1.1-.5h0ZM271.5,119.1c.1.3.3.6.4.9h0s0,0,0,0h0s0,0,0,0h0s0,.2,0,.2l-1.1.5c-.2-.4-.3-.7-.5-1.1l1.1-.5ZM272.4,121.4c0,.2.2.4.2.6h0s0,0,0,0h0c0,0,0,.1,0,.1h0s0,0,0,0h0s0,0,0,0h0v.3c.1,0-1,.4-1,.4-.1-.4-.3-.8-.5-1.1l1.1-.4ZM273.3,123.7l.2.4h0s0,0,0,0h0s0,0,0,0h0s0,0,0,0h0s0,0,0,0h0s0,0,0,0h0s0,0,0,0h0s0,.3,0,.3h0s0,.2,0,.2l-1.2.4c-.1-.4-.3-.8-.4-1.1l1.2-.4ZM274.2,126c.1.4.3.8.4,1.2l-1.2.4c-.1-.4-.3-.8-.4-1.1l1.2-.4ZM275,128.3c.1.3.2.6.3.9h0s0,0,0,0h0s0,.2,0,.2l-1.2.4c-.1-.4-.3-.8-.4-1.2l1.2-.4h0ZM275.7,130.6c0,.2.1.4.2.5h0s0,0,0,0h0s0,0,0,0h0s0,0,0,0h0c0,.2.1.3.1.5l-1.2.4c-.1-.4-.2-.8-.4-1.2l1.2-.4ZM276.4,133c.1.4.2.8.3,1.2l-1.2.3c-.1-.4-.2-.8-.3-1.2l1.2-.3ZM277.1,135.3c0,.3.1.5.2.8h0s0,0,0,0h0s0,.3,0,.3l-1.2.3c-.1-.4-.2-.8-.3-1.2l1.2-.3ZM277.7,137.7h0s0,0,0,0h0s0,0,0,0h0s0,0,0,0h0s0,0,0,0h0c0,.1,0,.1,0,.1h0s0,0,0,0h0s0,0,0,0h0s0,0,0,0h0s0,0,0,0h0s0,0,0,0h0c0,.1,0,.3,0,.4h0s0,0,0,0h0s0,0,0,0h0c0,.1-1.2.4-1.2.4,0-.4-.2-.8-.3-1.2l1.3-.3ZM278.2,140.1h0c0,0,0,.1,0,.1h0c0,.4.2.7.2,1.1l-1.2.2c0-.4-.2-.8-.3-1.2l1.2-.3ZM278.7,142.5v.3c0,0,0,0,0,0h0c0,.3.1.6.2.9h0s0,0,0,0h0s-1.2.3-1.2.3c0-.4-.1-.8-.2-1.2l1.2-.2ZM279.2,144.9h0s0,.2,0,.2h0s0,0,0,0h0s0,0,0,0h0s0,0,0,0h0s0,0,0,0h0c0,.1,0,.3,0,.3h0v.2s0,0,0,0h0c0,0,0,0,0,0h0c0,.1-1.2.3-1.2.3,0-.4-.1-.8-.2-1.2l1.2-.2ZM279.6,147.3v.2s0,0,0,0h0c0,.4,0,.7.1,1l-1.2.2c0-.4-.1-.8-.2-1.2l1.2-.2ZM279.9,149.8v.2s0,0,0,0h0c0,.1,0,.1,0,.1h0s0,0,0,0h0c0,.2,0,.5,0,.7h-1.2c0-.3-.1-.7-.2-1.1h1.2ZM280.2,152.2c0,.1,0,.2,0,.3h0c0,.3,0,.6,0,.9h-1.2c0-.3,0-.7-.1-1.1h1.2c0-.1,0-.1,0-.1ZM280.5,154.6c0,.4,0,.8.1,1.2h-1.2c0-.3,0-.7-.1-1.1h1.2ZM280.7,157.1c0,.4,0,.8,0,1.2h0s-1.2,0-1.2,0c0-.4,0-.8,0-1.2h1.2c0,0,0,0,0,0ZM280.8,159.5c0,.4,0,.8,0,1.2h-1.2c0-.4,0-.8,0-1.2h1.2c0,0,0,0,0,0ZM280.9,162c0,.4,0,.8,0,1.2h-1.2c0-.4,0-.8,0-1.2h1.2s0,0,0,0ZM280.9,164.4v.5c0,.2,0,0,0,0h0v.2h0v.6h-1.2v-1.2h1.2ZM279.7,166.9h1.2c0,.4,0,.7,0,1h0v.2h-1.2c0-.4,0-.8,0-1.2h0ZM279.6,169.3h1.2v.2c0,.4,0,.7,0,1.1h-1.2c0-.5,0-.9,0-1.3h0ZM279.5,171.7h1.2c0,.5,0,.9,0,1.3h-1.2c0-.5,0-.9,0-1.3h0ZM279.3,174.1h1.2c0,.5,0,.9-.1,1.3h-1.2c0-.5,0-.9.1-1.3h0ZM279.1,176.6h1.2c0,.3,0,.4,0,.5h0v.2h0c0,.1,0,.3,0,.3h0c0,.1,0,.4,0,.4h-1.2c0-.5,0-.9,0-1.3h0ZM278.9,179h1.2c0,.1,0,.4,0,.4h0c0,.1,0,.2,0,.2h0c0,.3,0,.5,0,.7l-1.2-.2c0-.4,0-.8.1-1.2h0ZM278.5,181.4l1.2.2v.3h0c0,.4,0,.6-.1.9l-1.2-.2c0-.4.1-.8.2-1.2h0ZM278.2,183.8l1.2.2h0c0,.1,0,.1,0,.1h0s0,0,0,0h0c0,.3-.1.7-.2,1l-1.2-.2c0-.4.1-.8.2-1.2h0ZM277.7,186.2l1.2.2c0,.4-.2.8-.2,1.2l-1.2-.2c0-.4.2-.8.2-1.2h0ZM277.3,188.6l1.2.3v.3c0,0,0,0,0,0h0c0,.1,0,.1,0,.1h0s0,0,0,0h0s0,0,0,0h0s0,0,0,0h0s0,0,0,0h0s0,0,0,0h0s0,0,0,0h0c0,.2,0,.3-.1.5l-1.2-.3c0-.4.1-.8.2-1.2h0ZM276.8,190.9l1.2.3c0,.4-.2.8-.3,1.2l-1.2-.3c0-.4.2-.8.3-1.2h0ZM276.2,193.3l1.2.3h0c0,0,0,.1,0,.1h0s0,0,0,0h0c0,.2,0,.3-.1.5h0s0,0,0,0h0s0,0,0,0c0,.1,0,.3-.1.4l-1.2-.3c0-.4.2-.8.3-1.2h0ZM275.6,195.6l1.2.3c0,.2-.1.4-.2.6h0s0,0,0,0h0s0,0,0,0h0c0,.2,0,.4-.1.5l-1.2-.3c.1-.4.2-.8.3-1.2h0ZM274.9,198l1.2.4h0s0,0,0,0h0s0,0,0,0h0c0,.2-.1.3-.2.5h0v.2h0s-.1.4-.1.4l-1.2-.4c.1-.4.2-.8.4-1.2h0ZM274.2,200.3l1.2.4h0v.2h0s0,0,0,0h0c0,.2-.1.4-.2.6h0s0,0,0,0h0s0,0,0,0h0s0,0,0,0h0s0,.2,0,.2l-1.2-.4c.1-.4.2-.8.4-1.2h0ZM273.4,202.6l1.2.4v.4h-.1s0,0,0,0h0s0,0,0,0h0c0,.2-.2.5-.2.7l-1.2-.4c.1-.4.3-.8.4-1.1h0ZM272.6,204.9l1.1.4c0,.2-.1.4-.2.6h0s0,0,0,0c0,.2-.1.3-.2.5l-1.1-.4c.2-.4.3-.8.4-1.1h0ZM271.7,207.1l1.1.5v.4h-.2s0,0,0,0h0s0,0,0,0h0s0,.1,0,.1h0c0,.2-.1.4-.2.6l-1.1-.5c.1-.4.3-.7.4-1.1h0ZM270.8,209.4l1.1.5c-.1.2-.2.5-.3.7h0s0,0,0,0h0s0,0,0,0h0s-.1.3-.1.3l-1.1-.5c.2-.4.3-.7.5-1.1h0ZM269.8,211.6l1.1.5c0,.2-.2.4-.3.6h0s0,0,0,0h0c0,.2-.1.3-.2.5l-1.1-.5c.2-.4.3-.7.5-1.1h0ZM268.8,213.8l1.1.5c-.2.4-.4.7-.5,1.1l-1.1-.5c.2-.4.4-.7.5-1.1h0ZM267.8,216l1.1.5v.2h-.1s0,0,0,0h0c-.1.3-.3.5-.4.8l-1.1-.6c.2-.4.4-.7.6-1.1h0ZM266.7,218.2l1.1.6h0s0,0,0,0h0s0,0,0,0h0s0,0,0,0h0c0,0,0,.1,0,.1h0s0,0,0,0h0s0,0,0,0h0s0,0,0,0c-.1.2-.3.5-.4.7l-1.1-.6c.2-.4.4-.7.6-1.1h0ZM265.5,220.3l1.1.6v.2c-.3.3-.4.6-.6.9l-1.1-.6c.2-.4.4-.7.6-1.1h0ZM264.3,222.4l1.1.6c-.1.2-.2.4-.3.5h0s0,0,0,0h0l-.3.4-1.1-.6c.2-.3.4-.7.6-1h0ZM263.1,224.5l1,.6v.2h-.1s0,0,0,0h0c-.2.3-.3.5-.5.8l-1-.6c.2-.3.4-.7.6-1h0ZM261.8,226.6l1,.7h0s0,0,0,0h0s-.3.5-.3.5h0s0,0,0,0h0s0,0,0,0h0l-.2.4-1-.7c.2-.3.4-.7.7-1h0ZM260.5,228.6l1,.7c-.2.3-.5.7-.7,1h0l-1-.7c.2-.3.5-.7.7-1h0ZM259.1,230.6l1,.7c-.2.3-.5.7-.7,1l-1-.7c.2-.3.5-.7.7-1h0ZM257.7,232.6l1,.7-.4.5-.4.5-1-.7c.2-.3.5-.7.7-1h0ZM256.2,234.5l1,.7c-.2.3-.4.6-.7.9h0s0,0,0,0h0s0,0,0,0l-1-.8c.2-.3.5-.6.7-1h0ZM254.7,236.4l1,.8h0s0,0,0,0h0s0,0,0,0h0s0,0,0,0h0s0,0,0,0h0s0,0,0,0h0s0,0,0,0h0s0,0,0,0h0s0,0,0,0h0s0,0,0,0h0c-.2.2-.3.4-.5.7l-1-.8c.3-.3.5-.6.8-.9h0ZM253.2,238.3l.9.8-.3.4h0s0,0,0,0h0s0,0,0,0h0s-.3.4-.3.4h0s0,0,0,0h0s0,0,0,0h0s0,0,0,0l-.9-.8c.3-.3.5-.6.8-.9h0ZM251.6,240.2l.9.8h0s0,0,0,0h0s0,0,0,0h0s0,0,0,0h0s0,0,0,0h0s0,0,0,0h0s0,0,0,0h0s0,0,0,0h0s0,0,0,0c-.2.2-.4.4-.6.7l-.9-.8c.3-.3.5-.6.8-.9h0ZM250,242l.9.8-.4.4h0s0,0,0,0h0s-.4.4-.4.4l-.9-.8c.3-.3.6-.6.8-.9h0ZM248.4,243.8l.9.8-.3.3h0s0,0,0,0h0s0,0,0,0h0s0,0,0,0h0s0,.1,0,.1h0s0,0,0,0h0s0,0,0,0h0s0,0,0,0h0s0,0,0,0h0s0,0,0,0h0s0,0,0,0h0s0,0,0,0h0s0,0,0,0h0c0,0-.9-.8-.9-.8.3-.3.5-.6.8-.9ZM246.7,245.5l.9.9-.2.2h0s0,0,0,0h0s0,0,0,0h0s0,0,0,0h0s0,0,0,0h0s0,0,0,0h0s0,0,0,0h0s0,0,0,0h0l-.4.4-.9-.9c.3-.3.6-.6.8-.8h0ZM245,247.2l.9.9c-.3.3-.6.6-.9.9l-.8-.9c.3-.3.6-.6.9-.8h0ZM243.2,248.9l.8.9c-.2.2-.4.4-.6.6h0s0,0,0,0h0s0,0,0,0h0s0,0,0,0h0s0,0,0,0h0s-.1.1-.1.1l-.8-.9c.3-.3.6-.6.9-.8h0ZM241.4,250.5l.8.9-.3.3h0s0,0,0,0h0s0,0,0,0h0s0,0,0,0h0l-.5.4-.8-.9c.3-.3.6-.5.9-.8h0ZM239.6,252.1l.8.9h-.1c0,.1-.1.2-.1.2h-.2c0,.1,0,.2,0,.2h0s0,0,0,0h0s-.5.4-.5.4l-.8-.9c.3-.3.6-.5.9-.8h0ZM237.7,253.7l.8.9-.4.3h0s-.5.5-.5.5l-.8-1c.3-.2.6-.5.9-.8h0ZM235.8,255.2l.8,1-.4.3h0s0,0,0,0h0s0,0,0,0h0s0,0,0,0h0l-.2.2h-.1c0,.1,0,.1,0,.1h0s0,0,0,0h0s0,0,0,0h0s-.7-1-.7-1c.3-.2.6-.5.9-.7h0ZM233.9,256.7l.7,1-.2.2h0s0,0,0,0h0s0,0,0,0h0s0,0,0,0h0c-.2.2-.4.3-.6.5l-.7-1c.3-.2.6-.5,1-.7h0ZM232,258.1l.7,1c-.3.2-.7.5-1,.7l-.7-1c.3-.2.7-.5,1-.7h0ZM230,259.5l.7,1c-.3.2-.6.4-.9.6h0s-.7-1-.7-1c.3-.2.7-.5,1-.7h0ZM228,260.9l.7,1h0s0,0,0,0h0s0,0,0,0h0s-.1,0-.1,0h0s0,0,0,0h0s0,0,0,0h0s0,0,0,0h-.1c0,0,0,0,0,0h0s0,0,0,0h0s-.5.3-.5.3l-.7-1c.3-.2.7-.4,1-.6h0ZM225.9,262.2l.7,1-.5.3h0s0,0,0,0h0l-.5.3-.6-1c.3-.2.7-.4,1-.6h0ZM223.9,263.5l.6,1.1c-.4.2-.7.4-1.1.6l-.6-1.1c.3-.2.7-.4,1-.6h0ZM221.8,264.7l.6,1.1h-.1c0,0,0,0,0,0h0s0,0,0,0c-.3.2-.6.3-.9.5l-.6-1.1c.4-.2.7-.4,1.1-.6h0ZM219.6,265.9l.6,1.1c-.3.2-.6.3-.8.5h0s0,0,0,0h-.2c0,.1-.6-1-.6-1,.4-.2.7-.4,1.1-.6h0ZM217.5,267l.6,1.1c-.4.2-.7.4-1.1.6l-.6-1.1c.4-.2.7-.4,1.1-.6h0ZM215.3,268.1l.5,1.1c-.4.2-.7.4-1.1.5l-.5-1.1c.4-.2.7-.4,1.1-.5h0ZM213.1,269.2l.5,1.1c-.4.2-.7.3-1.1.5l-.5-1.1c.4-.2.7-.3,1.1-.5h0ZM210.9,270.2l.5,1.1-.4.2h0s0,0,0,0h0s0,0,0,0h0s0,0,0,0h0s0,0,0,0h0s0,0,0,0h-.1c0,0,0,0,0,0h0s0,0,0,0h0s0,0,0,0h0s0,0,0,0h-.3c0,.1-.5-1-.5-1,.4-.2.7-.3,1.1-.5h0ZM208.7,271.1l.5,1.1c-.3.1-.6.2-.9.4h0s0,0,0,0h0s0,0,0,0h-.2c0,0-.5-1.1-.5-1.1.4-.2.8-.3,1.1-.5h0ZM206.4,272l.4,1.1-.7.3h0s0,0,0,0h0s0,0,0,0h0s0,0,0,0h-.3c0,.1-.4-1-.4-1,.4-.1.8-.3,1.1-.4h0ZM204.2,272.9l.4,1.2c-.4.1-.8.3-1.2.4l-.4-1.2c.4-.1.8-.3,1.1-.4h0ZM201.9,273.7l.4,1.2c-.4.1-.8.3-1.2.4l-.4-1.2c.4-.1.8-.3,1.2-.4h0ZM199.6,274.4l.4,1.2c-.4.1-.8.2-1.2.4l-.4-1.2c.4-.1.8-.2,1.2-.4h0ZM197.2,275.1l.3,1.2h-.2c0,0,0,0,0,0h0s0,0,0,0h0c-.3,0-.6.2-.9.3l-.3-1.2c.4-.1.8-.2,1.2-.3h0ZM194.9,275.8l.3,1.2h-.3c0,0,0,.1,0,.1h0s-.5.1-.5.1h0s0,0,0,0h-.2c0,0-.3-1.1-.3-1.1.4,0,.8-.2,1.2-.3h0ZM192.5,276.4l.3,1.2c-.3,0-.7.2-1,.3h0s-.1,0-.1,0l-.3-1.2c.4,0,.8-.2,1.2-.3h0ZM190.2,276.9l.3,1.2c-.4,0-.8.2-1.2.3h0l-.3-1.2c.4,0,.8-.2,1.2-.3h0ZM187.8,277.4l.2,1.2c-.3,0-.6.1-.8.2h0s0,0,0,0h0s0,0,0,0h0s0,0,0,0h0s0,0,0,0h0s0,0,0,0h0s0,0,0,0h0s0,0,0,0h0s0,0,0,0l-.2-1.2c.4,0,.8-.1,1.2-.2h0ZM185.4,277.9l.2,1.2c-.4,0-.7.1-1.1.2h-.1s-.2-1.2-.2-1.2c.4,0,.8-.1,1.2-.2h0ZM183,278.3l.2,1.2h-.3c0,0,0,0,0,0h0,0-.8c0,.1-.2-1.1-.2-1.1.4,0,.8-.1,1.2-.2h0ZM180.6,278.6l.2,1.2c-.3,0-.6,0-.9.1h-.1s0,0,0,0h-.2l-.2-1.2c.4,0,.8,0,1.2-.1h0ZM178.2,278.9v1.2c-.3,0-.7,0-1.1.1v-1.2c.3,0,.7,0,1.1-.1h0ZM175.8,279.2v1.2c.1,0,0,0,0,0h-.4s0,0,0,0h-.2s0,0,0,0h-.4s0-1.2,0-1.2c.4,0,.8,0,1.2,0h0ZM173.4,279.4v1.2c0,0-.2,0-.2,0h-.9s0-1.2,0-1.2c.4,0,.8,0,1.2,0h0ZM171,279.5v1.2c0,0-.6,0-.6,0h-.2s0,0,0,0h-.3s0-1.2,0-1.2c.4,0,.8,0,1.2,0h0ZM168.5,279.6v1.2s-.1,0-.1,0h0c-.3,0-.7,0-1,0v-1.2c.4,0,.8,0,1.2,0h0ZM166.1,279.7v1.2s-.8,0-.8,0h-.4v-1.2h0c.4,0,.8,0,1.1,0h0ZM162.5,279.7c.4,0,.8,0,1.2,0v1.2h-1.2s0-1.2,0-1.2ZM160,279.6c.4,0,.8,0,1.2,0v1.2c-.5,0-.9,0-1.3,0v-1.2ZM157.6,279.5c.4,0,.8,0,1.2,0v1.2c-.5,0-.9,0-1.3,0v-1.2ZM155.2,279.3c.4,0,.8,0,1.2.1v1.2h-.2c-.4,0-.7,0-1.1,0v-1.2ZM152.8,279.1c.4,0,.8,0,1.2.1v1.2c-.1,0-.9,0-.9,0h-.4s.1-1.3.1-1.3ZM150.4,278.8c.4,0,.8.1,1.2.1v1.2c-.1,0-1-.1-1-.1h0s0,0,0,0h-.3s.2-1.3.2-1.3ZM148,278.4c.4,0,.8.1,1.2.2l-.2,1.2h-.4c0,0,0,0,0,0h-.8c0-.1.2-1.3.2-1.3ZM145.6,278.1c.4,0,.8.1,1.2.2l-.2,1.2h-.2s0,0,0,0h0c-.3,0-.6-.1-.9-.2l.2-1.2ZM143.2,277.6c.4,0,.8.2,1.2.2l-.2,1.2h-.5c0,0,0,0,0,0h0s0,0,0,0h0s0,0,0,0h0s0,0,0,0h-.4c0,0,.2-1.3.2-1.3ZM140.8,277.1c.4,0,.8.2,1.2.2l-.2,1.2h-.1s0,0,0,0h0s0,0,0,0h0s0,0,0,0h0s-.4-.1-.4-.1h0s0,0,0,0h0s0,0,0,0h0s0,0,0,0h0s0,0,0,0h0s0,0,0,0h0s-.2,0-.2,0l.3-1.2ZM138.4,276.6c.4,0,.8.2,1.2.3l-.3,1.2c-.4,0-.8-.2-1.2-.3l.3-1.2ZM136.1,276c.4.1.8.2,1.2.3l-.3,1.2c-.4-.1-.8-.2-1.2-.3l.3-1.2ZM133.7,275.4c.4.1.8.2,1.2.3l-.3,1.2c-.4-.1-.8-.2-1.2-.3l.3-1.2ZM131.4,274.7c.4.1.8.2,1.2.3l-.3,1.2h-.1s0,0,0,0h0s0,0,0,0h0s0,0,0,0c-.3,0-.6-.2-.9-.3l.4-1.2ZM129.1,274c.4.1.8.3,1.2.4l-.4,1.2-.8-.2h0s0,0,0,0h0s-.3-.1-.3-.1l.4-1.2ZM126.8,273.2c.4.1.8.3,1.1.4l-.4,1.2h-.2c0,0,0,0,0,0h0s0,0,0,0h0s0,0,0,0h0c-.3,0-.6-.2-.8-.3l.4-1.2ZM124.5,272.3c.4.1.8.3,1.1.4l-.4,1.2-.6-.2h0s0,0,0,0h0s0,0,0,0h0s0,0,0,0h0s0,0,0,0h0s0,0,0,0h0s0,0,0,0h0s0,0,0,0h0s0,0,0,0h-.2c0,0,.4-1.3.4-1.3ZM122.3,271.5c.4.1.8.3,1.1.4l-.4,1.1c-.3-.1-.6-.3-1-.4h0s0,0,0,0h0s0,0,0,0h0s0,0,0,0h0s.5-1.2.5-1.2ZM120,270.5c.4.2.7.3,1.1.5l-.5,1.1h0c-.3-.1-.5-.2-.8-.3h0s0,0,0,0h-.3c0-.1.5-1.3.5-1.3ZM117.8,269.6c.4.2.7.3,1.1.5l-.5,1.1c-.4-.2-.7-.3-1.1-.5l.5-1.1ZM115.6,268.5c.4.2.7.3,1.1.5l-.5,1.1h0s-.5-.2-.5-.2h0s-.6-.3-.6-.3l.5-1.1ZM113.4,267.5c.4.2.7.4,1.1.5l-.5,1.1-.3-.2h0s0,0,0,0h0s0,0,0,0h0s0,0,0,0h0l-.6-.3h0s.5-1.1.5-1.1ZM111.3,266.4c.4.2.7.4,1.1.6l-.6,1.1-.3-.2h0s0,0,0,0h0s0,0,0,0h0s0,0,0,0h0s0,0,0,0h0s0,0,0,0h0s0,0,0,0h0s0,0,0,0h0s0,0,0,0h0s0,0,0,0h0s0,0,0,0l-.4-.2.6-1.1ZM109.1,265.2c.4.2.7.4,1.1.6l-.6,1.1h0c-.4-.2-.7-.4-1.1-.6l.6-1.1ZM107,264c.3.2.7.4,1,.6l-.6,1.1-.3-.2h0s0,0,0,0h0s0,0,0,0h0s0,0,0,0h0s0,0,0,0h0s0,0,0,0h0s0,0,0,0h0s0,0,0,0h0s0,0,0,0h0s0,0,0,0h0s0,0,0,0h-.2c0,0,0-.1,0-.1h0s0,0,0,0h0s0,0,0,0h0s0,0,0,0h0s0,0,0,0l.6-1.1ZM104.9,262.7c.3.2.7.4,1,.6l-.6,1.1h0s0,0,0,0h0s0,0,0,0h0s0,0,0,0h0s0,0,0,0h-.1c0,0,0,0,0,0h0s0,0,0,0h0s0,0,0,0h0s0,0,0,0h0s0,0,0,0h0s-.6-.3-.6-.3l.6-1ZM102.9,261.4c.3.2.7.4,1,.7l-.7,1h0s0,0,0,0h0s0,0,0,0h0l-.4-.3h0s0,0,0,0h0s-.4-.3-.4-.3l.7-1ZM100.9,260.1c.3.2.7.5,1,.7l-.7,1h0s0,0,0,0l-.5-.3h0s0,0,0,0h0s0,0,0,0h0s0,0,0,0h0s0,0,0,0h0s0,0,0,0h0s0,0,0,0h0s0,0,0,0h0s0,0,0,0h0s0,0,0,0h0s0,0,0,0h0s.7-1,.7-1ZM98.9,258.7c.3.2.7.5,1,.7l-.7,1-.4-.3h0s0,0,0,0h0l-.5-.4.7-1ZM96.9,257.3c.3.2.7.5,1,.7l-.7,1h-.2c0-.1,0-.1,0-.1h0s0,0,0,0h0s0,0,0,0h0s0,0,0,0h0s-.2-.2-.2-.2h0s0,0,0,0h-.1c0-.1,0-.1,0-.1h0s-.1-.1-.1-.1l.7-1ZM95,255.8c.3.2.6.5,1,.7l-.7,1h-.2c0-.1,0-.2,0-.2h0s0,0,0,0h0c-.2-.2-.5-.4-.7-.6l.7-1ZM93,254.3c.3.3.6.5.9.8l-.8,1-.4-.3h0c-.2-.2-.4-.3-.6-.5l.8-1ZM91.2,252.8c.3.3.6.5.9.8l-.8.9-.3-.2h0s0,0,0,0h0s-.5-.4-.5-.4h0s0,0,0,0h-.1c0-.1.8-1.1.8-1.1ZM89.3,251.2c.3.3.6.5.9.8l-.8.9h0s0,0,0,0h0s0,0,0,0h0s0,0,0,0h0c-.3-.2-.5-.4-.8-.7h0s0,0,0,0l.8-.9ZM87.5,249.6c.3.3.6.5.9.8l-.8.9-.5-.5h0s0,0,0,0h0s0,0,0,0h0s0,0,0,0h0s0,0,0,0h0s0,0,0,0h0s0,0,0,0h0s0,0,0,0h0s0,0,0,0h0s0-.1,0-.1l.8-.9ZM85.8,247.9c.3.3.6.6.9.8l-.8.9-.3-.3h0s0,0,0,0h0s0,0,0,0h0s0,0,0,0h0s0,0,0,0h0s-.4-.4-.4-.4l.8-.9ZM84,246.2c.3.3.6.6.9.9l-.9.9c-.2-.2-.3-.3-.5-.5h0s0,0,0,0h0s0,0,0,0h0s0,0,0,0h0c0,0,0,0,0,0h0s0,0,0,0h0s0,0,0,0h0s0,0,0,0h-.1c0-.1.9-1,.9-1ZM82.3,244.5c.3.3.6.6.8.9l-.9.9h0c-.2-.2-.3-.4-.5-.5h0s0,0,0,0h0s0,0,0,0h0s-.3-.3-.3-.3l.9-.9ZM80.6,242.7c.3.3.6.6.8.9l-.9.8c-.2-.2-.4-.4-.6-.6h0s-.2-.3-.2-.3l.9-.8ZM79,240.9c.3.3.5.6.8.9l-.9.8h0c0,0,0,0,0,0h0s0,0,0,0h0c-.2-.3-.4-.5-.7-.7h0s0,0,0,0h0s0,0,0,0l.9-.8ZM77.4,239.1c.3.3.5.6.8.9l-.9.8-.2-.2h0s0,0,0,0h0s0-.1,0-.1h0s0,0,0,0h0s0,0,0,0h0s0,0,0,0h0s-.1-.2-.1-.2h0s0,0,0,0h0s0,0,0,0h0s0,0,0,0h0s0,0,0,0h0s0-.1,0-.1l.9-.8ZM75.9,237.2c.3.3.5.6.8.9l-.9.8-.2-.3h0s0,0,0,0h0s0,0,0,0h0s0,0,0,0h0s-.3-.4-.3-.4h0s0,0,0,0h0s0,0,0,0h0s0,0,0,0h0s0,0,0,0h0l.9-.8ZM74.4,235.3c.2.3.5.6.8,1l-1,.8-.3-.4h0s0,0,0,0h0s0,0,0,0h0s-.4-.5-.4-.5l1-.8ZM72.9,233.4c.2.3.5.6.7,1l-1,.7-.3-.5h0s-.4-.5-.4-.5l1-.7ZM71.5,231.4c.2.3.5.7.7,1l-1,.7c-.2-.3-.5-.7-.7-1l1-.7ZM70.1,229.4c.2.3.5.7.7,1l-1,.7c-.2-.2-.3-.4-.5-.7h0s0,0,0,0l-.2-.3,1-.7ZM68.7,227.4c.2.3.4.7.7,1l-1,.7-.2-.3h0s-.3-.5-.3-.5h0s0,0,0,0h0s0,0,0,0v-.2c-.1,0,.9-.7.9-.7ZM67.4,225.4c.2.3.4.7.6,1l-1,.7-.3-.5h0s0,0,0,0h0l-.3-.5,1-.7ZM66.2,223.3c.2.3.4.7.6,1l-1,.6-.2-.3h0s0,0,0,0h0s0,0,0,0h0c-.1-.2-.2-.4-.4-.6l1-.6ZM65,221.2c.2.4.4.7.6,1.1l-1.1.6v-.2h-.2c0-.1,0-.2,0-.2h0s0,0,0,0h0s0,0,0,0h0s0,0,0,0h0s0,0,0,0h0s0-.1,0-.1h0s0,0,0,0h0l-.2-.4,1.1-.6ZM63.8,219.1c.2.4.4.7.6,1.1l-1.1.6v-.2h-.1s0-.2,0-.2h0s0,0,0,0h0s0,0,0,0h0s0,0,0,0h0c-.1-.2-.2-.4-.3-.6l1.1-.6ZM62.7,216.9c.2.4.4.7.6,1.1l-1.1.6v-.2h0s0,0,0,0h0s0,0,0,0h0s0,0,0,0h0s0,0,0,0h0s0,0,0,0h0s0,0,0,0h0s0,0,0,0h0s0,0,0,0h0s0,0,0,0h0s0,0,0,0h0s0,0,0,0h0s0,0,0,0h0s0,0,0,0h0s0,0,0,0h0s0,0,0,0h0s0,0,0,0h0s0,0,0,0h0s0,0,0,0h0s0,0,0,0h0s0-.2,0-.2l1.1-.6ZM61.6,214.7c.2.4.4.7.5,1.1l-1.1.5h0c0-.1,0-.1,0-.1h0s0,0,0,0h0s0,0,0,0h0s0,0,0,0h0c0,0,0-.1,0-.1h0s0,0,0,0h0s0,0,0,0h0s0,0,0,0h0s0,0,0,0h0s0,0,0,0h0c0,0,0-.1,0-.1h0s-.2-.4-.2-.4l1.1-.5ZM60.6,212.5c.2.4.3.7.5,1.1l-1.1.5c-.2-.4-.3-.7-.5-1.1l1.1-.5ZM59.6,210.3c.2.4.3.7.5,1.1l-1.1.5c-.2-.4-.3-.7-.5-1.1l1.1-.5ZM58.7,208.1c.2.4.3.8.5,1.1l-1.1.5c-.2-.4-.3-.8-.5-1.1l1.1-.5ZM57.8,205.8c.1.4.3.8.4,1.1l-1.1.4v-.3c-.1,0-.1,0-.1,0h0s0,0,0,0h0c0-.2-.1-.3-.2-.5h0s0,0,0,0h0s0-.3,0-.3l1.1-.4ZM56.9,203.5c.1.4.3.8.4,1.1l-1.2.4c-.1-.4-.3-.8-.4-1.2l1.2-.4ZM56.1,201.2c.1.4.3.8.4,1.1l-1.2.4c0-.3-.2-.5-.3-.8h0s0,0,0,0h0s0-.3,0-.3l1.2-.4ZM55.4,198.9c.1.4.2.8.4,1.2l-1.2.4c-.1-.4-.2-.7-.3-1.1h0s0,0,0,0h0s0,0,0,0h0s0,0,0,0h0l1.2-.4ZM54.7,196.6c.1.4.2.8.3,1.2l-1.2.4c0-.3-.1-.5-.2-.8h0s0,0,0,0h0s0-.4,0-.4l1.2-.3ZM54.1,194.3c0,.4.2.8.3,1.2l-1.2.3c0-.2-.1-.4-.2-.6h0s0,0,0,0h0s0,0,0,0h0s0-.1,0-.1h0s0,0,0,0h0s0,0,0,0h0s0,0,0,0h0s0,0,0,0v-.3c0,0,1.1-.3,1.1-.3ZM53.5,191.9c0,.4.2.8.3,1.2l-1.2.3h0c0-.4-.2-.8-.3-1.2l1.2-.3ZM52.9,189.5c0,.4.2.8.3,1.2l-1.2.3v-.2h0c0-.4-.1-.7-.2-1h0l1.2-.3ZM52.4,187.2c0,.4.2.8.2,1.2l-1.2.2h0s0,0,0,0h0c0-.2,0-.3,0-.5h0v-.2h0s0,0,0,0h0s0,0,0,0h0c0-.1,0-.2,0-.4l1.2-.2ZM52,184.8c0,.4.1.8.2,1.2l-1.2.2c0-.2,0-.3-.1-.5h0c0-.3,0-.5-.1-.7l1.2-.2ZM51.6,182.4c0,.4.1.8.2,1.2l-1.2.2c0-.4-.1-.7-.2-1.1h0c0,0,0-.1,0-.1l1.2-.2ZM51.3,180c0,.4.1.8.2,1.2l-1.2.2v-.3s0,0,0,0h0c0-.4,0-.7-.1-.9l1.2-.2ZM51,177.6c0,.4,0,.8.1,1.2h-1.2c0-.2,0-.5-.1-.8h0v-.2h0c0-.1,1.2-.2,1.2-.2ZM50.7,175.2c0,.4,0,.8.1,1.2h-1.2c0-.3,0-.7-.1-1.1h1.2ZM50.6,172.7c0,.4,0,.8,0,1.2h-1.2c0-.3,0-.7,0-1.1h1.2ZM50.4,170.3c0,.4,0,.8,0,1.2h-1.2c0-.2,0-.5,0-.8h0v-.2h0v-.2s1.2,0,1.2,0ZM50.3,167.9c0,.4,0,.8,0,1.2h-1.2s0-.1,0-.1h0c0-.4,0-.7,0-1.1h1.2ZM50.3,165.5c0,.4,0,.8,0,1.2h-1.2c0-.4,0-.8,0-1.2h1.2ZM49.1,163h1.2c0,.4,0,.8,0,1.2h-1.2c0-.2,0-.4,0-.6h0v-.3c0-.1,0-.2,0-.4ZM49.2,160.5h1.2c0,.4,0,.9,0,1.3h-1.2v-.2c0-.4,0-.7,0-1.1h0ZM49.3,158.1h1.2c0,.5,0,.9,0,1.3h-1.2c0-.4,0-.7,0-1h0c0-.2,0-.2,0-.3h0ZM49.4,155.7h1.2c0,.5,0,.9,0,1.3h-1.2c0-.3,0-.6,0-.8h0c0,0,0-.2,0-.2h0v-.2h0s0-.2,0-.2h0ZM49.7,153.2h1.2c0,.5,0,.9-.1,1.3h-1.2c0-.5,0-.9.1-1.3h0ZM49.9,150.8h1.2c0,.5-.1.9-.1,1.3h-1.2v-.2h0v-.2h0v-.2h0v-.2h0v-.2h0c0-.2.1-.4.1-.5ZM50.3,148.3l1.2.2c0,.4-.1.8-.2,1.2l-1.2-.2c0-.1,0-.3,0-.4h0s0,0,0,0h0v-.2h0c0-.2,0-.4.1-.6ZM50.6,145.9l1.2.2c0,.4-.1.8-.2,1.2l-1.2-.2c0-.4.1-.8.2-1.2h0ZM51.1,143.5l1.2.2c0,.4-.1.8-.2,1.2l-1.2-.2c0-.4.1-.8.2-1.2ZM51.5,141.1l1.2.3c0,.4-.2.8-.2,1.2l-1.2-.2c0-.4.2-.8.2-1.2h0ZM52.1,138.7l1.2.3c0,.4-.2.8-.3,1.2l-1.2-.3h0s0,0,0,0h0c0-.4.2-.8.3-1.1ZM52.6,136.3l1.2.3c0,.4-.2.8-.3,1.2l-1.2-.3h0c0-.1,0-.1,0-.1h0c0-.2,0-.4.1-.6h0s0,0,0,0h0s0,0,0,0h0s0,0,0,0h0c0,0,0,0,0,0h0s0,0,0,0h0v-.3c0,0,0,0,0,0ZM53.3,133.9l1.2.3c-.1.4-.2.8-.3,1.2l-1.2-.3c0-.2,0-.3.1-.5h0s0,0,0,0h0s0,0,0,0h0s0,0,0,0h0s0,0,0,0h0s0,0,0,0h0c0,0,0,0,0,0h0s0,0,0,0h0s0,0,0,0h0s0,0,0,0h0s0-.1,0-.1h0s0,0,0,0h0s0,0,0,0h0s0,0,0,0h0ZM54,131.6l1.2.4c-.1.4-.2.8-.3,1.2l-1.2-.3c.1-.4.2-.8.3-1.2h0ZM54.7,129.2l1.2.4c-.1.4-.2.8-.4,1.2l-1.2-.4h0c0,0,0-.1,0-.1.1-.4.2-.7.3-1.1h0ZM55.5,126.9l1.2.4c-.1.4-.3.8-.4,1.1l-1.2-.4c0-.2.1-.4.2-.5h0s0,0,0,0h0s0,0,0,0h0s0,0,0,0h0s0,0,0,0h0s0-.1,0-.1h0s0,0,0,0h0s0,0,0,0h0c0-.1,0-.2,0-.2h0s0,0,0,0ZM56.3,124.6l1.2.4c-.1.4-.3.8-.4,1.1l-1.2-.4c.1-.4.3-.8.4-1.2h0ZM57.2,122.3l1.1.5c-.1.4-.3.8-.4,1.1l-1.1-.4c0-.2.1-.4.2-.6h0s0-.2,0-.2h0s0,0,0,0h0s0,0,0,0h0s.1-.3.1-.3ZM58.1,120l1.1.5c-.2.4-.3.7-.5,1.1l-1.1-.5.2-.4h0c0-.3.2-.5.3-.7h0ZM59.1,117.8l1.1.5c-.2.4-.3.7-.5,1.1l-1.1-.5c.1-.2.2-.5.3-.7h0s0,0,0,0h0l.2-.3h0ZM60.1,115.6l1.1.5c-.2.4-.3.7-.5,1.1l-1.1-.5h0v-.2h0s0,0,0,0h0s.1-.2.1-.2h0s0,0,0,0h0v-.2c0,0,0,0,0,0h0s0,0,0,0h0s0,0,0,0h0s0,0,0,0h0s0-.1,0-.1h0c0-.1,0-.1,0-.1ZM61.2,113.4l1.1.5c-.2.4-.4.7-.5,1.1l-1.1-.5.2-.3h0c.1-.3.2-.5.4-.8h0ZM62.3,111.2l1.1.6c-.2.4-.4.7-.6,1.1l-1.1-.6c.1-.3.3-.5.4-.8v-.3ZM63.5,109l1.1.6c-.2.4-.4.7-.6,1.1l-1.1-.6h0s0,0,0,0h0c.2-.3.4-.7.6-1h0ZM64.7,106.9l1.1.6c-.2.3-.4.7-.6,1.1l-1.1-.6c.2-.4.4-.7.6-1.1ZM65.9,104.8l1,.6c-.2.3-.4.7-.6,1l-1.1-.6h0c0,0,0-.1,0-.1h0s0,0,0,0h0s0,0,0,0c.2-.3.3-.6.5-.9ZM67.2,102.7l1,.7c-.2.3-.4.7-.6,1l-1-.7.2-.4h0s0,0,0,0h0s0,0,0,0h0s0,0,0,0h0l.2-.3h0s0,0,0,0v-.2c.1,0,.1,0,.1,0ZM68.6,100.6l1,.7c-.2.3-.4.7-.7,1l-1-.7h.1c0-.1,0-.2,0-.2h0c.1-.2.3-.5.5-.7h0s.1-.2.1-.2ZM70,98.6l1,.7c-.2.3-.5.7-.7,1l-1-.7.2-.2h0s0,0,0,0h0s0,0,0,0h0s0,0,0,0h0s.3-.4.3-.4h0s0,0,0,0h0s0,0,0,0h0s0,0,0,0h0s0-.1,0-.1h0ZM71.4,96.6l1,.7c-.2.3-.5.7-.7,1l-1-.7c.2-.3.5-.7.7-1h0ZM72.9,94.6l1,.7c-.2.3-.5.6-.7,1l-1-.7c.2-.3.5-.7.7-1h0ZM74.4,92.7l1,.8c-.3.3-.5.6-.8,1l-1-.8h0c.2-.3.5-.6.8-1h0ZM75.9,90.8l.9.8c-.3.3-.5.6-.8.9l-1-.8.2-.3h0s0,0,0,0h0s0,0,0,0h0s0,0,0,0h0s0,0,0,0h0s0,0,0,0h0s.1-.1.1-.1h0l.3-.4ZM77.5,88.9l.9.8c-.3.3-.5.6-.8.9l-.9-.8.2-.2h0s0,0,0,0h0s0,0,0,0h0s0,0,0,0h0s0,0,0,0h0s0,0,0,0h0s0,0,0,0h0s0,0,0,0h0s0,0,0,0h0s.4-.4.4-.4ZM79.1,87.1l.9.8c-.3.3-.5.6-.8.9l-.9-.8h0c0,0,0-.1,0-.1h0s0,0,0,0h0c.2-.3.4-.5.7-.8h0ZM80.8,85.3l.9.8c-.3.3-.6.6-.8.9l-.9-.8.3-.3h0c.2-.2.4-.4.5-.6h0s0,0,0,0h0ZM82.5,83.5l.9.9c-.3.3-.6.6-.8.9l-.9-.9h0c0,0,0,0,0,0h0s0,0,0,0h0s0,0,0,0h0s0,0,0,0h0c0,0,0-.1,0-.1h0s0,0,0,0h0s0,0,0,0h0s0,0,0,0h0s0,0,0,0h0s0,0,0,0h0s0,0,0,0h0l.3-.3ZM84.3,81.8l.9.9c-.3.3-.6.6-.9.8l-.9-.9h0c0,0,0-.1,0-.1h0c.3-.3.5-.5.8-.8h0ZM86,80.1l.8.9c-.3.3-.6.6-.9.8l-.8-.9h0s0,0,0,0h0s0,0,0,0h0s0,0,0,0h0s0,0,0,0h0s0,0,0,0h0s0,0,0,0h0s0,0,0,0h0s0,0,0,0h0s0,0,0,0h0s0,0,0,0h0c.2-.2.3-.3.5-.5h0ZM87.8,78.5l.8.9c-.3.3-.6.5-.9.8l-.8-.9h0s0,0,0,0h0s0,0,0,0h0s0,0,0,0h0s0,0,0,0h0s0,0,0,0h0s0,0,0,0h0s.1-.1.1-.1h0s0,0,0,0h0s0,0,0,0h.1c0-.1,0-.1,0-.1h0s0,0,0,0h0s.1-.1.1-.1h0s0,0,0,0h0s0,0,0,0h0s0,0,0,0h0s0,0,0,0ZM89.7,76.9l.8.9c-.3.3-.6.5-.9.8l-.8-.9.2-.2h0s0,0,0,0h0s0,0,0,0h0s0,0,0,0h0s.1-.1.1-.1h0s0,0,0,0h0s0,0,0,0h0s0,0,0,0h0s.4-.3.4-.3h0ZM91.6,75.3l.8.9c-.3.3-.6.5-.9.8l-.8-.9h0c0,0,0,0,0,0h0s0,0,0,0h0s0,0,0,0h0c.3-.2.5-.4.8-.6ZM93.5,73.8l.8,1c-.3.2-.6.5-1,.8l-.8-1c.3-.3.6-.5,1-.8h0ZM95.4,72.3l.7,1c-.3.2-.6.5-1,.7l-.7-1c.3-.2.6-.4.8-.6h0s0,0,0,0h0s0,0,0,0h0ZM97.4,70.8l.7,1c-.3.2-.7.5-1,.7l-.7-1c.3-.2.6-.5.9-.7h0s0,0,0,0h0s0,0,0,0ZM99.4,69.4l.7,1c-.3.2-.7.5-1,.7l-.7-1c.2-.2.5-.3.7-.5h0s0,0,0,0h0s0,0,0,0h0s0,0,0,0h0s0,0,0,0h.2ZM101.5,68l.7,1c-.3.2-.7.4-1,.7l-.7-1h0s0,0,0,0h0c.3-.2.7-.4,1-.6h0ZM103.5,66.7l.7,1c-.3.2-.7.4-1,.6l-.7-1c.3-.2.6-.4.8-.5h0s0,0,0,0h0s0,0,0,0h0s0,0,0,0h0s0,0,0,0h0s0,0,0,0h0ZM105.6,65.4l.6,1.1c-.3.2-.7.4-1,.6l-.6-1,.4-.3h0s0,0,0,0h0s.6-.4.6-.4ZM107.7,64.2l.6,1.1c-.3.2-.7.4-1.1.6l-.6-1.1.3-.2h0c.2-.2.5-.3.7-.4h0ZM109.9,63l.6,1.1c-.4.2-.7.4-1.1.6l-.6-1.1.4-.2h0s0,0,0,0h0s.6-.4.6-.4h0ZM112,61.8l.6,1.1c-.4.2-.7.4-1.1.6l-.6-1.1.5-.2h0s0,0,0,0h0s0,0,0,0l.4-.2h0s0,0,0,0h.1ZM114.2,60.7l.5,1.1c-.4.2-.7.4-1.1.5l-.6-1.1c.3-.2.6-.3.9-.5h0s.2,0,.2,0h0ZM116.5,59.7l.5,1.1c-.4.2-.7.3-1.1.5l-.5-1.1c.4-.2.7-.3,1.1-.5h0ZM118.7,58.7l.5,1.1c-.4.2-.7.3-1.1.5l-.5-1.1.6-.3h0s0,0,0,0h0s0,0,0,0h0s0,0,0,0h0s0,0,0,0h0s0,0,0,0h0s0,0,0,0h0s0,0,0,0h0s0,0,0,0h0s0,0,0,0h0s0,0,0,0ZM120.9,57.7l.5,1.1c-.4.2-.8.3-1.1.5l-.5-1.1c.4-.2.8-.3,1.1-.5ZM123.2,56.8l.4,1.1c-.4.1-.8.3-1.1.4l-.5-1.1.6-.3h0s0,0,0,0h0s0,0,0,0h0s0,0,0,0h0s0,0,0,0h0s.2-.1.2-.1ZM125.5,56l.4,1.2c-.4.1-.8.3-1.1.4l-.4-1.1h.3c0-.1,0-.1,0-.1h0s0,0,0,0h0s0,0,0,0h0s0,0,0,0h0s0,0,0,0h0s.6-.2.6-.2ZM127.8,55.2l.4,1.2c-.4.1-.8.3-1.1.4l-.4-1.2h.4c0-.1,0-.1,0-.1h0s0,0,0,0h0s0,0,0,0h0s0,0,0,0h0s0,0,0,0h0s0,0,0,0h0s0,0,0,0h0s0,0,0,0h0s0,0,0,0h0s0,0,0,0h0s0,0,0,0h0s.2,0,.2,0ZM130.2,54.4l.4,1.2c-.4.1-.8.2-1.2.4l-.4-1.2c.4-.1.8-.2,1.1-.4h0ZM132.5,53.7l.3,1.2c-.4.1-.8.2-1.2.3l-.4-1.2h.4c0-.1,0-.1,0-.1h0s0,0,0,0h0s0,0,0,0h0s0,0,0,0h0s0,0,0,0h0s0,0,0,0h0s0,0,0,0h0s0,0,0,0h.1s0,0,0,0h.2ZM134.9,53l.3,1.2c-.4,0-.8.2-1.2.3l-.3-1.2h0s0,0,0,0h0s0,0,0,0h0s0,0,0,0h0s0,0,0,0h0s0,0,0,0h0s0,0,0,0h0s0,0,0,0h0s0,0,0,0h0s0,0,0,0h0s0,0,0,0h0s0,0,0,0h0s0,0,0,0h0s0,0,0,0h0s0,0,0,0h0s0,0,0,0h0s0,0,0,0h0s0,0,0,0h0s0,0,0,0h0s0,0,0,0h.2c0,0,0,0,0,0ZM137.3,52.4l.3,1.2c-.4,0-.8.2-1.2.3l-.3-1.2.6-.2h0s0,0,0,0h0s.5-.1.5-.1h0ZM139.6,51.9l.3,1.2c-.4,0-.8.2-1.2.3l-.3-1.2.7-.2h0s0,0,0,0h0s0,0,0,0h.3ZM142,51.3l.2,1.2c-.4,0-.8.2-1.2.2l-.3-1.2c.3,0,.6-.1.9-.2h0s.1,0,.1,0h0s0,0,0,0h0s0,0,0,0h0s0,0,0,0ZM144.5,50.9l.2,1.2c-.4,0-.8.1-1.2.2l-.2-1.2h.2s0,0,0,0h0s0,0,0,0h0s0,0,0,0h0s0,0,0,0h0s0,0,0,0h0s0,0,0,0h0s.7-.1.7-.1ZM146.9,50.5l.2,1.2c-.4,0-.8.1-1.2.2l-.2-1.2c.4,0,.8-.1,1.2-.2h0ZM149.3,50.1l.2,1.2c-.4,0-.8.1-1.2.2l-.2-1.2h.2s0,0,0,0h0s0,0,0,0h.3s0,0,0,0h.5ZM151.7,49.8v1.2c-.3,0-.7,0-1.1.1l-.2-1.2h.4s.8-.1.8-.1ZM154.2,49.6v1.2c-.3,0-.7,0-1.1.1v-1.2c-.1,0,.4,0,.4,0h.4s0,0,0,0h.2ZM156.6,49.4v1.2c-.3,0-.7,0-1.1,0v-1.2c0,0,0,0,0,0h0c.3,0,.7,0,1,0ZM159.1,49.2v1.2c-.3,0-.7,0-1.2,0v-1.2c0,0,.5,0,.5,0h.6ZM161.5,49.1v1.2c-.4,0-.8,0-1.2,0v-1.2c.3,0,.6,0,1,0h.2ZM164,49.1v1.2c-.4,0-.8,0-1.2,0v-1.2s.5,0,.5,0h.7Z"/>
  <g id="_グループ_32164" data-name="グループ_32164">
    <circle id="_楕円形_3" data-name="楕円形_3" class="st2" cx="165" cy="49.1" r="49.1"/>
    <path id="_楕円形_3_-_アウトライン" data-name="楕円形_3_-_アウトライン" class="st5" d="M165,1.2c-9.5,0-18.9,2.8-26.7,8.2-7.7,5.2-13.7,12.5-17.3,21-6.3,14.9-4.6,32,4.4,45.4,5.2,7.7,12.5,13.7,21,17.3,14.9,6.3,32,4.6,45.4-4.4,7.7-5.2,13.7-12.5,17.3-21.1,6.3-14.9,4.6-32-4.4-45.4-5.2-7.7-12.5-13.7-21.1-17.3-5.9-2.5-12.2-3.8-18.6-3.8M165,0C192.1,0,214.1,22,214.1,49.1s-22,49.1-49.1,49.1-49.1-22-49.1-49.1C115.9,22,137.9,0,165,0h0Z"/>
    <g id="_グループ_34671" data-name="グループ_34671">
      <g id="_ディレクション" data-name="ディレクション" class="st0">
        <g class="st0">
          <path d="M151.7,54.6c.2,0,.7,0,1,0v1.4c-.3,0-.7,0-1,0h-2.7c0,1.1-.3,2.1-.7,2.8-.4.8-1.2,1.6-2.2,2.1l-1.3-.9c.8-.3,1.6-.9,2-1.6.5-.7.6-1.5.7-2.4h-3c-.3,0-.7,0-1.1,0v-1.4c.3,0,.7,0,1.1,0h7.2ZM145.9,53.2c-.4,0-.8,0-1.2,0v-1.4c.4,0,.8,0,1.2,0h3.6c.4,0,.8,0,1.2,0v1.4c-.4,0-.8,0-1.2,0h-3.6ZM151.4,52.9c-.2-.5-.6-1.1-.9-1.5l.9-.4c.3.4.7,1.1.9,1.5l-.9.4ZM152.7,52.4c-.2-.5-.6-1.1-.9-1.5l.9-.4c.3.4.7,1.1.9,1.5l-.9.4Z"/>
          <path d="M162.3,53.7c.6,0,.9,0,1.2,0v1.5c-.2,0-.6,0-1.2,0h-.8v.4c0,2.7-.6,4.4-3.3,5.6l-1.2-1.1c2.1-.7,3.1-1.7,3.1-4.4v-.4h-2.6v1.5c0,.5,0,.9,0,1.2h-1.5c0-.2,0-.7,0-1.2v-1.5h-.9c-.5,0-.9,0-1.2,0v-1.5c.2,0,.6.1,1.2.1h.9v-1.1c0-.4,0-.8,0-1h1.6c0,.2,0,.6,0,1v1.1h2.6v-1.2c0-.4,0-.8,0-1h1.6c0,.2,0,.6,0,1v1.2h.8ZM162.3,53.3c-.2-.5-.4-1.1-.6-1.5l.7-.2c.2.4.5,1.1.6,1.5l-.8.2ZM163.4,52.9c-.2-.5-.4-1.1-.6-1.5l.7-.2c.2.4.5,1.1.6,1.5l-.8.2Z"/>
          <path d="M170.8,59.1c0,.5,0,1.2,0,1.4h-1.7c0-.3,0-1,0-1.4v-3.6c-1.1.6-2.5,1.1-3.8,1.5l-.8-1.3c1.9-.4,3.8-1.2,5-2,1.1-.7,2.3-1.7,2.9-2.5l1.2,1.1c-.8.8-1.8,1.7-2.9,2.4v4.5Z"/>
          <path d="M179.2,57.6c1.9-1.1,3.3-2.8,4-4.3l.9,1.6c-.8,1.5-2.3,3-4.1,4.1-1.1.7-2.5,1.3-4.1,1.6l-.9-1.5c1.7-.2,3.1-.8,4.2-1.4ZM179.2,54l-1.1,1.2c-.6-.6-1.9-1.8-2.8-2.4l1-1.1c.8.5,2.2,1.7,2.8,2.3Z"/>
        </g>
      </g>
      <g id="Direction" class="st0">
        <g class="st0">
          <path class="st4" d="M151.1,35.4h2c.8,0,1.5.2,2.1.5s.9.8,1.2,1.3c.2.5.4,1.1.4,1.7s-.1,1.2-.4,1.7c-.3.5-.7.9-1.2,1.1-.5.3-1.1.4-1.7.4h-2.3v-6.6ZM153.2,40.8c.7,0,1.2-.2,1.6-.5.4-.3.6-.8.6-1.5s-.1-.9-.3-1.3c-.2-.3-.5-.5-.8-.6-.3-.1-.6-.2-.8-.2h-1.1v4.1h.8Z"/>
          <path class="st4" d="M160.6,40.8l.6.9c-.2.1-.4.2-.7.3-.2,0-.5.1-.7.1-.5,0-.9,0-1.2-.3s-.6-.4-.8-.7c-.2-.3-.3-.7-.3-1.1s.1-.7.3-1.1c.2-.3.5-.6.8-.8.3-.2.7-.3,1.1-.3s1,.2,1.4.5c.4.3.6.8.7,1.4l-2.9.9c.2.2.5.3.8.3s.5,0,.8-.3ZM159,39.2c-.2.2-.3.4-.3.8h0c0,0,1.7-.5,1.7-.5-.1-.4-.4-.6-.8-.6s-.5,0-.7.3Z"/>
          <path class="st4" d="M163.2,42c-.3-.1-.5-.3-.7-.5l.5-.7c.3.3.7.5,1,.5s.3,0,.4,0,.1-.1.1-.2,0-.2-.2-.3c-.1,0-.2-.1-.4-.2-.1,0-.2,0-.3,0-.3-.1-.6-.3-.8-.5s-.3-.5-.3-.7,0-.4.2-.6c.1-.2.3-.4.5-.5.2-.1.5-.2.9-.2s.6,0,.8,0c.2,0,.4.2.7.3l-.5.7c-.1,0-.3-.2-.4-.2-.1,0-.3,0-.4,0s-.3,0-.4,0c0,0-.1.1-.1.2,0,.1,0,.2.2.3.1,0,.3.1.5.2,0,0,0,0,.1,0s0,0,.1,0c.6.2.9.6.9,1.1s0,.5-.2.7-.3.4-.6.5-.6.2-.9.2-.6,0-.9-.2Z"/>
          <path class="st4" d="M167,36.3c.1-.1.3-.2.5-.2s.3,0,.5.2c.1.1.2.3.2.5s0,.3-.2.5c-.1.1-.3.2-.5.2s-.3,0-.5-.2c-.1-.1-.2-.3-.2-.5s0-.3.2-.5ZM168.1,38.1v3.9h-1.3v-3.9h1.3Z"/>
          <path class="st4" d="M173.8,38.1v3.9c0,.4-.1.7-.3,1-.2.3-.5.5-.9.7s-.8.3-1.2.3-.6,0-.8-.1c-.2,0-.4-.2-.6-.3-.1,0-.3-.2-.5-.4l.7-.9c.2.2.4.3.5.4.2,0,.4.1.7.1s.6,0,.8-.2c.2-.2.3-.4.3-.7v-.6c-.1.2-.3.4-.6.5s-.6.2-.9.2-.7,0-1-.3c-.3-.2-.5-.4-.7-.8-.2-.3-.3-.7-.3-1.1s0-.8.3-1.1c.2-.3.4-.6.7-.8.3-.2.6-.3,1-.3s.6,0,.9.1.4.2.6.4v-.3h1.3ZM172.5,40.6v-1c0-.2-.2-.3-.4-.5-.2-.1-.4-.2-.7-.2s-.6.1-.8.3-.3.5-.3.8.1.6.3.8.5.3.8.3c.5,0,.9-.2,1.1-.6Z"/>
          <path class="st4" d="M178.7,38.3c.2.2.4.5.4.8v2.9h-1.3v-2.5c0-.4-.2-.6-.6-.6s-.5.1-.7.4c-.2.3-.3.6-.3,1v1.6h-1.3v-3.9h1.1v.6c.2-.3.4-.5.7-.6.3-.1.6-.2.9-.2s.7.1.9.3Z"/>
        </g>
      </g>
    </g>
  </g>
  <g id="_グループ_32167" data-name="グループ_32167">
    <circle id="_楕円形_4" data-name="楕円形_4" class="st2" cx="280.9" cy="165" r="49.1"/>
    <path id="_楕円形_4_-_アウトライン" data-name="楕円形_4_-_アウトライン" class="st5" d="M280.9,117.2c-9.5,0-18.9,2.8-26.7,8.2-7.7,5.2-13.7,12.5-17.3,21-6.3,14.9-4.6,32,4.4,45.4,5.2,7.7,12.5,13.7,21,17.3,14.9,6.3,32,4.6,45.4-4.4,7.7-5.2,13.7-12.5,17.3-21.1,6.3-14.9,4.6-32-4.4-45.4-5.2-7.7-12.5-13.7-21.1-17.3-5.9-2.5-12.2-3.8-18.6-3.8M280.9,115.9c27.1,0,49.1,22,49.1,49.1s-22,49.1-49.1,49.1-49.1-22-49.1-49.1c0-27.1,22-49.1,49.1-49.1h0Z"/>
    <g id="_グループ_34675" data-name="グループ_34675">
      <g id="_デザイン" data-name="デザイン" class="st0">
        <g class="st0">
          <path d="M261.9,169.4c.6,0,.9,0,1.2,0v1.5c-.2,0-.6,0-1.2,0h-.8v.4c0,2.7-.7,4.4-3.3,5.6l-1.2-1.1c2.1-.7,3.1-1.7,3.1-4.4v-.4h-2.6v1.5c0,.5,0,.9,0,1.2h-1.5c0-.2,0-.7,0-1.2v-1.5h-.9c-.5,0-.9,0-1.2,0v-1.5c.2,0,.6,0,1.2,0h.9v-1.1c0-.4,0-.8,0-1h1.6c0,.2,0,.6,0,1v1.1h2.6v-1.2c0-.4,0-.8,0-1h1.6c0,.2,0,.6,0,1v1.2h.8Z"/>
          <path d="M269.9,175c0,.5,0,1.2,0,1.4h-1.7c0-.3,0-1,0-1.4v-3.6c-1.1.6-2.5,1.1-3.8,1.5l-.8-1.3c1.9-.4,3.8-1.2,5-2,1.1-.7,2.3-1.7,2.9-2.5l1.2,1.1c-.8.8-1.8,1.7-2.9,2.4v4.5Z"/>
          <path d="M281,173.5c-1.1-.6-2.8-1.2-4-1.6v3.1c0,.3,0,1.1,0,1.5h-1.7c0-.4.1-1.1.1-1.5v-6.3c0-.4,0-.9-.1-1.3h1.7c0,.4,0,.9,0,1.3v1.6c1.5.4,3.6,1.2,4.6,1.7l-.6,1.5Z"/>
        </g>
        <g class="st0">
          <path d="M289.6,173.6c-.1-.3-.4-.9-.6-1.4v4.7h-1.2v-4.1c-.3.8-.6,1.6-1,2.2-.1-.4-.4-.9-.6-1.2.6-.9,1.2-2.4,1.5-3.7h-1.2v-1.2h1.3v-2.3h1.2v2.3h1.1v1.2h-1.1v.5c.3.4,1.1,1.7,1.3,2l-.7.9ZM296.6,175.2h-.6v.5c0,.5-.1.8-.5,1-.4.2-.9.2-1.6.2,0-.3-.2-.7-.3-1,.4,0,.9,0,1,0s.2,0,.2-.2v-.5h-3.1v1.6h-1.2v-1.6h-.7v-1h.7v-2.8h2.1v-.4h-2.6v-.9h1.4v-.5h-.9v-.9h.9v-.5h-1.1v-.9h1.1v-.8h1.2v.8h1.2v-.8h1.2v.8h1.2v.9h-1.2v.5h1.1v.9h-1.1v.5h1.4v.9h-2.7v.4h2.2v2.8h.6v1ZM291.7,172.4v.5h.9v-.5h-.9ZM291.7,174.3h.9v-.5h-.9v.5ZM292.7,168.8h1.2v-.5h-1.2v.5ZM292.7,170.2h1.2v-.5h-1.2v.5ZM293.9,172.4v.5h1v-.5h-1ZM294.8,174.3v-.5h-1v.5h1Z"/>
          <path d="M299.2,168.5c-.3.4-.6.7-.9,1-.2-.2-.8-.6-1.1-.7.7-.5,1.3-1.3,1.6-2.2l1.2.3c0,.2-.2.4-.3.5h2.4v.8c.4-.5.8-1.1,1-1.7l1.2.3c0,.2-.2.4-.3.6h3.2v1h-1.9c.2.2.3.5.4.7l-1.1.3c-.1-.3-.4-.7-.6-1h-.6c-.3.4-.6.7-.9,1-.3-.2-.8-.5-1.1-.6.1-.1.3-.2.4-.4h-1.5c.1.3.3.5.3.7l-1.1.3c0-.3-.3-.7-.5-1h-.2ZM303.9,174.4c.9.5,2.4,1,3.7,1.2-.3.3-.6.8-.8,1.1-1.3-.3-2.7-.9-3.7-1.7v2h-1.3v-2c-1,.8-2.4,1.4-3.7,1.8-.2-.3-.5-.8-.8-1.1,1.3-.2,2.7-.7,3.6-1.2h-3.4v-1h4.3v-.3c0,0-.1,0-.2,0-.1-.2-.6-.6-.8-.8-1.1.2-2.3.3-3.2.5v-1c.3,0,.9-.1,1.5-.2v-1.1h-1.4v-.9h3.9v.9h-1.4v.9l1.4-.2v.5c.4-.4.5-.7.5-1.1v-1.1h4v1.9c0,.2,0,.3,0,.3,0,0,0,0,0,0h.2c0,0,0,0,.1,0,0,0,0,0,0-.2,0-.1,0-.4,0-.8.2.2.6.4.8.5,0,.4,0,.9-.1,1,0,.2-.2.3-.4.4-.2,0-.4.1-.6.1h-.5c-.3,0-.6,0-.8-.3-.1-.2-.2-.3-.2-.7l-.6.6c-.2-.3-.7-.7-1.1-1-.1.5-.4.9-.8,1.3h.6v.7h4.4v1h-3.5ZM303.4,170.4v.3c0,.2,0,.3,0,.5l.5-.5c.4.2.8.6,1.1.9v-1.1h-1.6Z"/>
        </g>
      </g>
      <g id="Design" class="st0">
        <g class="st0">
          <path class="st4" d="M271.1,157.9c-.4.1-.8.2-1.2.2-.7,0-1.3-.2-1.8-.5s-.9-.7-1.2-1.2c-.3-.5-.4-1.1-.4-1.7s.1-1.3.4-1.8c.3-.5.6-.9,1.1-1.2s1-.4,1.7-.4.8,0,1.1.2c.3.1.6.2.9.4l-.5,1.2c-.5-.4-1-.5-1.5-.5s-.7,0-.9.3c-.3.2-.5.4-.7.8s-.3.7-.3,1.1,0,.8.2,1.1c.2.3.4.6.7.8s.7.3,1.1.3.6,0,.9-.2c.3-.1.5-.2.6-.4l.5,1.2c-.2.1-.4.3-.8.4Z"/>
          <path class="st4" d="M273,154.9c.2-.3.5-.6.8-.8.3-.2.7-.3,1.2-.3s.8,0,1.2.3c.3.2.6.4.8.8.2.3.3.7.3,1.1s0,.8-.3,1.1c-.2.3-.4.6-.8.8-.3.2-.7.3-1.2.3s-.8,0-1.2-.3-.6-.4-.8-.7c-.2-.3-.3-.7-.3-1.1s0-.8.3-1.1ZM274.2,156.8c.2.2.4.3.7.3s.5-.1.7-.3c.2-.2.3-.5.3-.8s0-.6-.3-.8c-.2-.2-.4-.3-.7-.3s-.5.1-.7.3-.3.5-.3.8,0,.6.3.8Z"/>
          <path class="st4" d="M282.5,150.9v7.1h-1.3v-.4c-.5.3-.9.5-1.5.5s-.7,0-1-.3-.5-.4-.7-.7c-.2-.3-.2-.7-.2-1.1s0-.8.3-1.1c.2-.3.4-.6.7-.7.3-.2.7-.2,1.1-.2s.5,0,.7.1c.2,0,.4.2.6.4v-3.4h1.3ZM280.8,156.9c.2,0,.3-.2.4-.4v-1c0-.2-.2-.3-.4-.5-.2-.1-.4-.2-.7-.2s-.5.1-.7.3-.3.5-.3.8,0,.4.1.6c0,.2.2.3.4.4.2,0,.3.1.5.1s.5,0,.6-.1Z"/>
          <path class="st4" d="M284,152.2c.1-.1.3-.2.5-.2s.3,0,.5.2c.1.1.2.3.2.5s0,.3-.2.5c-.1.1-.3.2-.5.2s-.3,0-.5-.2c-.1-.1-.2-.3-.2-.5s0-.3.2-.5ZM285,154.1v3.9h-1.3v-3.9h1.3Z"/>
          <path class="st4" d="M290,154.2c.2.2.4.5.4.8v2.9h-1.3v-2.5c0-.4-.2-.6-.6-.6s-.5.1-.7.4c-.2.3-.3.6-.3,1v1.6h-1.3v-3.9h1.1v.6c.2-.3.4-.5.7-.6.3-.1.6-.2.9-.2s.7.1.9.3Z"/>
          <path class="st4" d="M296.1,154.1v3.9c0,.4-.1.7-.3,1-.2.3-.5.5-.9.7-.4.2-.8.3-1.2.3s-.6,0-.9-.1c-.2,0-.4-.2-.6-.3-.1,0-.3-.2-.5-.4l.7-.9c.2.2.4.3.5.4.2,0,.4.1.7.1s.6,0,.8-.2c.2-.2.3-.4.3-.7v-.6c-.1.2-.3.4-.6.5s-.6.2-.9.2-.7,0-1-.3c-.3-.2-.5-.4-.7-.8-.2-.3-.3-.7-.3-1.1s0-.8.3-1.1c.2-.3.4-.6.7-.8.3-.2.6-.3,1-.3s.6,0,.9.1.4.2.6.4v-.3h1.3ZM294.8,156.5v-1c0-.2-.2-.3-.4-.5-.2-.1-.4-.2-.7-.2s-.6.1-.8.3-.3.5-.3.8.1.6.3.8.5.3.8.3c.5,0,.9-.2,1.1-.6Z"/>
        </g>
      </g>
    </g>
  </g>
  <g id="_パス_33690" data-name="パス_33690">
    <path id="_パス_51626" data-name="パス_51626" class="st3" d="M165,228.5c-4.3,0-8.6-.4-12.8-1.3-8.1-1.7-15.8-4.9-22.7-9.6-10.2-6.9-18.2-16.6-23-27.9-1.6-3.8-2.9-7.8-3.7-11.9-1.7-8.4-1.7-17.1,0-25.6,1.7-8.1,4.9-15.8,9.6-22.7,6.9-10.2,16.6-18.2,27.9-23,3.8-1.6,7.8-2.9,11.9-3.7,8.4-1.7,17.1-1.7,25.6,0,8.1,1.7,15.8,4.9,22.7,9.6,10.2,6.9,18.2,16.6,23,27.9,1.6,3.8,2.9,7.8,3.7,11.9,1.7,8.4,1.7,17.1,0,25.6-1.7,8.1-4.9,15.8-9.6,22.7-6.9,10.2-16.6,18.2-27.9,23-3.8,1.6-7.8,2.9-11.9,3.7-4.2.9-8.5,1.3-12.8,1.3Z"/>
    <path id="_パス_51627" data-name="パス_51627" class="st1" d="M165,102.4c-4.2,0-8.5.4-12.6,1.3-8,1.6-15.6,4.8-22.4,9.4-10.1,6.8-17.9,16.4-22.7,27.5-1.6,3.8-2.8,7.7-3.6,11.7-1.7,8.3-1.7,16.9,0,25.2,1.6,8,4.8,15.6,9.4,22.4,6.8,10.1,16.4,17.9,27.5,22.7,3.8,1.6,7.7,2.8,11.7,3.6,8.3,1.7,16.9,1.7,25.2,0,8-1.6,15.6-4.8,22.4-9.4,10.1-6.8,17.9-16.4,22.7-27.5,1.6-3.8,2.8-7.7,3.6-11.7,1.7-8.3,1.7-16.9,0-25.2-1.6-8-4.8-15.6-9.4-22.4-6.8-10.1-16.4-17.9-27.5-22.7-3.8-1.6-7.7-2.8-11.7-3.6-4.2-.8-8.4-1.3-12.6-1.3M165,100.6c35.6,0,64.4,28.8,64.4,64.4s-28.8,64.4-64.4,64.4-64.4-28.8-64.4-64.4h0c0-35.6,28.8-64.4,64.4-64.4Z"/>
  </g>
  <g id="_グループ_32163" data-name="グループ_32163">
    <circle id="_楕円形_6" data-name="楕円形_6" class="st2" cx="165" cy="280.9" r="49.1"/>
    <path id="_楕円形_6_-_アウトライン" data-name="楕円形_6_-_アウトライン" class="st5" d="M165,233.1c-9.5,0-18.9,2.8-26.7,8.2-7.7,5.2-13.7,12.5-17.3,21-6.3,14.9-4.6,32,4.4,45.4,5.2,7.7,12.5,13.7,21,17.3,14.9,6.3,32,4.6,45.4-4.4,7.7-5.2,13.7-12.5,17.3-21.1,6.3-14.9,4.6-32-4.4-45.4-5.2-7.7-12.5-13.7-21.1-17.3-5.9-2.5-12.2-3.8-18.6-3.8M165,231.9c27.1,0,49.1,22,49.1,49.1s-22,49.1-49.1,49.1-49.1-22-49.1-49.1c0-27.1,22-49.1,49.1-49.1h0Z"/>
    <g id="_グループ_34673" data-name="グループ_34673">
      <g id="SEO対策" class="st0">
        <g class="st0">
          <path d="M144,290.9l.9-1.1c.6.5,1.4.9,2.1.9s1.3-.4,1.3-.9-.5-.8-1.2-1.1l-1.1-.5c-.8-.3-1.6-1-1.6-2.2s1.2-2.4,2.8-2.4,1.9.4,2.6,1l-.8,1c-.5-.4-1.1-.7-1.7-.7s-1.2.3-1.2.9.6.8,1.3,1.1l1.1.5c1,.4,1.6,1,1.6,2.2s-1.1,2.5-3,2.5-2.2-.4-3-1.2Z"/>
          <path d="M151.4,283.8h5v1.4h-3.4v1.9h2.9v1.4h-2.9v2.2h3.5v1.4h-5.1v-8.1Z"/>
          <path d="M157.8,287.8c0-2.7,1.5-4.2,3.6-4.2s3.6,1.6,3.6,4.2-1.5,4.3-3.6,4.3-3.6-1.6-3.6-4.3ZM163.4,287.8c0-1.7-.8-2.8-2-2.8s-2,1-2,2.8.8,2.8,2,2.8,2-1.1,2-2.8Z"/>
        </g>
        <g class="st0">
          <path d="M170.6,285.9c-.2,1.2-.5,2.3-.9,3.2.5.6.9,1.3,1.1,1.8l-1,.9c-.2-.4-.4-.9-.7-1.4-.6,1-1.3,1.8-2.3,2.4-.2-.3-.6-.8-.9-1,1-.6,1.8-1.4,2.3-2.5-.6-.8-1.2-1.6-1.8-2.2l.9-.7c.5.5,1,1.1,1.5,1.7.2-.7.4-1.4.5-2.2l1.3.2ZM176.3,286.3h-1.2v5c0,.7-.1,1.1-.5,1.3-.4.2-1.1.3-2,.3,0-.4-.2-1-.4-1.4.6,0,1.2,0,1.4,0s.3,0,.3-.2v-5h-2.8v-.8h-4.8v-1.2h1.9v-1.7h1.3v1.7h2v.7h2.4v-2.4h1.3v2.4h1.2v1.3ZM172,287.2c.5.7,1,1.7,1.2,2.3l-1.1.6c-.2-.6-.6-1.6-1.1-2.4l1-.5Z"/>
          <path d="M186.4,289.2c0,.5-.1.8-.5,1-.4.2-.9.2-1.5.2.8.4,1.9.8,2.9,1-.3.3-.6.8-.8,1.2-1.4-.4-2.7-1-3.6-1.8v2.2h-1.4v-2.2c-1,.9-2.3,1.5-3.7,1.9-.2-.3-.5-.8-.8-1.1,1.8-.4,3.5-1.2,4.5-2.3v-.8h-2.1v1.9h-1.4v-3.1h3.5v-.5h-4.2v-1.1h2.3c-.1-.3-.3-.8-.6-1.2h-.2c-.3.4-.6.8-.9,1.1-.3-.2-.8-.6-1.1-.7.7-.6,1.3-1.5,1.7-2.4l1.2.3c0,.2-.2.4-.3.6h2.4v.9c.5-.5.8-1.2,1-1.8l1.3.3c0,.2-.2.4-.3.6h3.1v1.1h-1.8c.2.3.3.5.4.8l-1.2.4c0-.3-.3-.7-.6-1.1h-.5c-.2.2-.3.5-.5.6v.5h4v1.1h-4v.5h3.4v1.9ZM181.6,285.7v-.6h.2c-.1,0-.2-.1-.3-.2.1-.1.3-.2.4-.4h-1.4c.2.3.3.6.4.8l-1,.4h1.7ZM183,289.4c.4.3.8.6,1.4.9,0-.3-.3-.7-.4-1,.4,0,.8,0,.9,0s.2,0,.2-.2v-.8h-2.1v1Z"/>
        </g>
      </g>
      <g id="SEO_measures" class="st0">
        <g class="st0">
          <path class="st4" d="M136.9,268.4c-.3,0-.5,0-.7.2s-.2.3-.2.5.1.4.3.6c.2.2.5.3.9.5.3.1.6.2.8.4.2.1.4.3.6.6.1.3.2.6.2,1s0,.7-.3.9c-.2.3-.4.5-.8.7s-.8.3-1.2.3-.8,0-1.2-.2c-.4-.1-.8-.3-1.1-.5l.6-1c.2.2.5.3.8.4.3.1.6.2.8.2s.5,0,.7-.2c.2-.1.3-.3.3-.6s-.3-.6-1-.9c-.4-.2-.7-.3-.9-.4-.3-.1-.5-.3-.7-.6-.2-.3-.3-.6-.3-1,0-.6.2-1,.6-1.4s.9-.5,1.5-.6c.5,0,.9,0,1.2.2.3.1.7.3,1,.5l-.5,1c-.6-.3-1.1-.5-1.5-.5Z"/>
          <path class="st4" d="M144.7,267.3v1.3h-3.2v1.4h2.8v1.3h-2.8v1.4h3.3v1.3h-4.6v-6.6h4.5Z"/>
          <path class="st4" d="M146.2,268.9c.3-.5.7-.9,1.2-1.2.5-.3,1.1-.5,1.7-.5s1.2.2,1.7.5c.5.3.9.7,1.2,1.2.3.5.5,1.1.5,1.7s-.2,1.2-.5,1.7c-.3.5-.7.9-1.2,1.2-.5.3-1.1.5-1.7.5s-1.2-.2-1.7-.5c-.5-.3-.9-.7-1.2-1.2-.3-.5-.5-1.1-.5-1.7s.2-1.2.5-1.7ZM147.4,271.7c.2.3.4.6.7.8.3.2.7.3,1,.3s.7,0,1-.3c.3-.2.5-.4.7-.8s.3-.7.3-1.1,0-.8-.3-1.1-.4-.6-.7-.8c-.3-.2-.7-.3-1-.3s-.7,0-1,.3c-.3.2-.6.4-.7.8-.2.3-.3.7-.3,1.1s0,.7.3,1.1Z"/>
          <path class="st4" d="M162.6,270.1c.2.2.4.5.4.9v3h-1.3v-2.4c0-.2,0-.3,0-.4,0,0-.2-.2-.3-.2-.3,0-.5.1-.7.4s-.2.6-.2,1v1.6h-1.3v-2.4c0-.2,0-.3-.1-.4,0,0-.2-.2-.3-.2-.3,0-.5.1-.7.4s-.2.6-.2,1v1.6h-1.3v-3.9h1.1v.6c.4-.5.9-.8,1.5-.8s.6,0,.8.2.3.3.4.6c.2-.2.4-.4.6-.6.2-.1.5-.2.7-.2.4,0,.7.1.9.3Z"/>
          <path class="st4" d="M167,272.7l.6.9c-.2.1-.4.2-.7.3-.2,0-.5.1-.7.1-.5,0-.9,0-1.2-.3s-.6-.4-.8-.7c-.2-.3-.3-.7-.3-1.1s.1-.7.3-1.1c.2-.3.5-.6.8-.8.3-.2.7-.3,1.1-.3s1,.2,1.4.5c.4.3.6.8.7,1.4l-2.9.9c.2.2.5.3.8.3s.5,0,.8-.3ZM165.5,271.1c-.2.2-.3.4-.3.8h0c0,0,1.7-.5,1.7-.5-.1-.4-.4-.6-.8-.6s-.5,0-.7.3Z"/>
          <path class="st4" d="M173.5,270v3.9h-1.3v-.5c-.4.4-.8.6-1.3.6s-1.1-.2-1.4-.5c-.4-.3-.5-.9-.5-1.5s0-.8.3-1.1.4-.6.7-.8c.3-.2.6-.3.9-.3s.6,0,.8.2c.2.1.4.3.5.4v-.4h1.3ZM172.2,272.4v-1c0-.2-.2-.3-.4-.5-.2-.1-.4-.2-.6-.2s-.5.1-.7.3-.3.5-.3.8,0,.4.1.6c0,.2.2.3.4.4.2,0,.3.1.5.1.4,0,.8-.2,1-.6Z"/>
          <path class="st4" d="M175.2,273.8c-.3-.1-.5-.3-.7-.5l.5-.7c.3.3.7.5,1,.5s.3,0,.4,0c0,0,.1-.1.1-.2s0-.2-.2-.3c-.1,0-.2-.1-.4-.2s-.2,0-.3,0c-.3-.1-.6-.3-.8-.5s-.3-.5-.3-.7,0-.4.2-.6c.1-.2.3-.4.5-.5.2-.1.5-.2.9-.2s.6,0,.8,0c.2,0,.4.2.7.3l-.5.7c-.1,0-.3-.2-.4-.2-.1,0-.3,0-.4,0s-.3,0-.4,0c0,0-.1.1-.1.2,0,.1,0,.2.2.3.1,0,.3.1.5.2,0,0,0,0,.1,0s0,0,.1,0c.6.2.9.6.9,1.1s0,.5-.2.7-.3.4-.6.5-.6.2-.9.2-.6,0-.9-.2Z"/>
          <path class="st4" d="M182.8,270v3.9h-1.1v-.6c-.2.3-.4.5-.7.6-.2.1-.5.2-.9.2s-.7-.1-.9-.3c-.2-.2-.4-.5-.4-.8v-2.9h1.3v2.5c0,.4.2.6.5.6s.5-.1.7-.4c.2-.3.2-.6.2-1v-1.6h1.3Z"/>
          <path class="st4" d="M185.8,270.3c.2-.2.4-.3.6-.4.2,0,.4-.1.5-.1v1.3c0,0-.2,0-.2,0-.3,0-.5,0-.7.2-.2.1-.3.3-.4.5-.1.2-.2.4-.2.6v1.5h-1.3v-3.9h1.1v.9c.2-.2.4-.4.5-.6Z"/>
          <path class="st4" d="M190.3,272.7l.6.9c-.2.1-.4.2-.7.3-.2,0-.5.1-.7.1-.5,0-.9,0-1.2-.3s-.6-.4-.8-.7c-.2-.3-.3-.7-.3-1.1s.1-.7.3-1.1c.2-.3.5-.6.8-.8.3-.2.7-.3,1.1-.3s1,.2,1.4.5c.4.3.6.8.7,1.4l-2.9.9c.2.2.5.3.8.3s.5,0,.8-.3ZM188.8,271.1c-.2.2-.3.4-.3.8h0c0,0,1.7-.5,1.7-.5-.1-.4-.4-.6-.8-.6s-.5,0-.7.3Z"/>
          <path class="st4" d="M192.9,273.8c-.3-.1-.5-.3-.7-.5l.5-.7c.3.3.7.5,1,.5s.3,0,.4,0c0,0,.1-.1.1-.2s0-.2-.2-.3c-.1,0-.2-.1-.4-.2s-.2,0-.3,0c-.3-.1-.6-.3-.8-.5s-.3-.5-.3-.7,0-.4.2-.6c.1-.2.3-.4.5-.5.2-.1.5-.2.9-.2s.6,0,.8,0c.2,0,.4.2.7.3l-.5.7c-.1,0-.3-.2-.4-.2-.1,0-.3,0-.4,0s-.3,0-.4,0c0,0-.1.1-.1.2,0,.1,0,.2.2.3.1,0,.3.1.5.2,0,0,0,0,.1,0s0,0,.1,0c.6.2.9.6.9,1.1s0,.5-.2.7-.3.4-.6.5-.6.2-.9.2-.6,0-.9-.2Z"/>
        </g>
      </g>
    </g>
  </g>
  <g id="_グループ_32166" data-name="グループ_32166">
    <circle id="_楕円形_5" data-name="楕円形_5" class="st2" cx="49.1" cy="165" r="49.1"/>
    <path id="_楕円形_5_-_アウトライン" data-name="楕円形_5_-_アウトライン" class="st5" d="M49.1,117.2c-9.5,0-18.9,2.8-26.7,8.2-7.7,5.2-13.7,12.5-17.3,21-6.3,14.9-4.6,32,4.4,45.4,5.2,7.7,12.5,13.7,21,17.3,14.9,6.3,32,4.6,45.4-4.4,7.7-5.2,13.7-12.5,17.3-21.1,6.3-14.9,4.6-32-4.4-45.4-5.2-7.7-12.5-13.7-21.1-17.3-5.9-2.5-12.2-3.8-18.6-3.8M49.1,115.9c27.1,0,49.1,22,49.1,49.1s-22,49.1-49.1,49.1S0,192.1,0,165c0-27.1,22-49.1,49.1-49.1h0Z"/>
    <g id="_グループ_34674" data-name="グループ_34674">
      <g id="_サポート体制" data-name="サポート体制" class="st0">
        <g class="st0">
          <path d="M25,169.4c.6,0,.9,0,1.2,0v1.5c-.2,0-.6,0-1.2,0h-.8v.4c0,2.7-.7,4.4-3.3,5.6l-1.2-1.1c2.1-.7,3.1-1.7,3.1-4.4v-.4h-2.6v1.5c0,.5,0,.9,0,1.2h-1.5c0-.2,0-.7,0-1.2v-1.5h-.9c-.5,0-.9,0-1.2,0v-1.5c.2,0,.6,0,1.2,0h.9v-1.1c0-.4,0-.8,0-1h1.6c0,.2,0,.6,0,1v1.1h2.6v-1.2c0-.4,0-.8,0-1h1.6c0,.2,0,.6,0,1v1.2h.8Z"/>
          <path d="M30.4,172c-.5,1-1.5,2.4-2.1,3.1l-1.2-.8c.7-.7,1.6-1.9,2.1-2.8l1.2.6ZM32.9,170.5v5.1c0,.6-.4,1-1.1,1s-1.2,0-1.8,0v-1.4c.3,0,.8.1,1.1.1s.4-.1.4-.4c0-.4,0-3.9,0-4.4h0s-2.8,0-2.8,0c-.3,0-.8,0-1.1,0v-1.5c.3,0,.7,0,1.1,0h2.8v-.9c0-.3,0-.8,0-1h1.6c0,.2,0,.7,0,1v.9h2.6c.3,0,.8,0,1.1,0v1.4c-.3,0-.8,0-1.1,0h-2.6ZM35.1,171.4c.6.7,1.4,2.1,1.9,2.9l-1.3.7c-.5-.9-1.3-2.3-1.8-2.9l1.2-.6ZM34.5,167.7c0-.7.6-1.3,1.3-1.3s1.3.6,1.3,1.3-.6,1.3-1.3,1.3-1.3-.6-1.3-1.3ZM35.2,167.7c0,.3.3.6.6.6s.6-.3.6-.6-.3-.6-.6-.6-.6.3-.6.6Z"/>
          <path d="M38.1,170.9c.4,0,1.2,0,1.8,0h5.9c.5,0,1,0,1.3,0v1.7c-.3,0-.8,0-1.3,0h-5.9c-.6,0-1.4,0-1.8,0v-1.7Z"/>
          <path d="M55.7,173.5c-1.1-.6-2.8-1.2-4-1.6v3.1c0,.3,0,1.1,0,1.5h-1.7c0-.4.1-1.1.1-1.5v-6.3c0-.4,0-.9-.1-1.3h1.7c0,.4,0,.9,0,1.3v1.6c1.5.4,3.6,1.2,4.6,1.7l-.6,1.5Z"/>
        </g>
        <g class="st0">
          <path d="M63.7,167.1c-.2.7-.5,1.4-.9,2.1v7.7h-1.2v-5.6c-.2.3-.5.6-.7.9-.1-.3-.5-1-.7-1.4.9-1,1.8-2.6,2.3-4.1l1.2.4ZM68.2,169.9c.6,1.7,1.6,3.4,2.7,4.4-.3.2-.7.7-1,1-.3-.3-.6-.7-.9-1.2v1h-1.5v1.8h-1.3v-1.8h-1.4v-1c-.3.5-.6.9-1,1.2-.2-.3-.6-.8-.9-1,1.1-1,2.1-2.7,2.7-4.5h-2.2v-1.2h2.8v-1.9h1.3v1.9h3v1.2h-2.4ZM66.3,173.9v-2.8c-.4,1-.8,2-1.3,2.8h1.3ZM68.9,173.9c-.5-.8-1-1.8-1.4-2.9v2.9h1.4Z"/>
          <path d="M75.2,170.1h2.4v1.2h-2.4v.8h2.1v2.8c0,.5,0,.8-.4,1-.3.2-.7.2-1.3.2,0-.3-.2-.8-.3-1.1.3,0,.6,0,.7,0,0,0,.1,0,.1-.1v-1.6h-1v3.7h-1.2v-3.7h-.9v2.8h-1.2v-4h2.1v-.8h-2.5v-1.2h.8c-.3-.1-.7-.3-1-.4.5-.7.8-1.8,1-2.8l1.2.3c0,.3-.2.7-.3,1h.7v-1.4h1.2v1.4h2v1.2h-2v.8ZM74,170.1v-.8h-1.1c-.1.3-.3.6-.4.8h1.5ZM79.3,173.8h-1.2v-6.2h1.2v6.2ZM81.3,166.9v8.5c0,.7-.1,1.1-.5,1.3-.4.2-1,.3-1.9.3,0-.4-.2-.9-.4-1.3.6,0,1.1,0,1.3,0,.2,0,.2,0,.2-.2v-8.5h1.3Z"/>
        </g>
      </g>
      <g id="Support_system" class="st0">
        <g class="st0">
          <path class="st4" d="M18.9,152.5c-.3,0-.5,0-.7.2-.2.1-.2.3-.2.5s.1.4.3.6c.2.2.5.3.9.5.3.1.6.2.8.4.2.1.4.3.6.6s.2.6.2,1,0,.7-.3.9c-.2.3-.4.5-.8.7-.3.2-.8.3-1.2.3s-.8,0-1.2-.2-.8-.3-1.1-.5l.6-1c.2.2.5.3.8.4.3.1.6.2.8.2s.5,0,.7-.2c.2-.1.3-.3.3-.6s-.3-.6-1-.9c-.4-.2-.7-.3-.9-.4-.3-.1-.5-.3-.7-.6s-.3-.6-.3-1c0-.6.2-1,.6-1.4s.9-.5,1.5-.6c.5,0,.9,0,1.2.2.3.1.7.3,1,.5l-.5,1c-.6-.3-1.1-.5-1.5-.5Z"/>
          <path class="st4" d="M25.9,154.1v3.9h-1.1v-.6c-.2.3-.4.5-.7.6-.2.1-.5.2-.9.2s-.7-.1-.9-.3c-.2-.2-.4-.5-.4-.8v-2.9h1.3v2.5c0,.4.2.6.5.6s.5-.1.7-.4c.2-.3.2-.6.2-1v-1.6h1.3Z"/>
          <path class="st4" d="M30.9,154.1c.3.2.5.4.7.7s.2.7.2,1.1,0,.8-.3,1.1c-.2.3-.4.6-.8.7s-.7.2-1.1.2-.5,0-.7-.1c-.2,0-.4-.2-.5-.3v2.2h-1.3v-5.9h1.1v.5c.6-.4,1.1-.6,1.6-.6s.7,0,1,.3ZM30.2,156.8c.2-.2.3-.5.3-.8s-.1-.6-.3-.8-.4-.3-.7-.3-.5,0-.6.1c-.2,0-.3.2-.4.4v1c0,.2.2.3.4.5.2.1.4.2.6.2s.6-.1.8-.3Z"/>
          <path class="st4" d="M36.5,154.1c.3.2.5.4.7.7s.2.7.2,1.1,0,.8-.3,1.1c-.2.3-.4.6-.8.7s-.7.2-1.1.2-.5,0-.7-.1c-.2,0-.4-.2-.5-.3v2.2h-1.3v-5.9h1.1v.5c.6-.4,1.1-.6,1.6-.6s.7,0,1,.3ZM35.8,156.8c.2-.2.3-.5.3-.8s-.1-.6-.3-.8-.4-.3-.7-.3-.5,0-.6.1c-.2,0-.3.2-.4.4v1c0,.2.2.3.4.5.2.1.4.2.6.2s.6-.1.8-.3Z"/>
          <path class="st4" d="M38.4,154.9c.2-.3.5-.6.8-.8.3-.2.7-.3,1.2-.3s.8,0,1.2.3c.3.2.6.4.8.8.2.3.3.7.3,1.1s0,.8-.3,1.1c-.2.3-.4.6-.8.8-.3.2-.7.3-1.2.3s-.8,0-1.2-.3-.6-.4-.8-.7-.3-.7-.3-1.1,0-.8.3-1.1ZM39.6,156.8c.2.2.4.3.7.3s.5-.1.7-.3c.2-.2.3-.5.3-.8s0-.6-.3-.8c-.2-.2-.4-.3-.7-.3s-.5.1-.7.3c-.2.2-.3.5-.3.8s0,.6.3.8Z"/>
          <path class="st4" d="M45.2,154.4c.2-.2.4-.3.6-.4.2,0,.4-.1.5-.1v1.3c0,0-.1,0-.2,0-.3,0-.5,0-.7.2-.2.1-.3.3-.4.5s-.2.4-.2.6v1.5h-1.3v-3.9h1.1v.9c.2-.2.4-.4.5-.6Z"/>
          <path class="st4" d="M48.8,152.3v1.7h1v1h-1v3h-1.3v-3h-.6v-1h.6v-1.7h1.3Z"/>
          <path class="st4" d="M54.1,157.9c-.3-.1-.5-.3-.7-.5l.5-.7c.3.3.7.5,1,.5s.3,0,.4,0,.1-.1.1-.2,0-.2-.2-.3c-.1,0-.2-.1-.4-.2-.1,0-.2,0-.3,0-.3-.1-.6-.3-.8-.5s-.3-.5-.3-.7,0-.4.2-.6c.1-.2.3-.4.5-.5.2-.1.5-.2.9-.2s.6,0,.8,0c.2,0,.4.2.7.3l-.5.7c-.1,0-.3-.2-.4-.2-.1,0-.3,0-.4,0s-.3,0-.4,0c0,0-.1.1-.1.2,0,.1,0,.2.2.3.1,0,.3.1.5.2,0,0,0,0,.1,0s0,0,.1,0c.6.2.9.6.9,1.1s0,.5-.2.7-.3.4-.6.5-.6.2-.9.2-.6,0-.9-.2Z"/>
          <path class="st4" d="M61.8,154.1l-2.5,5.8h-1.2l.9-2.1-1.8-3.7h1.4l1,2.3,1-2.3h1.1Z"/>
          <path class="st4" d="M62.9,157.9c-.3-.1-.5-.3-.7-.5l.5-.7c.3.3.7.5,1,.5s.3,0,.4,0,.1-.1.1-.2,0-.2-.2-.3c-.1,0-.2-.1-.4-.2-.1,0-.2,0-.3,0-.3-.1-.6-.3-.8-.5s-.3-.5-.3-.7,0-.4.2-.6c.1-.2.3-.4.5-.5.2-.1.5-.2.9-.2s.6,0,.8,0c.2,0,.4.2.7.3l-.5.7c-.1,0-.3-.2-.4-.2-.1,0-.3,0-.4,0s-.3,0-.4,0c0,0-.1.1-.1.2,0,.1,0,.2.2.3.1,0,.3.1.5.2,0,0,0,0,.1,0s0,0,.1,0c.6.2.9.6.9,1.1s0,.5-.2.7-.3.4-.6.5-.6.2-.9.2-.6,0-.9-.2Z"/>
          <path class="st4" d="M68.2,152.3v1.7h1v1h-1v3h-1.3v-3h-.6v-1h.6v-1.7h1.3Z"/>
          <path class="st4" d="M72.8,156.8l.6.9c-.2.1-.4.2-.7.3-.2,0-.5.1-.7.1-.5,0-.9,0-1.2-.3s-.6-.4-.8-.7c-.2-.3-.3-.7-.3-1.1s.1-.7.3-1.1c.2-.3.5-.6.8-.8.3-.2.7-.3,1.1-.3s1,.2,1.4.5c.4.3.6.8.7,1.4l-2.9.9c.2.2.5.3.8.3s.5,0,.8-.3ZM71.3,155.1c-.2.2-.3.4-.3.8h0c0,0,1.7-.5,1.7-.5-.1-.4-.4-.6-.8-.6s-.5,0-.7.3Z"/>
          <path class="st4" d="M81.2,154.2c.2.2.4.5.4.9v3h-1.3v-2.4c0-.2,0-.3,0-.4,0,0-.2-.2-.3-.2-.3,0-.5.1-.7.4s-.2.6-.2,1v1.6h-1.3v-2.4c0-.2,0-.3-.1-.4,0,0-.2-.2-.3-.2-.3,0-.5.1-.7.4s-.2.6-.2,1v1.6h-1.3v-3.9h1.1v.6c.4-.5.9-.8,1.5-.8s.6,0,.8.2.3.3.4.6c.2-.2.4-.4.6-.6.2-.1.5-.2.7-.2.4,0,.7.1.9.3Z"/>
        </g>
      </g>
    </g>
  </g>
  <g id="_グループ_32173" data-name="グループ_32173">
    <circle id="_楕円形_17" data-name="楕円形_17" class="st5" cx="212.8" cy="60.1" r="2.5"/>
    <circle id="_楕円形_18" data-name="楕円形_18" class="st5" cx="117.2" cy="60.1" r="2.5"/>
  </g>
  <g id="_グループ_32191" data-name="グループ_32191">
    <circle id="_楕円形_17-2" data-name="楕円形_17-2" class="st5" cx="212.8" cy="269.9" r="2.5"/>
    <circle id="_楕円形_18-2" data-name="楕円形_18-2" class="st5" cx="117.2" cy="269.9" r="2.5"/>
  </g>
  <g id="_グループ_32192" data-name="グループ_32192">
    <circle id="_楕円形_17-3" data-name="楕円形_17-3" class="st5" cx="269.9" cy="117.2" r="2.5"/>
    <circle id="_楕円形_18-3" data-name="楕円形_18-3" class="st5" cx="269.9" cy="212.8" r="2.5"/>
  </g>
  <g id="_グループ_32193" data-name="グループ_32193">
    <circle id="_楕円形_17-4" data-name="楕円形_17-4" class="st5" cx="60.7" cy="117.2" r="2.5"/>
    <circle id="_楕円形_18-4" data-name="楕円形_18-4" class="st5" cx="60.7" cy="212.8" r="2.5"/>
  </g>
  <g id="_グループ_32164-2" data-name="グループ_32164-2">
    <circle id="_楕円形_3-2" data-name="楕円形_3-2" class="st2" cx="165" cy="165" r="49.1"/>
    <path id="_楕円形_3_-_アウトライン-2" data-name="楕円形_3_-_アウトライン-2" class="st5" d="M165,117.2c-9.5,0-18.9,2.8-26.7,8.2-7.7,5.2-13.7,12.5-17.3,21-6.3,14.9-4.6,32,4.4,45.4,5.2,7.7,12.5,13.7,21,17.3,14.9,6.3,32,4.6,45.4-4.4,7.7-5.2,13.7-12.5,17.3-21.1,6.3-14.9,4.6-32-4.4-45.4-5.2-7.7-12.5-13.7-21.1-17.3-5.9-2.5-12.2-3.8-18.6-3.8M165,115.9c27.1,0,49.1,22,49.1,49.1s-22,49.1-49.1,49.1-49.1-22-49.1-49.1c0-27.1,22-49.1,49.1-49.1h0Z"/>
    <g id="_グループ_34672" data-name="グループ_34672">
      <g id="_ディレクション-2" data-name="ディレクション-2" class="st0">
        <g class="st0">
          <path d="M135.6,170.6c.2,0,.7,0,1,0v1.4c-.3,0-.7,0-1,0h-2.7c0,1.1-.3,2.1-.7,2.8-.4.8-1.2,1.6-2.2,2.1l-1.3-.9c.8-.3,1.6-.9,2-1.6.5-.7.6-1.5.7-2.4h-3c-.3,0-.7,0-1.1,0v-1.4c.3,0,.7,0,1.1,0h7.2ZM129.8,169.1c-.4,0-.8,0-1.2,0v-1.4c.4,0,.8,0,1.2,0h3.6c.4,0,.8,0,1.2,0v1.4c-.4,0-.8,0-1.2,0h-3.6ZM135.2,168.8c-.2-.5-.6-1.1-.9-1.5l.9-.4c.3.4.7,1.1.9,1.5l-.9.4ZM136.6,168.3c-.2-.5-.6-1.1-.9-1.5l.9-.4c.3.4.7,1.1.9,1.5l-.9.4Z"/>
          <path d="M144.8,170.1c-.5.6-1.5,1.3-2.5,2v3.7c0,.4,0,1,0,1.2h-1.6c0-.2,0-.8,0-1.2v-2.8c-1,.5-2.2.9-3.1,1.2l-.7-1.3c1.4-.3,3-1,3.9-1.5,1.1-.7,2.3-1.6,2.8-2.3l1.1,1Z"/>
          <path d="M147.1,175.6c.1-.3.1-.5.1-.7v-6c0-.4,0-.9-.1-1.2h1.7c0,.4-.1.8-.1,1.2v5.7c1.8-.5,4.2-1.9,5.7-3.6l.8,1.2c-1.5,1.8-3.8,3.1-6.4,4-.2,0-.4.1-.7.3l-1-.9Z"/>
          <path d="M165.1,169.2c-.1.2-.3.5-.4.8-.3,1-.9,2.4-1.9,3.7-1,1.3-2.4,2.3-4.4,3.1l-1.3-1.2c2.3-.7,3.5-1.6,4.4-2.7.7-.9,1.4-2.2,1.6-3h-3.1c-.7,1-1.7,1.9-2.8,2.7l-1.2-.9c1.9-1.2,2.9-2.6,3.4-3.5.2-.3.4-.8.5-1.2l1.6.5c-.3.4-.5.9-.7,1.1h0c0,0,2.2,0,2.2,0,.3,0,.7,0,1-.1l1.1.7Z"/>
          <path d="M169.5,171.3l-.8,1.2c-.6-.4-1.8-1.2-2.5-1.6l.8-1.2c.7.4,1.9,1.2,2.5,1.6ZM170.3,173.9c1.9-1,3.4-2.6,4.3-4.1l.8,1.5c-1,1.5-2.6,2.9-4.4,3.9-1.1.6-2.7,1.2-3.7,1.4l-.8-1.5c1.2-.2,2.6-.6,3.8-1.2ZM171.1,168.9l-.8,1.2c-.6-.4-1.8-1.2-2.5-1.6l.8-1.2c.7.4,1.9,1.2,2.5,1.6Z"/>
          <path d="M183.3,176.1c0,.2,0,.5,0,.7h-1.4c0,0,0-.3,0-.4h-4.2c-.3,0-.8,0-.9,0v-1.4c.2,0,.6,0,1,0h4.2v-1.5h-3.5c-.4,0-.9,0-1.2,0v-1.3c.3,0,.8,0,1.2,0h3.5v-1.3h-3.6c-.4,0-1.1,0-1.4,0v-1.3c.3,0,1,0,1.4,0h4.2c.3,0,.7,0,.8,0,0,.1,0,.5,0,.7v5.5Z"/>
          <path d="M189.5,173.5c1.9-1.1,3.3-2.8,4-4.3l.9,1.6c-.8,1.5-2.3,3-4.1,4.1-1.1.7-2.5,1.3-4.1,1.6l-.9-1.5c1.7-.2,3.1-.8,4.2-1.4ZM189.5,170l-1.1,1.2c-.6-.6-1.9-1.8-2.8-2.4l1-1.1c.8.5,2.2,1.7,2.8,2.3Z"/>
        </g>
      </g>
      <g id="Direction-2" class="st0">
        <g class="st0">
          <path class="st4" d="M147.5,151.4h2c.8,0,1.5.2,2.1.5s.9.8,1.2,1.3c.2.5.4,1.1.4,1.7s-.1,1.2-.4,1.7c-.3.5-.7.9-1.2,1.1-.5.3-1.1.4-1.7.4h-2.3v-6.6ZM149.6,156.7c.7,0,1.2-.2,1.6-.5.4-.3.6-.8.6-1.5s-.1-.9-.3-1.3c-.2-.3-.5-.5-.8-.6-.3-.1-.6-.2-.8-.2h-1.1v4.1h.8Z"/>
          <path class="st4" d="M154.4,152.2c.1-.1.3-.2.5-.2s.3,0,.5.2c.1.1.2.3.2.5s0,.3-.2.5c-.1.1-.3.2-.5.2s-.3,0-.5-.2-.2-.3-.2-.5,0-.3.2-.5ZM155.5,154.1v3.9h-1.3v-3.9h1.3Z"/>
          <path class="st4" d="M158.4,154.4c.2-.2.4-.3.6-.4.2,0,.4-.1.5-.1v1.3c0,0-.1,0-.2,0-.3,0-.5,0-.7.2-.2.1-.3.3-.4.5s-.2.4-.2.6v1.5h-1.3v-3.9h1.1v.9c.2-.2.4-.4.5-.6Z"/>
          <path class="st4" d="M163,156.8l.6.9c-.2.1-.4.2-.7.3-.2,0-.5.1-.7.1-.5,0-.9,0-1.2-.3s-.6-.4-.8-.7c-.2-.3-.3-.7-.3-1.1s.1-.7.3-1.1c.2-.3.5-.6.8-.8.3-.2.7-.3,1.1-.3s1,.2,1.4.5c.4.3.6.8.7,1.4l-2.9.9c.2.2.5.3.8.3s.5,0,.8-.3ZM161.5,155.1c-.2.2-.3.4-.3.8h0c0,0,1.7-.5,1.7-.5-.1-.4-.4-.6-.8-.6s-.5,0-.7.3Z"/>
          <path class="st4" d="M167.9,158c-.3,0-.5.1-.8.1-.7,0-1.2-.2-1.6-.6s-.6-.9-.6-1.5,0-.8.3-1.1c.2-.3.5-.6.8-.7.3-.2.7-.2,1-.2.7,0,1.2.2,1.6.5l-.6.8c-.3-.2-.5-.3-.9-.3s-.5,0-.7.3c-.2.2-.3.4-.3.7s0,.5.3.8.5.3.8.3.5,0,.7-.2l.6.8c-.2.1-.4.2-.7.3Z"/>
          <path class="st4" d="M171.2,152.3v1.7h1v1h-1v3h-1.3v-3h-.6v-1h.6v-1.7h1.3Z"/>
          <path class="st4" d="M173.3,152.2c.1-.1.3-.2.5-.2s.3,0,.5.2c.1.1.2.3.2.5s0,.3-.2.5c-.1.1-.3.2-.5.2s-.3,0-.5-.2c-.1-.1-.2-.3-.2-.5s0-.3.2-.5ZM174.4,154.1v3.9h-1.3v-3.9h1.3Z"/>
          <path class="st4" d="M175.6,154.9c.2-.3.5-.6.8-.8.3-.2.7-.3,1.2-.3s.8,0,1.2.3c.3.2.6.4.8.8.2.3.3.7.3,1.1s0,.8-.3,1.1c-.2.3-.4.6-.8.8-.3.2-.7.3-1.2.3s-.8,0-1.2-.3-.6-.4-.8-.7c-.2-.3-.3-.7-.3-1.1s0-.8.3-1.1ZM176.9,156.8c.2.2.4.3.7.3s.5-.1.7-.3c.2-.2.3-.5.3-.8s0-.6-.3-.8c-.2-.2-.4-.3-.7-.3s-.5.1-.7.3-.3.5-.3.8,0,.6.3.8Z"/>
          <path class="st4" d="M184.5,154.2c.2.2.4.5.4.8v2.9h-1.3v-2.5c0-.4-.2-.6-.6-.6s-.5.1-.7.4c-.2.3-.3.6-.3,1v1.6h-1.3v-3.9h1.1v.6c.2-.3.4-.5.7-.6.3-.1.6-.2.9-.2s.7.1.9.3Z"/>
        </g>
      </g>
    </g>
  </g>
</svg>