<?xml version="1.0" encoding="UTF-8"?>
<svg id="_レイヤー_1" data-name="レイヤー_1" xmlns="http://www.w3.org/2000/svg" version="1.1" viewBox="0 0 120 120">
  <!-- Generator: Adobe Illustrator 29.1.0, SVG Export Plug-In . SVG Version: 2.1.0 Build 142)  -->
  <defs>
    <style>
      .st0 {
        fill: #84c227;
      }

      .st1 {
        isolation: isolate;
      }

      .st2 {
        fill: #fff;
      }

      .st3 {
        fill: #dfebcc;
      }
    </style>
  </defs>
  <g id="_グループ_33380" data-name="グループ_33380">
    <g id="_グループ_22877" data-name="グループ_22877">
      <path id="_パス_50608" data-name="パス_50608" class="st0" d="M60,0v60h60C120,26.9,93.1,0,60,0"/>
      <path id="_パス_50609" data-name="パス_50609" class="st3" d="M60,120c33.1,0,60-26.9,60-60h-60v60Z"/>
      <path id="_パス_50610" data-name="パス_50610" class="st0" d="M0,60c0,33.1,26.9,60,60,60v-60H0Z"/>
      <path id="_パス_50611" data-name="パス_50611" class="st3" d="M60,0C26.9,0,0,26.9,0,60h60V0Z"/>
      <path id="_パス_50612" data-name="パス_50612" class="st2" d="M114.7,60c0,30.2-24.5,54.7-54.7,54.7S5.3,90.2,5.3,60,29.8,5.3,60,5.3h0c30.2,0,54.7,24.5,54.7,54.7"/>
    </g>
    <g id="_03" class="st1">
      <g class="st1">
        <path class="st0" d="M39.7,76.2c-2.1-1.2-3.8-3.1-5-5.6-1.2-2.5-1.9-5.6-1.9-9.3,0-11.3,4.6-16.9,14-16.8,2.6,0,5,.6,7.1,1.8,2.1,1.2,3.8,3.1,5,5.6,1.2,2.5,1.9,5.6,1.9,9.3s-.6,7-1.9,9.5c-1.2,2.5-2.9,4.4-5,5.6-2.1,1.2-4.5,1.8-7.1,1.8-2.6,0-5-.6-7.1-1.8ZM51.8,68.4c1-1.8,1.5-4.2,1.5-7.4,0-6.4-2.1-9.6-6.5-9.6s-3.9.9-4.9,2.6c-1,1.7-1.5,4.1-1.5,7.2s.5,5.5,1.5,7.2c1,1.8,2.6,2.6,4.9,2.6s4-.9,5-2.7Z"/>
        <path class="st0" d="M84,60c1.3,1.6,1.9,3.9,1.9,7s-.6,4.4-1.7,6.1c-1.1,1.7-2.6,3.1-4.3,4-1.8.9-3.8,1.4-5.9,1.4s-3.4-.4-5.2-1.1c-1.8-.7-3.2-1.6-4.3-2.7l3.7-6c.6.7,1.4,1.3,2.4,1.9,1,.6,2.1.9,3.1.9s2.3-.4,3.2-1.3c.9-.9,1.4-2.1,1.4-3.6s-.4-2.6-1.2-3.5c-.8-.9-2-1.3-3.4-1.3s-1.6,0-2.1,0c-.5,0-1.1.2-1.7.4v-.2c-.1,0,5.2-10.1,5.2-10.1h-7.9v-7h18l-6.3,12.1c2,.4,3.7,1.5,5,3Z"/>
      </g>
    </g>
  </g>
</svg>