<?xml version="1.0" encoding="UTF-8"?>
<svg id="_レイヤー_1" data-name="レイヤー_1" xmlns="http://www.w3.org/2000/svg" version="1.1" viewBox="0 0 120 120">
  <!-- Generator: Adobe Illustrator 29.1.0, SVG Export Plug-In . SVG Version: 2.1.0 Build 142)  -->
  <defs>
    <style>
      .st0 {
        isolation: isolate;
      }

      .st1 {
        fill: #fff;
      }

      .st2 {
        fill: #e6c0ad;
      }

      .st3 {
        fill: #ef7741;
      }
    </style>
  </defs>
  <g id="_グループ_33380" data-name="グループ_33380">
    <g id="_グループ_22877" data-name="グループ_22877">
      <path id="_パス_50608" data-name="パス_50608" class="st3" d="M60,0v60h60C120,26.9,93.1,0,60,0"/>
      <path id="_パス_50609" data-name="パス_50609" class="st2" d="M60,120c33.1,0,60-26.9,60-60h-60v60Z"/>
      <path id="_パス_50610" data-name="パス_50610" class="st3" d="M0,60c0,33.1,26.9,60,60,60v-60H0Z"/>
      <path id="_パス_50611" data-name="パス_50611" class="st2" d="M60,0C26.9,0,0,26.9,0,60h60V0Z"/>
      <path id="_パス_50612" data-name="パス_50612" class="st1" d="M114.7,60c0,30.2-24.5,54.7-54.7,54.7S5.3,90.2,5.3,60,29.8,5.3,60,5.3h0c30.2,0,54.7,24.5,54.7,54.7"/>
    </g>
    <g id="_04" class="st0">
      <g class="st0">
        <path class="st3" d="M39.1,76.2c-2.1-1.2-3.8-3.1-5-5.6-1.2-2.5-1.9-5.6-1.9-9.3,0-11.3,4.6-16.9,14-16.8,2.6,0,5,.6,7.1,1.8,2.1,1.2,3.8,3.1,5,5.6,1.2,2.5,1.9,5.6,1.9,9.3s-.6,7-1.9,9.5c-1.2,2.5-2.9,4.4-5,5.6-2.1,1.2-4.5,1.8-7.1,1.8-2.6,0-5-.6-7.1-1.8ZM51.1,68.4c1-1.8,1.5-4.2,1.5-7.4,0-6.4-2.1-9.6-6.5-9.6s-3.9.9-4.9,2.6c-1,1.7-1.5,4.1-1.5,7.2s.5,5.5,1.5,7.2c1,1.8,2.6,2.6,4.9,2.6s4-.9,5-2.7Z"/>
        <path class="st3" d="M87.5,65.3v5.5h-4v7.2h-7.3v-7.2h-13.9s21.2-26.3,21.2-26.3h0v20.8h4ZM76.3,65.3v-4.4l-3.3,4.4h3.3Z"/>
      </g>
    </g>
  </g>
</svg>