<?xml version="1.0" encoding="UTF-8"?>
<svg id="_レイヤー_1" data-name="レイヤー_1" xmlns="http://www.w3.org/2000/svg" version="1.1" viewBox="0 0 30 30">
  <!-- Generator: Adobe Illustrator 29.1.0, SVG Export Plug-In . SVG Version: 2.1.0 Build 142)  -->
  <defs>
    <style>
      .st0 {
        isolation: isolate;
      }

      .st1 {
        fill: #fff;
      }

      .st2 {
        fill: #333;
      }
    </style>
  </defs>
  <g id="_グループ_38712" data-name="グループ_38712">
    <g id="_グループ_30653" data-name="グループ_30653">
      <circle id="_楕円形_108" data-name="楕円形_108" class="st2" cx="15" cy="15" r="15"/>
      <g id="Q" class="st0">
        <g class="st0">
          <path class="st1" d="M20.5,21h-5.5c-.4,0-.8.1-1.2.1-1.1,0-2.1-.3-3-.8-.9-.5-1.6-1.3-2.2-2.2-.5-.9-.8-1.9-.8-3s.3-2.1.8-3c.5-.9,1.3-1.7,2.2-2.2.9-.5,1.9-.8,3-.8s2.1.3,3,.8c.9.5,1.7,1.3,2.2,2.2.5.9.8,1.9.8,3s-.1,1.3-.3,1.9-.5,1.2-.9,1.7h1.9v2.3ZM10.7,17c.3.6.8,1,1.3,1.4s1.2.5,1.9.5,1.3-.2,1.8-.5c.5-.3,1-.8,1.3-1.4.3-.6.5-1.2.5-1.9s-.2-1.3-.5-1.9c-.3-.6-.8-1-1.3-1.4-.6-.3-1.2-.5-1.8-.5s-1.3.2-1.8.5c-.5.3-1,.8-1.3,1.4-.3.6-.5,1.2-.5,1.9s.2,1.3.5,1.9Z"/>
        </g>
      </g>
    </g>
  </g>
</svg>