<?xml version="1.0" encoding="UTF-8"?>
<svg id="_レイヤー_1" data-name="レイヤー_1" xmlns="http://www.w3.org/2000/svg" version="1.1" viewBox="0 0 36 66.4">
  <!-- Generator: Adobe Illustrator 29.1.0, SVG Export Plug-In . SVG Version: 2.1.0 Build 142)  -->
  <defs>
    <style>
      .st0 {
        isolation: isolate;
      }

      .st1 {
        fill: #001976;
      }
    </style>
  </defs>
  <g id="_グループ_38684" data-name="グループ_38684">
    <g id="_01" class="st0">
      <g class="st0">
        <path class="st1" d="M2.1,48.4v-12.9c0-5.1,2.3-8.5,7.6-8.5s7.6,3.5,7.6,8.5v12.9c0,5-2.5,8.5-7.6,8.5s-7.6-3.5-7.6-8.5ZM12.2,48.3v-12.8c0-2-.3-4.3-2.6-4.3s-2.6,2.3-2.6,4.3v12.8c0,1.9.4,4.2,2.6,4.2s2.6-2.4,2.6-4.2Z"/>
        <path class="st1" d="M27.3,32.8c-.6.4-3.9,1.1-4.5,1.4v-3.7c1.3-.5,4.4-1.8,5.7-3.2h3.9v29.2h-5v-23.6Z"/>
      </g>
    </g>
    <g id="CASE" class="st0">
      <g class="st0">
        <path class="st1" d="M.7,14.1v-4.3c0-2.5.8-4.1,3.5-4.1s3.3,1.4,3.3,3.5v1h-2.1v-1c0-1,0-1.8-1.1-1.8s-1.2.9-1.2,2v5.3c0,1.3.3,2,1.2,2s1.1-.9,1.1-1.9v-1.1h2.1v1c0,2.1-.7,3.7-3.3,3.7s-3.5-1.7-3.5-4Z"/>
        <path class="st1" d="M12.9,5.8h2.4l2.4,12.1h-2.1l-.5-2.8h-2.1l-.5,2.8h-2.1l2.4-12.1ZM15,13.8l-.8-5.1-.8,5.1h1.6Z"/>
        <path class="st1" d="M20.7,14.5l1.9-.4c0,1.4.4,2.4,1.4,2.4s1-.5,1-1.1c0-1-.5-1.6-1.3-2.3l-1.5-1.3c-.9-.8-1.4-1.6-1.4-2.9,0-1.9,1.2-3,3.1-3s2.9,1.5,3,3.3l-1.9.3c0-1.1-.2-2-1.2-2s-1,.5-1,1.1.3,1.3,1,1.8l1.5,1.3c1,.9,1.8,1.9,1.8,3.5s-1.2,3-3,3-3.3-1.3-3.4-3.7Z"/>
        <path class="st1" d="M30.5,5.8h5.1v1.6h-2.9v3.5h2.3v1.5h-2.3v4h2.9v1.5h-5.1V5.8Z"/>
      </g>
    </g>
  </g>
</svg>