<svg xmlns="http://www.w3.org/2000/svg" width="16" height="16" viewBox="0 0 16 16">
  <g id="グループ_38711" data-name="グループ 38711" transform="translate(-1209 -8240.865)">
    <path id="パス_50474" data-name="パス 50474" d="M21,18.5H7a1,1,0,0,1,0-2H21a1,1,0,0,1,0,2Z" transform="translate(1203 8231.365)" fill="#333"/>
    <path id="パス_50475" data-name="パス 50475" d="M17.5,22a1,1,0,0,1-.707-1.707L23.086,14,16.793,7.707a1,1,0,1,1,1.414-1.414l7,7a1,1,0,0,1,0,1.414l-7,7A1,1,0,0,1,17.5,22Z" transform="translate(1199.5 8234.865)" fill="#333"/>
  </g>
</svg>
