<svg xmlns="http://www.w3.org/2000/svg" width="247.375" height="53.79" viewBox="0 0 247.375 53.79">
  <g id="グループ_34684" data-name="グループ 34684" transform="translate(8966.713 1963.826)">
    <g id="グループ_22838" data-name="グループ 22838" transform="translate(-8966 -1963.826)">
      <path id="合体_4" data-name="合体 4" d="M22.22,9.929,31.8,39.493,10.757,46.66ZM0,1.715,20.746,4.663l-9.989,31.6ZM22.22,0H43.444L40.729,3.082l3.141.887L34.124,35.962Z" transform="translate(0 6.34)" fill="#05467a" stroke="rgba(0,0,0,0)" stroke-miterlimit="10" stroke-width="1"/>
      <path id="パス_15424" data-name="パス 15424" d="M106.16,0l.615,4.46,1.074,7.781-3.266-.922L91.257,53,114.086,42.63,125.13,9.267Z" transform="translate(-57.133 0.001)" fill="#05467a"/>
    </g>
    <path id="合体_3" data-name="合体 3" d="M14.67,12.936,9.28,30.963l-4.8-15.385H0l2.315-1.936H5.891v0L9.24,24.365l5.2-17.388L21.57,25.464,28.259,3.314,27.4,3.043,30.371,0l.7,4.2L30.1,3.9,21.792,31.4Zm86.514,1.783h2.137l4.3,10.694,4.29-10.694h2.169L107.627,29.74Zm49.469,12.674A7.485,7.485,0,0,1,148.6,21.96a7.6,7.6,0,0,1,2.146-5.61,7.521,7.521,0,0,1,5.579-2.156,11.129,11.129,0,0,1,2.382.246,7.856,7.856,0,0,1,1.987.709l-.031,2.149a7.558,7.558,0,0,0-2.09-1.027,7.7,7.7,0,0,0-2.279-.342,5.392,5.392,0,0,0-4.163,1.679,6.341,6.341,0,0,0-1.55,4.479,5.5,5.5,0,0,0,5.713,5.7,7.066,7.066,0,0,0,2.3-.4,8.959,8.959,0,0,0,2.288-1.193v2.149a8.544,8.544,0,0,1-2.28.883,11.7,11.7,0,0,1-2.674.293A7.018,7.018,0,0,1,150.653,27.393Zm14.071-.016a7.743,7.743,0,0,1-1.906-5.45,8.126,8.126,0,0,1,1.891-5.6,6.3,6.3,0,0,1,4.946-2.132,5.956,5.956,0,0,1,4.67,1.966A7.572,7.572,0,0,1,176.08,21.4v.431H164.923a6.907,6.907,0,0,0,1.361,4.3,4.218,4.218,0,0,0,3.435,1.559,4.54,4.54,0,0,0,2.722-.843,6.226,6.226,0,0,0,1.947-2.546l1.788.985a7.8,7.8,0,0,1-2.634,3.159,6.891,6.891,0,0,1-3.823,1.011A6.462,6.462,0,0,1,164.724,27.377ZM166.433,17.2a4.529,4.529,0,0,0-1.384,2.96h8.721a4.025,4.025,0,0,0-4.368-4.073A4.19,4.19,0,0,0,166.433,17.2ZM116.982,27.37a8.008,8.008,0,0,1-1.844-5.5,8.238,8.238,0,0,1,1.82-5.53,6.319,6.319,0,0,1,7.8-1.353,5.162,5.162,0,0,1,2.018,2.316V14.719h1.947V28.834h-1.947V26.256a5.1,5.1,0,0,1-4.923,3.2A6.184,6.184,0,0,1,116.982,27.37Zm1.607-9.794a6.728,6.728,0,0,0-1.282,4.352,6.443,6.443,0,0,0,1.227,4.217,4.3,4.3,0,0,0,3.507,1.48,4.2,4.2,0,0,0,3.49-1.616,7.006,7.006,0,0,0,1.274-4.447,6.1,6.1,0,0,0-1.266-4.082,4.31,4.31,0,0,0-3.466-1.488A4.243,4.243,0,0,0,118.589,17.575ZM86.841,27.37A8,8,0,0,1,85,21.865a8.233,8.233,0,0,1,1.82-5.53,5.886,5.886,0,0,1,4.7-2.141,5.79,5.79,0,0,1,3.078.788,5.194,5.194,0,0,1,2,2.316V4.169h1.98V28.834H96.6V26.256a5.047,5.047,0,0,1-4.892,3.2A6.185,6.185,0,0,1,86.841,27.37Zm1.607-9.794a6.728,6.728,0,0,0-1.282,4.352,6.438,6.438,0,0,0,1.227,4.217,4.293,4.293,0,0,0,3.5,1.48,4.166,4.166,0,0,0,3.467-1.616,7.042,7.042,0,0,0,1.266-4.447A6.149,6.149,0,0,0,95.38,17.48a4.681,4.681,0,0,0-6.932.1ZM50.638,28.642a5.3,5.3,0,0,1-1.947-2.387v2.578H46.743V4.169h1.947V17.3a5.2,5.2,0,0,1,2-2.316,5.8,5.8,0,0,1,3.079-.788,5.89,5.89,0,0,1,4.7,2.141,8.238,8.238,0,0,1,1.82,5.53,8,8,0,0,1-1.845,5.5,6.185,6.185,0,0,1-4.866,2.085A5.281,5.281,0,0,1,50.638,28.642ZM49.909,17.48a6.149,6.149,0,0,0-1.251,4.082,7,7,0,0,0,1.275,4.447,4.2,4.2,0,0,0,3.49,1.616,4.264,4.264,0,0,0,3.482-1.472,6.463,6.463,0,0,0,1.219-4.225,6.732,6.732,0,0,0-1.281-4.352,4.683,4.683,0,0,0-6.934-.1Zm-18.186,9.9a7.739,7.739,0,0,1-1.907-5.45,8.126,8.126,0,0,1,1.892-5.6,6.3,6.3,0,0,1,4.946-2.132,5.958,5.958,0,0,1,4.67,1.966A7.576,7.576,0,0,1,43.081,21.4v.431H31.921a6.907,6.907,0,0,0,1.362,4.3,4.217,4.217,0,0,0,3.435,1.559,4.534,4.534,0,0,0,2.721-.843A6.213,6.213,0,0,0,41.387,24.3l1.789.985a7.809,7.809,0,0,1-2.635,3.159,6.891,6.891,0,0,1-3.823,1.011A6.461,6.461,0,0,1,31.724,27.377ZM33.433,17.2a4.525,4.525,0,0,0-1.384,2.96h8.721a4.383,4.383,0,0,0-1.282-3.008A4.338,4.338,0,0,0,36.4,16.088,4.191,4.191,0,0,0,33.433,17.2Zm109.7,11.633v-8.7a4.753,4.753,0,0,0-.878-3.143,3.384,3.384,0,0,0-2.715-1.026,3.933,3.933,0,0,0-3.284,1.329,6.708,6.708,0,0,0-1.053,4.177v7.367h-1.947V14.719h1.853V16.9a5.713,5.713,0,0,1,2.1-2.028,5.869,5.869,0,0,1,2.856-.677,5.014,5.014,0,0,1,3.72,1.336,5.049,5.049,0,0,1,1.329,3.723v9.58Zm-61.771,0L76.279,15.559,65.866,28.833H63.728L64,28.176l-.1-.036.24-.291L73.905,4.614l3.08,7.65L80.62,7.852l-1.05-.79,3.8-1.88-.73,4.2-.953-.72-4.069,5.187,6.033,14.987Zm-13.128-5.95,7.408-8.989-1.878-4.9Z" transform="translate(-8896.176 -1955.998)" fill="#05467a" stroke="rgba(0,0,0,0)" stroke-miterlimit="10" stroke-width="1"/>
  </g>
</svg>
