<?xml version="1.0" encoding="UTF-8"?>
<svg id="_レイヤー_1" data-name="レイヤー_1" xmlns="http://www.w3.org/2000/svg" xmlns:xlink="http://www.w3.org/1999/xlink" version="1.1" viewBox="0 0 701.4 339.9">
  <!-- Generator: Adobe Illustrator 29.1.0, SVG Export Plug-In . SVG Version: 2.1.0 Build 142)  -->
  <defs>
    <style>
      .st0 {
        fill: #232b33;
      }

      .st1 {
        fill: #2f3942;
      }

      .st2 {
        isolation: isolate;
      }

      .st3 {
        fill: #fff;
        fill-opacity: 0;
      }

      .st4 {
        fill: #e60013;
      }

      .st5 {
        fill: url(#_名称未設定グラデーション);
      }

      .st6 {
        fill: #333;
      }
    </style>
    <linearGradient id="_名称未設定グラデーション" data-name="名称未設定グラデーション" x1="52.9" y1="589" x2="53.4" y2="588.1" gradientTransform="translate(-6562.7 77796.9) scale(124.8 -132.1)" gradientUnits="userSpaceOnUse">
      <stop offset="0" stop-color="#1f96d5"/>
      <stop offset="1" stop-color="#13549d"/>
    </linearGradient>
  </defs>
  <g id="_グループ_22854" data-name="グループ_22854">
    <g id="_グループ_22853" data-name="グループ_22853">
      <g id="_クライアント様の置かれた状況や課題を理解し_Webのチカラ_で結果を追求するパートナーに" data-name="クライアント様の置かれた状況や課題を理解し_Webのチカラ_で結果を追求するパートナーに" class="st2">
        <g class="st2">
          <path class="st6" d="M98.5,274.4c-.1.2-.2.4-.3.7-.1.2-.2.5-.3.6-.4.8-.9,1.7-1.6,2.7-.6,1-1.5,2-2.4,3-1,1-2.2,2-3.6,2.9l-.6-.5c1-.6,2-1.3,2.8-2s1.6-1.5,2.2-2.3c.6-.8,1.2-1.5,1.6-2.3.4-.7.8-1.4,1-1.9,0-.1.1-.3.2-.6,0-.3.1-.5.2-.7l.9.3ZM106.8,277.8c0,.1-.1.3-.2.4,0,.2-.1.3-.1.4-.2.9-.5,1.8-.9,2.8s-.9,2-1.5,3c-.6,1-1.2,1.9-1.9,2.7-1,1.3-2.3,2.4-3.8,3.5-1.5,1.1-3.4,2-5.6,2.8l-.6-.6c1.3-.4,2.5-.9,3.7-1.5,1.2-.6,2.2-1.3,3.2-2.1,1-.8,1.9-1.6,2.6-2.5.7-.8,1.3-1.8,1.9-2.7.6-1,1-2,1.5-2.9.4-1,.7-1.9.9-2.8h-9.7l.4-.7h8.4c.3,0,.5,0,.6,0,.2,0,.3,0,.4-.1l.7.4Z"/>
          <path class="st6" d="M128.6,281.3c0,0,0,.1-.1.2s0,.2,0,.2c-.3,1.2-.7,2.4-1.2,3.7-.6,1.2-1.3,2.3-2.2,3.3-1.3,1.4-2.7,2.5-4.1,3.2-1.5.7-2.9,1.3-4.5,1.7l-.6-.7c1.6-.3,3.1-.9,4.6-1.6,1.5-.8,2.8-1.7,3.9-3,.8-.9,1.5-1.9,2.1-3.1.6-1.2,1-2.3,1.2-3.4h-13.9c-.3,0-.6,0-.9,0s-.7,0-1,0v-.9c.4,0,.7,0,1,0,.3,0,.6,0,.9,0h13.4c.2,0,.3,0,.5,0s.3,0,.4,0l.6.4ZM113.9,275.6c.3,0,.6,0,.9,0,.3,0,.6,0,.9,0h9.7c.4,0,.7,0,1,0,.3,0,.5,0,.8,0v.9c-.3,0-.5,0-.8,0h-10.6c-.3,0-.6,0-.9,0s-.6,0-.9,0v-.9Z"/>
          <path class="st6" d="M133.7,284.9c2-.6,3.9-1.3,5.7-2.1,1.8-.8,3.4-1.7,4.7-2.5.9-.5,1.7-1.1,2.4-1.7.7-.6,1.4-1.2,2.1-1.8s1.3-1.3,1.9-2l.6.6c-.6.7-1.3,1.4-2,2-.7.6-1.4,1.3-2.2,1.9-.8.6-1.7,1.2-2.6,1.8-.8.5-1.8,1.1-2.9,1.6-1.1.6-2.3,1.1-3.5,1.6-1.2.5-2.5,1-3.8,1.4l-.4-.7ZM143.9,280.7l.7-.4v11.1c0,.2,0,.5,0,.8,0,.3,0,.5,0,.7,0,.2,0,.4,0,.5h-.9c0-.1,0-.3,0-.5,0-.2,0-.5,0-.7,0-.3,0-.5,0-.8v-10.7Z"/>
          <path class="st6" d="M175.2,276.7c0,0-.1.1-.2.2,0,0-.1.2-.2.3-.3.5-.7,1.1-1.3,1.9-.6.8-1.3,1.6-2.1,2.4-.8.9-1.8,1.6-2.8,2.3l-.7-.6c.6-.3,1.2-.8,1.9-1.3s1.2-1.1,1.8-1.7c.6-.6,1-1.2,1.5-1.8.4-.6.8-1.1,1-1.5h-14.8c-.4,0-.8,0-1.3,0-.5,0-.9,0-1.2,0v-1c.4,0,.8,0,1.2.1.5,0,.9,0,1.3,0h14.6c0,0,.2,0,.3,0,.1,0,.2,0,.3,0,.1,0,.2,0,.3,0l.5.5ZM165.8,279.8c0,1.4,0,2.7-.2,3.9-.1,1.2-.3,2.2-.6,3.2-.3,1-.7,1.8-1.2,2.6s-1.2,1.5-1.9,2.1-1.8,1.2-2.9,1.7l-.7-.6c.3,0,.6-.2.9-.4.3-.2.6-.3.9-.4,1.1-.6,2-1.3,2.6-2.1.6-.8,1.1-1.7,1.5-2.7.3-1,.5-1.9.6-3,.1-1,.2-2,.2-3v-.6c0-.2,0-.4,0-.7h.8Z"/>
          <path class="st6" d="M179.5,292.2c1.5-.2,2.9-.6,4.1-1,1.2-.4,2.3-.9,3.3-1.4,1-.5,1.8-1,2.6-1.5,1.1-.7,2.1-1.6,3.1-2.5.9-1,1.8-1.9,2.5-3,.7-1,1.3-2,1.7-2.9l.5.7c-.5.9-1.1,1.8-1.8,2.8-.7,1-1.5,1.9-2.4,2.8-.9.9-1.9,1.8-3.1,2.5-.8.5-1.7,1-2.6,1.5-1,.5-2,1-3.2,1.4-1.2.4-2.6.8-4.1,1.1l-.5-.8ZM180.6,276c.4.3.9.6,1.5,1.1.6.4,1.1.9,1.7,1.3.6.5,1.1.9,1.6,1.3.5.4.9.8,1.2,1.1l-.6.6c-.3-.3-.7-.6-1.2-1.1s-1-.9-1.6-1.4c-.6-.5-1.1-.9-1.7-1.4s-1.1-.8-1.5-1.1l.5-.5Z"/>
          <path class="st6" d="M204.4,291v-14.1c0-.3,0-.6,0-1,0-.4,0-.8,0-1.1h1c0,.3,0,.7,0,1.1s0,.8,0,1v5.7c0,1,0,2,0,3,0,1,0,1.8,0,2.6v3.7c0,.3,0,.5,0,.8,0,.3,0,.5,0,.7h-.9c0-.3,0-.7,0-1.1,0-.4,0-.8,0-1.3ZM205,281.2c.8.2,1.6.5,2.6.9.9.3,1.9.7,2.8,1.1s1.9.8,2.8,1.2c.9.4,1.7.8,2.4,1.1l-.3.7c-.7-.4-1.5-.8-2.4-1.2-.9-.4-1.8-.8-2.8-1.2-1-.4-1.9-.7-2.8-1-.9-.3-1.7-.6-2.3-.7v-.8Z"/>
        </g>
        <g class="st2">
          <path class="st6" d="M242.6,278.6l.6.2c-.2,1-.4,2-.8,3-.3,1-.7,2-1,3-.4,1-.8,1.9-1.2,2.8-.4.8-.8,1.6-1.3,2.2,0,0-.2-.2-.3-.3-.1-.1-.2-.2-.3-.3.4-.6.8-1.2,1.2-2.1.4-.8.8-1.7,1.2-2.7s.7-1.9,1-3c.3-1,.6-2,.7-2.9ZM238.9,278.4h7.7v.7h-7.7v-.7ZM242.7,273h.7v21.6h-.7v-21.6ZM243.2,281c.1.2.4.5.6.9s.6.9.9,1.4.7,1,.9,1.4.5.7.6.9l-.5.6c-.1-.3-.3-.6-.6-1.1-.3-.5-.6-.9-.9-1.4-.3-.5-.6-1-.9-1.4-.3-.4-.5-.7-.6-.9l.4-.4ZM245.4,292.8c.8-.4,1.8-.9,2.9-1.6,1.1-.6,2.3-1.3,3.5-2l.2.6c-1.1.6-2.1,1.3-3.2,1.9-1.1.6-2,1.2-2.9,1.7l-.4-.6ZM246.4,282.9h13.8v.7h-13.8v-.7ZM246.9,276.4h13v.7h-13v-.7ZM247.5,285.3l.5-.3c.5.5,1,1.1,1.5,1.7.5.6.9,1.2,1.1,1.6l-.6.4c-.3-.5-.6-1-1.1-1.7s-1-1.2-1.5-1.7ZM247.7,279.5h11.7v.7h-11.7v-.7ZM249,273.3l.6-.2c.3.4.6.9.9,1.5.3.6.5,1,.6,1.4l-.6.3c-.1-.4-.3-.9-.6-1.5-.3-.6-.6-1.1-.9-1.5ZM252.9,276.9h.7v16.5c0,.3,0,.6-.1.7,0,.2-.3.3-.5.4-.2,0-.6.1-1.1.1-.5,0-1.1,0-1.8,0,0,0,0-.2-.1-.4s-.1-.3-.2-.4c.7,0,1.2,0,1.8,0s.9,0,1,0c.2,0,.3,0,.3-.1,0,0,0-.2,0-.3v-16.5ZM253.6,284.5c.4,1.3.9,2.5,1.6,3.6.7,1.1,1.5,2.1,2.4,3,.9.8,1.9,1.5,3,2,0,0-.1.1-.2.2,0,0-.1.1-.2.2,0,0-.1.1-.2.2-1.1-.5-2.1-1.2-3-2.1-.9-.9-1.7-1.9-2.4-3.1-.7-1.2-1.3-2.4-1.7-3.8l.6-.2ZM256.9,273l.7.3c-.3.5-.5,1.1-.9,1.6-.3.6-.6,1-.9,1.4l-.6-.2c.3-.4.6-.9.9-1.5.3-.6.6-1.1.7-1.6ZM259.1,284.9l.6.4c-.5.6-1,1.3-1.6,1.9-.6.6-1.2,1.2-1.7,1.6l-.5-.4c.3-.3.7-.7,1.1-1.1.4-.4.8-.8,1.2-1.3.4-.4.7-.8.9-1.2Z"/>
        </g>
        <g class="st2">
          <path class="st6" d="M275.1,276.6c-.1,1.3-.3,2.6-.6,3.9-.2,1.4-.5,2.6-.9,3.7-.5,1.7-1,3-1.6,4.1-.6,1-1.1,1.8-1.7,2.3s-1.2.7-1.8.7-1.1-.2-1.6-.6-1-1.1-1.4-1.9c-.4-.9-.6-1.9-.6-3.2s.3-2.4.8-3.5c.5-1.1,1.2-2.1,2.1-3,.9-.9,2-1.5,3.2-2s2.5-.7,3.9-.7,2.5.2,3.6.7c1.1.4,2,1,2.7,1.8.8.8,1.3,1.6,1.8,2.6.4,1,.6,2.1.6,3.2,0,1.7-.4,3.1-1.1,4.4-.7,1.2-1.8,2.2-3.1,3-1.3.7-2.9,1.2-4.7,1.4l-.4-.7c.3,0,.6,0,1,0,.4,0,.6,0,.9-.1.8-.2,1.5-.4,2.3-.8.8-.4,1.5-.9,2.2-1.5.7-.6,1.2-1.4,1.6-2.3.4-.9.6-2,.6-3.2s-.2-1.9-.5-2.8c-.4-.9-.9-1.7-1.6-2.4s-1.5-1.3-2.5-1.7c-1-.4-2.1-.6-3.4-.6s-2.6.3-3.7.8-2.1,1.2-3,2c-.8.8-1.5,1.8-1.9,2.8-.4,1-.7,2-.7,3s.2,2.2.5,2.9c.3.8.7,1.3,1.2,1.7.5.4.9.5,1.3.5s.9-.2,1.3-.6c.5-.4,1-1.1,1.5-2.1.5-1,1-2.3,1.5-3.9.4-1.2.6-2.4.9-3.7.2-1.3.4-2.5.5-3.8h.7Z"/>
        </g>
        <g class="st2">
          <path class="st6" d="M289.7,280.1h20.4v.7h-20.4v-.7ZM290.8,274.1h18.2v4.3h-18.2v-4.3ZM291,283.1h.7v11.5h-.7v-11.5ZM291.4,292.7h19.4v.7h-19.4v-.7ZM291.5,274.8v2.9h5v-2.9h-5ZM295,282.7h12.8v8.3h-12.8v-8.3ZM295.7,283.4v1.8h11.4v-1.8h-11.4ZM295.7,285.9v1.8h11.4v-1.8h-11.4ZM295.7,288.4v1.8h11.4v-1.8h-11.4ZM297.2,274.8v2.9h5.2v-2.9h-5.2ZM300,278.2h.7c-.1.9-.3,1.7-.4,2.6-.2.9-.3,1.6-.5,2.2h-.7c.2-.7.3-1.4.5-2.3.2-.9.3-1.7.4-2.5ZM303.1,274.8v2.9h5.3v-2.9h-5.3Z"/>
        </g>
        <g class="st2">
          <path class="st6" d="M315,280c.3,0,.6,0,.9,0s.5,0,.9,0c.3,0,.8,0,1.4,0s1.2,0,1.9-.1c.7,0,1.4-.1,2-.2.7,0,1.3-.1,1.8-.1.6,0,1,0,1.3,0,.6,0,1.1,0,1.7.3.5.2.9.5,1.3,1,.3.5.5,1.3.5,2.3s0,2-.1,3.1c0,1.1-.2,2.1-.5,3.1-.2,1-.5,1.8-.8,2.4-.4.8-.8,1.3-1.3,1.5-.5.2-1.1.3-1.8.3s-.9,0-1.5-.1c-.5,0-1-.2-1.3-.2v-.8c.2.1.6.2,1,.3.4,0,.7.1,1,.2.3,0,.6,0,.8,0,.5,0,.9,0,1.3-.2.4-.2.8-.6,1.1-1.2.3-.6.5-1.4.7-2.3.2-.9.3-1.8.4-2.8,0-1,.1-2,.1-2.9s-.1-1.5-.4-1.9c-.2-.4-.6-.7-1-.9-.4-.2-.9-.2-1.4-.2s-1,0-1.8,0-1.6.1-2.4.2c-.8,0-1.6.2-2.4.2-.7,0-1.3.1-1.7.2-.2,0-.5,0-.8,0-.3,0-.6,0-.9.1v-.9ZM322.6,274.4c0,.1,0,.3,0,.4,0,.1,0,.3,0,.5,0,.2,0,.6-.2,1.1s-.2,1.2-.3,1.8c-.1.7-.2,1.3-.4,1.9-.2.7-.4,1.4-.6,2.2-.2.8-.5,1.6-.8,2.5-.3.9-.6,1.8-1,2.7-.4.9-.8,1.9-1.3,2.8-.5,1-1,1.9-1.6,2.9l-.8-.3c.5-.7,1-1.5,1.5-2.4.5-.9.9-1.8,1.3-2.8.4-1,.8-1.9,1.1-2.9.3-1,.6-1.8.8-2.7.2-.8.4-1.5.5-2.1.2-.8.4-1.8.6-2.8.2-1.1.2-2.1.3-3h.9ZM330.8,277.3c.4.4.8,1,1.2,1.7.4.7.9,1.5,1.3,2.3.4.8.8,1.6,1.2,2.3s.6,1.4.9,1.9l-.7.4c-.2-.6-.5-1.2-.8-2s-.7-1.5-1.1-2.3c-.4-.8-.8-1.5-1.3-2.2-.4-.7-.9-1.3-1.3-1.7l.6-.4Z"/>
          <path class="st6" d="M345.4,279c-.1,0-.4,0-.8.1-.4,0-.9.1-1.4.2s-1.1.1-1.6.2-1.1.2-1.6.2v-.9c0,0,.3,0,.5,0,.2,0,.3,0,.5,0,.3,0,.6,0,1.1,0,.4,0,.9,0,1.4-.2.5,0,1-.1,1.5-.2.5,0,.8-.2,1.1-.3l.4.4c-.1.2-.3.5-.5.7-.2.3-.3.5-.5.8-.2.3-.3.5-.4.8v2c-.4.5-.7,1-1.1,1.6-.4.6-.9,1.3-1.3,1.9-.5.7-1,1.4-1.4,2.1-.5.7-.9,1.3-1.4,1.9l-.6-.6c.3-.4.6-.8,1.1-1.4s.9-1.2,1.4-1.9.9-1.3,1.4-2c.5-.6.9-1.2,1.2-1.7.3-.5.6-.9.7-1.2v-1.8c.1,0,.3-.9.3-.9ZM345.2,275.7c0-.2,0-.4,0-.7,0-.3,0-.5,0-.7h1c0,.3-.1.7-.2,1.4s-.2,1.5-.2,2.4c0,1-.2,2-.2,3,0,1.1-.1,2.1-.2,3.1,0,1,0,2,0,2.8v2c0,.5,0,1.1,0,1.6,0,.5,0,1.1,0,1.8,0,.2,0,.4,0,.6,0,.2,0,.3,0,.5h-.9c0-.2,0-.3,0-.5,0-.2,0-.3,0-.5v-5.4c0-.4,0-.9,0-1.5,0-.7,0-1.4.1-2.2,0-.8,0-1.6.2-2.5,0-.8.1-1.6.2-2.4,0-.7,0-1.4.1-1.9,0-.5,0-.8,0-1ZM361.1,290.5c-.7.8-1.5,1.3-2.2,1.7-.7.4-1.4.5-2.1.5s-1.2-.2-1.7-.6c-.4-.4-.6-1-.6-1.8s0-1.5.1-2.3c0-.8.2-1.7.3-2.6.1-.9.2-1.7.3-2.5,0-.8.1-1.5.1-2.1s-.2-1.4-.6-1.7c-.4-.3-.9-.5-1.6-.5s-1.2.1-1.9.4c-.7.3-1.4.7-2.1,1.2-.7.5-1.5,1.1-2.2,1.7-.7.7-1.4,1.4-2.1,2.1v-1.1c.4-.3.8-.7,1.3-1.2.5-.4,1-.9,1.6-1.3.6-.5,1.2-.9,1.8-1.3.6-.4,1.3-.7,1.9-.9.6-.2,1.2-.3,1.8-.3s1.2.1,1.6.3c.4.2.8.5,1,1,.2.4.3,1,.3,1.6s0,1.3-.2,2.1c-.1.8-.2,1.7-.3,2.6-.1.9-.2,1.8-.3,2.6-.1.8-.2,1.5-.2,2.1s.1.9.4,1.3.7.6,1.2.6,1.4-.2,2.1-.6c.7-.4,1.4-.9,2.1-1.7l.2.7Z"/>
          <path class="st6" d="M367.4,278.8c.8,0,1.7,0,2.7-.1,1,0,2.1-.2,3.1-.4,1.1-.2,2.1-.4,3-.6v.8c-1,.2-2,.4-3.1.6-1.1.2-2.1.3-3.1.4s-1.9.1-2.7.1-.9,0-1.3,0c-.4,0-.9,0-1.3,0v-.7c.5,0,1,.1,1.4.1.5,0,.9,0,1.3,0ZM371.9,274.3c0,.2-.1.4-.2.8,0,.3-.1.6-.1.8-.1.6-.2,1.3-.4,2-.1.7-.3,1.5-.5,2.3s-.4,1.6-.6,2.4c-.2.9-.5,1.8-.8,2.8s-.6,2-1,3c-.3,1-.7,1.9-1,2.8s-.7,1.6-1,2.2l-.9-.3c.4-.6.7-1.4,1.1-2.3.4-.9.7-1.8,1.1-2.8.3-1,.7-2,1-2.9.3-1,.6-1.9.8-2.7.1-.5.3-1.1.4-1.8.2-.7.3-1.3.4-1.9.1-.6.3-1.2.3-1.7,0-.5.2-.9.2-1.2,0-.2,0-.5,0-.8,0-.3,0-.5,0-.8h.9ZM374.7,287.3c-.1.4-.2.9-.3,1.2,0,.4,0,.7,0,1.1s0,.6.2.9c.1.3.3.6.7.8.3.3.8.5,1.5.6.6.2,1.5.2,2.5.2s1.5,0,2.3-.1,1.5-.2,2.1-.3v.8c-.6,0-1.3.2-2.1.2-.8,0-1.5,0-2.3,0-1.7,0-3.1-.3-4-.8-1-.5-1.4-1.3-1.4-2.5s0-.7,0-1.1c0-.4.1-.8.2-1.4h.7ZM375,281.7c.6,0,1.2,0,2-.1s1.4,0,2.2,0,1.4,0,2.1,0c.7,0,1.4,0,2,.2v.8c-.7,0-1.3-.1-2-.2-.7,0-1.3,0-2,0s-1.4,0-2.1,0-1.4,0-2.2.2v-.8Z"/>
        </g>
        <g class="st2">
          <path class="st6" d="M389.5,289c.7-.6,1.6-1.4,2.6-2.4,1-1,2-2,3.1-3l.3.6c-.9.9-1.8,1.9-2.8,2.8-.9.9-1.8,1.8-2.6,2.5l-.6-.6ZM390.2,276.6l.5-.4c.4.4.9.9,1.3,1.4.4.5.9,1,1.2,1.5.4.5.7.9.9,1.3l-.6.5c-.2-.4-.5-.8-.9-1.3s-.8-1-1.2-1.5c-.4-.5-.9-1-1.3-1.4ZM395.2,273h.7v21.6h-.7v-21.6ZM403.2,273h.7v5c0,1.3,0,2.7-.2,4.1-.1,1.4-.4,2.8-.9,4.3s-1.1,2.8-2,4.2-2.1,2.7-3.7,3.9c0,0-.2-.1-.3-.2s-.2-.2-.3-.2c1.5-1.2,2.8-2.5,3.6-3.8.9-1.4,1.6-2.7,2-4.1.4-1.4.7-2.8.9-4.2.1-1.4.2-2.7.2-3.9v-5ZM396.9,280.5h14.4v.7h-14.4v-.7ZM404,280.7c.4,2.1.9,4,1.5,5.8.7,1.8,1.5,3.3,2.5,4.6,1,1.3,2.2,2.3,3.7,3,0,0-.1.1-.2.2s-.1.1-.2.2c0,0-.1.1-.2.2-1.4-.8-2.6-1.8-3.7-3.2-1-1.3-1.9-2.9-2.5-4.7-.7-1.8-1.2-3.8-1.6-5.9h.6ZM406.5,274.5l.6-.3c.4.4.8.9,1.2,1.4.4.5.8,1,1.1,1.5.4.5.6.9.8,1.3l-.6.4c-.2-.4-.5-.8-.8-1.3s-.7-1-1.1-1.5-.8-1-1.2-1.4Z"/>
          <path class="st6" d="M415,280.6l.4-.6c.6.1,1.2.3,1.8.6.6.2,1.2.5,1.8.7.6.3,1,.5,1.4.8l-.3.7c-.4-.3-.8-.5-1.4-.8-.6-.3-1.2-.5-1.8-.8s-1.3-.5-1.9-.6ZM416,293.8c.5-.6,1-1.4,1.6-2.3s1.2-1.9,1.8-2.9c.6-1,1.1-2,1.6-2.9l.5.5c-.5.9-1,1.8-1.5,2.8-.6,1-1.1,1.9-1.7,2.9-.6.9-1.1,1.8-1.6,2.5l-.6-.5ZM416.5,273.8l.4-.6c.5.2,1.1.4,1.7.7.6.3,1.1.5,1.6.8.5.3.9.6,1.3.8l-.4.6c-.3-.3-.7-.6-1.2-.9-.5-.3-1.1-.6-1.6-.9s-1.1-.5-1.7-.7ZM426.1,283.3h.7c0,1.5-.2,2.8-.4,4-.2,1.2-.5,2.3-1,3.2-.4.9-1.1,1.7-1.8,2.4s-1.8,1.3-3,1.8c0,0,0-.1-.1-.2,0,0-.1-.1-.2-.2,0,0-.1-.1-.2-.2,1.2-.4,2.2-1,3-1.7.8-.7,1.4-1.4,1.8-2.3.4-.9.7-1.9.9-3s.3-2.4.4-3.8ZM423,274.1h12.2v9.3h-12.2v-9.3ZM423.7,274.8v7.9h10.8v-7.9h-10.8ZM430.6,283.3h.7v9.7c0,.3,0,.5.2.6.1.1.4.2.8.2h2.8c.3,0,.5,0,.6-.3.1-.2.2-.6.3-1.1,0-.6,0-1.4.1-2.5,0,0,.1,0,.2.1s.2,0,.2.1c0,0,.2,0,.2,0,0,1.1,0,2-.2,2.6,0,.6-.2,1-.5,1.3-.2.2-.5.3-1,.3h-2.8c-.4,0-.8,0-1-.1s-.4-.2-.5-.4c0-.2-.1-.5-.1-.9v-9.7Z"/>
        </g>
        <g class="st2">
          <path class="st6" d="M440.3,283.1c.2,0,.5-.1.8-.2.3,0,.6-.2.8-.3.4-.2,1.1-.4,1.8-.8.8-.4,1.6-.7,2.6-1.2s1.9-.8,3-1.2c1-.4,2-.7,3-1s1.9-.4,2.7-.4,1.8.2,2.5.5c.7.3,1.2.8,1.6,1.4s.6,1.3.6,2.1-.2,1.4-.5,2.1c-.3.6-.8,1.2-1.6,1.6-.7.4-1.7.6-3,.6s-1.3,0-1.9-.2c-.6-.1-1.1-.3-1.6-.5v-.8c.4.2.9.4,1.5.5.6.2,1.3.2,2,.2,1.2,0,2-.2,2.7-.6s1.1-.8,1.3-1.4c.2-.6.4-1.1.4-1.7s-.1-1.1-.4-1.6-.7-.9-1.3-1.2c-.6-.3-1.4-.5-2.4-.5s-1.8.1-2.8.4c-1,.3-2.1.6-3.1,1.1-1.1.4-2.2.9-3.2,1.4-1,.5-2,.9-2.9,1.4-.9.4-1.6.8-2.2,1.1l-.5-.9ZM443.6,276.2c0,.1.1.2.2.4s.2.3.3.5c0,.2.2.3.3.5.4.8.9,1.7,1.5,2.9.6,1.1,1.1,2.3,1.7,3.5.4.8.7,1.7,1.1,2.6s.6,1.7.9,2.6c.3.8.6,1.7.8,2.4.3.8.5,1.5.7,2.1l-.8.3c-.2-.9-.5-1.9-.9-3-.3-1.1-.7-2.2-1.1-3.3-.4-1.2-.9-2.3-1.4-3.4-.4-.9-.9-1.8-1.3-2.6s-.8-1.6-1.1-2.2c-.3-.6-.6-1.1-.8-1.5-.1-.2-.3-.4-.4-.7-.2-.3-.3-.5-.5-.7l.8-.4ZM452.3,277.7c-.3-.3-.7-.7-1.1-1.1s-.8-.7-1.3-1.1c-.4-.4-.8-.7-1.2-.9l.5-.4c.3.2.6.4,1,.8.4.4.9.7,1.3,1.1.5.4.9.8,1.2,1.1l-.5.5Z"/>
        </g>
        <g class="st2">
          <path class="st6" d="M465.4,277h8.3v.7h-8.3v-.7ZM466.4,280.2h6.6v.7h-6.6v-.7ZM466.4,283.3h6.6v.7h-6.6v-.7ZM466.4,286.5h.7v8h-.7v-8ZM466.5,274h6.4v.7h-6.4v-.7ZM466.8,286.5h6.2v6.7h-6.2v-.7h5.5v-5.3h-5.5v-.7ZM479.7,285.9l.6.2c-.4,1-1,1.9-1.7,2.8-.7.9-1.4,1.8-2.3,2.5-.8.8-1.6,1.4-2.4,1.8,0,0,0-.1-.1-.2s-.1-.1-.2-.2c0,0-.1-.1-.2-.2.8-.4,1.6-1,2.4-1.7.8-.7,1.5-1.5,2.2-2.4.7-.9,1.2-1.8,1.7-2.7ZM474,285.6h12.8v.7h-12.8v-.7ZM475.1,274.1h10.8v8.9h-10.8v-8.9ZM475.8,274.8v3.4h9.4v-3.4h-9.4ZM475.8,278.9v3.4h9.4v-3.4h-9.4ZM480.1,274.5h.7v20.1h-.7v-20.1ZM481.3,286c.4.8,1,1.7,1.7,2.6.7.9,1.4,1.6,2.1,2.4.8.7,1.5,1.3,2.2,1.7,0,0-.1.1-.2.2,0,0-.1.1-.2.2,0,0-.1.1-.2.2-.7-.5-1.4-1.1-2.2-1.9s-1.5-1.6-2.1-2.5c-.7-.9-1.3-1.7-1.7-2.6l.6-.3Z"/>
          <path class="st6" d="M490.6,283.4h10.8v.7h-10.8v-.7ZM492.8,285.8h.7c0,1.1-.2,2.2-.3,3.3s-.4,2.2-.7,3.1c-.3,1-.8,1.8-1.3,2.4,0,0-.2-.1-.3-.2-.1,0-.2-.1-.3-.2.5-.6.9-1.4,1.2-2.3.3-.9.5-2,.7-3s.3-2.1.3-3.1ZM492.3,274.1h7.3v7.1h-7.3v-7.1ZM493.2,288.5c.5,1.1,1.2,1.9,2,2.5s1.7,1.1,2.8,1.5c1.1.3,2.2.6,3.5.7s2.7.2,4.1.2h6.7c0,0-.1.2-.2.3,0,.1-.1.3-.2.4h-6.3c-1.6,0-3,0-4.4-.2s-2.5-.4-3.6-.7c-1.1-.4-2.1-.9-2.9-1.6-.8-.7-1.5-1.6-2.1-2.7l.5-.3ZM493,274.8v2.5h6v-2.5h-6ZM493,278v2.5h6v-2.5h-6ZM495.7,283.6h.7v8.6l-.7-.5v-8.1ZM496.1,287.3h5v.7h-5v-.7ZM504.4,288.4l.7.2c-.5.7-1.2,1.3-2,1.9-.8.6-1.6,1.2-2.3,1.6,0,0,0,0-.1-.2,0,0-.1-.1-.2-.2s-.1-.1-.2-.2c.8-.4,1.6-.9,2.3-1.4.8-.6,1.4-1.1,1.9-1.8ZM501.2,274.4h10.8v.7h-10.8v-.7ZM502.3,277.5h8.5v10.2h-8.5v-10.2ZM503.1,278.2v2.4h7.1v-2.4h-7.1ZM503.1,281.4v2.5h7.1v-2.5h-7.1ZM503.1,284.5v2.5h7.1v-2.5h-7.1ZM506.1,274.6h.8c-.2.6-.3,1.2-.5,1.8-.2.6-.4,1.1-.5,1.5h-.6c.2-.6.3-1.1.5-1.7s.3-1.2.4-1.6ZM507.7,288.9l.5-.4c.5.3,1,.6,1.5,1,.5.4,1,.8,1.4,1.1.4.4.8.7,1.1,1l-.6.5c-.3-.3-.6-.7-1.1-1.1-.4-.4-.9-.8-1.4-1.2s-1-.7-1.5-1Z"/>
        </g>
        <g class="st2">
          <path class="st6" d="M524.8,274.2c-.1.5-.2,1.1-.4,1.7-.1.6-.4,1.3-.7,2.1-.3.9-.8,1.7-1.3,2.6-.5.9-1.1,1.7-1.7,2.5.4-.3.8-.5,1.3-.7.4-.2.9-.3,1.4-.4.5-.1.9-.2,1.3-.2.9,0,1.6.2,2.2.7.6.5.9,1.1.9,2v1.2c0,.5,0,1,0,1.5s0,1.1,0,1.6c0,.5,0,.9,0,1.3h-.8c0-.4,0-.8,0-1.3s0-1,0-1.6c0-.5,0-1,0-1.5,0-.5,0-.9,0-1.1,0-.6-.2-1.1-.7-1.5-.4-.4-1-.5-1.8-.5s-1.7.2-2.4.5-1.5.8-2.1,1.3c-.3.3-.7.7-1,1.1s-.7.8-1.1,1.3l-.7-.5c1.3-1.3,2.3-2.4,3.1-3.5s1.4-2,1.8-2.8c.4-.8.7-1.4.9-1.9.3-.7.5-1.3.7-2s.3-1.3.3-1.8h.8ZM517.4,277.2c.7,0,1.4.1,2.1.2.7,0,1.3,0,1.8,0,1.1,0,2.3,0,3.5,0s2.4-.1,3.6-.3c1.2-.1,2.4-.3,3.5-.5v.8c-.8.1-1.7.3-2.6.4-.9,0-1.8.2-2.7.2s-1.8,0-2.7.1c-.9,0-1.7,0-2.5,0s-.7,0-1.2,0c-.4,0-.9,0-1.3,0-.5,0-.9,0-1.4,0v-.8ZM535,282c-.2,0-.3,0-.5.2-.2,0-.3.1-.5.2-.2,0-.3.1-.5.2-.9.4-1.9.8-3.1,1.3-1.2.5-2.3,1.1-3.5,1.7-.9.4-1.7.9-2.4,1.4-.7.5-1.3,1-1.7,1.6-.4.6-.7,1.2-.7,1.9s.1,1.1.4,1.4c.3.4.7.6,1.2.8.5.2,1.1.3,1.7.3.6,0,1.3,0,1.9,0s1.8,0,3-.1c1.1,0,2.2-.2,3.3-.4v.8c-.7,0-1.4.2-2.1.2-.7,0-1.5.1-2.2.1-.7,0-1.4,0-2,0-1,0-2,0-2.9-.3-.9-.2-1.6-.5-2.1-1s-.8-1.2-.8-2.1.1-1.2.4-1.7c.3-.5.7-1,1.2-1.5.5-.4,1.1-.9,1.7-1.3.6-.4,1.3-.8,2-1.2.8-.4,1.6-.8,2.3-1.1s1.5-.7,2.2-1,1.3-.6,1.9-.9c.3-.1.5-.2.7-.3.2,0,.4-.2.6-.3l.4.8Z"/>
        </g>
        <g class="st2">
          <path class="st6" d="M540.9,291.1c.6-.2,1.3-.4,2.1-.7.8-.2,1.6-.5,2.5-.8.9-.3,1.8-.6,2.7-.9v.7c-1.1.4-2.4.8-3.6,1.3-1.2.4-2.3.8-3.3,1.2l-.2-.7ZM541.2,274.9h7v.7h-7v-.7ZM541.4,281.8h6.5v.7h-6.5v-.7ZM544.5,275.2h.7v15l-.7.2v-15.2ZM547.2,293.1h15.6v.7h-15.6v-.7ZM549.2,288.1h12.8v.7h-12.8v-.7ZM549.7,274.2h12v10.3h-12v-10.3ZM550.3,274.9v4.1h10.6v-4.1h-10.6ZM550.3,279.7v4.1h10.6v-4.1h-10.6ZM555.2,274.7h.7v18.7h-.7v-18.7Z"/>
          <path class="st6" d="M570.1,273l.7.2c-.3,1.1-.7,2.1-1.1,3.1s-.9,1.9-1.4,2.8-1,1.6-1.6,2.3c0,0,0,0-.2-.2,0,0-.2-.1-.3-.2,0,0-.2,0-.2-.1.9-1,1.7-2.1,2.4-3.5.7-1.4,1.2-2.8,1.6-4.4ZM567.9,279h.7v6.4c0,.7,0,1.4,0,2.2,0,.8-.1,1.6-.3,2.4-.1.8-.3,1.6-.6,2.4-.3.8-.6,1.5-1,2.1,0,0,0,0-.2-.1s-.2,0-.2-.1c0,0-.1,0-.2,0,.5-.9.9-1.8,1.2-2.8.3-1,.4-2.1.5-3.1s.1-2,.1-2.9v-6.4ZM568.3,279h7.2v.7h-7.2v-.7ZM568.3,283.2h7.2v.7h-7.2v-.7ZM568.3,287.6h7.2v.7h-7.2v-.7ZM569.6,275.1h4.2v.7h-4.2v-.7ZM571.6,279.3h.7v8.7h-.7v-8.7ZM575.3,279h.7v14.4c0,.3,0,.5-.2.7-.1.2-.3.3-.5.3-.2,0-.6,0-1.1.1-.5,0-1.2,0-2.2,0,0,0,0-.2-.1-.3,0-.1-.1-.2-.2-.3.8,0,1.4,0,2,0s.9,0,1.1,0,.3,0,.4-.1c0,0,.1-.2.1-.4v-14.4ZM573.6,275.1h.3s.5.3.5.3c-.3.7-.6,1.5-1,2.2-.4.8-.8,1.4-1.1,1.9,0,0-.2-.1-.3-.2-.1,0-.2-.1-.3-.1.2-.4.5-.8.7-1.2.2-.5.5-.9.7-1.4.2-.5.4-.9.5-1.4v-.2ZM581,274.4h.7c-.2,1-.5,2-.8,3s-.9,1.8-1.5,2.5c-.7.7-1.5,1.4-2.6,1.8,0,0-.1-.2-.2-.3,0,0-.2-.2-.3-.2,1-.4,1.9-1,2.5-1.7.6-.7,1.1-1.5,1.5-2.4.4-.9.6-1.8.7-2.7ZM576.5,288.7h11.5v.7h-11.5v-.7ZM579,281.8h.8c-.3,1.3-.6,2.3-1.1,3.4-.4,1-.9,1.9-1.5,2.7,0,0-.1,0-.2-.1,0,0-.2,0-.3-.1,0,0-.2,0-.3-.1.6-.7,1.1-1.6,1.5-2.6.4-1,.7-2,1-3.1ZM577,274.2h9.9v.7h-9.9v-.7ZM578.3,284.3h9.2v.7h-9.2v-.7ZM582.1,281.6h.7v12.9h-.7v-12.9ZM586.5,274.2h.7c0,.2,0,.4,0,.4,0,1.4-.1,2.5-.2,3.3s-.2,1.5-.3,1.9c-.1.4-.3.7-.4.9-.1.1-.3.2-.4.3-.2,0-.4,0-.7,0-.2,0-.6,0-1.1,0-.5,0-1,0-1.5,0,0-.1,0-.2,0-.4s0-.2-.1-.3c.6,0,1.1,0,1.6,0,.5,0,.8,0,1,0,.2,0,.3,0,.5,0,.1,0,.2,0,.3-.2.1-.1.2-.4.3-.8,0-.4.2-1,.3-1.9,0-.8.2-1.9.2-3.3h0Z"/>
        </g>
        <g class="st2">
          <path class="st6" d="M595.8,274.6c0,.3,0,.6,0,.8,0,.2,0,.5,0,.8,0,.7,0,1.6,0,2.6,0,1,0,2.2,0,3.4,0,1.2,0,2.4,0,3.6,0,1.2,0,2.3,0,3.4s.2,1.7.6,2.3c.4.6.9,1,1.6,1.2.7.3,1.5.4,2.4.4s2.3-.1,3.2-.4c.9-.3,1.8-.7,2.5-1.2.7-.5,1.3-1,1.9-1.6s1-1.2,1.5-1.8l.5.6c-.4.6-.9,1.1-1.5,1.7-.6.6-1.3,1.2-2,1.7-.8.5-1.7.9-2.7,1.2-1,.3-2.1.5-3.4.5s-1.9-.1-2.7-.4c-.8-.3-1.4-.8-1.9-1.5s-.7-1.7-.7-2.9,0-1.6,0-2.5c0-.9,0-1.8,0-2.8,0-.9,0-1.9,0-2.8,0-.9,0-1.8,0-2.6s0-1.5,0-2.1,0-.6,0-.9c0-.3,0-.5,0-.7h1Z"/>
        </g>
        <g class="st2">
          <path class="st6" d="M87.9,320l-.2-3.7v-1.6h1.1v5.4h-.9ZM91.4,320l-.2-3.7v-1.6h1.1v1.6l-.2,3.7h-.7Z"/>
        </g>
        <g class="st2">
          <path class="st6" d="M100.5,332.9l-4-17.4h.9l2.3,10.5c.2.9.4,1.9.6,2.8.2,1,.4,1.9.6,2.9h0c.2-1,.5-1.9.7-2.9.2-1,.5-1.9.7-2.8l2.8-10.5h1l2.8,10.5c.2.9.5,1.9.7,2.8.2,1,.5,1.9.7,2.9h.1c.2-1,.4-1.9.6-2.9.2-1,.4-1.9.6-2.8l2.3-10.5h.9l-4,17.4h-.9l-3.3-12.4c-.2-.7-.3-1.4-.5-2-.2-.6-.3-1.3-.5-1.9h0c-.2.7-.3,1.3-.5,1.9-.2.6-.3,1.3-.5,2l-3.3,12.4h-.9Z"/>
          <path class="st6" d="M124.3,333.2c-1.1,0-2-.3-2.9-.8-.9-.5-1.6-1.3-2.1-2.3s-.8-2.2-.8-3.5.1-2,.4-2.8c.3-.8.7-1.5,1.2-2.1.5-.6,1.1-1,1.8-1.3s1.3-.5,2-.5,1.8.2,2.5.7c.7.4,1.3,1.1,1.7,2s.6,1.9.6,3.2v.4c0,.1,0,.3,0,.5h-9.3c0,1.1.2,2.1.6,3,.4.9,1,1.6,1.7,2.1s1.6.8,2.6.8,1.4-.1,1.9-.3,1.1-.5,1.6-.8l.4.7c-.5.3-1,.6-1.6.8s-1.4.4-2.3.4ZM119.4,325.9h8.5c0-1.7-.4-3-1.1-3.8-.7-.8-1.7-1.3-2.9-1.3s-1.5.2-2.1.6c-.7.4-1.2,1-1.6,1.8-.4.8-.7,1.7-.8,2.7Z"/>
          <path class="st6" d="M138.2,333.2c-.6,0-1.2-.1-1.9-.4s-1.3-.7-1.9-1.2h0v1.3h-.8v-19.1h.9v8.2c.6-.6,1.3-1,2.1-1.5.8-.4,1.5-.6,2.3-.6,1.2,0,2.1.3,2.9.8.8.5,1.3,1.3,1.7,2.2.4,1,.6,2.1.6,3.4s-.3,2.6-.8,3.7c-.5,1-1.2,1.8-2.1,2.3-.8.5-1.8.8-2.8.8ZM138.3,332.5c.9,0,1.7-.3,2.4-.8.7-.5,1.2-1.2,1.6-2.1.4-.9.6-2,.6-3.1s-.1-2-.4-2.9c-.3-.9-.7-1.5-1.3-2-.6-.5-1.4-.7-2.5-.7s-1.3.2-2.1.6-1.5.9-2.3,1.6v7.8c.7.6,1.4,1.1,2.1,1.3.7.3,1.3.4,1.8.4Z"/>
        </g>
        <g class="st2">
          <path class="st6" d="M158.9,316.6c-.1,1.3-.3,2.6-.6,3.9-.2,1.4-.5,2.6-.9,3.7-.5,1.7-1,3-1.6,4.1-.6,1-1.1,1.8-1.7,2.3s-1.2.7-1.8.7-1.1-.2-1.6-.6-1-1.1-1.4-1.9c-.4-.9-.6-1.9-.6-3.2s.3-2.4.8-3.5c.5-1.1,1.2-2.1,2.1-3,.9-.9,2-1.5,3.2-2s2.5-.7,3.9-.7,2.5.2,3.6.7c1.1.4,2,1,2.7,1.8.8.8,1.3,1.6,1.8,2.6.4,1,.6,2.1.6,3.2,0,1.7-.4,3.1-1.1,4.4-.7,1.2-1.8,2.2-3.1,3-1.3.7-2.9,1.2-4.7,1.4l-.4-.7c.3,0,.6,0,1,0,.4,0,.6,0,.9-.1.8-.2,1.5-.4,2.3-.8.8-.4,1.5-.9,2.2-1.5.7-.6,1.2-1.4,1.6-2.3.4-.9.6-2,.6-3.2s-.2-1.9-.5-2.8c-.4-.9-.9-1.7-1.6-2.4s-1.5-1.3-2.5-1.7c-1-.4-2.1-.6-3.4-.6s-2.6.3-3.7.8-2.1,1.2-3,2c-.8.8-1.5,1.8-1.9,2.8-.4,1-.7,2-.7,3s.2,2.2.5,2.9c.3.8.7,1.3,1.2,1.7.5.4.9.5,1.3.5s.9-.2,1.3-.6c.5-.4,1-1.1,1.5-2.1.5-1,1-2.3,1.5-3.9.4-1.2.6-2.4.9-3.7.2-1.3.4-2.5.5-3.8h.7Z"/>
          <path class="st6" d="M172.3,322.5c.2,0,.5,0,.9,0,.4,0,.8,0,1.1,0h15.6c.2,0,.4,0,.6,0s.4,0,.6,0c.2,0,.4,0,.5,0v.9c-.2,0-.5,0-.8,0-.3,0-.6,0-.9,0h-15.6c-.4,0-.8,0-1.1,0s-.7,0-.9,0v-.9ZM174.2,316.8c.6,0,1.3,0,2.3,0,.9,0,1.9,0,2.9-.1,1,0,1.9-.2,2.8-.3.5,0,1-.1,1.6-.2.6,0,1.2-.2,1.8-.3.6-.1,1.2-.3,1.7-.4.5-.1.9-.2,1.2-.4l.6.7c-.1,0-.2,0-.4.1s-.3,0-.5.1c-.4,0-1,.2-1.6.4-.7.1-1.4.3-2.1.4-.7.1-1.5.2-2.1.3-.9.1-1.8.2-2.7.3-.9,0-1.9,0-2.7.1-.9,0-1.7,0-2.4,0l-.2-.8ZM175.9,333c1.3-.6,2.4-1.4,3.3-2.3.9-.9,1.6-2,2.1-3.2.5-1.3.7-2.8.7-4.6v-5.9l.7-.2v6.1c0,1.8-.2,3.3-.6,4.6-.4,1.3-1.1,2.4-2,3.4-.9,1-2.1,1.8-3.5,2.6l-.7-.6Z"/>
          <path class="st6" d="M204.9,314.4c0,.3,0,.5,0,.9,0,.3,0,.6,0,.9,0,2.5-.3,4.7-.7,6.5s-.9,3.4-1.6,4.7c-.7,1.3-1.4,2.4-2.3,3.3s-1.8,1.7-2.9,2.4l-.7-.6c.3-.1.6-.3.9-.6.3-.2.6-.5.9-.6.7-.6,1.4-1.3,2.1-2.1s1.3-1.8,1.8-3c.5-1.2,1-2.6,1.3-4.2.3-1.6.5-3.6.5-5.8,0-.2,0-.4,0-.6,0-.2,0-.4,0-.6,0-.2,0-.4,0-.6h.9ZM213.4,319.3c0,.2,0,.4,0,.6,0,.2,0,.3,0,.5,0,.4,0,1,0,1.7,0,.8,0,1.6-.2,2.5,0,.9-.2,1.9-.3,2.8-.1.9-.2,1.8-.4,2.6-.2.8-.4,1.4-.6,1.8-.2.4-.5.7-.8.9-.3.2-.7.2-1.2.2s-1.1,0-1.8,0c-.7,0-1.3,0-2,0v-.8c.6,0,1.3.1,1.9.2.6,0,1.2,0,1.8,0s.6,0,.8-.1c.3,0,.5-.3.6-.6.2-.4.4-1,.6-1.8.2-.8.3-1.6.4-2.5s.2-1.9.3-2.8c0-.9.1-1.8.1-2.6,0-.8,0-1.5,0-2h-13.6c-.5,0-1,0-1.3,0-.3,0-.7,0-1,0v-.9c.3,0,.7,0,1.1,0,.4,0,.8,0,1.3,0h12.6c.3,0,.6,0,.8,0,.2,0,.3,0,.4,0l.6.3Z"/>
          <path class="st6" d="M236,321.3c0,0,0,.1-.1.2s0,.2,0,.2c-.3,1.2-.7,2.4-1.2,3.7-.6,1.2-1.3,2.3-2.2,3.3-1.3,1.4-2.7,2.5-4.1,3.2-1.5.7-2.9,1.3-4.5,1.7l-.6-.7c1.6-.3,3.1-.9,4.6-1.6,1.5-.8,2.8-1.7,3.9-3,.8-.9,1.5-1.9,2.1-3.1.6-1.2,1-2.3,1.2-3.4h-13.9c-.3,0-.6,0-.9,0s-.7,0-1,0v-.9c.4,0,.7,0,1,0,.3,0,.6,0,.9,0h13.4c.2,0,.3,0,.5,0s.3,0,.4,0l.6.4ZM221.2,315.6c.3,0,.6,0,.9,0,.3,0,.6,0,.9,0h9.7c.4,0,.7,0,1,0,.3,0,.5,0,.8,0v.9c-.3,0-.5,0-.8,0h-10.6c-.3,0-.6,0-.9,0s-.6,0-.9,0v-.9Z"/>
          <path class="st6" d="M241.6,320l-.2-3.7v-1.6h1.1v5.4h-.9ZM245.1,320l-.2-3.7v-1.6h1.1v1.6l-.2,3.7h-.7Z"/>
          <path class="st6" d="M250.7,317.8c.4,0,.8,0,1.1,0,.3,0,.6,0,.8,0,.3,0,.8,0,1.5-.2.7,0,1.6-.2,2.6-.3,1-.1,2.1-.2,3.2-.3,1.1-.1,2.3-.2,3.4-.3.9,0,1.8-.1,2.5-.2.7,0,1.4,0,2-.1.6,0,1.1,0,1.6,0v.7c-.5,0-1,0-1.6,0-.6,0-1.2,0-1.7.1-.6,0-1,.2-1.4.3-1,.4-1.9.9-2.6,1.5s-1.4,1.4-1.9,2.2c-.5.8-.9,1.6-1.1,2.5s-.4,1.6-.4,2.3c0,1.1.2,2,.6,2.8.4.8.9,1.5,1.5,2,.6.5,1.3,1,2.1,1.3.8.3,1.5.6,2.4.7s1.6.2,2.4.3l-.3.7c-.8,0-1.6,0-2.4-.3-.8-.2-1.7-.4-2.5-.8-.8-.4-1.5-.8-2.2-1.4s-1.2-1.3-1.5-2.1c-.4-.8-.6-1.8-.6-2.9s.3-2.6.8-3.8c.5-1.2,1.2-2.2,2-3,.8-.9,1.7-1.5,2.6-2-.6,0-1.3.1-2.2.2s-1.8.2-2.8.3c-1,.1-2,.2-3,.3-1,.1-1.9.2-2.7.3-.8.1-1.5.2-1.9.3v-.9ZM265.9,320.5c.2.2.4.6.6.9s.5.8.8,1.2c.3.4.5.8.7,1.2l-.7.3c-.2-.5-.6-1.1-.9-1.8-.4-.7-.8-1.2-1.1-1.7l.6-.3ZM268.5,319.6c.2.2.4.6.7.9.3.4.5.8.8,1.2.3.4.5.8.7,1.2l-.7.3c-.3-.5-.6-1.1-1-1.8-.4-.7-.8-1.2-1.1-1.7l.6-.3Z"/>
        </g>
        <g class="st2">
          <path class="st6" d="M285.3,326.3h.7c-.2,1.3-.5,2.4-.8,3.4-.3,1.1-.7,2-1.1,2.7,0,0-.1,0-.2-.1s-.2,0-.3-.1-.2,0-.2,0c.5-.8.8-1.6,1.1-2.7.3-1,.5-2.1.7-3.2ZM283.7,323.9c1,0,2.3,0,3.7-.1,1.4,0,2.9-.1,4.4-.2v.7c-1.5,0-2.9.1-4.3.2-1.4,0-2.6.1-3.7.2v-.7ZM283.7,317.4l.5-.4c.5.4.9.8,1.4,1.3.5.5.9.9,1.3,1.4.4.4.7.8.9,1.2l-.5.5c-.2-.4-.6-.8-.9-1.2-.4-.5-.8-.9-1.3-1.4-.5-.5-.9-.9-1.4-1.3ZM287.6,313l.7.3c-.3.5-.6,1.1-.9,1.8-.3.6-.7,1.2-1,1.8s-.7,1.1-1,1.5l-.6-.3c.3-.4.7-1,1-1.6.3-.6.7-1.2,1-1.9.3-.6.6-1.2.8-1.7ZM290.5,315.6l.7.3c-.5.9-1.1,1.8-1.8,2.8-.7,1-1.3,2-2,3s-1.3,1.8-1.9,2.5l-.6-.3c.5-.5.9-1.1,1.5-1.8.5-.7,1-1.4,1.5-2.2.5-.8,1-1.5,1.4-2.3.4-.7.8-1.4,1.2-2.1ZM288,324h.7v10.7h-.7v-10.7ZM289.6,321l.6-.3c.4.5.7,1,1,1.6.3.6.7,1.1.9,1.7s.5,1,.6,1.5l-.7.3c-.1-.4-.3-.9-.6-1.5-.3-.6-.6-1.1-.9-1.7s-.7-1.1-1-1.6ZM290.4,326.5l.6-.2c.4.7.7,1.5,1.1,2.4.3.9.5,1.6.7,2.3l-.7.2c-.1-.6-.3-1.4-.6-2.3-.3-.9-.6-1.7-1-2.4ZM292.5,316.7h12.9v.7h-12.9v-.7ZM293.4,321.9h11.5v.7h-11.5v-.7ZM294.2,325.9h10v8.6h-.7v-7.9h-8.5v8h-.7v-8.7ZM294.5,332.5h9.3v.7h-9.3v-.7ZM298.5,313h.7v9.4h-.7v-9.4Z"/>
          <path class="st6" d="M318.9,326l.6.3c-.7,1-1.7,2-2.8,3-1.1,1-2.3,1.8-3.6,2.6-1.3.8-2.5,1.4-3.7,1.8,0,0,0-.1-.1-.2,0,0-.1-.1-.2-.2s-.1-.1-.2-.2c.9-.3,1.8-.7,2.7-1.2s1.9-1.1,2.7-1.7,1.7-1.3,2.5-2c.8-.7,1.4-1.4,1.9-2.2ZM309.4,325.9h20.6v.7h-20.6v-.7ZM311.7,314.2h16.2v9h-16.2v-9ZM312.4,314.9v3.4h14.8v-3.4h-14.8ZM312.4,319v3.5h14.8v-3.5h-14.8ZM319.4,314.4h.7v20.2h-.7v-20.2ZM320.6,326c.6.7,1.2,1.4,2,2.1.8.7,1.6,1.4,2.5,2,.9.6,1.8,1.2,2.8,1.7.9.5,1.8.9,2.7,1.2,0,0-.1.1-.2.2,0,0-.1.1-.2.2,0,0-.1.1-.2.2-.9-.4-1.8-.8-2.7-1.3s-1.9-1.1-2.8-1.8c-.9-.6-1.8-1.3-2.6-2.1-.8-.7-1.5-1.5-2.1-2.2l.6-.3Z"/>
        </g>
        <g class="st2">
          <path class="st6" d="M343.1,314.2c-.1.5-.2,1.1-.4,1.7-.1.6-.4,1.3-.7,2.1-.3.9-.8,1.7-1.3,2.6-.5.9-1.1,1.7-1.7,2.5.4-.3.8-.5,1.3-.7.4-.2.9-.3,1.4-.4.5-.1.9-.2,1.3-.2.9,0,1.6.2,2.2.7.6.5.9,1.1.9,2v1.2c0,.5,0,1,0,1.5,0,.5,0,1.1,0,1.6,0,.5,0,.9,0,1.3h-.8c0-.4,0-.8,0-1.3,0-.5,0-1,0-1.6,0-.5,0-1,0-1.5,0-.5,0-.9,0-1.1,0-.6-.2-1.1-.7-1.5-.4-.4-1-.5-1.8-.5s-1.7.2-2.4.5c-.8.3-1.5.8-2.1,1.3-.3.3-.7.7-1,1.1-.3.4-.7.8-1.1,1.3l-.7-.5c1.3-1.3,2.3-2.4,3.1-3.5.8-1.1,1.4-2,1.8-2.8.4-.8.7-1.4.9-1.9.3-.7.5-1.3.7-2s.3-1.3.3-1.8h.8ZM335.7,317.2c.7,0,1.4.1,2.1.2.7,0,1.3,0,1.8,0,1.1,0,2.3,0,3.5,0s2.4-.1,3.6-.3c1.2-.1,2.4-.3,3.5-.5v.8c-.8.1-1.7.3-2.6.4-.9,0-1.8.2-2.7.2-.9,0-1.8,0-2.7.1-.9,0-1.7,0-2.5,0s-.7,0-1.2,0c-.4,0-.9,0-1.3,0-.5,0-.9,0-1.4,0v-.8ZM353.4,322c-.2,0-.3,0-.5.2-.2,0-.3.1-.5.2-.2,0-.3.1-.5.2-.9.4-1.9.8-3.1,1.3-1.2.5-2.3,1.1-3.5,1.7-.9.4-1.7.9-2.4,1.4-.7.5-1.3,1-1.7,1.6-.4.6-.7,1.2-.7,1.9s.1,1.1.4,1.4c.3.4.7.6,1.2.8.5.2,1.1.3,1.7.3.6,0,1.3,0,1.9,0s1.8,0,3-.1,2.2-.2,3.3-.4v.8c-.7,0-1.4.2-2.1.2-.7,0-1.5.1-2.2.1-.7,0-1.4,0-2,0-1,0-2,0-2.9-.3-.9-.2-1.6-.5-2.1-1s-.8-1.2-.8-2.1.1-1.2.4-1.7c.3-.5.7-1,1.2-1.5.5-.4,1.1-.9,1.7-1.3s1.3-.8,2-1.2c.8-.4,1.6-.8,2.3-1.1.8-.3,1.5-.7,2.2-1s1.3-.6,1.9-.9c.3-.1.5-.2.7-.3.2,0,.4-.2.6-.3l.4.8Z"/>
        </g>
        <g class="st2">
          <path class="st6" d="M364.1,330.4c.7,1,1.6,1.7,2.7,2.2,1.2.5,2.5.8,4,.8.6,0,1.4,0,2.3,0,.9,0,1.8,0,2.8,0s1.9,0,2.8,0c.9,0,1.7,0,2.3,0,0,0,0,.1-.1.2,0,0,0,.2,0,.3,0,0,0,.2,0,.3-.6,0-1.3,0-2.2,0-.9,0-1.8,0-2.7,0-1,0-1.9,0-2.7,0-.9,0-1.6,0-2.2,0-1.6,0-3.1-.3-4.2-.9-1.2-.5-2.2-1.2-2.9-2.2-.6.6-1.3,1.1-1.9,1.7-.7.6-1.3,1.1-2,1.7l-.5-.7c.6-.4,1.3-.9,2-1.5.7-.6,1.4-1.2,2.1-1.8h.6ZM364.1,322.6v8.2h-.7v-7.5h-3.9v-.7h4.6ZM359.9,314l.5-.4c.6.3,1.1.7,1.7,1.2.6.4,1.1.9,1.6,1.4.5.5.9.9,1.1,1.3l-.6.5c-.3-.4-.6-.8-1.1-1.3-.5-.5-1-.9-1.6-1.4-.6-.4-1.1-.8-1.7-1.2ZM367.2,315.7h.7v15.2h-.7v-15.2ZM367.5,324.4h11.8v6.5h-11.8v-.7h11.1v-5.1h-11.1v-.7ZM367.6,315.7h10.8v5.8h-10.8v-.7h10.1v-4.4h-10.1v-.7ZM372.3,312.9l.7.2c-.2.5-.4,1-.6,1.6-.2.6-.4,1-.6,1.4l-.6-.2c.2-.4.4-.9.6-1.5s.4-1.1.5-1.5Z"/>
          <path class="st6" d="M384.5,331.6c.7-.4,1.5-.8,2.4-1.3.9-.5,1.8-1,2.8-1.6,1-.6,2-1.1,3-1.7l.2.6c-1.4.8-2.8,1.6-4.2,2.4-1.4.8-2.7,1.5-3.7,2.1l-.4-.6ZM385.1,317.4h20.6v.7h-20.6v-.7ZM386.7,320.5l.6-.3c.5.4,1.1.9,1.6,1.5.5.5,1,1.1,1.5,1.6.4.5.8,1,1,1.5l-.6.4c-.3-.4-.6-.9-1.1-1.5s-.9-1.1-1.5-1.7c-.5-.6-1.1-1.1-1.6-1.5ZM395,313.1h.7v20.2c0,.4,0,.7-.2.9-.2.2-.4.3-.7.4-.3,0-.8.1-1.5.1-.7,0-1.5,0-2.6,0,0,0,0-.2-.1-.4,0-.2-.1-.3-.2-.4.9,0,1.8,0,2.5,0s1.2,0,1.5,0c.2,0,.4,0,.5-.1s.1-.2.1-.5v-20.2ZM395.6,318.1c.5,1.6,1,3.1,1.7,4.5.7,1.5,1.5,2.8,2.4,4.1s1.9,2.3,3,3.3,2.3,1.7,3.6,2.2c0,0-.1.1-.2.2,0,0-.1.1-.2.2,0,0-.1.1-.2.2-1.7-.8-3.2-1.9-4.6-3.3-1.4-1.4-2.6-3.1-3.6-5s-1.9-3.9-2.5-6.1l.6-.2ZM403.8,319.7l.6.4c-.5.6-1.1,1.2-1.7,1.9-.6.7-1.3,1.3-2,1.9-.7.6-1.3,1.2-1.9,1.6l-.5-.4c.6-.5,1.2-1,1.9-1.7.7-.6,1.3-1.3,2-2,.6-.7,1.2-1.3,1.6-1.9ZM398.7,313.7l.5-.4c.5.3,1,.6,1.6.9.6.3,1.1.7,1.6,1,.5.3.9.7,1.2.9l-.5.6c-.3-.3-.7-.6-1.2-1s-1-.7-1.6-1.1c-.6-.4-1.1-.7-1.6-1Z"/>
        </g>
        <g class="st2">
          <path class="st6" d="M409.8,318c.6,0,1.3,0,2.1,0,.8,0,1.6,0,2.5,0,.9,0,1.8,0,2.8,0,1,0,1.9,0,2.9,0,1,0,1.9,0,2.7,0s1.6,0,2.3,0,1.3,0,1.9,0,1,0,1.4,0c.4,0,.7,0,1,0v.7c-.6,0-1.4,0-2.4,0-1,0-2.4,0-4.2,0s-2,0-3.2,0c-1.1,0-2.3,0-3.5,0-1.2,0-2.3,0-3.4.2-1.1,0-2.1.1-3,.2v-.8ZM422,324.8c0,.8-.2,1.5-.5,2.1-.3.6-.7,1-1.2,1.3-.5.3-1,.4-1.5.4s-1,0-1.5-.2c-.5-.2-.9-.4-1.2-.7-.3-.3-.6-.7-.8-1.2-.2-.4-.3-1-.3-1.5s.2-1.3.5-1.9c.3-.6.8-1,1.3-1.4.6-.4,1.2-.5,1.8-.5s1.5.2,2,.6.9.9,1.2,1.5c.3.7.4,1.4.4,2.3s-.1,1.7-.3,2.5c-.2.8-.5,1.6-1,2.3-.5.7-1.2,1.4-2,2-.9.6-1.9,1.1-3.3,1.5l-.7-.6c1.2-.3,2.2-.7,3-1.1.8-.5,1.5-1,2-1.7.5-.6.9-1.4,1.2-2.1.2-.8.4-1.7.4-2.6,0-1.4-.3-2.4-.8-3s-1.2-.9-2-.9-1,.1-1.5.4c-.5.3-.8.6-1.1,1.1-.3.5-.4,1-.4,1.6,0,1,.3,1.7.9,2.2.6.5,1.3.8,2.1.8s1.1-.2,1.5-.5c.4-.3.7-.8.9-1.3.2-.6.3-1.2.3-2l.4.7ZM421.7,314.3s0,.1,0,.3c0,.1,0,.3,0,.4,0,.1,0,.2,0,.3,0,.3,0,.7,0,1.2v1.7c0,.6,0,1.2,0,1.8,0,.6,0,1.2,0,1.7,0,.5,0,1,0,1.4l-.7-.8v-.8c0-.4,0-.9,0-1.5,0-.6,0-1.2,0-1.8,0-.6,0-1.2,0-1.7,0-.5,0-.9,0-1.2,0-.2,0-.3,0-.6,0-.2,0-.3,0-.4h.9Z"/>
          <path class="st6" d="M436.5,315.8c.2,0,.4,0,.7,0,.2,0,.4,0,.6,0,.2,0,.7,0,1.2,0,.6,0,1.3,0,2,0s1.5,0,2.2,0c.7,0,1.4,0,2,0s1,0,1.2,0c.2,0,.4,0,.5,0s.2,0,.3,0l.7.6c-.2.1-.3.2-.5.4-.2.1-.4.3-.5.5-.3.2-.7.6-1.3,1.1s-1.2,1.1-2,1.7c-.7.6-1.4,1.2-2.2,1.9-.7.6-1.3,1.2-1.9,1.6.7-.3,1.4-.5,2.2-.6.8-.1,1.5-.2,2.2-.2,1.3,0,2.4.2,3.4.7,1,.5,1.7,1.1,2.3,1.9.5.8.8,1.7.8,2.7s-.4,2.4-1.1,3.3-1.6,1.5-2.8,2c-1.2.4-2.5.7-4,.7s-1.9-.1-2.6-.4c-.7-.3-1.2-.6-1.5-1.1s-.5-.9-.5-1.5.1-.9.4-1.2.6-.7,1.1-.9c.5-.2,1-.3,1.6-.3,1,0,1.9.2,2.6.7.7.4,1.2,1,1.5,1.7.4.7.6,1.4.6,2.2l-.6.2c-.1-1.2-.5-2.2-1.2-2.9-.7-.8-1.7-1.2-2.9-1.2s-1.2.2-1.7.5c-.5.4-.7.8-.7,1.3s.4,1.3,1.1,1.7c.7.4,1.7.6,2.8.6s2.6-.2,3.7-.6c1.1-.4,1.9-1,2.6-1.8s.9-1.8.9-2.9-.2-1.6-.7-2.3c-.5-.7-1.2-1.3-2-1.7s-1.9-.6-3-.6-2,0-2.8.3-1.6.5-2.3.8c-.7.4-1.4.9-2.2,1.5-.7.6-1.5,1.3-2.4,2.1l-.6-.6c.6-.5,1.2-1,1.8-1.5s1.3-1.1,2-1.6c.6-.5,1.2-1,1.8-1.5s1-.8,1.3-1.1c.3-.3.8-.6,1.3-1.1s1.1-1,1.8-1.5c.6-.5,1.2-1,1.7-1.5.5-.5,1-.8,1.3-1.1-.3,0-.7,0-1.3,0-.6,0-1.3,0-2,0s-1.5,0-2.3.1c-.7,0-1.4,0-2,0-.6,0-1,0-1.2,0-.2,0-.4,0-.6,0-.2,0-.4,0-.6,0v-.8Z"/>
          <path class="st6" d="M459.3,326c.3-.6.5-1.2.8-2s.5-1.5.7-2.3c.2-.8.4-1.6.6-2.3.2-.8.3-1.5.4-2.1h.8c0,.3,0,.4,0,.5,0,.1,0,.2,0,.3s0,.3-.1.4c0,.3-.2.8-.3,1.4-.1.6-.3,1.3-.5,2-.2.7-.4,1.5-.7,2.3-.2.8-.5,1.5-.8,2.2-.3.7-.6,1.4-1,2.1-.4.7-.8,1.4-1.2,2.1s-.9,1.4-1.4,2.1l-.7-.3c.8-1,1.5-2.1,2.1-3.3.6-1.2,1.1-2.2,1.5-3.1ZM471.1,324.6c-.3-.6-.5-1.2-.8-1.9-.3-.7-.6-1.3-.9-2-.3-.7-.6-1.3-.9-1.9s-.6-1.1-.9-1.5l.7-.3c.2.4.5.9.8,1.4.3.6.6,1.2.9,1.8.3.6.6,1.3.9,2s.6,1.4.9,2.1c.3.6.5,1.3.8,2.1.3.7.6,1.5.8,2.2.3.7.5,1.4.7,2.1.2.7.4,1.2.6,1.7l-.7.2c-.2-.7-.4-1.5-.8-2.4-.3-.9-.7-1.9-1.1-2.9-.4-1-.7-1.9-1.1-2.7ZM471.1,316.7c0-.5.1-.9.3-1.3.2-.4.5-.7.9-.9s.8-.3,1.3-.3.9.1,1.3.3.7.5.9.9c.2.4.3.8.3,1.3s-.1.9-.3,1.3c-.2.4-.5.7-.9.9-.4.2-.8.3-1.3.3s-.9-.1-1.3-.3c-.4-.2-.7-.5-.9-.9-.2-.4-.3-.8-.3-1.3ZM471.8,316.7c0,.5.2.9.5,1.3.3.3.8.5,1.3.5s.9-.2,1.3-.5c.4-.3.5-.8.5-1.3s-.2-.9-.5-1.3-.8-.5-1.3-.5-.9.2-1.3.5c-.3.4-.5.8-.5,1.3Z"/>
          <path class="st6" d="M480.5,323.3c.2,0,.4,0,.7,0,.3,0,.6,0,.9,0,.4,0,.8,0,1.2,0h13.4c.6,0,1.1,0,1.5,0,.4,0,.6,0,.9,0v.9c-.2,0-.5,0-.9,0-.4,0-.9,0-1.4,0h-13.4c-.6,0-1.2,0-1.7,0-.5,0-.9,0-1.2,0v-.9Z"/>
          <path class="st6" d="M507.9,331v-14.1c0-.3,0-.6,0-1,0-.4,0-.8,0-1.1h1c0,.3,0,.7,0,1.1,0,.4,0,.8,0,1v5.7c0,1,0,2,0,3s0,1.8,0,2.6v3.7c0,.3,0,.5,0,.8s0,.5,0,.7h-.9c0-.3,0-.7,0-1.1s0-.8,0-1.3ZM508.5,321.2c.8.2,1.6.5,2.6.9.9.3,1.9.7,2.8,1.1s1.9.8,2.8,1.2c.9.4,1.7.8,2.4,1.1l-.3.7c-.7-.4-1.5-.8-2.4-1.2-.9-.4-1.8-.8-2.8-1.2-1-.4-1.9-.7-2.8-1s-1.7-.6-2.3-.7v-.8Z"/>
          <path class="st6" d="M524.5,320.5c.1,0,.4,0,.7,0,.3,0,.7,0,1.1,0h16c.3,0,.5,0,.9,0,.3,0,.5,0,.7,0v.8c-.1,0-.3,0-.7,0h-18c-.3,0-.6,0-.7,0v-.8ZM534.2,316.7c0-.3,0-.7,0-1.2,0-.4,0-.7,0-.8h1c0,.1,0,.4,0,.8,0,.4,0,.8,0,1.2v5.4c0,1.3-.1,2.6-.4,3.7-.3,1.1-.7,2.1-1.2,3.1s-1.2,1.8-2,2.5c-.8.7-1.7,1.4-2.8,2l-.7-.6c1-.5,1.9-1.1,2.7-1.8.8-.7,1.5-1.4,2-2.3.6-.9,1-1.9,1.3-3,.3-1.1.4-2.3.4-3.7v-5.4Z"/>
          <path class="st6" d="M549.2,323.3c.2,0,.4,0,.7,0,.3,0,.6,0,.9,0s.8,0,1.2,0h13.4c.6,0,1.1,0,1.5,0,.4,0,.6,0,.9,0v.9c-.2,0-.5,0-.9,0-.4,0-.9,0-1.4,0h-13.4c-.6,0-1.2,0-1.7,0-.5,0-.9,0-1.2,0v-.9Z"/>
          <path class="st6" d="M576.9,315.2c0,0,0,.2,0,.3,0,.1,0,.2,0,.3,0,.1,0,.3,0,.4-.1.6-.2,1.2-.3,1.8s-.2,1.3-.3,1.9c-.1.7-.2,1.3-.3,2,0,.7-.1,1.3-.2,2s0,1.3,0,1.9c0,.9,0,1.8,0,2.6,0,.8.1,1.6.3,2.6.2-.4.3-1,.5-1.5.2-.6.4-1.1.6-1.7.2-.5.4-1,.5-1.4l.5.4c-.2.5-.4,1-.6,1.6-.2.6-.5,1.2-.7,1.8-.2.6-.3,1.1-.4,1.4,0,.2,0,.3,0,.5,0,.2,0,.4,0,.5,0,.1,0,.2,0,.4,0,.1,0,.2,0,.3h-.7c-.2-.8-.4-1.9-.6-3.2-.2-1.3-.2-2.7-.2-4.3s0-1.8.1-2.7.2-1.8.3-2.7.3-1.7.4-2.4c.1-.8.2-1.4.3-1.9,0-.2,0-.4,0-.6,0-.2,0-.3,0-.5h.9ZM582.3,326.6c-.1.5-.2.9-.3,1.3,0,.4-.1.8-.1,1.1s0,.6.2.9.3.6.7.9c.3.3.8.5,1.4.6s1.4.2,2.5.2,2.1,0,3.1-.2c1-.1,1.9-.3,2.8-.5v.8c-.7.2-1.6.3-2.6.4-1,0-2.1.1-3.2.1-2,0-3.4-.3-4.2-.9s-1.3-1.4-1.3-2.4,0-.7,0-1.1c0-.4.2-.9.3-1.4h.7ZM582.4,317.3c.6.1,1.3.2,2.1.3.8,0,1.7,0,2.6,0s1.8,0,2.6,0,1.5-.1,2.1-.2v.8c-.5,0-1.2.1-2.1.2s-1.7,0-2.6,0-1.8,0-2.6,0c-.8,0-1.5,0-2.1-.2v-.8Z"/>
        </g>
      </g>
      <g id="_グループ_32845" data-name="グループ_32845">
        <rect id="_長方形_26075" data-name="長方形_26075" class="st3" x="32.7" y="183.9" width="636" height="56"/>
        <g id="_Webのチカラ_で成功に導く" class="st2">
          <g class="st2">
            <path class="st6" d="M47.2,207.8c-.5.4-.9.4-1.3,0,0-.2-.1-.6-.2-1.3-.1-.7-.3-1.6-.5-2.6-.2-1-.4-2-.6-3.1-.2-1-.3-2-.4-2.8-.1-.8-.2-1.4-.2-1.7,0-.7.2-1.1.5-1.4.4-.2,1-.4,2-.4s1.7.1,2,.4c.3.2.5.7.5,1.4s0,.9-.2,1.7c-.1.8-.3,1.8-.4,2.8-.2,1.1-.4,2.1-.5,3.1-.2,1-.3,1.9-.5,2.6-.1.7-.2,1.2-.2,1.3ZM55.8,207.8c-.2.2-.4.2-.7.2s-.5,0-.6-.3c0-.2-.1-.6-.2-1.3-.1-.7-.3-1.6-.5-2.6-.2-1-.4-2-.5-3.1-.2-1-.3-2-.4-2.8-.1-.8-.2-1.4-.2-1.7,0-.7.2-1.1.5-1.4.3-.2,1-.4,2-.4s1.6.1,2,.4c.4.2.5.7.5,1.4s0,.9-.2,1.7c-.1.8-.3,1.8-.4,2.8-.2,1.1-.4,2.1-.6,3.1-.2,1-.4,1.9-.5,2.6-.1.7-.2,1.2-.2,1.3Z"/>
            <path class="st6" d="M76.7,231.5c-.5,0-.9,0-1.1-.2-.2-.2-.4-.4-.5-.8,0-.4-.2-1.2-.5-2.3-.3-1.2-.6-2.5-.9-4.2-.4-1.6-.8-3.4-1.2-5.3-.4-1.9-.9-3.8-1.3-5.7-.4-1.9-.9-3.7-1.3-5.4-.4-1.7-.7-3.1-1-4.3-.3-1.2-.5-2-.6-2.4-.4-1.4-1-2.3-1.6-2.7-.7-.4-1.4-.6-2.1-.6s-.7-.3-.7-.8.2-.8.7-.8.9,0,1.8,0c.8,0,1.9,0,3.1,0s2.6,0,3.4,0c.8,0,1.4,0,1.8,0s.7.3.7.8-.2.8-.7.8c-.8,0-1.4.3-1.8.9-.4.6-.5,1.5-.2,2.8.1.5.3,1.4.6,2.7.3,1.2.6,2.7,1,4.3.4,1.6.8,3.3,1.2,5,.4,1.7.8,3.3,1.1,4.8s.6,2.8.9,3.8c.2,1,.4,1.7.5,2,0,.2.2.3.3.3.1,0,.2-.1.3-.4.1-.4.3-1.1.6-2.2.3-1,.6-2.3,1-3.7.4-1.4.8-2.9,1.2-4.5.4-1.6.8-3.1,1.2-4.6.4-1.5.7-2.8,1-3.9s.5-2,.6-2.5c.4-1.6.2-2.8-.6-3.6-.7-.8-1.7-1.2-2.9-1.2s-.7-.3-.7-.8.2-.8.7-.8,1,0,2,0c1,0,2.1,0,3.3,0s2.6,0,3.7,0c1.1,0,1.7,0,1.9,0,.4,0,.7.3.7.8s-.2.8-.7.8c-1.3,0-2.2.2-2.6.7-.4.5-.4,1.5-.1,2.9.1.5.3,1.4.6,2.6.3,1.2.6,2.7,1,4.3.4,1.6.8,3.3,1.2,5,.4,1.7.8,3.3,1.2,4.9.4,1.5.6,2.8.9,3.9.2,1,.4,1.7.5,1.9,0,.2.1.3.3.3.1,0,.2-.1.3-.4.1-.4.3-1.2.6-2.2.3-1.1.6-2.3,1-3.8.4-1.5.8-3,1.2-4.6.4-1.6.8-3.2,1.2-4.7.4-1.5.7-2.8,1-4,.3-1.2.5-2,.6-2.6.4-1.6.4-2.7,0-3.4-.4-.7-1.1-1-2.2-1s-.7-.3-.7-.8.2-.8.7-.8.9,0,1.6,0c.8,0,1.6,0,2.5,0s2,0,2.5,0c.6,0,1,0,1.3,0,.3,0,.5,0,.7,0,.4,0,.7.3.7.8s-.2.8-.7.8c-1.1,0-2,.4-2.8,1.1-.7.8-1.3,1.8-1.7,3.1-.2.7-.5,1.8-.9,3.3-.4,1.6-.9,3.3-1.5,5.4-.5,2-1.1,4.1-1.7,6.3-.6,2.2-1.1,4.2-1.6,6.1-.5,1.9-.9,3.6-1.3,4.9-.4,1.3-.6,2.2-.7,2.6-.2.6-.7,1-1.5,1s-.9,0-1.1-.2c-.2-.2-.3-.4-.4-.8,0-.4-.2-1.3-.6-2.7-.3-1.4-.7-3-1.1-5-.4-2-.9-4-1.4-6.2-.5-2.2-1-4.3-1.5-6.3s-.9-3.8-1.3-5.4c0,0-.1-.2-.2-.2-.1,0-.2,0-.2.2-.3,1.5-.7,3.3-1.2,5.3-.5,2-1.1,4.1-1.7,6.3-.6,2.2-1.2,4.3-1.7,6.2-.5,2-1,3.6-1.4,5-.4,1.4-.6,2.3-.7,2.7-.2.6-.7,1-1.6,1Z"/>
            <path class="st6" d="M118.5,231.5c-2.1,0-3.9-.5-5.5-1.4s-2.8-2.2-3.7-3.8c-.9-1.6-1.3-3.4-1.3-5.4s.2-2.8.7-4.1c.5-1.3,1.2-2.5,2.1-3.6.9-1.1,2-1.9,3.2-2.6,1.2-.6,2.6-1,4.1-1s2.9.3,4,1c1.1.7,2,1.5,2.8,2.6.7,1,1.3,2.1,1.6,3.3.4,1.1.5,2.2.5,3.1s-.3.7-.9.7h-12.9c-.3,0-.5,0-.6.1,0,0-.1.3-.1.5,0,2.1.3,3.8.9,5,.6,1.2,1.3,2.1,2.3,2.6s2,.8,3.1.8,2.2-.2,3-.6c.9-.4,1.6-.9,2.2-1.4.6-.5,1-1,1.3-1.4.3-.4.7-.5,1.2-.2.4.3.5.6.2,1.1-.3.5-.8,1.2-1.6,1.9-.7.8-1.6,1.4-2.8,2s-2.5.8-4,.8ZM113.6,218.5h8c.6,0,.9-.3.9-.8,0-.9-.1-1.8-.4-2.8-.3-1-.7-1.8-1.3-2.5-.6-.7-1.5-1-2.6-1s-1.8.3-2.5,1c-.7.6-1.2,1.5-1.7,2.4s-.8,2-1,3.2c0,.4,0,.6.6.6Z"/>
            <path class="st6" d="M144.6,231.5c-1.6,0-2.8-.3-3.7-.9-.9-.6-1.6-1.2-2.1-1.7-.2-.3-.4-.4-.5-.4-.1,0-.3.1-.4.3-.1.2-.4.6-.7,1.1-.4.5-.6.9-.8,1.2-.1.2-.4.3-.7.2-.4,0-.5-.3-.5-.6,0-.4.1-1.1.2-2.2.1-1.1.2-2.4.2-3.8v-24.5c0-.8,0-1.3-.2-1.6-.1-.3-.4-.4-.8-.5-.2,0-.5-.1-.9-.2-.4,0-.7,0-.9-.1-.4,0-.6-.3-.6-.8s0-.4.2-.5c.1-.2.3-.2.5-.2s.4,0,.9,0c.5,0,1.1,0,1.8,0s1.3,0,1.8,0c.6,0,.9,0,1.1,0,.7,0,1.1.4,1.1,1.2v14.8c0,.2,0,.3.2.3.1,0,.3,0,.5-.3.4-.4,1-.9,1.9-1.5.9-.6,2.1-.9,3.6-.9s1.8.2,2.8.5c1,.3,1.9.9,2.7,1.7.8.8,1.5,1.9,2,3.2.5,1.4.8,3.1.8,5.2s-.3,3.9-.9,5.3-1.4,2.6-2.4,3.4c-1,.9-2,1.5-3.1,1.9-1.1.4-2,.6-2.9.6ZM144.3,229.9c1.2,0,2.1-.3,2.9-.9.8-.6,1.4-1.6,1.8-3,.4-1.4.6-3.3.6-5.7s-.2-4.3-.6-5.6c-.4-1.3-1-2.2-1.8-2.7-.7-.5-1.6-.7-2.5-.7s-1.5.2-2.3.7c-.8.4-1.5,1.2-2.1,2.2-.6,1-.8,2.3-.8,3.9v4.4c0,2.6.5,4.5,1.4,5.7.9,1.2,2.1,1.7,3.5,1.7Z"/>
          </g>
          <g class="st2">
            <path class="st6" d="M175.1,232.1c-.2-.1-.3-.3-.3-.5,0-.2,0-.4.2-.5,1.6-.3,3.1-.7,4.7-1.4,1.6-.6,3-1.5,4.4-2.5,1.3-1,2.4-2.3,3.2-3.8.8-1.5,1.2-3.2,1.2-5.1s-.5-4.6-1.4-6.4c-.9-1.8-2.2-3.1-3.9-4.1-1.7-1-3.6-1.5-5.8-1.5v2.4c0,2-.2,4-.6,5.9-.4,1.9-1,3.7-1.6,5.4-.7,1.7-1.4,3.1-2.2,4.4s-1.6,2.3-2.5,3-1.6,1.1-2.2,1.1-1.2-.1-1.8-.4c-.6-.3-1.2-.7-1.7-1.2-.7-.7-1.2-1.7-1.7-2.9-.4-1.2-.6-2.7-.6-4.5s.4-3.4,1.1-5.1c.7-1.7,1.7-3.3,3-4.7,1.3-1.4,2.9-2.6,4.7-3.5,1.8-.9,3.8-1.3,6.1-1.3s3.9.3,5.6,1c1.7.7,3.2,1.6,4.5,2.8s2.3,2.6,3,4.3c.7,1.7,1.1,3.5,1.1,5.5s-.5,4.2-1.4,5.8c-.9,1.6-2.2,3-3.8,4.1-1.6,1.1-3.3,2-5.2,2.6-1.9.6-3.9,1-5.8,1.1ZM168.1,225.1c.6,0,1.2-.3,1.9-1,.7-.6,1.4-1.5,2.1-2.7.7-1.1,1.3-2.4,1.9-3.8.6-1.4,1-2.9,1.4-4.5.3-1.6.5-3.1.5-4.6v-2.1c-2.1.2-4,.9-5.6,2.1-1.6,1.2-2.9,2.7-3.9,4.6-.9,1.8-1.4,3.9-1.4,6.2s.3,3.1.9,4.2c.6,1.1,1.3,1.6,2.2,1.6Z"/>
          </g>
          <g class="st2">
            <path class="st6" d="M212,231.9c-.3,0-.4-.2-.6-.4-.1-.2-.2-.4,0-.6,1.6-1.2,3.1-2.7,4.5-4.4,1.4-1.7,2.6-3.7,3.5-6.1.9-2.4,1.5-5.2,1.7-8.5-2,.2-3.9.3-5.6.6-1.7.2-3.2.4-4.4.7-.8.1-1.4.3-1.9.6-.5.3-1.2.4-2,.4-.5,0-1.1-.3-1.7-.8-.6-.5-1.1-1.1-1.6-1.8-.4-.7-.7-1.2-.9-1.7,0-.5.4-.6.9-.5.7.7,1.4,1.1,2.1,1.2.8,0,1.8,0,3.1,0,.2,0,.3,0,.4,0,.6,0,1.6-.1,2.8-.2,1.2,0,2.6-.2,4.2-.3,1.6-.1,3.2-.2,4.8-.3,0-.7,0-1.4,0-2.2,0-.7,0-1.5-.1-2.3,0-.5,0-1-.2-1.3,0-.4-.3-.7-.5-.9-2,.4-4,.7-6,.9-1.9.3-3.6.4-5,.5-.2-.2-.3-.4-.3-.6s0-.5.2-.6c1.6-.3,3.4-.6,5.4-1,2-.4,4.1-.9,6.2-1.6,2.1-.6,4-1.4,5.8-2.3.8-.4,1.2-.8,1.3-1.2.1-.4,0-.9-.4-1.4,0-.5.3-.7.8-.7.4.3.9.6,1.4,1.1.5.5,1,1,1.5,1.5.5.5.8,1,1.1,1.4.3.4.3.8.1,1.1-.2.3-.5.4-1,.5-.8,0-1.8.2-3,.5-.8.2-1.7.4-2.6.7s-1.9.4-2.9.7c.3,0,.6.1.9.2.3,0,.4.2.6.2.7.3.8.8.2,1.6-.2.3-.4.7-.4,1.1,0,.4,0,1,0,1.8,0,.4,0,.7,0,1.1v1.1c1.9-.2,3.6-.3,5.1-.4,1.5,0,2.7-.2,3.4-.2.6,0,1.2-.1,1.5-.2.4-.1.9-.4,1.5-.7.6-.3,1.4-.3,2.4.2.4.2.9.5,1.4.9.5.4.9.6,1.2.9.4.4.5.8.4,1.2-.1.4-.5.5-1.2.5-.4,0-1,0-1.7,0-.7,0-1.4,0-2.1,0h-1.8c-1.5,0-3.2,0-4.9,0-1.7,0-3.5.1-5.2.2-.2,3.6-1,6.6-2.2,9.3-1.2,2.6-2.7,4.8-4.5,6.6-1.8,1.8-3.7,3.2-5.7,4.4Z"/>
            <path class="st6" d="M255.6,231c-.6,0-.9-.4-.8-1,1.6-1.5,3.3-3.3,5-5.5,1.7-2.2,3.4-4.6,5-7.3s2.9-5.7,3.9-8.9c-1.5.2-2.7.4-3.8.7-.3,0-.5.1-.7.2-.2,0-.4.1-.7.2-.4.2-.9.3-1.4.4-.5.1-1,.2-1.7.1-.5,0-1.1-.3-1.7-.9-.6-.6-1.1-1.2-1.5-1.9s-.7-1.2-.9-1.5c.1-.4.4-.6.8-.5.6.6,1.2,1,1.8,1.2.6.2,1.2.4,1.8.4.5,0,1.5,0,3.2-.2,1.6-.1,3.4-.3,5.4-.5.3-1.1.5-2.1.7-3.2.2-1.1.4-2.2.5-3.3,0,0,0-.2,0-.3,0-.9,0-1.6,0-2.1s-.6-.9-1.5-1.2c0-.2-.1-.4,0-.6,0-.2.2-.3.3-.4.4,0,.9.1,1.5.3.6.2,1.2.4,1.8.6.6.2,1.1.5,1.5.7.6.3,1,.7,1.1,1.2,0,.5,0,.9-.5,1.3-.4.3-.6.7-.8,1.1-.2.4-.3.9-.3,1.5,0,.7-.2,1.4-.4,2.1-.2.7-.3,1.4-.5,2,.8,0,1.6-.1,2.4-.2.7,0,1.4-.1,2-.1.6,0,1.2-.2,1.6-.3.4-.1.8-.3,1.2-.6.5-.4,1-.6,1.2-.7.3,0,.6,0,1.1.3.4.2,1,.6,1.6,1.1.7.5,1.1.9,1.5,1.1.4.3.6.6.6.9,0,.3-.2.7-.6,1-.4.3-.6.7-.7,1.1s-.2.9-.2,1.5c-.2,1.3-.5,2.8-.9,4.3-.4,1.5-.9,3-1.4,4.5-.5,1.5-1.1,2.8-1.8,4-.6,1.2-1.2,2.2-1.8,2.9-.6.8-1.4,1.4-2.1,2-.8.6-1.7.9-2.7,1-.4,0-.8,0-1-.2-.2-.1-.4-.4-.5-.8-.3-1-.8-1.9-1.5-2.5-.7-.7-1.5-1.2-2.4-1.7,0-.2,0-.4,0-.6s.2-.3.4-.3c.5.2,1.1.4,1.9.7.7.3,1.4.6,2,.8.7.3,1.3.4,1.7.2.4-.1.9-.5,1.4-1,.5-.5,1-1.3,1.6-2.4.6-1.1,1.1-2.3,1.7-3.7.6-1.4,1-3,1.5-4.6.4-1.6.7-3.3.9-4.9,0-.4,0-.8,0-1-.1-.2-.4-.3-1-.3-1.1,0-2.3,0-3.7.1-1.4,0-2.8.2-4.3.4-1.1,3.4-2.5,6.5-4.4,9.5-1.8,3-3.8,5.6-5.9,7.9-2.1,2.3-4.2,4.2-6.2,5.7Z"/>
            <path class="st6" d="M311.4,231.6c-.6-.2-.8-.6-.6-1.2,2.9-1.5,5.6-3.3,8.2-5.4,2.6-2.1,4.9-4.5,6.9-7,2-2.6,3.7-5.2,4.9-8,.2-.4.2-.8,0-1-.1-.2-.5-.3-1.1-.3s-1,0-1.8,0c-.8,0-1.8.2-3,.3-1.1.1-2.3.3-3.5.4-1.2.2-2.3.3-3.3.5-1,.2-1.8.4-2.4.6-.8.2-1.4.5-2,.7-.6.2-1.2.4-1.7.4s-1.1-.3-1.7-.8c-.5-.5-1-1.2-1.4-1.9-.4-.7-.7-1.3-.8-1.7.2-.5.5-.6.9-.5.6.6,1.3,1,2,1.1.8.1,1.8.1,3.3,0,.7,0,1.6-.2,2.9-.3s2.6-.2,4-.4,2.8-.3,4.1-.5c1.3-.1,2.4-.3,3.2-.4.5,0,.9-.1,1.2-.2.3,0,.5-.3.8-.5.4-.4.8-.5,1.1-.6.3,0,.6,0,.9.3.4.2.8.5,1.3,1,.5.4,1,.9,1.5,1.4s.8.8,1,1.1c.3.4.4.8.3,1.1,0,.3-.4.6-.9.7-.4.1-.8.4-1.2.8-.4.4-.7.9-.9,1.3-1.5,2.7-3.4,5.2-5.6,7.6-2.2,2.4-4.8,4.5-7.6,6.4-2.8,1.9-5.8,3.5-9,4.8ZM315.9,201.5c-.6,0-1.1-.2-1.7-.7-.5-.5-1-1-1.4-1.7-.4-.6-.7-1.2-.9-1.7,0-.4.4-.6.9-.5.5.7,1.1,1.1,1.8,1.2.6,0,1.5.1,2.6,0,.1,0,.3,0,.4,0,.1,0,.3,0,.4,0,.7,0,1.6-.1,2.8-.2,1.2-.1,2.4-.3,3.7-.5s2.3-.5,3.1-.7c0,0,0,0,0,0,.2,0,.4-.1.6-.1.2,0,.5,0,.8.1,1.3.4,2.1.9,2.5,1.5.4.5.5,1,.3,1.3-.2.3-.6.5-1.2.5-1.2,0-2.6,0-4.2,0-1.6,0-3.1.2-4.5.4-1.4.2-2.6.3-3.4.5-.8.1-1.3.3-1.6.5-.3.2-.8.3-1.3.3Z"/>
            <path class="st6" d="M355,207.8c-.5.4-.9.4-1.3,0,0-.2-.1-.6-.2-1.3-.1-.7-.3-1.6-.5-2.6-.2-1-.4-2-.6-3.1s-.3-2-.4-2.8c-.1-.8-.2-1.4-.2-1.7,0-.7.2-1.1.5-1.4.4-.2,1-.4,2-.4s1.7.1,2,.4c.3.2.5.7.5,1.4s0,.9-.2,1.7c-.1.8-.3,1.8-.4,2.8-.2,1.1-.4,2.1-.5,3.1-.2,1-.3,1.9-.5,2.6-.1.7-.2,1.2-.2,1.3ZM363.6,207.8c-.2.2-.4.2-.7.2s-.5,0-.6-.3c0-.2-.1-.6-.2-1.3-.1-.7-.3-1.6-.5-2.6-.2-1-.4-2-.5-3.1-.2-1-.3-2-.4-2.8s-.2-1.4-.2-1.7c0-.7.2-1.1.5-1.4.3-.2,1-.4,2-.4s1.6.1,2,.4c.4.2.5.7.5,1.4s0,.9-.2,1.7-.3,1.8-.4,2.8c-.2,1.1-.4,2.1-.6,3.1-.2,1-.4,1.9-.5,2.6s-.2,1.2-.2,1.3Z"/>
          </g>
          <g class="st2">
            <path class="st6" d="M397.9,231.8c-2.6.2-4.8,0-6.8-.6-2-.6-3.5-1.7-4.6-3.2-1.1-1.5-1.6-3.6-1.6-6.3s.6-5.6,1.8-7.8,2.7-3.9,4.5-5.2c-1.6.3-3.1.6-4.7,1.1-1.6.5-3.3,1.1-5.1,1.8-.5.2-1,.4-1.6.7-.6.3-1.1.4-1.6.4-.8,0-1.4-.2-1.9-.7-.5-.5-.9-1.1-1.1-1.7-.2-.7-.4-1.3-.5-1.8.2-.4.4-.4.8-.3.2.5.5.8.9,1.1s1,.3,1.8.3,1.6-.1,2.7-.3c1.2-.2,2.5-.5,4-.8,1.5-.3,3.1-.7,4.8-1.1s3.4-.7,5.2-1.1c1.7-.3,3.4-.6,5.1-.9.5,0,.9-.1,1.2-.1s.5.1.8.3c.6.5,1,.9,1.2,1.4.2.5.2.9,0,1.1-.2.3-.7.4-1.3.3-.9-.1-2-.2-3.1-.3s-2.2,0-3.4,0c-1.1.2-2.1.5-3,1.2-2,1.3-3.4,3-4.1,5.1-.7,2.1-1.1,4.5-1,7.2,0,2.7.9,4.6,2.6,5.8s4.1,1.6,7.2,1.3c.3,0,.5,0,.6,0,.2,0,.3.1.5.3,1,.8,1.3,1.4,1.1,1.9s-.7.8-1.5.8ZM399.9,219.2c-.2,0-.5,0-.7-.2-.2-.1-.4-.4-.5-.9-.2-1-.5-1.9-1-2.8-.4-.9-1-1.7-1.8-2.4,0-.4.1-.6.5-.6.8.3,1.5.7,2.1,1.2.7.5,1.2,1.1,1.7,1.7.4.6.7,1.3.8,2,0,.6,0,1.1-.3,1.4s-.6.6-.8.6ZM404.6,216.9c-.2,0-.5,0-.7-.1-.2-.1-.4-.4-.6-.8-.4-.9-.9-1.7-1.4-2.5-.6-.8-1.3-1.5-2.3-2.1-.1-.4,0-.6.4-.7.7.2,1.5.5,2.3.8.8.4,1.5.8,2.1,1.4.6.5,1,1.1,1.1,1.7.2.6.1,1,0,1.5-.2.4-.4.7-.7.7Z"/>
          </g>
          <g class="st2">
            <path class="st6" d="M413,234.1c-.2,0-.4-.1-.5-.3-.1-.1-.2-.3-.1-.5,1.8-1.7,3.1-3.8,3.9-6.3.8-2.4,1.4-5.4,1.6-8.7.3-3.4.4-7.3.4-11.7s0-4.1-.1-5.2c0-1.1-.2-1.9-.4-2.4,0-.2,0-.4,0-.5s.3-.1.5,0c.3,0,.6.3,1,.5.4.3.9.5,1.3.8.5.3.8.5,1.1.7h14.1c0-.6,0-1.3,0-2,0-.7,0-1.4,0-2.1,0-1.4,0-2.4-.2-3.2s-.2-1.3-.4-1.6c0-.2,0-.4,0-.5,0-.1.2-.2.5,0,.3,0,.8.1,1.3.2.6.1,1.2.2,1.8.4.6.1,1.1.2,1.4.3.3,0,.4.3.4.6,0,.3-.2.5-.5.5-.3,0-.6,0-.9.2-.3,0-.4.4-.5.9,0,2.2,0,4.4,0,6.3h10.7c.3,0,.5,0,.7-.2s.3-.3.6-.6c.3-.3.6-.7.9-1,.3-.3.5-.6.6-.6.3-.3.6-.3.9,0,.2.1.5.4,1,.8.5.4.9.8,1.4,1.2.4.4.7.7.9.8.3.2.4.5.3.8,0,.3-.2.5-.5.5h-17.3c.2,3.6.6,6.8,1.3,9.6.7,2.8,1.5,5.3,2.4,7.4,2-3.3,3.5-7.1,4.5-11.5,0-.4.2-.8.2-1.1,0-.3,0-.6,0-.8,0-.4,0-.7.2-.8.2,0,.4,0,.5,0,.3.1.8.3,1.3.6.6.3,1.2.6,1.8,1,.6.3,1.1.6,1.4.8.3.1.3.4.1.7-.1.3-.3.4-.6.3-.5-.1-.9-.2-1.3,0-.3,0-.6.3-.7.8-.6,2.5-1.4,4.8-2.4,6.9-1,2.2-2.2,4.2-3.5,6,1,1.6,2.1,2.9,3.2,4,1.1,1.1,2.3,1.9,3.5,2.6.4.2.8.3,1.1.3.3,0,.6-.2.9-.6.2-.3.4-.7.7-1.3.3-.6.6-1.3.9-2,.3-.7.6-1.4.8-2,.2-.6.4-1,.5-1.2.4-.2.7-.1,1,.3,0,.2-.2.6-.3,1.3-.2.7-.3,1.4-.5,2.3s-.3,1.6-.5,2.3c-.1.7-.2,1.1-.3,1.3,0,.3,0,.6,0,.7,0,.2.1.4.3.6.4.3.6.6.8,1s.2.7,0,1.2c-.2.5-.8.8-2,.9s-2.4-.3-3.9-1.3c-1.4-.9-2.8-2-4.2-3.2-1.4-1.3-2.7-2.9-3.9-4.8-2,2.2-4.4,4.1-7.2,5.8-2.8,1.7-6,3.1-9.8,4.2-.4-.2-.5-.5-.3-1,3.5-1.4,6.5-3.1,9.1-5s4.9-4.1,6.7-6.6c-1.1-2.3-2.1-5-2.9-8.2-.8-3.2-1.4-7-1.7-11.5h-14.6v8.4h7.3c.2,0,.4,0,.5-.2.2-.2.4-.4.7-.7.3-.3.5-.6.8-.8.2-.2.3-.2.4-.2s.3,0,.5.2c.3.2.8.6,1.3,1.1.6.5,1,.9,1.3,1.2.4.4.4.7,0,.9-.3.2-.7.4-1.2.6-.3.1-.4.4-.4.7v2.4c0,4.5-.6,7.8-1.8,9.9-1.2,2.1-3.1,3.3-5.7,3.8-.3-1.1-.7-1.9-1.3-2.4-.6-.5-1.6-1-3-1.4,0-.2-.1-.4,0-.6,0-.2.2-.3.3-.4.6.1,1.3.3,2.1.4.8.1,1.7.2,2.8.2s2.2-.8,2.8-2.5c.7-1.6,1-4.3,1-7.9v-2.8h-8.3c0,3.4-.4,6.6-.9,9.5s-1.4,5.4-2.6,7.6c-1.2,2.2-2.8,4-4.8,5.3ZM448.6,198.9c-.3.2-.6.2-.9,0-.3-.1-.6-.5-1-1.1-.6-1-1.3-1.8-1.9-2.5-.7-.7-1.6-1.4-2.8-2,0-.2,0-.4,0-.6,0-.2.2-.3.4-.4,1.5.3,2.9.7,4.1,1.3,1.2.6,2,1.2,2.4,1.9.4.7.6,1.4.5,2-.1.6-.4,1.1-.9,1.3Z"/>
            <path class="st6" d="M466.6,225.4c-.3.1-.5,0-.7-.2-.2-.3-.5-.8-.8-1.4s-.7-1.2-1-1.8c-.3-.6-.6-1.1-.7-1.4,0-.2,0-.4,0-.5,0,0,.4-.1.8,0,.2,0,.4,0,.6,0s.5,0,.8,0c.9,0,2-.2,3.2-.5,1.2-.2,2.4-.4,3.7-.7v-18.8h-5.7c-1.1,0-1.9.1-2.5.2l-.4-2.1c.8.2,1.8.3,3,.4h13.1c.3,0,.4,0,.5-.2.2-.2.5-.5.9-1,.4-.5.8-.9.9-1.1.3-.3.5-.3.9,0,.4.2.8.6,1.4,1.2.6.5,1.1,1,1.3,1.3.3.3.4.6.3.9,0,.3-.3.4-.6.4h-10v18.1c2.1-.5,4.1-1,6-1.5,1.9-.5,3.4-1,4.6-1.3.2,0,.3.1.4.3,0,.2,0,.4,0,.6-1,.5-2.2,1-3.7,1.7s-3.2,1.3-5,1.9c-1.8.7-3.5,1.3-5.3,1.9-1.8.6-3.3,1.1-4.7,1.5-.4.1-.6.3-.7.5,0,.2,0,.6,0,1.1,0,.3,0,.5-.3.6ZM472.2,234.4c-.5-.2-.6-.5-.4-.9,3.8-1.6,7-3.8,9.8-6.6,2.7-2.8,4.9-6.1,6.4-9.9,1.5-3.8,2.4-7.8,2.4-12.2h-6.4c-1.1,0-1.9.1-2.5.2l-.4-2.1c.8.2,1.8.3,2.9.4h6.4v-5.2c0-2.2,0-3.7-.2-4.7-.1-.9-.3-1.5-.4-1.8-.1-.2-.1-.4,0-.5,0,0,.3-.1.5,0,.4,0,.8.1,1.5.3.6.2,1.3.3,1.9.5.7.2,1.2.3,1.5.4.3,0,.4.2.4.6,0,.3-.2.5-.5.5-.3,0-.7.1-1,.2s-.5.4-.5.9v8.9h6.3c.2,0,.4,0,.5-.2.3-.3.6-.6.9-1s.6-.7.8-.9c.2-.3.5-.3.9,0,.2.1.5.4.9.8.4.4.8.8,1.3,1.2.4.4.7.7.9.8.2.1.2.3.2.5,0,.2-.2.3-.4.5-.3.1-.5.3-.8.4-.3.1-.6.3-.8.4-.1,0-.2.1-.3.2s-.1.3-.2.6c-.3,5.2-.7,9.5-1.2,12.9-.5,3.4-1.2,6-2.1,8-.9,2-2,3.4-3.4,4.2-1.4.9-3,1.4-5,1.6-.3-1.3-.9-2.3-1.7-2.9-.9-.6-2-1.2-3.5-1.7-.2-.5,0-.8.4-1,0,0,.2,0,.4,0,.1,0,.3,0,.4,0,.8.2,1.7.5,2.7.7,1.1.2,2.1.3,3.2.3,1.2,0,2.3-.6,3.1-1.8.8-1.2,1.5-2.9,2-5.1.5-2.2.9-4.8,1.2-7.7s.5-6.1.6-9.6h-7.3c-.1,4.3-.8,8.1-2.1,11.4-1.2,3.3-2.9,6.2-4.9,8.6s-4.3,4.4-6.8,6c-2.5,1.6-5,2.8-7.6,3.6Z"/>
            <path class="st6" d="M525.2,229.2c-.3.2-.7.3-1.2.3s-1-.2-1.4-.5c-1.1-.8-2.1-2.1-2.8-3.8-.8-1.7-1.2-4.1-1.2-7.2s.1-4,.4-5.7c.3-1.7.6-3.2.9-4.6.4-1.4.7-2.7.9-3.9.3-1.2.4-2.5.4-3.7s-.1-1.3-.4-1.9c-.3-.6-.6-1.1-.9-1.5,0-.2,0-.4.2-.6s.3-.2.5-.2c.9.5,1.8,1.3,2.6,2.3s1.2,2.1,1.2,3.3-.2,1.9-.5,2.8-.7,2-1.2,3.2-.9,2.6-1.2,4.2-.5,3.6-.5,5.8,0,2,.3,2.8c.2.8.4,1.4.7,1.9.2.3.3.4.5.4.2,0,.3-.2.4-.5.3-1,.7-2.1,1.1-3.3.4-1.2.8-2.4,1.2-3.6s.7-2,.9-2.5c.5-.2.8,0,.9.4-.2.6-.4,1.5-.7,2.6s-.6,2.4-.9,3.7c-.3,1.4-.5,2.8-.6,4.2,0,.6,0,1.1,0,1.3s.3.8.7,1.4c.3.4.4.9.2,1.4-.1.5-.4.9-.7,1.1ZM543.3,227.2c-2.6,0-4.7-.3-6.2-.9-1.5-.6-2.6-1.4-3.4-2.5-.7-1.1-1.3-2.4-1.6-4,.1-.2.3-.3.5-.4.2,0,.4,0,.5.1.5,1.2,1.2,2.1,2.1,2.7.8.6,1.9,1,3.2,1.2,1.3.2,2.9.3,4.8.3s2.8,0,4.1-.2c1.3-.2,2.4-.4,3.5-.6.3,0,.6,0,.7,0,.1,0,.3,0,.5.2,0,0,0,0,0,0,1,.5,1.5,1.2,1.6,1.9,0,.8-.4,1.2-1.4,1.4-2.6.5-5.5.8-8.9.8ZM541.2,203.7c-2.1,0-3.8-.2-5.1-.7-1.3-.5-2.4-1.4-3.2-2.6,0-.4.3-.7.8-.7.6.5,1.5.8,2.7,1,1.2.1,2.5.2,4,0,1.4-.1,2.8-.3,4-.6,1.3-.2,2.2-.5,2.9-.7.4-.2.9-.2,1.4,0,.5.1,1,.4,1.4,1,.7.7,1,1.3.8,1.7-.2.4-.8.7-1.9.9-.7.1-1.8.3-3.2.4-1.5.2-3,.3-4.6.3Z"/>
            <path class="st6" d="M593.4,234.4c-.3-.9-.6-1.6-1.1-2.1-.4-.5-1-.8-1.6-1.1-.7-.2-1.6-.4-2.6-.6-.1-.2-.2-.3-.1-.5,0-.2.2-.3.3-.4.2,0,.7,0,1.3,0s1.4,0,2.2.1c.8,0,1.4,0,1.9,0,.8,0,1.2-.3,1.2-1v-3.3h-17.7c1.3.4,2.5,1,3.8,1.7,1.2.7,2.2,1.6,2.8,2.7.4.6.5,1.4.3,2.2-.1.8-.5,1.4-1.2,1.6-.3,0-.5,0-.8,0-.3-.1-.5-.4-.8-1-.7-1.4-1.5-2.7-2.5-4s-2-2.2-3.1-2.8c0-.2,0-.4,0-.5h-8.9c-1.1,0-1.9.1-2.5.2l-.4-2.1c.8.2,1.8.4,2.9.4h27.9v-3.7h-10.7c-3.1,0-5.7-.5-7.6-1.4-1.9-.9-3.2-2.2-3.8-3.6-1.7,1.6-3.3,3.1-4.8,4.3-.3.3-.4.7,0,1.3,0,.3,0,.5-.2.6-.2.2-.5.2-.6,0-.2-.2-.5-.5-.9-1-.4-.4-.8-.8-1.2-1.3-.4-.4-.7-.8-1-1s-.2-.3,0-.4c0-.2.3-.2.7-.3.4,0,.8-.1,1.4-.3.8-.3,1.7-.6,2.6-1.1.9-.4,1.7-.9,2.4-1.3v-7.4h-4.3c-1.1,0-1.9.1-2.5.2l-.4-2.1c.8.2,1.8.3,2.9.4h3.3c.2,0,.4,0,.6-.2,0,0,.2-.2.4-.4.2-.2.4-.4.6-.6s.3-.4.4-.4c.3-.3.5-.3.8,0,.2.1.5.3.8.6.4.3.7.6,1.1.9.4.3.6.5.8.7.2.1.2.3.2.5s0,.3-.3.4c-.2,0-.5.2-.7.4-.3.1-.5.3-.7.4-.2,0-.3.1-.3.2s0,.2,0,.4v4.4c0,1.5,1,2.7,2.8,3.6,1.8.9,4.4,1.3,7.7,1.3s2.5,0,4.1,0c1.6,0,3.3,0,5.1,0s3.6-.1,5.4-.2c1.8,0,3.4-.2,5-.3,1.6,0,2.9-.2,4-.3-.5.4-.9,1-1.2,1.6-.3.6-.5,1.1-.6,1.7h-8.2v3.7h3.2c.2,0,.4,0,.5-.2,0,0,.3-.3.6-.6l.8-.8.5-.5c.3-.3.5-.3.9,0,.3.2.8.6,1.5,1.1s1.2.9,1.6,1.3c.3.2.4.5.3.8,0,.3-.2.5-.5.5h-9.3c0,.5,0,1.2,0,1.8,0,.7,0,1.3,0,1.7,0,1.4-.4,2.5-1.1,3.2-.7.8-1.9,1.4-3.4,1.8ZM573.3,199.8c-.3.1-.6.2-.9,0-.3,0-.5-.3-.8-.7-.7-1.1-1.5-2.1-2.6-3s-2-1.6-2.9-2c0-.2-.1-.4,0-.6,0-.2.2-.3.4-.4,1.5.3,2.9.7,4.1,1.3,1.2.6,2.2,1.2,2.7,1.8.5.5.7,1.2.7,1.9,0,.8-.3,1.3-.8,1.5ZM580,217.1c-.5,0-.8-.2-.8-.7s0-.8,0-2,0-2.6.1-4.3c0-1.8,0-3.7,0-5.9s0-2.5,0-3.1c0-.7-.2-1.1-.3-1.5,0-.2,0-.4,0-.5.2-.2.3-.2.5,0,.2,0,.5.3.9.5.4.2.8.5,1.2.7.4.3.8.5,1,.6h4.5l.7-2.9h-9.8c-1.1,0-1.9.1-2.5.2l-.4-2.1c.8.2,1.8.3,2.9.4h7.3c-.2-.2-.3-.4-.4-.6-.4-.8-1-1.6-1.8-2.4-.8-.8-1.6-1.4-2.3-1.7,0-.5,0-.8.5-.9,1,.2,2.1.6,3.2,1,1.2.4,2,1,2.5,1.8.4.6.6,1.1.5,1.7s-.3.9-.7,1.2h6.2c.2-.5.4-1.1.6-1.9.3-.8.5-1.5.6-2.2.1-.6.2-1.1.1-1.4s0-.5.1-.6c0-.1.3-.1.5,0,.5.2,1.1.5,1.9.8.8.4,1.4.6,1.9.8.3.1.4.4.3.7-.2.3-.4.4-.6.4-.6-.1-1,0-1.3.4-.4.5-.8,1-1.3,1.5s-.9,1-1.3,1.4h6.9c.2,0,.4,0,.5-.2s.3-.3.6-.6c.3-.3.6-.6.8-.9s.5-.5.5-.5c.3-.3.5-.3.9,0,.2.1.4.4.7.7l1,1c.3.3.6.6.7.7.3.3.4.6.3.8,0,.3-.3.4-.6.4h-15l-2.8,2.9h8.5c.2,0,.4,0,.5-.2l1.4-1.4c.3-.3.6-.3.9,0,.3.2.8.6,1.4,1.1.6.5,1.1.9,1.3,1.1.2.1.2.3.2.5s-.1.3-.4.5c-.2.1-.4.2-.6.3-.2,0-.4.2-.6.3-.1,0-.2.1-.3.2,0,0,0,.3,0,.6,0,1,0,2.1,0,3.4,0,1.3.1,2.5.2,3.8,0,1.2.1,2.3.2,3.2,0,.9,0,1.4,0,1.6,0,.3-.3.5-.8.8-.6.2-1.1.3-1.6.3s-.9-.2-.9-.7v-1.4h-16.3v1.2c0,.3-.2.5-.7.8-.5.2-1,.3-1.7.3ZM582.4,205.1h16.3v-2.7h-16.3v2.7ZM582.4,209.2h16.3v-2.7h-16.3v2.7ZM582.4,213.4h16.3v-2.7h-16.3v2.7Z"/>
            <path class="st6" d="M641.6,233.8c-.4.2-.8.3-1.1.2-.3-.1-.6-.5-.9-1-.8-1.6-1.7-3.3-2.8-5.3-1.1-2-2.4-4-3.9-6-1.5-2-3.1-4-4.9-5.7-.5-.5-.9-1-1.1-1.2-.2-.3-.3-.7-.3-1.3,0-.5,0-.9.3-1.4.2-.4.6-1,1.3-1.6s1.2-1.3,2.1-2.3c.9-1,1.8-2.2,2.8-3.4,1-1.3,1.9-2.5,2.8-3.7s1.6-2.2,2.1-3.1c1.2-1.9,1.1-3.4-.2-4.4,0-.5.1-.8.6-.8.4.2,1.1.5,1.8.9.8.4,1.4.9,2,1.4.4.4.7.7.8,1.1.1.4.2.7.1,1.1,0,.4-.3.8-.7,1.2-.4.4-.8.8-1.3,1.2-.7.6-1.6,1.5-2.6,2.5-1,1.1-2.1,2.2-3.2,3.5-1.1,1.2-2.1,2.4-3,3.4-.9,1-1.6,1.8-2.1,2.3-.4.5-.7.8-.8,1.1-.1.2-.2.5-.2.9,0,.4.1.7.3.9.2.3.6.8,1.4,1.5.9.8,1.8,1.7,3,2.9,1.1,1.1,2.2,2.4,3.4,3.6,1.1,1.3,2.2,2.6,3.1,3.8.9,1.2,1.7,2.4,2.1,3.4.4.9.6,1.8.4,2.7-.2.9-.6,1.5-1.1,1.8Z"/>
          </g>
        </g>
      </g>
    </g>
    <g id="_グループ_32990" data-name="グループ_32990">
      <g id="_グループ_22838" data-name="グループ_22838">
        <path id="_合体_4" data-name="合体_4" class="st5" d="M63.9,46l27.3,83.7-59.9,20.3L63.9,46ZM.7,22.8l59,8.3-28.4,89.4L.7,22.8ZM63.9,17.9h60.4l-7.7,8.7,8.9,2.5-27.7,90.5L63.9,17.9Z"/>
        <path id="_パス_15424" data-name="パス_15424" class="st1" d="M140.2,0l1.8,12.6,3.1,22-9.3-2.6-37.9,118,65-29.3,31.4-94.4L140.2,0Z"/>
      </g>
      <g id="_グループ_32992" data-name="グループ_32992">
        <path id="_合体_3" data-name="合体_3" class="st0" d="M241.1,58.8l-15.3,51-13.7-43.5h-12.7l6.6-5.5h10.2s9.5,30.3,9.5,30.3l14.8-49.2,20.3,52.3,19-62.7-2.4-.8,8.4-8.6,2,11.9-2.8-.9-23.6,77.8-20.3-52.3ZM487.3,63.8h6.1l12.2,30.3,12.2-30.3h6.2l-18.4,42.5-18.3-42.5ZM628.1,99.7c-3.9-4-5.9-9.1-5.9-15.4s2-11.8,6.1-15.9,9.4-6.1,15.9-6.1c2.3,0,4.6.2,6.8.7,2,.4,3.9,1.1,5.7,2v6.1c-1.9-1.3-3.9-2.3-6-2.9-2.1-.6-4.3-1-6.5-1-5,0-8.9,1.6-11.8,4.8-2.9,3.2-4.4,7.4-4.4,12.7-.1,4.3,1.5,8.5,4.6,11.6,3.1,3.1,7.3,4.7,11.7,4.6,2.2,0,4.4-.4,6.6-1.1,2.3-.8,4.5-1.9,6.5-3.4v6.1c-2,1.1-4.2,2-6.5,2.5-2.5.6-5,.8-7.6.8-5.6.2-11.1-2-15-6ZM668.1,99.6c-3.6-3.9-5.4-9.1-5.4-15.4,0-6.5,1.8-11.8,5.4-15.9,3.6-4,8.7-6.2,14.1-6,5.5,0,10,1.9,13.3,5.6,3.3,3.7,5,8.7,5,14.8v1.2h-31.8c.2,5.2,1.4,9.2,3.9,12.2,2.4,2.9,6,4.6,9.8,4.4,2.8,0,5.5-.8,7.7-2.4,2.4-1.9,4.4-4.4,5.5-7.2l5.1,2.8c-1.7,3.6-4.2,6.7-7.5,8.9-3.3,2-7.1,3-10.9,2.9-5.9,0-10.6-2-14.2-5.9ZM673,70.8c-2.3,2.2-3.7,5.2-3.9,8.4h24.8c-.3-3.7-1.5-6.5-3.6-8.5s-5.1-3-8.8-3c-3.1,0-6.1,1-8.4,3.1h0ZM532.3,99.6c-3.5-3.9-5.2-9.1-5.2-15.6,0-6.4,1.7-11.6,5.2-15.7,5.6-6.3,14.8-7.9,22.2-3.8,2.5,1.6,4.5,3.8,5.7,6.6v-7.3h5.5v39.9h-5.5v-7.3c-2.3,5.7-7.9,9.3-14,9.1-5.7,0-10.4-2-13.9-5.9ZM536.9,71.9c-2.4,3-3.7,7.1-3.7,12.3s1.2,9.1,3.5,11.9,5.7,4.2,10,4.2c3.9.2,7.5-1.5,9.9-4.6,2.4-3,3.6-7.2,3.6-12.6,0-4.9-1.2-8.7-3.6-11.6-2.5-2.8-6.1-4.4-9.9-4.2-3.8-.2-7.5,1.5-9.9,4.5h0ZM446.5,99.6c-3.5-3.9-5.2-9.1-5.2-15.6s1.7-11.6,5.2-15.7c3.3-4,8.2-6.2,13.4-6.1,3.1,0,6.1.7,8.8,2.2,2.5,1.6,4.5,3.8,5.7,6.6v-37.2h5.6v69.8h-5.6v-7.3c-2.2,5.7-7.8,9.3-13.9,9.1-5.7,0-10.4-2-13.9-5.9ZM451.1,71.9c-2.4,3-3.6,7.1-3.6,12.3s1.2,9.1,3.5,11.9c2.3,2.8,5.7,4.2,10,4.2,3.8.2,7.5-1.5,9.9-4.6,2.4-3,3.6-7.2,3.6-12.6s-1.2-8.7-3.6-11.6c-5.1-5.4-13.5-5.6-18.9-.6-.3.3-.6.6-.8.9h0ZM343.5,103.2c-2.5-1.7-4.4-4-5.5-6.8v7.3h-5.5V34h5.5v37.2c1.2-2.7,3.2-5,5.7-6.6,2.7-1.5,5.7-2.3,8.8-2.2,5.2-.1,10.1,2.1,13.4,6.1,3.5,4,5.2,9.3,5.2,15.7,0,6.5-1.7,11.6-5.2,15.6-3.5,3.9-8.1,5.9-13.8,5.9-3,0-5.9-.7-8.4-2.3ZM341.4,71.6c-2.4,2.8-3.6,6.7-3.6,11.6s1.2,9.5,3.6,12.6c2.4,3,6.1,4.7,9.9,4.6,4.3,0,7.6-1.4,9.9-4.2,2.3-2.8,3.5-6.8,3.5-12,0-5.2-1.2-9.3-3.6-12.3-4.9-5.5-13.4-6-18.9-1.1-.3.3-.6.5-.8.8h0ZM289.7,99.6c-3.6-3.9-5.4-9.1-5.4-15.4,0-6.5,1.8-11.8,5.4-15.9,3.6-4,8.7-6.2,14.1-6,5.5,0,10,1.9,13.3,5.6s5,8.7,5,14.8v1.2h-31.8c.2,5.2,1.4,9.2,3.9,12.2,2.4,2.9,6,4.6,9.8,4.4,2.8,0,5.5-.8,7.7-2.4,2.4-1.9,4.4-4.4,5.5-7.2l5.1,2.8c-1.7,3.6-4.2,6.7-7.5,8.9-3.3,2-7.1,3-10.9,2.9-5.9,0-10.6-2-14.2-5.9ZM294.5,70.8c-2.3,2.2-3.7,5.2-3.9,8.4h24.8c0-3.2-1.4-6.3-3.6-8.5-2.2-2-5.1-3-8.8-3-3.1,0-6.1,1-8.4,3.1h0ZM606.7,103.8v-24.6c0-4-.8-7-2.5-8.9-1.7-1.9-4.2-2.9-7.7-2.9-4.2,0-7.3,1.3-9.3,3.8-2,2.5-3,6.4-3,11.8v20.8h-5.5v-39.9h5.3v6.2c1.5-2.4,3.5-4.4,6-5.7,2.5-1.3,5.3-2,8.1-1.9,4.5,0,8.1,1.3,10.6,3.8,2.5,2.5,3.8,6,3.8,10.5v27.1h-5.6ZM430.9,103.8l-14.5-37.6-29.6,37.6h-6.1l.8-1.9h-.3c0,0,.7-.9.7-.9l27.8-65.8,8.8,21.7,10.3-12.5-3-2.2,10.8-5.3-2.1,11.9-2.7-2-11.6,14.7,17.2,42.4h-6.5ZM393.6,86.9l21.1-25.4-5.3-13.9-15.7,39.3Z"/>
        <g id="_グループ_32994" data-name="グループ_32994">
          <g id="SAPPORO" class="st2">
            <g class="st2">
              <path class="st4" d="M504.8,125.5c-1.1-.4-2.2-.6-3.2-.6-1.4,0-2.5.3-3.4.8-.9.5-1.5,1.1-1.8,1.8-.4.7-.5,1.4-.5,2s.2,1.5.7,2.1,1.1,1.1,1.8,1.5c.7.4,1.7.9,2.9,1.5,1.3.6,2.3,1.1,3.2,1.7.8.5,1.5,1.2,2.1,2.1.6.9.8,1.9.8,3.2s-.3,2.3-.9,3.5c-.6,1.2-1.5,2.2-2.8,3s-2.8,1.2-4.7,1.2-3.3-.3-4.7-.9c-1.4-.6-2.6-1.3-3.6-2.2l1-1.4c.8.8,1.9,1.5,3.2,2.1,1.3.6,2.7.9,4.1.9s2.5-.3,3.5-.9c1-.6,1.7-1.3,2.2-2.2.5-.9.8-1.9.8-2.8s-.5-2.5-1.4-3.3c-.9-.8-2.3-1.6-4.1-2.4-1.3-.6-2.3-1.1-3.1-1.6s-1.5-1.1-2.1-1.9c-.6-.8-.8-1.7-.8-2.7s.3-2.4,1-3.4c.7-1,1.6-1.7,2.7-2.2,1.1-.5,2.4-.8,3.8-.8,1.2,0,2.5.2,3.7.6,1.2.4,2.3.9,3.3,1.5l-.9,1.3c-.9-.5-1.8-.9-3-1.3Z"/>
              <path class="st4" d="M531.2,140.5h-11.2l-4.4,8.5h-1.8l14.1-26.7h.1l7.5,26.7h-2l-2.3-8.5ZM530.8,138.8l-3.4-12.3-6.4,12.3h9.9Z"/>
              <path class="st4" d="M557.5,124.1c1.1.5,2,1.2,2.7,2.1.7,1,1,2.1,1,3.6s-.3,2.8-1,4.1-1.7,2.3-3.1,3.1c-1.4.8-3.1,1.2-5.1,1.2h-3.9l-1.3,10.7h-1.8l3.1-25.6h5.8c1.2,0,2.4.2,3.5.7ZM556.4,135.4c1.1-.7,1.8-1.6,2.3-2.6.5-1,.7-1.9.7-2.9,0-1.4-.5-2.6-1.5-3.5-1-.9-2.4-1.4-4.1-1.4h-4l-1.4,11.4h3.9c1.7,0,3-.4,4.1-1.1Z"/>
              <path class="st4" d="M580.9,124.1c1.1.5,2,1.2,2.7,2.1.7,1,1,2.1,1,3.6s-.3,2.8-1,4.1-1.7,2.3-3.1,3.1c-1.4.8-3.1,1.2-5.1,1.2h-3.9l-1.3,10.7h-1.8l3.1-25.6h5.8c1.2,0,2.4.2,3.5.7ZM579.8,135.4c1.1-.7,1.8-1.6,2.3-2.6.5-1,.7-1.9.7-2.9,0-1.4-.5-2.6-1.5-3.5-1-.9-2.4-1.4-4.1-1.4h-4l-1.4,11.4h3.9c1.7,0,3-.4,4.1-1.1Z"/>
              <path class="st4" d="M598,147.7c-1.9-1-3.4-2.4-4.5-4.2-1.1-1.8-1.7-3.9-1.7-6.3s.5-4.4,1.6-6.6c1.1-2.2,2.7-3.9,4.8-5.3,2.1-1.4,4.6-2.1,7.5-2.1s4.3.5,6.2,1.5c1.9,1,3.4,2.4,4.5,4.2,1.1,1.8,1.7,4,1.7,6.4s-.5,4.4-1.6,6.5c-1.1,2.1-2.7,3.9-4.8,5.3-2.1,1.4-4.6,2.1-7.5,2.1s-4.3-.5-6.2-1.5ZM610.6,145.7c1.8-1.2,3.2-2.8,4.2-4.7.9-1.9,1.4-3.8,1.4-5.7s-.5-3.6-1.4-5.2c-.9-1.6-2.2-2.9-3.8-3.8-1.6-.9-3.4-1.4-5.4-1.4s-4.6.6-6.4,1.8c-1.8,1.2-3.2,2.8-4.2,4.7-.9,1.9-1.4,3.8-1.4,5.7s.5,3.6,1.4,5.2,2.2,2.9,3.8,3.8c1.6.9,3.4,1.4,5.4,1.4s4.6-.6,6.5-1.8Z"/>
              <path class="st4" d="M640.9,148.9l-5.3-10.9c-.6,0-1.2.1-2,.1h-3.9l-1.3,10.7h-1.7l3.1-25.6h5.8c1.2,0,2.4.2,3.5.7,1.1.5,2,1.1,2.7,2.1.7.9,1,2.1,1,3.5s0,.5,0,1c-.2,1.6-.7,3-1.6,4.2-.9,1.3-2.1,2.2-3.7,2.8l5.5,11.3h-2.1ZM633.8,136.5c2.3,0,4.1-.6,5.2-1.7,1.1-1.2,1.8-2.5,2-4.1,0-.1,0-.4,0-.7,0-1.4-.5-2.6-1.4-3.5-1-.9-2.3-1.4-3.9-1.4h-4.3l-1.4,11.4h3.9Z"/>
              <path class="st4" d="M658.9,147.7c-1.9-1-3.4-2.4-4.5-4.2-1.1-1.8-1.7-3.9-1.7-6.3s.5-4.4,1.6-6.6c1.1-2.2,2.7-3.9,4.8-5.3,2.1-1.4,4.6-2.1,7.5-2.1s4.3.5,6.2,1.5c1.9,1,3.4,2.4,4.5,4.2,1.1,1.8,1.7,4,1.7,6.4s-.5,4.4-1.6,6.5c-1.1,2.1-2.7,3.9-4.8,5.3-2.1,1.4-4.6,2.1-7.5,2.1s-4.3-.5-6.2-1.5ZM671.5,145.7c1.8-1.2,3.2-2.8,4.2-4.7.9-1.9,1.4-3.8,1.4-5.7s-.5-3.6-1.4-5.2c-.9-1.6-2.2-2.9-3.8-3.8-1.6-.9-3.4-1.4-5.4-1.4s-4.6.6-6.4,1.8c-1.8,1.2-3.2,2.8-4.2,4.7-.9,1.9-1.4,3.8-1.4,5.7s.5,3.6,1.4,5.2,2.2,2.9,3.8,3.8c1.6.9,3.4,1.4,5.4,1.4s4.6-.6,6.5-1.8Z"/>
            </g>
          </g>
          <path id="_線_1289" data-name="線_1289" class="st4" d="M468.7,140.4h-50v-1h50v1Z"/>
        </g>
      </g>
    </g>
  </g>
</svg>