<?xml version="1.0" encoding="UTF-8"?>
<svg id="_コンポーネント_39_16" data-name="コンポーネント_39_16" xmlns="http://www.w3.org/2000/svg" version="1.1" viewBox="0 0 538 538">
  <!-- Generator: Adobe Illustrator 29.1.0, SVG Export Plug-In . SVG Version: 2.1.0 Build 142)  -->
  <defs>
    <style>
      .st0, .st1, .st2 {
        fill: none;
      }

      .st3 {
        isolation: isolate;
      }

      .st4 {
        fill: #fff;
      }

      .st5 {
        fill: #ffe79a;
      }

      .st1 {
        stroke-dasharray: 2 2;
      }

      .st1, .st2 {
        stroke: #333;
        stroke-width: 2px;
      }

      .st6 {
        fill: #e3eaf5;
      }

      .st7 {
        fill: #e60013;
      }

      .st8 {
        fill: #333;
      }
    </style>
  </defs>
  <g id="_パス_33690" data-name="パス_33690">
    <path class="st6" d="M269,372.5c-7,0-14-.7-20.9-2.1-6.6-1.4-13.2-3.4-19.4-6-6.1-2.6-12-5.8-17.6-9.5-5.5-3.7-10.6-8-15.3-12.6-4.7-4.7-8.9-9.8-12.6-15.3-3.7-5.5-6.9-11.4-9.5-17.6-2.6-6.2-4.7-12.8-6-19.4-1.4-6.8-2.1-13.8-2.1-20.9s.7-14,2.1-20.9c1.4-6.6,3.4-13.2,6-19.4,2.6-6.1,5.8-12,9.5-17.6,3.7-5.5,8-10.6,12.6-15.3,4.7-4.7,9.8-8.9,15.3-12.6,5.5-3.7,11.4-6.9,17.6-9.5,6.2-2.6,12.8-4.7,19.4-6,6.8-1.4,13.8-2.1,20.9-2.1s14,.7,20.9,2.1c6.6,1.4,13.2,3.4,19.4,6,6.1,2.6,12,5.8,17.6,9.5,5.5,3.7,10.6,8,15.3,12.6,4.7,4.7,8.9,9.8,12.6,15.3,3.7,5.5,6.9,11.4,9.5,17.6,2.6,6.2,4.7,12.8,6,19.4,1.4,6.8,2.1,13.8,2.1,20.9s-.7,14-2.1,20.9c-1.4,6.6-3.4,13.2-6,19.4-2.6,6.1-5.8,12-9.5,17.6-3.7,5.5-8,10.6-12.6,15.3-4.7,4.7-9.8,8.9-15.3,12.6-5.5,3.7-11.4,6.9-17.6,9.5-6.2,2.6-12.8,4.7-19.4,6-6.8,1.4-13.8,2.1-20.9,2.1Z"/>
    <path class="st4" d="M269,167c-6.9,0-13.8.7-20.6,2.1-6.5,1.3-13,3.3-19.1,5.9-6,2.6-11.9,5.7-17.3,9.4-5.4,3.6-10.5,7.8-15.1,12.5-4.6,4.6-8.8,9.7-12.5,15.1-3.7,5.5-6.8,11.3-9.4,17.3-2.6,6.2-4.6,12.6-5.9,19.1-1.4,6.7-2.1,13.6-2.1,20.6s.7,13.8,2.1,20.6c1.3,6.5,3.3,13,5.9,19.1,2.6,6,5.7,11.9,9.4,17.3,3.6,5.4,7.8,10.5,12.5,15.1,4.6,4.6,9.7,8.8,15.1,12.5,5.5,3.7,11.3,6.8,17.3,9.4,6.2,2.6,12.6,4.6,19.1,5.9,6.7,1.4,13.6,2.1,20.6,2.1s13.8-.7,20.6-2.1c6.5-1.3,13-3.3,19.1-5.9,6-2.6,11.9-5.7,17.3-9.4,5.4-3.6,10.5-7.8,15.1-12.5,4.6-4.6,8.8-9.7,12.5-15.1,3.7-5.5,6.8-11.3,9.4-17.3,2.6-6.2,4.6-12.6,5.9-19.1,1.4-6.7,2.1-13.6,2.1-20.6s-.7-13.8-2.1-20.6c-1.3-6.5-3.3-13-5.9-19.1-2.6-6-5.7-11.9-9.4-17.3-3.6-5.4-7.8-10.5-12.5-15.1-4.6-4.6-9.7-8.8-15.1-12.5-5.5-3.7-11.3-6.8-17.3-9.4-6.2-2.6-12.6-4.6-19.1-5.9-6.7-1.4-13.6-2.1-20.6-2.1M269,164c58,0,105,47,105,105s-47,105-105,105-105-47-105-105,47-105,105-105Z"/>
  </g>
  <g id="_グループ_34663" data-name="グループ_34663">
    <g id="_楕円形_3" data-name="楕円形_3">
      <circle class="st4" cx="269" cy="269" r="80"/>
      <circle class="st2" cx="269" cy="269" r="79"/>
    </g>
    <g id="_グループ_22866" data-name="グループ_22866">
      <g id="Direction" class="st3">
        <g class="st3">
          <path class="st7" d="M235.7,248.2h3.5c1.5,0,2.7.3,3.7.9,1,.6,1.7,1.3,2.1,2.3.4.9.7,1.9.7,3s-.3,2.1-.8,3c-.5.9-1.2,1.5-2.2,2s-1.9.7-3,.7h-4.1v-11.8ZM239.4,257.8c1.2,0,2.2-.3,2.9-.9.7-.6,1.1-1.5,1.1-2.7s-.2-1.7-.6-2.2-.8-.9-1.4-1.2c-.5-.2-1-.3-1.5-.3h-1.9v7.3h1.4Z"/>
          <path class="st7" d="M248,249.7c.3-.2.5-.3.9-.3s.6.1.8.3c.2.2.4.5.4.8s-.1.6-.4.8c-.2.2-.5.3-.8.3s-.6-.1-.9-.3c-.2-.2-.4-.5-.4-.8s.1-.6.4-.8ZM249.9,253v7h-2.2v-7h2.2Z"/>
          <path class="st7" d="M255.2,253.6c.3-.3.7-.5,1-.7.4-.2.6-.2.8-.2v2.2c-.2,0-.3,0-.4,0-.4,0-.8.1-1.2.4-.3.2-.6.5-.8.9s-.3.7-.3,1.1v2.7h-2.2v-7h2l.2,1.6c.2-.4.5-.7.8-1Z"/>
          <path class="st7" d="M263.3,257.8l1,1.7c-.4.2-.8.4-1.2.5s-.8.2-1.2.2c-.8,0-1.5-.2-2.2-.5s-1.1-.8-1.4-1.3c-.3-.6-.5-1.2-.5-2s.2-1.3.5-1.9.8-1,1.5-1.4c.6-.3,1.3-.5,2-.5s1.8.3,2.5.9c.6.6,1.1,1.4,1.3,2.5l-5.1,1.6c.3.4.8.6,1.4.6s.9-.2,1.4-.5ZM260.5,254.9c-.3.3-.4.8-.4,1.4h0c0,.1,3.1-.9,3.1-.9-.2-.7-.7-1-1.4-1s-.9.2-1.2.5Z"/>
          <path class="st7" d="M272.1,260c-.5.1-.9.2-1.4.2-1.2,0-2.2-.3-2.9-1-.7-.7-1.1-1.6-1.1-2.7s.2-1.4.5-2c.3-.6.8-1,1.4-1.3.6-.3,1.2-.4,1.8-.4,1.2,0,2.1.3,2.8.9l-1.1,1.4c-.5-.4-1-.5-1.5-.5s-.9.2-1.2.5-.5.8-.5,1.3.2,1,.5,1.3c.4.4.8.5,1.4.5s.9-.1,1.2-.4l1.1,1.4c-.3.2-.7.4-1.2.6Z"/>
          <path class="st7" d="M277.8,249.9v3h1.7v1.7h-1.7v5.3h-2.2v-5.3h-1.1v-1.7h1.1v-3h2.2Z"/>
          <path class="st7" d="M281.6,249.7c.3-.2.5-.3.9-.3s.6.1.8.3c.2.2.4.5.4.8s-.1.6-.4.8c-.2.2-.5.3-.8.3s-.6-.1-.9-.3c-.2-.2-.4-.5-.4-.8s.1-.6.4-.8ZM283.5,253v7h-2.2v-7h2.2Z"/>
          <path class="st7" d="M285.7,254.5c.3-.6.8-1,1.4-1.3.6-.3,1.3-.5,2.1-.5s1.5.2,2.1.5,1,.8,1.4,1.3.5,1.2.5,1.9-.2,1.4-.5,1.9c-.3.6-.8,1-1.4,1.4s-1.3.5-2.1.5-1.5-.2-2.1-.5c-.6-.3-1.1-.7-1.4-1.3-.3-.6-.5-1.2-.5-2s.2-1.4.5-1.9ZM288,257.8c.3.4.7.6,1.2.6s.9-.2,1.2-.5.5-.8.5-1.4-.2-1-.5-1.4-.7-.5-1.2-.5-.9.2-1.2.6-.5.8-.5,1.4.2,1,.5,1.4Z"/>
          <path class="st7" d="M301.4,253.3c.4.4.7.9.7,1.5v5.2h-2.2v-4.4c0-.7-.4-1-1-1s-.9.2-1.2.7c-.3.5-.5,1.1-.5,1.9v2.8h-2.2v-7h2l.2,1.1c.3-.5.6-.8,1.1-1.1.5-.3,1-.4,1.6-.4s1.2.2,1.7.6Z"/>
        </g>
      </g>
      <g id="_ディレクション" data-name="ディレクション" class="st3">
        <g class="st3">
          <path d="M220.6,280.1c.4,0,1.2,0,1.6-.1v2.3c-.5,0-1.1,0-1.6,0h-4.3c-.1,1.9-.5,3.4-1.2,4.6-.6,1.2-2,2.6-3.6,3.5l-2.1-1.5c1.3-.5,2.5-1.5,3.3-2.6.7-1.1,1-2.5,1.1-4h-5c-.5,0-1.2,0-1.7,0v-2.4c.5,0,1.2.1,1.7.1h11.8ZM211.1,277.7c-.6,0-1.4,0-1.9,0v-2.3c.6,0,1.3.1,1.9.1h5.9c.6,0,1.3,0,1.9-.1v2.3c-.6,0-1.3,0-1.9,0h-5.9ZM220,277.3c-.4-.7-.9-1.8-1.4-2.5l1.4-.6c.5.7,1.1,1.8,1.4,2.5l-1.4.6ZM222.2,276.4c-.4-.8-1-1.8-1.4-2.5l1.4-.6c.5.7,1.1,1.8,1.4,2.4l-1.4.6Z"/>
          <path d="M235.7,279.4c-.8.9-2.4,2.2-4.1,3.3v6c0,.6,0,1.6.1,1.9h-2.7c0-.4,0-1.3,0-1.9v-4.6c-1.6.8-3.6,1.5-5.1,2l-1.2-2.1c2.3-.5,4.9-1.6,6.4-2.4,1.8-1.1,3.7-2.6,4.6-3.7l1.8,1.7Z"/>
          <path d="M239.4,288.3c.2-.4.2-.8.2-1.2v-9.8c0-.7,0-1.5-.2-2h2.8c-.1.7-.2,1.3-.2,2v9.3c2.9-.8,7-3.1,9.3-5.9l1.3,2c-2.5,3-6.2,5.1-10.4,6.5-.3,0-.6.2-1.1.5l-1.7-1.5Z"/>
          <path d="M269,277.8c-.2.3-.5.8-.6,1.3-.5,1.6-1.5,4-3.1,6-1.7,2.1-3.9,3.7-7.3,5.1l-2.1-1.9c3.7-1.1,5.7-2.7,7.3-4.4,1.2-1.4,2.3-3.6,2.6-4.9h-5.1c-1.2,1.6-2.8,3.2-4.5,4.4l-2-1.5c3.2-1.9,4.7-4.2,5.6-5.8.3-.5.6-1.3.8-1.9l2.6.9c-.4.6-.9,1.4-1.1,1.8h0c0,0,3.6,0,3.6,0,.6,0,1.2,0,1.6-.2l1.8,1.1Z"/>
          <path d="M276,281.4l-1.3,2c-1-.7-2.9-1.9-4.1-2.6l1.3-2c1.2.6,3.2,1.9,4.1,2.5ZM277.5,285.5c3.1-1.7,5.6-4.2,7-6.8l1.4,2.4c-1.7,2.5-4.2,4.8-7.2,6.5-1.8,1-4.4,1.9-6,2.2l-1.4-2.4c2-.3,4.2-1,6.1-2ZM278.8,277.3l-1.4,2c-1-.7-2.9-1.9-4.1-2.6l1.3-2c1.2.7,3.2,1.9,4.1,2.6Z"/>
          <path d="M298.7,289.1c0,.3,0,.9,0,1.2h-2.3c0-.2,0-.5,0-.7h-6.8c-.5,0-1.2,0-1.5,0v-2.2c.3,0,.9,0,1.6,0h6.8v-2.4h-5.7c-.7,0-1.5,0-2,0v-2.1c.5,0,1.3,0,2,0h5.7v-2.2h-5.9c-.7,0-1.8,0-2.2,0v-2.2c.5,0,1.6,0,2.2,0h6.8c.4,0,1.1,0,1.4,0,0,.2,0,.8,0,1.2v9Z"/>
          <path d="M308.8,284.9c3.1-1.8,5.4-4.6,6.6-7l1.4,2.5c-1.4,2.4-3.8,4.9-6.7,6.7-1.8,1.1-4.1,2.1-6.7,2.5l-1.5-2.4c2.8-.4,5.2-1.3,6.9-2.4ZM308.8,279.1l-1.8,1.9c-.9-1-3.2-3-4.5-3.9l1.7-1.8c1.3.8,3.6,2.7,4.6,3.8Z"/>
        </g>
      </g>
    </g>
  </g>
  <g id="_楕円形_7" data-name="楕円形_7">
    <circle class="st0" cx="269" cy="269" r="189"/>
    <circle class="st1" cx="269" cy="269" r="188"/>
  </g>
  <g id="_グループ_32164" data-name="グループ_32164">
    <g id="_楕円形_3-2" data-name="楕円形_3-2">
      <circle class="st4" cx="269" cy="80" r="80"/>
      <circle class="st2" cx="269" cy="80" r="79"/>
    </g>
    <g id="_グループ_22866-2" data-name="グループ_22866-2">
      <g id="Design" class="st3">
        <g class="st3">
          <path class="st7" d="M244,59.2h3.5c1.5,0,2.7.3,3.7.9,1,.6,1.7,1.3,2.1,2.3.4.9.7,1.9.7,3s-.3,2.1-.8,3c-.5.9-1.3,1.5-2.2,2s-1.9.7-3,.7h-4.1v-11.8ZM247.7,68.8c1.2,0,2.2-.3,2.9-.9.7-.6,1.1-1.5,1.1-2.7s-.2-1.7-.6-2.2c-.4-.6-.8-.9-1.4-1.2-.5-.2-1-.3-1.5-.3h-1.9v7.3h1.4Z"/>
          <path class="st7" d="M260.8,68.8l1,1.7c-.4.2-.8.4-1.2.5-.4.1-.8.2-1.2.2-.8,0-1.5-.2-2.2-.5s-1.1-.8-1.4-1.3c-.3-.6-.5-1.2-.5-2s.2-1.3.5-1.9.8-1,1.5-1.4,1.3-.5,2-.5,1.8.3,2.5.9c.6.6,1.1,1.4,1.3,2.5l-5.1,1.6c.3.4.8.6,1.4.6s.9-.2,1.4-.5ZM258.1,65.9c-.3.3-.4.8-.4,1.4h0c0,.1,3.1-.9,3.1-.9-.2-.7-.7-1-1.4-1s-.9.2-1.2.5Z"/>
          <path class="st7" d="M265.5,70.8c-.5-.2-.9-.5-1.2-.8l.9-1.2c.6.6,1.2.9,1.7.9s.5,0,.7-.1c.2,0,.3-.2.3-.4s-.1-.4-.3-.5c-.2-.1-.4-.2-.7-.3-.3,0-.4-.1-.5-.1-.6-.2-1.1-.5-1.4-.9-.3-.4-.4-.8-.4-1.3s0-.7.3-1.1.5-.7.9-.9.9-.3,1.6-.3,1.1,0,1.5.2c.4.1.8.3,1.2.6l-.8,1.3c-.2-.2-.5-.3-.7-.4-.3-.1-.5-.2-.7-.2s-.5,0-.6.2c-.2.1-.2.2-.2.4,0,.2,0,.4.3.5.2.1.5.2.9.3,0,0,.1,0,.2,0s.1,0,.2,0c1.1.4,1.6,1,1.6,2s-.1.9-.3,1.2c-.2.4-.6.7-1,.9-.5.2-1,.3-1.7.3s-1.1-.1-1.6-.3Z"/>
          <path class="st7" d="M272.3,60.7c.2-.2.5-.3.9-.3s.6.1.8.3c.2.2.4.5.4.8s-.1.6-.4.8-.5.3-.8.3-.6-.1-.9-.3c-.3-.2-.4-.5-.4-.8s.1-.6.4-.8ZM274.2,64v7h-2.2v-7h2.2Z"/>
          <path class="st7" d="M284.3,64v7c0,.7-.2,1.3-.6,1.8-.4.5-.9,1-1.5,1.3-.6.3-1.3.5-2.1.5s-1.1,0-1.5-.2c-.4-.1-.8-.3-1-.5-.3-.2-.6-.4-.9-.7l1.3-1.5c.3.3.6.5,1,.7.3.2.7.3,1.2.3s1-.1,1.4-.4c.4-.3.6-.7.6-1.2v-1c-.2.4-.5.7-1,.9-.4.2-1,.3-1.6.3s-1.2-.2-1.8-.5c-.5-.3-1-.8-1.3-1.3-.3-.6-.5-1.2-.5-1.9s.2-1.3.5-1.9.8-1,1.3-1.4c.5-.3,1.1-.5,1.7-.5s1.1,0,1.5.2c.4.2.8.4,1,.6l.2-.5h2.1ZM282.1,68.3v-1.7c-.1-.3-.4-.6-.7-.8-.3-.2-.7-.3-1.2-.3s-1,.2-1.4.5c-.4.4-.6.8-.6,1.4s.2,1,.6,1.4c.4.4.8.6,1.4.6.9,0,1.5-.4,1.9-1.1Z"/>
          <path class="st7" d="M293.1,64.3c.4.4.7.9.7,1.5v5.2h-2.2v-4.4c0-.7-.4-1-1-1s-.9.2-1.2.7c-.3.5-.5,1.1-.5,1.9v2.8h-2.2v-7h2l.2,1.1c.3-.5.6-.8,1.1-1.1s1-.4,1.6-.4,1.2.2,1.7.6Z"/>
        </g>
      </g>
      <g id="_デザイン" data-name="デザイン" class="st3">
        <g class="st3">
          <path d="M247,91.1c.4,0,1.2,0,1.6-.1v2.3c-.5,0-1.1,0-1.6,0h-4.3c-.1,1.9-.5,3.4-1.2,4.6-.6,1.2-2,2.6-3.6,3.5l-2.1-1.5c1.3-.5,2.5-1.5,3.3-2.6.7-1.1,1-2.5,1.1-4h-5c-.5,0-1.2,0-1.7,0v-2.4c.5,0,1.2.1,1.7.1h11.8ZM237.5,88.7c-.6,0-1.4,0-1.9,0v-2.3c.6,0,1.3.1,1.9.1h5.9c.6,0,1.3,0,1.9-.1v2.3c-.6,0-1.3,0-1.9,0h-5.9ZM246.4,88.3c-.4-.7-.9-1.8-1.4-2.5l1.4-.6c.5.7,1.1,1.8,1.4,2.5l-1.4.6ZM248.6,87.4c-.4-.8-1-1.8-1.4-2.5l1.4-.6c.5.7,1.1,1.8,1.4,2.4l-1.4.6Z"/>
          <path d="M264.3,89.5c1,0,1.5,0,2-.1v2.4c-.4,0-1,0-2,0h-1.4v.6c0,4.5-1.1,7.2-5.4,9.1l-1.9-1.8c3.5-1.2,5-2.8,5-7.2v-.7h-4.3v2.4c0,.8,0,1.5,0,1.9h-2.5c0-.4.1-1.1.1-1.9v-2.4h-1.5c-.9,0-1.5,0-1.9,0v-2.4c.3,0,1,.2,1.9.2h1.5v-1.8c0-.7,0-1.3-.1-1.6h2.6c0,.3-.1.9-.1,1.6v1.8h4.3v-1.9c0-.7,0-1.3-.1-1.7h2.6c0,.4-.1.9-.1,1.7v1.9h1.3ZM264.2,88.9c-.3-.8-.6-1.7-.9-2.5l1.2-.4c.3.7.8,1.8,1,2.5l-1.2.4ZM266.1,88.3c-.3-.8-.6-1.7-1-2.4l1.2-.4c.3.7.8,1.8,1,2.4l-1.2.4Z"/>
          <path d="M278.2,98.4c0,.8,0,1.9.2,2.4h-2.8c0-.4.1-1.6.1-2.4v-5.9c-1.9.9-4.1,1.9-6.2,2.4l-1.3-2.2c3.2-.7,6.2-2,8.2-3.3,1.8-1.1,3.7-2.7,4.7-4.1l1.9,1.7c-1.4,1.4-3,2.7-4.8,3.9v7.4Z"/>
          <path d="M291.9,95.9c3.1-1.8,5.4-4.6,6.6-7l1.4,2.5c-1.4,2.4-3.8,4.9-6.7,6.7-1.8,1.1-4.1,2.1-6.7,2.5l-1.5-2.4c2.8-.4,5.1-1.3,6.9-2.4ZM291.9,90.1l-1.8,1.9c-.9-1-3.2-3-4.5-3.9l1.7-1.8c1.3.8,3.6,2.7,4.6,3.8Z"/>
        </g>
      </g>
    </g>
  </g>
  <g id="_グループ_32167" data-name="グループ_32167">
    <g id="_楕円形_4" data-name="楕円形_4">
      <circle class="st5" cx="458" cy="269" r="80"/>
      <circle class="st2" cx="458" cy="269" r="79"/>
    </g>
    <g id="_グループ_32178" data-name="グループ_32178">
      <g id="Coding" class="st3">
        <g class="st3">
          <path class="st7" d="M439.7,259.8c-.7.2-1.4.4-2.1.4-1.2,0-2.3-.3-3.2-.8s-1.6-1.3-2.1-2.2c-.5-.9-.7-1.9-.7-3s.2-2.2.7-3.2c.5-.9,1.2-1.7,2-2.2.9-.5,1.9-.8,3-.8s1.4,0,2,.3c.6.2,1.1.4,1.6.7l-.9,2.2c-.8-.6-1.7-1-2.6-1s-1.2.2-1.7.5c-.5.3-.9.8-1.2,1.4-.3.6-.5,1.2-.5,1.9s.1,1.4.4,2,.7,1,1.2,1.3c.5.3,1.2.5,1.9.5s1.1,0,1.6-.3.8-.4,1.1-.7l1,2.1c-.3.2-.8.5-1.4.7Z"/>
          <path class="st7" d="M443,254.5c.3-.6.8-1,1.4-1.3s1.3-.5,2.1-.5,1.5.2,2.1.5c.6.3,1,.8,1.4,1.3.3.6.5,1.2.5,1.9s-.2,1.4-.5,1.9c-.3.6-.8,1-1.4,1.4-.6.3-1.3.5-2.1.5s-1.5-.2-2.1-.5c-.6-.3-1.1-.7-1.4-1.3-.3-.6-.5-1.2-.5-2s.2-1.4.5-1.9ZM445.3,257.8c.3.4.7.6,1.2.6s.9-.2,1.2-.5.5-.8.5-1.4-.2-1-.5-1.4-.7-.5-1.2-.5-.9.2-1.2.6c-.3.4-.5.8-.5,1.4s.2,1,.5,1.4Z"/>
          <path class="st7" d="M459.9,247.4v12.6h-2.2v-.7c-.8.6-1.7.9-2.6.9s-1.2-.2-1.7-.5c-.5-.3-.9-.8-1.2-1.3-.3-.6-.4-1.3-.4-2s.2-1.4.5-2c.3-.6.7-1,1.3-1.3.6-.3,1.2-.4,1.9-.4s.9,0,1.3.2c.4.1.7.4,1,.6v-6.1h2.2ZM456.9,258c.3-.2.5-.4.7-.8v-1.7c-.1-.3-.4-.6-.7-.8-.3-.2-.7-.3-1.2-.3s-.9.2-1.3.5-.6.8-.6,1.4,0,.7.3,1,.4.5.7.7c.3.2.6.3.9.3s.8,0,1.1-.3Z"/>
          <path class="st7" d="M462.5,249.7c.3-.2.5-.3.9-.3s.6.1.8.3c.2.2.4.5.4.8s-.1.6-.4.8c-.2.2-.5.3-.8.3s-.6-.1-.9-.3c-.2-.2-.4-.5-.4-.8s.1-.6.4-.8ZM464.4,253v7h-2.2v-7h2.2Z"/>
          <path class="st7" d="M473.3,253.3c.4.4.7.9.7,1.5v5.2h-2.2v-4.4c0-.7-.4-1-1-1s-.9.2-1.2.7c-.3.5-.5,1.1-.5,1.9v2.8h-2.2v-7h2l.2,1.1c.3-.5.6-.8,1.1-1.1.5-.3,1-.4,1.6-.4s1.2.2,1.7.6Z"/>
          <path class="st7" d="M484.1,253v7c0,.7-.2,1.3-.6,1.8-.4.5-.9,1-1.5,1.3-.6.3-1.3.5-2.1.5s-1.1,0-1.5-.2-.8-.3-1-.5c-.3-.2-.6-.4-.9-.7l1.3-1.5c.3.3.6.5,1,.7.3.2.7.3,1.2.3s1-.1,1.4-.4c.4-.3.6-.7.6-1.2v-1c-.2.4-.5.7-1,.9-.4.2-1,.3-1.6.3s-1.2-.2-1.8-.5c-.5-.3-1-.8-1.3-1.3-.3-.6-.5-1.2-.5-1.9s.2-1.3.5-1.9c.3-.6.8-1,1.3-1.4.5-.3,1.1-.5,1.7-.5s1.1,0,1.5.2c.4.2.8.4,1,.6l.2-.5h2.1ZM481.8,257.3v-1.7c-.1-.3-.4-.6-.7-.8-.3-.2-.7-.3-1.2-.3s-1,.2-1.4.5c-.4.4-.6.8-.6,1.4s.2,1,.6,1.4c.4.4.8.6,1.4.6.9,0,1.5-.4,1.9-1.1Z"/>
        </g>
      </g>
      <g id="_サイト構築" data-name="サイト構築" class="st3">
        <g class="st3">
          <path d="M427.7,278.2c1,0,1.5,0,2-.1v2.4c-.4,0-1,0-2,0h-1.3v.6c0,4.5-1.1,7.2-5.4,9.1l-1.9-1.8c3.5-1.2,5-2.8,5-7.2v-.7h-4.3v2.4c0,.8,0,1.5,0,1.9h-2.5c0-.4.1-1.1.1-1.9v-2.4h-1.5c-.9,0-1.5,0-1.9,0v-2.4c.3,0,1,.2,1.9.2h1.5v-1.8c0-.7,0-1.3-.1-1.6h2.6c0,.3-.1.9-.1,1.6v1.8h4.3v-1.9c0-.7,0-1.3-.1-1.7h2.6c0,.4-.1,1-.1,1.7v1.9h1.3Z"/>
          <path d="M440.8,287.4c0,.8,0,1.9.2,2.4h-2.8c0-.4.1-1.6.1-2.4v-5.9c-1.9.9-4.1,1.9-6.2,2.4l-1.3-2.2c3.2-.7,6.2-2,8.2-3.3,1.8-1.1,3.7-2.7,4.7-4.1l1.9,1.7c-1.4,1.4-3,2.7-4.8,3.9v7.4Z"/>
          <path d="M459,284.9c-1.9-1-4.6-2-6.5-2.7v5.1c0,.5,0,1.8.2,2.5h-2.8c.1-.7.2-1.8.2-2.5v-10.3c0-.6,0-1.5-.2-2.2h2.8c0,.6-.2,1.4-.2,2.2v2.6c2.4.7,5.9,2,7.5,2.8l-1,2.5Z"/>
        </g>
        <g class="st3">
          <path d="M473,285.1c-.2-.6-.6-1.4-1-2.2v7.7h-1.9v-6.7c-.5,1.4-1,2.6-1.6,3.5-.2-.6-.6-1.4-.9-1.9,1-1.4,2-3.9,2.4-6h-2v-2h2.2v-3.7h1.9v3.7h1.8v2h-1.8v.8c.5.7,1.8,2.8,2.1,3.3l-1.1,1.5ZM484.5,287.7h-1v.8c0,.9-.2,1.4-.8,1.6-.6.3-1.4.3-2.6.3,0-.5-.3-1.2-.6-1.7.7,0,1.4,0,1.6,0s.3,0,.3-.3v-.8h-5.1v2.7h-1.9v-2.7h-1.1v-1.6h1.1v-4.5h3.5v-.7h-4.2v-1.5h2.2v-.8h-1.5v-1.4h1.5v-.7h-1.9v-1.5h1.9v-1.3h2v1.3h2v-1.3h2v1.3h2v1.5h-2v.7h1.7v1.4h-1.7v.8h2.3v1.5h-4.4v.7h3.6v4.5h1v1.6ZM476.5,283.1v.8h1.5v-.8h-1.5ZM476.5,286.2h1.5v-.9h-1.5v.9ZM478,277.3h2v-.7h-2v.7ZM478,279.5h2v-.8h-2v.8ZM480,283.1v.8h1.6v-.8h-1.6ZM481.6,286.2v-.9h-1.6v.9h1.6Z"/>
          <path d="M488.7,276.7c-.5.6-1,1.2-1.4,1.6-.4-.3-1.2-.9-1.7-1.2,1.1-.9,2.1-2.2,2.6-3.5l2,.5c-.1.3-.3.6-.4.9h4v1.3c.7-.8,1.3-1.7,1.7-2.7l2,.5c-.1.3-.3.6-.4.9h5.2v1.7h-3.2c.3.4.5.8.7,1.1l-1.8.5c-.2-.4-.6-1.1-1-1.6h-1c-.5.6-.9,1.2-1.4,1.6-.4-.3-1.4-.8-1.9-1,.2-.2.5-.4.7-.6h-2.5c.2.4.4.8.6,1.1l-1.7.5c-.1-.5-.4-1.1-.8-1.6h-.3ZM496.5,286.4c1.5.9,3.9,1.6,6,1.9-.5.5-1.1,1.3-1.4,1.8-2.2-.5-4.4-1.5-6.1-2.8v3.2h-2.1v-3.2c-1.6,1.3-3.9,2.3-6.1,2.9-.3-.5-.9-1.3-1.3-1.7,2.1-.3,4.3-1.1,5.9-2h-5.5v-1.7h7.1v-.5c-.1,0-.2,0-.3.1-.2-.4-.9-1-1.3-1.3-1.9.3-3.7.6-5.2.8l-.2-1.7c.8,0,1.7-.2,2.7-.4v-1.8h-2.3v-1.5h6.5v1.5h-2.3v1.5l2.2-.3v.9c.7-.6.8-1.2.8-1.9v-1.8h6.6v3.2c0,.3,0,.5,0,.5,0,0,0,0,.2,0h.3c0,0,.2,0,.2,0,0,0,.1-.1.1-.4,0-.2,0-.7,0-1.2.3.3,1,.6,1.4.7,0,.7-.1,1.4-.2,1.7-.1.3-.3.6-.6.7-.3.1-.6.2-1,.2h-.9c-.5,0-.9-.1-1.2-.4-.2-.3-.4-.5-.4-1.2l-1,.9c-.4-.5-1.1-1.1-1.7-1.7-.2.8-.6,1.5-1.4,2.1h1v1.1h7.1v1.7h-5.7ZM495.5,279.8v.5c0,.3,0,.5,0,.7l.9-.8c.6.4,1.3.9,1.8,1.4v-1.8h-2.6Z"/>
        </g>
      </g>
    </g>
  </g>
  <g id="_グループ_32163" data-name="グループ_32163">
    <g id="_楕円形_6" data-name="楕円形_6">
      <circle class="st4" cx="269" cy="458" r="80"/>
      <circle class="st2" cx="269" cy="458" r="79"/>
    </g>
    <g id="_グループ_32179" data-name="グループ_32179">
      <g id="SEO_measures" class="st3">
        <g class="st3">
          <path class="st7" d="M219.1,439.2c-.5,0-.9.1-1.2.3-.3.2-.4.5-.4.9s.2.7.6,1c.4.3,1,.6,1.6.8.6.2,1,.4,1.4.7.4.3.7.6,1,1.1.3.5.4,1,.4,1.7s-.2,1.2-.5,1.7c-.3.5-.8.9-1.4,1.2-.6.3-1.3.5-2.2.5s-1.4-.1-2.1-.3c-.7-.2-1.3-.5-1.9-1l1-1.8c.4.3.9.5,1.4.7.5.2,1,.3,1.4.3s.9-.1,1.3-.3c.4-.2.5-.5.5-1s-.6-1.1-1.7-1.6c-.7-.3-1.2-.5-1.7-.8-.4-.2-.8-.6-1.2-1.1-.3-.5-.5-1-.5-1.7,0-1,.3-1.8,1-2.4.7-.6,1.6-1,2.7-1,.9,0,1.6,0,2.2.3.6.2,1.2.5,1.7.8l-.9,1.8c-1-.6-1.9-.8-2.7-.8Z"/>
          <path class="st7" d="M232.9,437.2v2.2h-5.7v2.5h5.1v2.2h-5.1v2.5h5.9v2.2h-8.3v-11.8h8Z"/>
          <path class="st7" d="M235.6,440.1c.5-.9,1.3-1.7,2.2-2.2.9-.5,1.9-.8,3-.8s2.1.3,3,.8c.9.5,1.7,1.3,2.2,2.2.5.9.8,1.9.8,3s-.3,2.1-.8,3c-.5.9-1.3,1.6-2.2,2.2-.9.5-1.9.8-3,.8s-2.1-.3-3-.8c-.9-.5-1.6-1.3-2.2-2.2-.5-.9-.8-1.9-.8-3s.3-2.1.8-3ZM237.7,445c.3.6.8,1,1.3,1.4s1.2.5,1.9.5,1.3-.2,1.8-.5,1-.8,1.3-1.4c.3-.6.5-1.2.5-1.9s-.2-1.3-.5-1.9c-.3-.6-.8-1-1.3-1.4s-1.2-.5-1.8-.5-1.3.2-1.8.5-1,.8-1.3,1.4c-.3.6-.5,1.2-.5,1.9s.2,1.3.5,1.9Z"/>
          <path class="st7" d="M264.8,442.2c.4.4.6.9.6,1.5v5.2h-2.2v-4.3c0-.4,0-.6-.2-.8,0-.2-.3-.3-.6-.3-.5,0-.9.3-1.2.8-.3.5-.4,1.1-.4,1.8v2.9h-2.2v-4.3c0-.4,0-.6-.2-.8-.1-.2-.3-.3-.6-.3-.5,0-.9.3-1.2.8-.3.5-.4,1.1-.4,1.8v2.9h-2.2v-7h2l.2,1.1c.6-1,1.4-1.5,2.5-1.5s1,.1,1.4.3.6.6.8,1c.3-.4.7-.7,1.1-1,.4-.2.8-.4,1.3-.4.7,0,1.2.2,1.6.6Z"/>
          <path class="st7" d="M272.6,446.8l1,1.7c-.4.2-.8.4-1.2.5s-.8.2-1.2.2c-.8,0-1.5-.2-2.2-.5s-1.1-.8-1.4-1.3c-.3-.6-.5-1.2-.5-2s.2-1.3.5-1.9.8-1,1.5-1.4,1.3-.5,2-.5,1.8.3,2.5.9c.6.6,1.1,1.4,1.3,2.5l-5.1,1.6c.3.4.8.6,1.4.6s.9-.2,1.4-.5ZM269.9,443.9c-.3.3-.4.8-.4,1.4h0c0,.1,3.1-.9,3.1-.9-.2-.7-.7-1-1.4-1s-.9.2-1.2.5Z"/>
          <path class="st7" d="M284.1,442v7h-2.2v-.9c-.7.7-1.5,1.1-2.3,1.1s-1.9-.3-2.5-.9c-.6-.6-1-1.5-1-2.8s.2-1.4.5-2,.7-1,1.3-1.4c.5-.3,1.1-.5,1.7-.5s1.1,0,1.5.3c.4.2.7.5,1,.8v-.7h2.2ZM281.9,446.3v-1.7c-.1-.3-.3-.6-.7-.8-.3-.2-.7-.3-1.1-.3s-.9.2-1.3.5c-.3.4-.5.8-.5,1.4s0,.7.3,1c.2.3.4.5.7.7.3.2.6.3.9.3.8,0,1.3-.4,1.7-1.1Z"/>
          <path class="st7" d="M287.1,448.8c-.5-.2-.9-.5-1.2-.8l.9-1.2c.6.6,1.2.9,1.7.9s.5,0,.7-.1.3-.2.3-.4-.1-.4-.3-.5c-.2-.1-.4-.2-.7-.3-.3,0-.4-.1-.5-.1-.6-.2-1.1-.5-1.4-.9-.3-.4-.4-.8-.4-1.3s0-.7.3-1.1.5-.7.9-.9.9-.3,1.6-.3,1.1,0,1.5.2.8.3,1.2.6l-.8,1.3c-.2-.2-.5-.3-.7-.4-.3-.1-.5-.2-.7-.2s-.5,0-.6.2c-.2.1-.2.2-.2.4,0,.2,0,.4.3.5.2.1.5.2.9.3,0,0,.1,0,.2,0s.1,0,.2,0c1.1.4,1.6,1,1.6,2s-.1.9-.3,1.2c-.2.4-.6.7-1,.9-.5.2-1,.3-1.7.3s-1.1-.1-1.6-.3Z"/>
          <path class="st7" d="M300.6,442v7h-2l-.2-1.1c-.2.4-.6.8-1,1.1-.4.3-1,.4-1.6.4s-1.2-.2-1.6-.6-.6-.9-.7-1.5v-5.2h2.2v4.4c0,.7.3,1,.9,1s.9-.2,1.2-.7c.3-.5.4-1.1.4-1.9v-2.8h2.2Z"/>
          <path class="st7" d="M305.9,442.6c.3-.3.7-.5,1-.7.4-.2.6-.2.8-.2v2.2c-.2,0-.3,0-.4,0-.4,0-.8.1-1.2.4-.3.2-.6.5-.8.9s-.3.7-.3,1.1v2.7h-2.2v-7h2l.2,1.6c.2-.4.5-.7.8-1Z"/>
          <path class="st7" d="M314,446.8l1,1.7c-.4.2-.8.4-1.2.5s-.8.2-1.2.2c-.8,0-1.5-.2-2.2-.5s-1.1-.8-1.4-1.3c-.3-.6-.5-1.2-.5-2s.2-1.3.5-1.9.8-1,1.5-1.4c.6-.3,1.3-.5,2-.5s1.8.3,2.5.9c.6.6,1.1,1.4,1.3,2.5l-5.1,1.6c.3.4.8.6,1.4.6s.9-.2,1.4-.5ZM311.3,443.9c-.3.3-.4.8-.4,1.4h0c0,.1,3.1-.9,3.1-.9-.2-.7-.7-1-1.4-1s-.9.2-1.2.5Z"/>
          <path class="st7" d="M318.7,448.8c-.5-.2-.9-.5-1.2-.8l.9-1.2c.6.6,1.2.9,1.7.9s.5,0,.7-.1.3-.2.3-.4-.1-.4-.3-.5c-.2-.1-.4-.2-.7-.3-.3,0-.4-.1-.5-.1-.6-.2-1.1-.5-1.4-.9-.3-.4-.4-.8-.4-1.3s0-.7.3-1.1.5-.7.9-.9.9-.3,1.6-.3,1.1,0,1.5.2.8.3,1.2.6l-.8,1.3c-.2-.2-.5-.3-.7-.4-.3-.1-.5-.2-.7-.2s-.5,0-.6.2c-.2.1-.2.2-.2.4,0,.2,0,.4.3.5.2.1.5.2.9.3,0,0,.1,0,.2,0s.1,0,.2,0c1.1.4,1.6,1,1.6,2s-.1.9-.3,1.2c-.2.4-.6.7-1,.9-.5.2-1,.3-1.7.3s-1.1-.1-1.6-.3Z"/>
        </g>
      </g>
      <g id="SEO対策" class="st3">
        <g class="st3">
          <path d="M233.7,476.3l1.5-1.8c1,.9,2.2,1.5,3.4,1.5s2.1-.6,2.1-1.5-.8-1.3-2-1.8l-1.8-.8c-1.4-.6-2.7-1.6-2.7-3.6s1.9-3.9,4.6-3.9,3.1.6,4.2,1.7l-1.4,1.7c-.8-.7-1.7-1.1-2.8-1.1s-1.9.5-1.9,1.4,1,1.3,2.1,1.7l1.7.7c1.6.7,2.7,1.7,2.7,3.6s-1.8,4-4.9,4-3.6-.7-4.9-1.9Z"/>
          <path d="M245.8,464.7h8.2v2.2h-5.5v3.1h4.7v2.2h-4.7v3.6h5.7v2.2h-8.4v-13.3Z"/>
          <path d="M256.2,471.3c0-4.3,2.4-6.9,6-6.9s6,2.5,6,6.9-2.4,7-6,7-6-2.6-6-7ZM265.4,471.3c0-2.9-1.3-4.6-3.2-4.6s-3.2,1.7-3.2,4.6,1.3,4.7,3.2,4.7,3.2-1.8,3.2-4.7Z"/>
        </g>
        <g class="st3">
          <path d="M277.1,468.1c-.3,1.9-.8,3.7-1.5,5.2.8,1,1.4,2.1,1.9,2.9l-1.7,1.5c-.3-.6-.7-1.4-1.2-2.2-1,1.6-2.2,2.9-3.7,3.9-.3-.4-1-1.3-1.4-1.7,1.7-1,2.9-2.4,3.8-4.1-1-1.3-2-2.6-3-3.7l1.5-1.2c.8.8,1.6,1.7,2.4,2.7.4-1.1.7-2.3.9-3.6l2.1.3ZM286.4,468.8h-1.9v8.1c0,1.2-.2,1.8-.9,2.2-.7.4-1.7.5-3.2.5,0-.6-.4-1.7-.7-2.3,1,0,2,0,2.3,0s.4,0,.4-.4v-8.1h-4.5v-1.3h-7.9v-2h3.1v-2.8h2.1v2.8h3.3v1.2h3.9v-4h2.1v4h1.9v2.1ZM279.4,470.2c.8,1.2,1.7,2.7,2,3.8l-1.9,1c-.3-1.1-1-2.7-1.9-3.9l1.7-.8Z"/>
          <path d="M303,473.6c0,.9-.2,1.3-.8,1.6-.6.3-1.4.3-2.4.3,1.4.7,3,1.3,4.8,1.6-.4.5-1.1,1.3-1.3,1.9-2.3-.6-4.3-1.7-5.8-2.9v3.5h-2.3v-3.6c-1.6,1.4-3.7,2.5-6,3.1-.3-.5-.9-1.4-1.3-1.8,3-.6,5.8-1.9,7.3-3.7v-1.3h-3.4v3.2h-2.3v-5h5.7v-.9h-6.9v-1.8h3.8c-.2-.5-.5-1.3-.9-1.9h-.3c-.5.7-1,1.3-1.5,1.8-.4-.3-1.3-.9-1.8-1.2,1.1-1,2.2-2.5,2.8-3.9l2,.6c-.1.3-.3.6-.4,1h3.9v1.5c.7-.8,1.3-1.9,1.7-3l2.1.5c-.1.3-.3.7-.4,1h5v1.8h-2.9c.3.5.5.9.6,1.2l-1.9.6c-.1-.5-.5-1.2-.9-1.9h-.9c-.3.4-.5.7-.8,1v.8h6.5v1.8h-6.5v.9h5.6v3.1ZM295.1,467.8v-1h.3c-.2-.1-.4-.2-.5-.3.2-.2.5-.4.7-.6h-2.2c.3.5.5.9.6,1.3l-1.6.6h2.8ZM297.4,473.9c.6.5,1.4,1,2.2,1.5-.1-.5-.4-1.2-.7-1.6.6,0,1.3,0,1.5,0s.3,0,.3-.3v-1.3h-3.4v1.6Z"/>
        </g>
      </g>
    </g>
  </g>
  <g id="_グループ_32166" data-name="グループ_32166">
    <g id="_楕円形_5" data-name="楕円形_5">
      <circle class="st4" cx="80" cy="269" r="80"/>
      <circle class="st2" cx="80" cy="269" r="79"/>
    </g>
    <g id="_グループ_32180" data-name="グループ_32180">
      <g id="Support_system" class="st3">
        <g class="st3">
          <path class="st7" d="M26.3,250.2c-.5,0-.9.1-1.2.3-.3.2-.4.5-.4.9s.2.7.6,1c.4.3,1,.6,1.6.8.6.2,1,.4,1.4.7.4.3.7.6,1,1.1.3.5.4,1,.4,1.7s-.2,1.2-.5,1.7c-.3.5-.8.9-1.4,1.2-.6.3-1.3.5-2.2.5s-1.4-.1-2.1-.3c-.7-.2-1.3-.5-1.9-1l1-1.8c.4.3.9.5,1.4.7.5.2,1,.3,1.4.3s.9-.1,1.3-.3c.4-.2.5-.5.5-1s-.6-1.1-1.7-1.6c-.7-.3-1.2-.5-1.7-.8-.4-.2-.8-.6-1.2-1.1-.3-.5-.5-1-.5-1.7,0-1,.3-1.8,1-2.4.7-.6,1.6-1,2.7-1,.9,0,1.6,0,2.2.3.6.2,1.2.5,1.7.8l-.9,1.8c-1-.6-1.9-.8-2.7-.8Z"/>
          <path class="st7" d="M38.7,253v7h-2l-.2-1.1c-.2.4-.6.8-1,1.1-.4.3-1,.4-1.6.4s-1.2-.2-1.6-.6c-.4-.4-.6-.9-.7-1.5v-5.2h2.2v4.4c0,.7.3,1,.9,1s.9-.2,1.2-.7c.3-.5.4-1.1.4-1.9v-2.8h2.2Z"/>
          <path class="st7" d="M47.6,253.1c.5.3.9.8,1.2,1.3s.4,1.3.4,2-.2,1.4-.5,2c-.3.6-.8,1-1.4,1.3s-1.2.4-2,.4-.8,0-1.2-.2c-.4-.1-.7-.3-1-.6v4h-2.2v-10.5h1.9l.2.8c.9-.7,1.8-1,2.7-1s1.2.2,1.7.5ZM46.4,257.9c.4-.4.6-.8.6-1.4s-.2-1-.5-1.4-.8-.6-1.3-.6-.8,0-1.1.3c-.3.2-.6.4-.7.8v1.7c.1.3.3.6.6.8.3.2.7.3,1.1.3s1-.2,1.4-.5Z"/>
          <path class="st7" d="M57.6,253.1c.5.3.9.8,1.2,1.3s.4,1.3.4,2-.2,1.4-.5,2c-.3.6-.8,1-1.4,1.3s-1.2.4-2,.4-.8,0-1.2-.2c-.4-.1-.7-.3-1-.6v4h-2.2v-10.5h1.9l.2.8c.9-.7,1.8-1,2.7-1s1.2.2,1.7.5ZM56.3,257.9c.4-.4.6-.8.6-1.4s-.2-1-.5-1.4-.8-.6-1.3-.6-.8,0-1.1.3c-.3.2-.6.4-.7.8v1.7c.1.3.3.6.6.8.3.2.7.3,1.1.3s1-.2,1.4-.5Z"/>
          <path class="st7" d="M60.9,254.5c.3-.6.8-1,1.4-1.3.6-.3,1.3-.5,2.1-.5s1.5.2,2.1.5c.6.3,1,.8,1.4,1.3.3.6.5,1.2.5,1.9s-.2,1.4-.5,1.9c-.3.6-.8,1-1.4,1.4-.6.3-1.3.5-2.1.5s-1.5-.2-2.1-.5c-.6-.3-1.1-.7-1.4-1.3-.3-.6-.5-1.2-.5-2s.2-1.4.5-1.9ZM63.2,257.8c.3.4.7.6,1.2.6s.9-.2,1.2-.5.5-.8.5-1.4-.2-1-.5-1.4-.7-.5-1.2-.5-.9.2-1.2.6c-.3.4-.5.8-.5,1.4s.2,1,.5,1.4Z"/>
          <path class="st7" d="M73.1,253.6c.3-.3.7-.5,1-.7.4-.2.6-.2.8-.2v2.2c-.2,0-.3,0-.4,0-.4,0-.8.1-1.2.4-.3.2-.6.5-.8.9-.2.4-.3.7-.3,1.1v2.7h-2.2v-7h2l.2,1.6c.2-.4.5-.7.8-1Z"/>
          <path class="st7" d="M79.6,249.9v3h1.7v1.7h-1.7v5.3h-2.2v-5.3h-1.1v-1.7h1.1v-3h2.2Z"/>
          <path class="st7" d="M88.8,259.8c-.5-.2-.9-.5-1.2-.8l.9-1.2c.6.6,1.2.9,1.7.9s.5,0,.7-.1c.2,0,.3-.2.3-.4s-.1-.4-.3-.5c-.2-.1-.4-.2-.7-.3-.3,0-.4-.1-.5-.1-.6-.2-1.1-.5-1.4-.9-.3-.4-.4-.8-.4-1.3s0-.7.3-1.1.5-.7.9-.9.9-.3,1.6-.3,1.1,0,1.5.2c.4.1.8.3,1.2.6l-.8,1.3c-.2-.2-.5-.3-.7-.4-.3-.1-.5-.2-.7-.2s-.5,0-.6.2c-.2.1-.2.2-.2.4,0,.2,0,.4.3.5.2.1.5.2.9.3,0,0,.1,0,.2,0s.1,0,.2,0c1.1.4,1.6,1,1.6,2s-.1.9-.3,1.2c-.2.4-.6.7-1,.9-.5.2-1,.3-1.7.3s-1.1-.1-1.6-.3Z"/>
          <path class="st7" d="M102.6,253l-4.5,10.4h-2.2l1.7-3.7-3.2-6.6h2.5l1.8,4.1,1.9-4.1h2Z"/>
          <path class="st7" d="M104.5,259.8c-.5-.2-.9-.5-1.2-.8l.9-1.2c.6.6,1.2.9,1.7.9s.5,0,.7-.1c.2,0,.3-.2.3-.4s-.1-.4-.3-.5c-.2-.1-.4-.2-.7-.3-.3,0-.4-.1-.5-.1-.6-.2-1.1-.5-1.4-.9-.3-.4-.4-.8-.4-1.3s0-.7.3-1.1.5-.7.9-.9.9-.3,1.6-.3,1.1,0,1.5.2c.4.1.8.3,1.2.6l-.8,1.3c-.2-.2-.5-.3-.7-.4-.3-.1-.5-.2-.7-.2s-.5,0-.6.2c-.2.1-.2.2-.2.4,0,.2,0,.4.3.5.2.1.5.2.9.3,0,0,.1,0,.2,0s.1,0,.2,0c1.1.4,1.6,1,1.6,2s-.1.9-.3,1.2c-.2.4-.6.7-1,.9-.5.2-1,.3-1.7.3s-1.1-.1-1.6-.3Z"/>
          <path class="st7" d="M113.9,249.9v3h1.7v1.7h-1.7v5.3h-2.2v-5.3h-1.1v-1.7h1.1v-3h2.2Z"/>
          <path class="st7" d="M122.2,257.8l1,1.7c-.4.2-.8.4-1.2.5-.4.1-.8.2-1.2.2-.8,0-1.5-.2-2.2-.5s-1.1-.8-1.4-1.3c-.3-.6-.5-1.2-.5-2s.2-1.3.5-1.9.8-1,1.5-1.4,1.3-.5,2-.5,1.8.3,2.5.9c.6.6,1.1,1.4,1.3,2.5l-5.1,1.6c.3.4.8.6,1.4.6s.9-.2,1.4-.5ZM119.4,254.9c-.3.3-.4.8-.4,1.4h0c0,.1,3.1-.9,3.1-.9-.2-.7-.7-1-1.4-1s-.9.2-1.2.5Z"/>
          <path class="st7" d="M137,253.2c.4.4.6.9.6,1.5v5.2h-2.2v-4.3c0-.4,0-.6-.2-.8,0-.2-.3-.3-.6-.3-.5,0-.9.3-1.2.8-.3.5-.4,1.1-.4,1.8v2.9h-2.2v-4.3c0-.4,0-.6-.2-.8-.1-.2-.3-.3-.6-.3-.5,0-.9.3-1.2.8-.3.5-.4,1.1-.4,1.8v2.9h-2.2v-7h2l.2,1.1c.6-1,1.4-1.5,2.5-1.5s1,.1,1.4.3.6.6.8,1c.3-.4.7-.7,1.1-1,.4-.2.8-.4,1.3-.4.7,0,1.2.2,1.6.6Z"/>
        </g>
      </g>
      <g id="_サポート体制" data-name="サポート体制" class="st3">
        <g class="st3">
          <path d="M40.7,278.2c1,0,1.5,0,2-.1v2.4c-.4,0-1,0-2,0h-1.3v.6c0,4.5-1.1,7.2-5.4,9.1l-1.9-1.8c3.5-1.2,5-2.8,5-7.2v-.7h-4.3v2.4c0,.8,0,1.5,0,1.9h-2.5c0-.4.1-1.1.1-1.9v-2.4h-1.5c-.9,0-1.5,0-1.9,0v-2.4c.3,0,1,.2,1.9.2h1.5v-1.8c0-.7,0-1.3-.1-1.6h2.6c0,.3-.1.9-.1,1.6v1.8h4.3v-1.9c0-.7,0-1.3-.1-1.7h2.6c0,.4-.1,1-.1,1.7v1.9h1.3Z"/>
          <path d="M49.5,282.5c-.8,1.6-2.5,4-3.5,5l-1.9-1.3c1.2-1.2,2.6-3.1,3.4-4.6l2,1ZM53.6,280v8.4c0,1-.6,1.7-1.9,1.7s-2,0-2.9-.2l-.2-2.2c.8.1,1.6.2,2,.2s.6-.2.7-.6c0-.7,0-6.4,0-7.2h0s-4.6,0-4.6,0c-.5,0-1.2,0-1.7,0v-2.4c.5,0,1.2.1,1.7.1h4.6v-1.4c0-.5,0-1.3-.2-1.6h2.7c0,.3-.2,1.1-.2,1.6v1.4h4.2c.5,0,1.3,0,1.8-.1v2.4c-.6,0-1.3,0-1.7,0h-4.2ZM57.2,281.5c.9,1.2,2.4,3.4,3.1,4.7l-2.1,1.2c-.8-1.5-2.1-3.7-2.9-4.8l2-1.1ZM56.2,275.5c0-1.2.9-2.1,2.1-2.1s2.1.9,2.1,2.1-.9,2.1-2.1,2.1-2.1-.9-2.1-2.1ZM57.3,275.5c0,.5.4,1,1,1s1-.5,1-1-.4-1-1-1-1,.4-1,1Z"/>
          <path d="M62.1,280.7c.6,0,2,.1,2.9.1h9.7c.8,0,1.6,0,2.1-.1v2.8c-.4,0-1.4,0-2.1,0h-9.7c-1,0-2.2,0-2.9,0v-2.8Z"/>
          <path d="M90.9,284.9c-1.9-1-4.6-2-6.5-2.7v5.1c0,.5,0,1.8.2,2.5h-2.8c.1-.7.2-1.8.2-2.5v-10.3c0-.6,0-1.5-.2-2.2h2.8c0,.6-.2,1.4-.2,2.2v2.6c2.4.7,5.9,2,7.5,2.8l-1,2.5Z"/>
        </g>
        <g class="st3">
          <path d="M104,274.4c-.4,1.2-.9,2.3-1.4,3.5v12.6h-2v-9.1c-.4.5-.7,1-1.1,1.4-.2-.5-.8-1.7-1.2-2.2,1.5-1.6,2.9-4.2,3.7-6.7l2,.6ZM111.3,279c1,2.8,2.6,5.6,4.4,7.2-.5.4-1.2,1.1-1.6,1.7-.5-.6-1-1.2-1.4-1.9v1.6h-2.4v2.9h-2.1v-2.9h-2.4v-1.7c-.5.8-1,1.5-1.6,2-.4-.5-1-1.3-1.5-1.6,1.8-1.6,3.5-4.5,4.5-7.3h-3.5v-2h4.6v-3.1h2.1v3.1h5v2h-3.9ZM108.2,285.6v-4.6c-.6,1.7-1.4,3.2-2.2,4.6h2.2ZM112.5,285.6c-.8-1.4-1.6-3-2.2-4.7v4.7h2.2Z"/>
          <path d="M122.8,279.4h3.9v1.9h-3.9v1.3h3.5v4.6c0,.8-.1,1.3-.6,1.6-.5.3-1.2.3-2.1.3,0-.5-.3-1.3-.5-1.8.5,0,.9,0,1.1,0,.2,0,.2,0,.2-.2v-2.6h-1.6v6h-2v-6h-1.5v4.6h-1.9v-6.5h3.4v-1.3h-4.1v-1.9h1.4c-.5-.2-1.2-.5-1.6-.7.7-1.1,1.3-3,1.7-4.7l2,.4c-.1.6-.3,1.1-.4,1.6h1.2v-2.3h2v2.3h3.2v1.9h-3.2v1.4ZM120.8,279.4v-1.4h-1.8c-.2.5-.4,1-.6,1.4h2.4ZM129.6,285.4h-2v-10.1h2v10.1ZM132.9,274.1v14c0,1.2-.2,1.7-.9,2.1-.7.3-1.7.4-3.1.4,0-.6-.4-1.5-.6-2.2.9,0,1.9,0,2.2,0,.3,0,.4,0,.4-.4v-14h2.1Z"/>
        </g>
      </g>
    </g>
  </g>
  <g id="_グループ_32173" data-name="グループ_32173">
    <circle id="_楕円形_17" data-name="楕円形_17" class="st8" cx="347" cy="98" r="4"/>
    <circle id="_楕円形_18" data-name="楕円形_18" class="st8" cx="191" cy="98" r="4"/>
  </g>
  <g id="_グループ_32191" data-name="グループ_32191">
    <circle id="_楕円形_17-2" data-name="楕円形_17-2" class="st8" cx="347" cy="440" r="4"/>
    <circle id="_楕円形_18-2" data-name="楕円形_18-2" class="st8" cx="191" cy="440" r="4"/>
  </g>
  <g id="_グループ_32192" data-name="グループ_32192">
    <circle id="_楕円形_17-3" data-name="楕円形_17-3" class="st8" cx="440" cy="191" r="4"/>
    <circle id="_楕円形_18-3" data-name="楕円形_18-3" class="st8" cx="440" cy="347" r="4"/>
  </g>
  <g id="_グループ_32193" data-name="グループ_32193">
    <circle id="_楕円形_17-4" data-name="楕円形_17-4" class="st8" cx="99" cy="191" r="4"/>
    <circle id="_楕円形_18-4" data-name="楕円形_18-4" class="st8" cx="99" cy="347" r="4"/>
  </g>
</svg>